<svg width="956" height="174" viewBox="0 0 956 174" fill="none" xmlns="http://www.w3.org/2000/svg">
<path d="M7.373 137V128.168L27.469 125.736V79.272L9.805 77.48V68.008H38.093L39.885 80.296H40.525C42.9143 75.944 45.6023 72.616 48.589 70.312C51.661 67.9227 55.5863 66.728 60.365 66.728C62.8397 66.728 65.1863 66.9413 67.405 67.368C69.709 67.7947 71.8423 68.4773 73.805 69.416L70.221 81.576C68.8557 80.8933 67.2343 80.3387 65.357 79.912C63.565 79.4 61.645 79.144 59.597 79.144C55.8423 79.144 52.557 80.2107 49.741 82.344C47.0103 84.4773 44.877 87.336 43.341 90.92C41.8903 94.504 41.165 98.472 41.165 102.824V125.736L60.621 128.168V137H7.373ZM99.867 138.28C92.955 138.28 87.4937 136.531 83.483 133.032C79.4723 129.533 77.467 124.456 77.467 117.8C77.467 112.765 78.619 108.627 80.923 105.384C83.3123 102.056 86.7683 99.5813 91.291 97.96C95.899 96.2533 101.446 95.3147 107.931 95.144L122.907 94.76V91.816C122.907 86.5253 121.456 82.856 118.555 80.808C115.739 78.76 111.814 77.736 106.779 77.736C103.28 77.736 99.867 78.1627 96.539 79.016C93.211 79.8693 89.9257 81.1067 86.683 82.728L82.203 72.744C85.6163 71.0373 89.371 69.6293 93.467 68.52C97.6483 67.3253 102.299 66.728 107.419 66.728C116.379 66.728 123.291 68.6907 128.155 72.616C133.019 76.5413 135.451 82.6427 135.451 90.92V137H124.827L123.035 127.656H122.523C120.56 130.131 118.427 132.136 116.123 133.672C113.904 135.208 111.43 136.36 108.699 137.128C105.968 137.896 103.024 138.28 99.867 138.28ZM103.195 127.4C106.779 127.4 110.064 126.76 113.051 125.48C116.038 124.115 118.427 122.152 120.219 119.592C122.011 116.947 122.907 113.704 122.907 109.864V103.848L111.131 104.104C106.267 104.275 102.299 104.872 99.227 105.896C96.2403 106.92 94.0217 108.371 92.571 110.248C91.2057 112.125 90.523 114.387 90.523 117.032C90.523 120.701 91.675 123.347 93.979 124.968C96.3683 126.589 99.4403 127.4 103.195 127.4ZM147.817 137V128.168L171.881 125.736V79.272L150.249 77.48V68.008H185.577V125.736L207.849 128.168V137H147.817ZM177.897 56.872C175.252 56.872 173.076 56.1467 171.369 54.696C169.748 53.16 168.937 50.9413 168.937 48.04C168.937 45.0533 169.748 42.8347 171.369 41.384C173.076 39.848 175.294 39.08 178.025 39.08C180.67 39.08 182.804 39.848 184.425 41.384C186.132 42.8347 186.985 45.0533 186.985 48.04C186.985 50.9413 186.132 53.16 184.425 54.696C182.804 56.1467 180.628 56.872 177.897 56.872ZM216.887 137V128.168L241.335 125.736V50.984L218.807 48.68V39.72H255.031V125.736L276.919 128.168V137H216.887ZM293.381 141.992L284.549 136.872L342.277 41L350.853 46.12L293.381 141.992ZM317.317 138.28C311.514 138.28 306.522 137.171 302.341 134.952C298.245 132.733 294.832 129.576 292.101 125.48C289.37 121.299 287.365 116.349 286.085 110.632C284.89 104.829 284.293 98.3867 284.293 91.304C284.293 81.7467 285.445 73.4267 287.749 66.344C290.053 59.2613 293.637 53.8 298.501 49.96C303.45 46.0347 309.765 44.072 317.445 44.072C323.248 44.072 328.24 45.1813 332.421 47.4C336.602 49.5333 340.016 52.6907 342.661 56.872C345.392 61.0533 347.397 66.0027 348.677 71.72C349.957 77.4373 350.597 83.88 350.597 91.048C350.597 98.216 349.957 104.701 348.677 110.504C347.397 116.307 345.392 121.299 342.661 125.48C340.016 129.576 336.56 132.733 332.293 134.952C328.112 137.171 323.12 138.28 317.317 138.28ZM317.573 126.376C322.266 126.376 326.021 125.011 328.837 122.28C331.653 119.464 333.658 115.453 334.853 110.248C336.133 104.957 336.773 98.6 336.773 91.176C336.773 79.9973 335.322 71.336 332.421 65.192C329.52 59.048 324.57 55.976 317.573 55.976C312.88 55.976 309.082 57.384 306.181 60.2C303.365 62.9307 301.317 66.9413 300.037 72.232C298.757 77.4373 298.117 83.752 298.117 91.176C298.117 98.6 298.757 104.957 300.037 110.248C301.317 115.453 303.365 119.464 306.181 122.28C309.082 125.011 312.88 126.376 317.573 126.376Z" fill="white"/>
<path d="M409.64 72V43.44H418.16C421.547 43.44 424.027 44.1867 425.6 45.68C427.173 47.1467 427.96 49.24 427.96 51.96C427.96 53.6133 427.627 55.16 426.96 56.6C426.32 58.0133 425.24 59.1467 423.72 60C422.227 60.8267 420.213 61.24 417.68 61.24H413.8V72H409.64ZM417.24 57.6C418.68 57.6 419.88 57.4133 420.84 57.04C421.8 56.64 422.507 56.04 422.96 55.24C423.44 54.44 423.68 53.4133 423.68 52.16C423.68 50.3467 423.213 49.0533 422.28 48.28C421.347 47.48 419.88 47.08 417.88 47.08H413.8V57.6H417.24ZM441.224 72.4C438.851 72.4 436.811 71.9733 435.104 71.12C433.424 70.24 432.131 68.9733 431.224 67.32C430.318 65.6667 429.864 63.64 429.864 61.24C429.864 58.92 430.278 56.9333 431.104 55.28C431.958 53.6 433.144 52.3067 434.664 51.4C436.184 50.4933 437.984 50.04 440.064 50.04C441.984 50.04 443.624 50.4533 444.984 51.28C446.371 52.1067 447.438 53.28 448.184 54.8C448.931 56.2933 449.304 58.0933 449.304 60.2V62.2H434.104C434.158 63.8267 434.504 65.1333 435.144 66.12C435.784 67.1067 436.651 67.8267 437.744 68.28C438.838 68.7067 440.091 68.92 441.504 68.92C442.624 68.92 443.758 68.7733 444.904 68.48C446.078 68.16 447.251 67.7467 448.424 67.24V70.88C447.224 71.4133 446.011 71.8 444.784 72.04C443.558 72.28 442.371 72.4 441.224 72.4ZM445.224 59C445.198 57.8267 444.971 56.8267 444.544 56C444.144 55.1733 443.571 54.5333 442.824 54.08C442.078 53.6267 441.171 53.4 440.104 53.4C438.478 53.4 437.144 53.9067 436.104 54.92C435.064 55.9067 434.424 57.2667 434.184 59H445.224ZM451.409 72V69.24L457.689 68.48V53.96L452.169 53.4V50.44H461.009L461.569 54.28H461.769C462.515 52.92 463.355 51.88 464.289 51.16C465.249 50.4133 466.475 50.04 467.969 50.04C468.742 50.04 469.475 50.1067 470.169 50.24C470.889 50.3733 471.555 50.5867 472.169 50.88L471.049 54.68C470.622 54.4667 470.115 54.2933 469.529 54.16C468.969 54 468.369 53.92 467.729 53.92C466.555 53.92 465.529 54.2533 464.649 54.92C463.795 55.5867 463.129 56.48 462.649 57.6C462.195 58.72 461.969 59.96 461.969 61.32V68.48L468.049 69.24V72H451.409ZM472.513 72V50.44H475.433L475.993 52.92H476.193C476.54 52.2 476.9 51.64 477.273 51.24C477.673 50.8133 478.113 50.5067 478.593 50.32C479.073 50.1333 479.606 50.04 480.193 50.04C481.313 50.04 482.166 50.32 482.753 50.88C483.366 51.4133 483.82 52.2133 484.113 53.28H484.273C484.726 52.24 485.286 51.44 485.953 50.88C486.646 50.32 487.553 50.04 488.673 50.04C489.793 50.04 490.66 50.3333 491.273 50.92C491.913 51.48 492.366 52.3467 492.633 53.52C492.9 54.6667 493.033 56.1467 493.033 57.96V72H489.273V58.04C489.273 57.1067 489.233 56.32 489.153 55.68C489.073 55.04 488.9 54.5467 488.633 54.2C488.366 53.8267 487.94 53.64 487.353 53.64C486.766 53.64 486.273 53.8933 485.873 54.4C485.473 54.88 485.166 55.6133 484.953 56.6C484.766 57.56 484.673 58.7867 484.673 60.28V72H480.913V58.04C480.913 57.08 480.846 56.28 480.713 55.64C480.606 55 480.406 54.5067 480.113 54.16C479.82 53.8133 479.38 53.64 478.793 53.64C478.153 53.64 477.646 53.9067 477.273 54.44C476.9 54.9733 476.633 55.7333 476.473 56.72C476.313 57.68 476.233 58.8667 476.233 60.28V72H472.513ZM495.298 72V69.24L502.818 68.48V53.96L496.058 53.4V50.44H507.098V68.48L514.058 69.24V72H495.298ZM504.698 46.96C503.871 46.96 503.191 46.7333 502.658 46.28C502.151 45.8 501.898 45.1067 501.898 44.2C501.898 43.2667 502.151 42.5733 502.658 42.12C503.191 41.64 503.884 41.4 504.738 41.4C505.564 41.4 506.231 41.64 506.738 42.12C507.271 42.5733 507.538 43.2667 507.538 44.2C507.538 45.1067 507.271 45.8 506.738 46.28C506.231 46.7333 505.551 46.96 504.698 46.96ZM525.002 72.4C523.669 72.4 522.389 72.28 521.162 72.04C519.935 71.8267 518.829 71.5067 517.842 71.08V67.12C518.829 67.5733 519.935 67.9867 521.162 68.36C522.389 68.7067 523.775 68.88 525.322 68.88C526.869 68.88 527.989 68.6533 528.682 68.2C529.375 67.7467 529.722 67.0667 529.722 66.16C529.722 65.6 529.575 65.1467 529.282 64.8C528.989 64.4533 528.469 64.1067 527.722 63.76C527.002 63.4133 525.975 62.9733 524.642 62.44C523.335 61.8533 522.189 61.2933 521.202 60.76C520.215 60.2267 519.455 59.5867 518.922 58.84C518.389 58.0933 518.122 57.1333 518.122 55.96C518.122 54.6267 518.469 53.52 519.162 52.64C519.855 51.76 520.829 51.1067 522.082 50.68C523.362 50.2533 524.855 50.04 526.562 50.04C527.815 50.04 529.029 50.16 530.202 50.4C531.375 50.64 532.562 51.0133 533.762 51.52L532.482 54.8C531.362 54.3467 530.322 54.0267 529.362 53.84C528.429 53.6533 527.482 53.56 526.522 53.56C525.082 53.56 524.015 53.7467 523.322 54.12C522.655 54.4667 522.322 55.04 522.322 55.84C522.322 56.4 522.495 56.8667 522.842 57.24C523.189 57.6133 523.735 57.9733 524.482 58.32C525.229 58.64 526.189 59.0533 527.362 59.56C528.722 60.0933 529.895 60.6133 530.882 61.12C531.895 61.6267 532.669 62.2667 533.202 63.04C533.735 63.7867 534.002 64.8133 534.002 66.12C534.002 67.5067 533.655 68.6667 532.962 69.6C532.295 70.5333 531.295 71.24 529.962 71.72C528.629 72.1733 526.975 72.4 525.002 72.4ZM546.586 72.4C545.253 72.4 543.973 72.28 542.746 72.04C541.52 71.8267 540.413 71.5067 539.426 71.08V67.12C540.413 67.5733 541.52 67.9867 542.746 68.36C543.973 68.7067 545.36 68.88 546.906 68.88C548.453 68.88 549.573 68.6533 550.266 68.2C550.96 67.7467 551.306 67.0667 551.306 66.16C551.306 65.6 551.16 65.1467 550.866 64.8C550.573 64.4533 550.053 64.1067 549.306 63.76C548.586 63.4133 547.56 62.9733 546.226 62.44C544.92 61.8533 543.773 61.2933 542.786 60.76C541.8 60.2267 541.04 59.5867 540.506 58.84C539.973 58.0933 539.706 57.1333 539.706 55.96C539.706 54.6267 540.053 53.52 540.746 52.64C541.44 51.76 542.413 51.1067 543.666 50.68C544.946 50.2533 546.44 50.04 548.146 50.04C549.4 50.04 550.613 50.16 551.786 50.4C552.96 50.64 554.146 51.0133 555.346 51.52L554.066 54.8C552.946 54.3467 551.906 54.0267 550.946 53.84C550.013 53.6533 549.066 53.56 548.106 53.56C546.666 53.56 545.6 53.7467 544.906 54.12C544.24 54.4667 543.906 55.04 543.906 55.84C543.906 56.4 544.08 56.8667 544.426 57.24C544.773 57.6133 545.32 57.9733 546.066 58.32C546.813 58.64 547.773 59.0533 548.946 59.56C550.306 60.0933 551.48 60.6133 552.466 61.12C553.48 61.6267 554.253 62.2667 554.786 63.04C555.32 63.7867 555.586 64.8133 555.586 66.12C555.586 67.5067 555.24 68.6667 554.546 69.6C553.88 70.5333 552.88 71.24 551.546 71.72C550.213 72.1733 548.56 72.4 546.586 72.4ZM560.051 72V69.24L567.571 68.48V53.96L560.811 53.4V50.44H571.851V68.48L578.811 69.24V72H560.051ZM569.451 46.96C568.624 46.96 567.944 46.7333 567.411 46.28C566.904 45.8 566.651 45.1067 566.651 44.2C566.651 43.2667 566.904 42.5733 567.411 42.12C567.944 41.64 568.637 41.4 569.491 41.4C570.317 41.4 570.984 41.64 571.491 42.12C572.024 42.5733 572.291 43.2667 572.291 44.2C572.291 45.1067 572.024 45.8 571.491 46.28C570.984 46.7333 570.304 46.96 569.451 46.96ZM590.715 72.4C589.248 72.4 587.902 72.16 586.675 71.68C585.448 71.2 584.382 70.4933 583.475 69.56C582.595 68.6 581.915 67.4267 581.435 66.04C580.955 64.6533 580.715 63.04 580.715 61.2C580.715 58.7467 581.128 56.7067 581.955 55.08C582.808 53.4267 583.982 52.1733 585.475 51.32C586.968 50.4667 588.688 50.04 590.635 50.04C592.582 50.04 594.302 50.4667 595.795 51.32C597.315 52.1467 598.502 53.3867 599.355 55.04C600.208 56.6933 600.635 58.76 600.635 61.24C600.635 63.0533 600.395 64.6533 599.915 66.04C599.435 67.4267 598.755 68.6 597.875 69.56C597.022 70.4933 595.982 71.2 594.755 71.68C593.555 72.16 592.208 72.4 590.715 72.4ZM590.715 68.96C591.968 68.96 593.008 68.6533 593.835 68.04C594.688 67.4 595.315 66.4933 595.715 65.32C596.142 64.1467 596.355 62.7733 596.355 61.2C596.355 59.6 596.142 58.2267 595.715 57.08C595.315 55.9333 594.688 55.0533 593.835 54.44C593.008 53.8 591.955 53.48 590.675 53.48C588.755 53.48 587.315 54.1733 586.355 55.56C585.422 56.92 584.955 58.8 584.955 61.2C584.955 62.7733 585.168 64.1467 585.595 65.32C586.022 66.4933 586.662 67.4 587.515 68.04C588.368 68.6533 589.435 68.96 590.715 68.96ZM603.179 72V50.44H606.499L607.139 53.48H607.379C607.806 52.7067 608.353 52.0667 609.019 51.56C609.686 51.0533 610.459 50.68 611.339 50.44C612.246 50.1733 613.219 50.04 614.259 50.04C616.499 50.04 618.273 50.68 619.579 51.96C620.886 53.2133 621.539 55.1333 621.539 57.72V72H617.299V58.6C617.299 56.84 616.939 55.56 616.219 54.76C615.526 53.9333 614.433 53.52 612.939 53.52C610.939 53.52 609.513 54.2 608.659 55.56C607.833 56.92 607.419 58.8 607.419 61.2V72H603.179ZM624.804 72V69.24L632.444 68.48V45.12L625.404 44.4V41.6H636.724V68.48L643.564 69.24V72H624.804ZM657.068 72.4C654.695 72.4 652.655 71.9733 650.948 71.12C649.268 70.24 647.975 68.9733 647.068 67.32C646.161 65.6667 645.708 63.64 645.708 61.24C645.708 58.92 646.121 56.9333 646.948 55.28C647.801 53.6 648.988 52.3067 650.508 51.4C652.028 50.4933 653.828 50.04 655.908 50.04C657.828 50.04 659.468 50.4533 660.828 51.28C662.215 52.1067 663.281 53.28 664.028 54.8C664.775 56.2933 665.148 58.0933 665.148 60.2V62.2H649.948C650.001 63.8267 650.348 65.1333 650.988 66.12C651.628 67.1067 652.495 67.8267 653.588 68.28C654.681 68.7067 655.935 68.92 657.348 68.92C658.468 68.92 659.601 68.7733 660.748 68.48C661.921 68.16 663.095 67.7467 664.268 67.24V70.88C663.068 71.4133 661.855 71.8 660.628 72.04C659.401 72.28 658.215 72.4 657.068 72.4ZM661.068 59C661.041 57.8267 660.815 56.8267 660.388 56C659.988 55.1733 659.415 54.5333 658.668 54.08C657.921 53.6267 657.015 53.4 655.948 53.4C654.321 53.4 652.988 53.9067 651.948 54.92C650.908 55.9067 650.268 57.2667 650.028 59H661.068ZM676.093 72.4C674.759 72.4 673.479 72.28 672.253 72.04C671.026 71.8267 669.919 71.5067 668.933 71.08V67.12C669.919 67.5733 671.026 67.9867 672.253 68.36C673.479 68.7067 674.866 68.88 676.413 68.88C677.959 68.88 679.079 68.6533 679.773 68.2C680.466 67.7467 680.813 67.0667 680.813 66.16C680.813 65.6 680.666 65.1467 680.373 64.8C680.079 64.4533 679.559 64.1067 678.813 63.76C678.093 63.4133 677.066 62.9733 675.733 62.44C674.426 61.8533 673.279 61.2933 672.293 60.76C671.306 60.2267 670.546 59.5867 670.013 58.84C669.479 58.0933 669.213 57.1333 669.213 55.96C669.213 54.6267 669.559 53.52 670.253 52.64C670.946 51.76 671.919 51.1067 673.173 50.68C674.453 50.2533 675.946 50.04 677.653 50.04C678.906 50.04 680.119 50.16 681.293 50.4C682.466 50.64 683.653 51.0133 684.853 51.52L683.573 54.8C682.453 54.3467 681.413 54.0267 680.453 53.84C679.519 53.6533 678.573 53.56 677.613 53.56C676.173 53.56 675.106 53.7467 674.413 54.12C673.746 54.4667 673.413 55.04 673.413 55.84C673.413 56.4 673.586 56.8667 673.933 57.24C674.279 57.6133 674.826 57.9733 675.573 58.32C676.319 58.64 677.279 59.0533 678.453 59.56C679.813 60.0933 680.986 60.6133 681.973 61.12C682.986 61.6267 683.759 62.2667 684.293 63.04C684.826 63.7867 685.093 64.8133 685.093 66.12C685.093 67.5067 684.746 68.6667 684.053 69.6C683.386 70.5333 682.386 71.24 681.053 71.72C679.719 72.1733 678.066 72.4 676.093 72.4ZM697.677 72.4C696.344 72.4 695.064 72.28 693.837 72.04C692.61 71.8267 691.504 71.5067 690.517 71.08V67.12C691.504 67.5733 692.61 67.9867 693.837 68.36C695.064 68.7067 696.45 68.88 697.997 68.88C699.544 68.88 700.664 68.6533 701.357 68.2C702.05 67.7467 702.397 67.0667 702.397 66.16C702.397 65.6 702.25 65.1467 701.957 64.8C701.664 64.4533 701.144 64.1067 700.397 63.76C699.677 63.4133 698.65 62.9733 697.317 62.44C696.01 61.8533 694.864 61.2933 693.877 60.76C692.89 60.2267 692.13 59.5867 691.597 58.84C691.064 58.0933 690.797 57.1333 690.797 55.96C690.797 54.6267 691.144 53.52 691.837 52.64C692.53 51.76 693.504 51.1067 694.757 50.68C696.037 50.2533 697.53 50.04 699.237 50.04C700.49 50.04 701.704 50.16 702.877 50.4C704.05 50.64 705.237 51.0133 706.437 51.52L705.157 54.8C704.037 54.3467 702.997 54.0267 702.037 53.84C701.104 53.6533 700.157 53.56 699.197 53.56C697.757 53.56 696.69 53.7467 695.997 54.12C695.33 54.4667 694.997 55.04 694.997 55.84C694.997 56.4 695.17 56.8667 695.517 57.24C695.864 57.6133 696.41 57.9733 697.157 58.32C697.904 58.64 698.864 59.0533 700.037 59.56C701.397 60.0933 702.57 60.6133 703.557 61.12C704.57 61.6267 705.344 62.2667 705.877 63.04C706.41 63.7867 706.677 64.8133 706.677 66.12C706.677 67.5067 706.33 68.6667 705.637 69.6C704.97 70.5333 703.97 71.24 702.637 71.72C701.304 72.1733 699.65 72.4 697.677 72.4ZM740.846 72.4C739.512 72.4 738.232 72.28 737.006 72.04C735.779 71.8267 734.672 71.5067 733.686 71.08V67.12C734.672 67.5733 735.779 67.9867 737.006 68.36C738.232 68.7067 739.619 68.88 741.166 68.88C742.712 68.88 743.832 68.6533 744.526 68.2C745.219 67.7467 745.566 67.0667 745.566 66.16C745.566 65.6 745.419 65.1467 745.126 64.8C744.832 64.4533 744.312 64.1067 743.566 63.76C742.846 63.4133 741.819 62.9733 740.486 62.44C739.179 61.8533 738.032 61.2933 737.046 60.76C736.059 60.2267 735.299 59.5867 734.766 58.84C734.232 58.0933 733.966 57.1333 733.966 55.96C733.966 54.6267 734.312 53.52 735.006 52.64C735.699 51.76 736.672 51.1067 737.926 50.68C739.206 50.2533 740.699 50.04 742.406 50.04C743.659 50.04 744.872 50.16 746.046 50.4C747.219 50.64 748.406 51.0133 749.606 51.52L748.326 54.8C747.206 54.3467 746.166 54.0267 745.206 53.84C744.272 53.6533 743.326 53.56 742.366 53.56C740.926 53.56 739.859 53.7467 739.166 54.12C738.499 54.4667 738.166 55.04 738.166 55.84C738.166 56.4 738.339 56.8667 738.686 57.24C739.032 57.6133 739.579 57.9733 740.326 58.32C741.072 58.64 742.032 59.0533 743.206 59.56C744.566 60.0933 745.739 60.6133 746.726 61.12C747.739 61.6267 748.512 62.2667 749.046 63.04C749.579 63.7867 749.846 64.8133 749.846 66.12C749.846 67.5067 749.499 68.6667 748.806 69.6C748.139 70.5333 747.139 71.24 745.806 71.72C744.472 72.1733 742.819 72.4 740.846 72.4ZM767.31 72.4C765.683 72.4 764.257 72.1867 763.03 71.76C761.803 71.3067 760.843 70.56 760.15 69.52C759.483 68.4533 759.15 67.0133 759.15 65.2V53.96H753.55V51.16L759.27 50.36L760.07 44.8H763.39V50.44H771.71V53.96H763.39V64.52C763.39 65.5867 763.55 66.44 763.87 67.08C764.19 67.72 764.683 68.1867 765.35 68.48C766.017 68.7733 766.83 68.92 767.79 68.92C768.483 68.92 769.203 68.8533 769.95 68.72C770.723 68.5867 771.47 68.4533 772.19 68.32V71.68C771.443 71.8933 770.657 72.0667 769.83 72.2C769.003 72.3333 768.163 72.4 767.31 72.4ZM782.494 72.4C780.334 72.4 778.628 71.8533 777.374 70.76C776.121 69.6667 775.494 68.08 775.494 66C775.494 64.4267 775.854 63.1333 776.574 62.12C777.321 61.08 778.401 60.3067 779.814 59.8C781.254 59.2667 782.988 58.9733 785.014 58.92L789.694 58.8V57.88C789.694 56.2267 789.241 55.08 788.334 54.44C787.454 53.8 786.228 53.48 784.654 53.48C783.561 53.48 782.494 53.6133 781.454 53.88C780.414 54.1467 779.388 54.5333 778.374 55.04L776.974 51.92C778.041 51.3867 779.214 50.9467 780.494 50.6C781.801 50.2267 783.254 50.04 784.854 50.04C787.654 50.04 789.814 50.6533 791.334 51.88C792.854 53.1067 793.614 55.0133 793.614 57.6V72H790.294L789.734 69.08H789.574C788.961 69.8533 788.294 70.48 787.574 70.96C786.881 71.44 786.108 71.8 785.254 72.04C784.401 72.28 783.481 72.4 782.494 72.4ZM783.534 69C784.654 69 785.681 68.8 786.614 68.4C787.548 67.9733 788.294 67.36 788.854 66.56C789.414 65.7333 789.694 64.72 789.694 63.52V61.64L786.014 61.72C784.494 61.7733 783.254 61.96 782.294 62.28C781.361 62.6 780.668 63.0533 780.214 63.64C779.788 64.2267 779.574 64.9333 779.574 65.76C779.574 66.9067 779.934 67.7333 780.654 68.24C781.401 68.7467 782.361 69 783.534 69ZM807.959 72.4C806.492 72.4 805.212 72.1067 804.119 71.52C803.052 70.9333 802.185 70.2133 801.519 69.36H801.239L800.759 72H797.439V41.6H801.559V48.88C801.559 49.52 801.545 50.2133 801.519 50.96C801.492 51.68 801.439 52.44 801.359 53.24H801.559C802.145 52.3333 802.985 51.5733 804.079 50.96C805.172 50.3467 806.479 50.04 807.999 50.04C809.332 50.04 810.519 50.2933 811.559 50.8C812.625 51.28 813.519 52.0133 814.239 53C814.959 53.96 815.505 55.1333 815.879 56.52C816.279 57.88 816.479 59.4267 816.479 61.16C816.479 62.9467 816.279 64.5333 815.879 65.92C815.505 67.3067 814.945 68.48 814.199 69.44C813.479 70.4 812.585 71.1333 811.519 71.64C810.479 72.1467 809.292 72.4 807.959 72.4ZM806.919 68.92C808.705 68.92 810.025 68.2667 810.879 66.96C811.732 65.6267 812.159 63.6933 812.159 61.16C812.159 58.6533 811.732 56.76 810.879 55.48C810.025 54.1733 808.692 53.52 806.879 53.52C805.199 53.52 803.892 54.16 802.959 55.44C802.025 56.6933 801.559 58.5867 801.559 61.12C801.559 63.68 801.999 65.6267 802.879 66.96C803.785 68.2667 805.132 68.92 806.919 68.92ZM819.063 72V69.24L826.703 68.48V45.12L819.663 44.4V41.6H830.983V68.48L837.823 69.24V72H819.063ZM851.328 72.4C848.954 72.4 846.914 71.9733 845.208 71.12C843.528 70.24 842.234 68.9733 841.328 67.32C840.421 65.6667 839.968 63.64 839.968 61.24C839.968 58.92 840.381 56.9333 841.208 55.28C842.061 53.6 843.248 52.3067 844.768 51.4C846.288 50.4933 848.088 50.04 850.168 50.04C852.088 50.04 853.728 50.4533 855.088 51.28C856.474 52.1067 857.541 53.28 858.288 54.8C859.034 56.2933 859.408 58.0933 859.408 60.2V62.2H844.208C844.261 63.8267 844.608 65.1333 845.248 66.12C845.888 67.1067 846.754 67.8267 847.848 68.28C848.941 68.7067 850.194 68.92 851.608 68.92C852.728 68.92 853.861 68.7733 855.008 68.48C856.181 68.16 857.354 67.7467 858.528 67.24V70.88C857.328 71.4133 856.114 71.8 854.888 72.04C853.661 72.28 852.474 72.4 851.328 72.4ZM855.328 59C855.301 57.8267 855.074 56.8267 854.648 56C854.248 55.1733 853.674 54.5333 852.928 54.08C852.181 53.6267 851.274 53.4 850.208 53.4C848.581 53.4 847.248 53.9067 846.208 54.92C845.168 55.9067 844.528 57.2667 844.288 59H855.328ZM872.792 72.4C870.605 72.4 868.739 72.0133 867.192 71.24C865.672 70.4667 864.512 69.2667 863.712 67.64C862.912 66.0133 862.512 63.9333 862.512 61.4C862.512 58.7333 862.939 56.56 863.792 54.88C864.672 53.2 865.912 51.9733 867.512 51.2C869.112 50.4267 870.979 50.04 873.112 50.04C874.312 50.04 875.459 50.16 876.552 50.4C877.645 50.64 878.672 51 879.632 51.48L878.392 54.92C877.485 54.4667 876.619 54.1467 875.792 53.96C874.965 53.7733 874.139 53.68 873.312 53.68C871.819 53.68 870.592 53.9733 869.632 54.56C868.672 55.12 867.965 55.96 867.512 57.08C867.059 58.2 866.832 59.6133 866.832 61.32C866.832 63.08 867.072 64.5067 867.552 65.6C868.032 66.6933 868.752 67.4933 869.712 68C870.672 68.5067 871.859 68.76 873.272 68.76C874.339 68.76 875.379 68.64 876.392 68.4C877.432 68.1333 878.392 67.7867 879.272 67.36V71.12C878.365 71.5467 877.339 71.8667 876.192 72.08C875.072 72.2933 873.939 72.4 872.792 72.4ZM892.896 72.4C891.43 72.4 890.083 72.16 888.856 71.68C887.63 71.2 886.563 70.4933 885.656 69.56C884.776 68.6 884.096 67.4267 883.616 66.04C883.136 64.6533 882.896 63.04 882.896 61.2C882.896 58.7467 883.31 56.7067 884.136 55.08C884.99 53.4267 886.163 52.1733 887.656 51.32C889.15 50.4667 890.87 50.04 892.816 50.04C894.763 50.04 896.483 50.4667 897.976 51.32C899.496 52.1467 900.683 53.3867 901.536 55.04C902.39 56.6933 902.816 58.76 902.816 61.24C902.816 63.0533 902.576 64.6533 902.096 66.04C901.616 67.4267 900.936 68.6 900.056 69.56C899.203 70.4933 898.163 71.2 896.936 71.68C895.736 72.16 894.39 72.4 892.896 72.4ZM892.896 68.96C894.15 68.96 895.19 68.6533 896.016 68.04C896.87 67.4 897.496 66.4933 897.896 65.32C898.323 64.1467 898.536 62.7733 898.536 61.2C898.536 59.6 898.323 58.2267 897.896 57.08C897.496 55.9333 896.87 55.0533 896.016 54.44C895.19 53.8 894.136 53.48 892.856 53.48C890.936 53.48 889.496 54.1733 888.536 55.56C887.603 56.92 887.136 58.8 887.136 61.2C887.136 62.7733 887.35 64.1467 887.776 65.32C888.203 66.4933 888.843 67.4 889.696 68.04C890.55 68.6533 891.616 68.96 892.896 68.96ZM905.401 72V69.24L912.921 68.48V53.96L906.161 53.4V50.44H917.201V68.48L924.161 69.24V72H905.401ZM914.801 46.96C913.974 46.96 913.294 46.7333 912.761 46.28C912.254 45.8 912.001 45.1067 912.001 44.2C912.001 43.2667 912.254 42.5733 912.761 42.12C913.294 41.64 913.987 41.4 914.841 41.4C915.667 41.4 916.334 41.64 916.841 42.12C917.374 42.5733 917.641 43.2667 917.641 44.2C917.641 45.1067 917.374 45.8 916.841 46.28C916.334 46.7333 915.654 46.96 914.801 46.96ZM926.945 72V50.44H930.265L930.905 53.48H931.145C931.572 52.7067 932.118 52.0667 932.785 51.56C933.452 51.0533 934.225 50.68 935.105 50.44C936.012 50.1733 936.985 50.04 938.025 50.04C940.265 50.04 942.038 50.68 943.345 51.96C944.652 53.2133 945.305 55.1333 945.305 57.72V72H941.065V58.6C941.065 56.84 940.705 55.56 939.985 54.76C939.292 53.9333 938.198 53.52 936.705 53.52C934.705 53.52 933.278 54.2 932.425 55.56C931.598 56.92 931.185 58.8 931.185 61.2V72H926.945ZM408.92 135.6V104.44H412.28L412.88 107.32H413.08C413.533 106.627 414.067 106.04 414.68 105.56C415.293 105.053 416 104.68 416.8 104.44C417.6 104.173 418.507 104.04 419.52 104.04C420.853 104.04 422.04 104.293 423.08 104.8C424.147 105.28 425.04 106.013 425.76 107C426.48 107.96 427.027 109.133 427.4 110.52C427.773 111.88 427.96 113.44 427.96 115.2C427.96 117.6 427.613 119.64 426.92 121.32C426.227 123 425.24 124.267 423.96 125.12C422.68 125.973 421.173 126.4 419.44 126.4C418.48 126.4 417.6 126.267 416.8 126C416 125.733 415.293 125.373 414.68 124.92C414.067 124.44 413.533 123.92 413.08 123.36H412.84C412.947 123.973 413.013 124.56 413.04 125.12C413.067 125.653 413.08 126.12 413.08 126.52V135.6H408.92ZM418.36 122.92C420.2 122.92 421.533 122.28 422.36 121C423.187 119.72 423.6 117.76 423.6 115.12C423.6 112.56 423.187 110.653 422.36 109.4C421.56 108.147 420.213 107.52 418.32 107.52C416.56 107.52 415.24 108.12 414.36 109.32C413.507 110.493 413.08 112.187 413.08 114.4V115.16C413.08 117.613 413.48 119.52 414.28 120.88C415.08 122.24 416.44 122.92 418.36 122.92ZM437.144 126.4C434.984 126.4 433.278 125.853 432.024 124.76C430.771 123.667 430.144 122.08 430.144 120C430.144 118.427 430.504 117.133 431.224 116.12C431.971 115.08 433.051 114.307 434.464 113.8C435.904 113.267 437.638 112.973 439.664 112.92L444.344 112.8V111.88C444.344 110.227 443.891 109.08 442.984 108.44C442.104 107.8 440.878 107.48 439.304 107.48C438.211 107.48 437.144 107.613 436.104 107.88C435.064 108.147 434.038 108.533 433.024 109.04L431.624 105.92C432.691 105.387 433.864 104.947 435.144 104.6C436.451 104.227 437.904 104.04 439.504 104.04C442.304 104.04 444.464 104.653 445.984 105.88C447.504 107.107 448.264 109.013 448.264 111.6V126H444.944L444.384 123.08H444.224C443.611 123.853 442.944 124.48 442.224 124.96C441.531 125.44 440.758 125.8 439.904 126.04C439.051 126.28 438.131 126.4 437.144 126.4ZM438.184 123C439.304 123 440.331 122.8 441.264 122.4C442.198 121.973 442.944 121.36 443.504 120.56C444.064 119.733 444.344 118.72 444.344 117.52V115.64L440.664 115.72C439.144 115.773 437.904 115.96 436.944 116.28C436.011 116.6 435.318 117.053 434.864 117.64C434.438 118.227 434.224 118.933 434.224 119.76C434.224 120.907 434.584 121.733 435.304 122.24C436.051 122.747 437.011 123 438.184 123ZM454.569 135.8C454.062 135.8 453.555 135.76 453.049 135.68C452.542 135.627 452.089 135.56 451.689 135.48V132.08C452.009 132.133 452.382 132.187 452.809 132.24C453.235 132.293 453.635 132.32 454.009 132.32C454.835 132.32 455.515 132.173 456.049 131.88C456.609 131.613 457.089 131.2 457.489 130.64C457.915 130.08 458.302 129.36 458.649 128.48L459.569 126.08L450.689 104.44H455.009L459.849 117.04C460.169 117.787 460.462 118.613 460.729 119.52C461.022 120.4 461.275 121.28 461.489 122.16H461.609C461.769 121.547 461.929 120.947 462.089 120.36C462.275 119.773 462.449 119.2 462.609 118.64C462.795 118.053 462.969 117.507 463.129 117L467.209 104.44H471.649L462.809 128.32C462.249 129.867 461.622 131.2 460.929 132.32C460.262 133.44 459.422 134.293 458.409 134.88C457.395 135.493 456.115 135.8 454.569 135.8ZM472.513 126V104.44H475.433L475.993 106.92H476.193C476.54 106.2 476.9 105.64 477.273 105.24C477.673 104.813 478.113 104.507 478.593 104.32C479.073 104.133 479.606 104.04 480.193 104.04C481.313 104.04 482.166 104.32 482.753 104.88C483.366 105.413 483.82 106.213 484.113 107.28H484.273C484.726 106.24 485.286 105.44 485.953 104.88C486.646 104.32 487.553 104.04 488.673 104.04C489.793 104.04 490.66 104.333 491.273 104.92C491.913 105.48 492.366 106.347 492.633 107.52C492.9 108.667 493.033 110.147 493.033 111.96V126H489.273V112.04C489.273 111.107 489.233 110.32 489.153 109.68C489.073 109.04 488.9 108.547 488.633 108.2C488.366 107.827 487.94 107.64 487.353 107.64C486.766 107.64 486.273 107.893 485.873 108.4C485.473 108.88 485.166 109.613 484.953 110.6C484.766 111.56 484.673 112.787 484.673 114.28V126H480.913V112.04C480.913 111.08 480.846 110.28 480.713 109.64C480.606 109 480.406 108.507 480.113 108.16C479.82 107.813 479.38 107.64 478.793 107.64C478.153 107.64 477.646 107.907 477.273 108.44C476.9 108.973 476.633 109.733 476.473 110.72C476.313 111.68 476.233 112.867 476.233 114.28V126H472.513ZM505.978 126.4C503.604 126.4 501.564 125.973 499.858 125.12C498.178 124.24 496.884 122.973 495.978 121.32C495.071 119.667 494.618 117.64 494.618 115.24C494.618 112.92 495.031 110.933 495.858 109.28C496.711 107.6 497.898 106.307 499.418 105.4C500.938 104.493 502.738 104.04 504.818 104.04C506.738 104.04 508.378 104.453 509.738 105.28C511.124 106.107 512.191 107.28 512.938 108.8C513.684 110.293 514.058 112.093 514.058 114.2V116.2H498.858C498.911 117.827 499.258 119.133 499.898 120.12C500.538 121.107 501.404 121.827 502.498 122.28C503.591 122.707 504.844 122.92 506.258 122.92C507.378 122.92 508.511 122.773 509.658 122.48C510.831 122.16 512.004 121.747 513.178 121.24V124.88C511.978 125.413 510.764 125.8 509.538 126.04C508.311 126.28 507.124 126.4 505.978 126.4ZM509.978 113C509.951 111.827 509.724 110.827 509.298 110C508.898 109.173 508.324 108.533 507.578 108.08C506.831 107.627 505.924 107.4 504.858 107.4C503.231 107.4 501.898 107.907 500.858 108.92C499.818 109.907 499.178 111.267 498.938 113H509.978ZM516.842 126V104.44H520.162L520.802 107.48H521.042C521.469 106.707 522.015 106.067 522.682 105.56C523.349 105.053 524.122 104.68 525.002 104.44C525.909 104.173 526.882 104.04 527.922 104.04C530.162 104.04 531.935 104.68 533.242 105.96C534.549 107.213 535.202 109.133 535.202 111.72V126H530.962V112.6C530.962 110.84 530.602 109.56 529.882 108.76C529.189 107.933 528.095 107.52 526.602 107.52C524.602 107.52 523.175 108.2 522.322 109.56C521.495 110.92 521.082 112.8 521.082 115.2V126H516.842ZM551.466 126.4C549.84 126.4 548.413 126.187 547.186 125.76C545.96 125.307 545 124.56 544.306 123.52C543.64 122.453 543.306 121.013 543.306 119.2V107.96H537.706V105.16L543.426 104.36L544.226 98.8H547.546V104.44H555.866V107.96H547.546V118.52C547.546 119.587 547.706 120.44 548.026 121.08C548.346 121.72 548.84 122.187 549.506 122.48C550.173 122.773 550.986 122.92 551.946 122.92C552.64 122.92 553.36 122.853 554.106 122.72C554.88 122.587 555.626 122.453 556.346 122.32V125.68C555.6 125.893 554.813 126.067 553.986 126.2C553.16 126.333 552.32 126.4 551.466 126.4ZM568.171 126.4C566.837 126.4 565.557 126.28 564.331 126.04C563.104 125.827 561.997 125.507 561.011 125.08V121.12C561.997 121.573 563.104 121.987 564.331 122.36C565.557 122.707 566.944 122.88 568.491 122.88C570.037 122.88 571.157 122.653 571.851 122.2C572.544 121.747 572.891 121.067 572.891 120.16C572.891 119.6 572.744 119.147 572.451 118.8C572.157 118.453 571.637 118.107 570.891 117.76C570.171 117.413 569.144 116.973 567.811 116.44C566.504 115.853 565.357 115.293 564.371 114.76C563.384 114.227 562.624 113.587 562.091 112.84C561.557 112.093 561.291 111.133 561.291 109.96C561.291 108.627 561.637 107.52 562.331 106.64C563.024 105.76 563.997 105.107 565.251 104.68C566.531 104.253 568.024 104.04 569.731 104.04C570.984 104.04 572.197 104.16 573.371 104.4C574.544 104.64 575.731 105.013 576.931 105.52L575.651 108.8C574.531 108.347 573.491 108.027 572.531 107.84C571.597 107.653 570.651 107.56 569.691 107.56C568.251 107.56 567.184 107.747 566.491 108.12C565.824 108.467 565.491 109.04 565.491 109.84C565.491 110.4 565.664 110.867 566.011 111.24C566.357 111.613 566.904 111.973 567.651 112.32C568.397 112.64 569.357 113.053 570.531 113.56C571.891 114.093 573.064 114.613 574.051 115.12C575.064 115.627 575.837 116.267 576.371 117.04C576.904 117.787 577.171 118.813 577.171 120.12C577.171 121.507 576.824 122.667 576.131 123.6C575.464 124.533 574.464 125.24 573.131 125.72C571.797 126.173 570.144 126.4 568.171 126.4ZM609.579 126V107.96H602.939V105.16L609.579 104.44V102.32C609.579 100.613 609.899 99.2533 610.539 98.24C611.179 97.2267 612.086 96.5067 613.259 96.08C614.459 95.6267 615.886 95.4 617.539 95.4C618.659 95.4 619.686 95.48 620.619 95.64C621.579 95.8 622.433 96 623.179 96.24L622.179 99.52C621.593 99.36 620.913 99.2267 620.139 99.12C619.393 98.9867 618.686 98.92 618.019 98.92C616.659 98.92 615.619 99.2133 614.899 99.8C614.179 100.36 613.819 101.373 613.819 102.84V104.44H621.579V107.96H613.819V126H609.579ZM633.884 126.4C632.417 126.4 631.07 126.16 629.844 125.68C628.617 125.2 627.55 124.493 626.644 123.56C625.764 122.6 625.084 121.427 624.604 120.04C624.124 118.653 623.884 117.04 623.884 115.2C623.884 112.747 624.297 110.707 625.124 109.08C625.977 107.427 627.15 106.173 628.644 105.32C630.137 104.467 631.857 104.04 633.804 104.04C635.75 104.04 637.47 104.467 638.964 105.32C640.484 106.147 641.67 107.387 642.524 109.04C643.377 110.693 643.804 112.76 643.804 115.24C643.804 117.053 643.564 118.653 643.084 120.04C642.604 121.427 641.924 122.6 641.044 123.56C640.19 124.493 639.15 125.2 637.924 125.68C636.724 126.16 635.377 126.4 633.884 126.4ZM633.884 122.96C635.137 122.96 636.177 122.653 637.004 122.04C637.857 121.4 638.484 120.493 638.884 119.32C639.31 118.147 639.524 116.773 639.524 115.2C639.524 113.6 639.31 112.227 638.884 111.08C638.484 109.933 637.857 109.053 637.004 108.44C636.177 107.8 635.124 107.48 633.844 107.48C631.924 107.48 630.484 108.173 629.524 109.56C628.59 110.92 628.124 112.8 628.124 115.2C628.124 116.773 628.337 118.147 628.764 119.32C629.19 120.493 629.83 121.4 630.684 122.04C631.537 122.653 632.604 122.96 633.884 122.96ZM645.668 126V123.24L651.948 122.48V107.96L646.428 107.4V104.44H655.268L655.828 108.28H656.028C656.775 106.92 657.615 105.88 658.548 105.16C659.508 104.413 660.735 104.04 662.228 104.04C663.001 104.04 663.735 104.107 664.428 104.24C665.148 104.373 665.815 104.587 666.428 104.88L665.308 108.68C664.881 108.467 664.375 108.293 663.788 108.16C663.228 108 662.628 107.92 661.988 107.92C660.815 107.92 659.788 108.253 658.908 108.92C658.055 109.587 657.388 110.48 656.908 111.6C656.455 112.72 656.228 113.96 656.228 115.32V122.48L662.308 123.24V126H645.668ZM700.117 126.4C697.93 126.4 696.064 126.013 694.517 125.24C692.997 124.467 691.837 123.267 691.037 121.64C690.237 120.013 689.837 117.933 689.837 115.4C689.837 112.733 690.264 110.56 691.117 108.88C691.997 107.2 693.237 105.973 694.837 105.2C696.437 104.427 698.304 104.04 700.437 104.04C701.637 104.04 702.784 104.16 703.877 104.4C704.97 104.64 705.997 105 706.957 105.48L705.717 108.92C704.81 108.467 703.944 108.147 703.117 107.96C702.29 107.773 701.464 107.68 700.637 107.68C699.144 107.68 697.917 107.973 696.957 108.56C695.997 109.12 695.29 109.96 694.837 111.08C694.384 112.2 694.157 113.613 694.157 115.32C694.157 117.08 694.397 118.507 694.877 119.6C695.357 120.693 696.077 121.493 697.037 122C697.997 122.507 699.184 122.76 700.597 122.76C701.664 122.76 702.704 122.64 703.717 122.4C704.757 122.133 705.717 121.787 706.597 121.36V125.12C705.69 125.547 704.664 125.867 703.517 126.08C702.397 126.293 701.264 126.4 700.117 126.4ZM720.221 126.4C718.755 126.4 717.408 126.16 716.181 125.68C714.955 125.2 713.888 124.493 712.981 123.56C712.101 122.6 711.421 121.427 710.941 120.04C710.461 118.653 710.221 117.04 710.221 115.2C710.221 112.747 710.635 110.707 711.461 109.08C712.315 107.427 713.488 106.173 714.981 105.32C716.475 104.467 718.195 104.04 720.141 104.04C722.088 104.04 723.808 104.467 725.301 105.32C726.821 106.147 728.008 107.387 728.861 109.04C729.715 110.693 730.141 112.76 730.141 115.24C730.141 117.053 729.901 118.653 729.421 120.04C728.941 121.427 728.261 122.6 727.381 123.56C726.528 124.493 725.488 125.2 724.261 125.68C723.061 126.16 721.715 126.4 720.221 126.4ZM720.221 122.96C721.475 122.96 722.515 122.653 723.341 122.04C724.195 121.4 724.821 120.493 725.221 119.32C725.648 118.147 725.861 116.773 725.861 115.2C725.861 113.6 725.648 112.227 725.221 111.08C724.821 109.933 724.195 109.053 723.341 108.44C722.515 107.8 721.461 107.48 720.181 107.48C718.261 107.48 716.821 108.173 715.861 109.56C714.928 110.92 714.461 112.8 714.461 115.2C714.461 116.773 714.675 118.147 715.101 119.32C715.528 120.493 716.168 121.4 717.021 122.04C717.875 122.653 718.941 122.96 720.221 122.96ZM731.526 126V104.44H734.446L735.006 106.92H735.206C735.552 106.2 735.912 105.64 736.286 105.24C736.686 104.813 737.126 104.507 737.606 104.32C738.086 104.133 738.619 104.04 739.206 104.04C740.326 104.04 741.179 104.32 741.766 104.88C742.379 105.413 742.832 106.213 743.126 107.28H743.286C743.739 106.24 744.299 105.44 744.966 104.88C745.659 104.32 746.566 104.04 747.686 104.04C748.806 104.04 749.672 104.333 750.286 104.92C750.926 105.48 751.379 106.347 751.646 107.52C751.912 108.667 752.046 110.147 752.046 111.96V126H748.286V112.04C748.286 111.107 748.246 110.32 748.166 109.68C748.086 109.04 747.912 108.547 747.646 108.2C747.379 107.827 746.952 107.64 746.366 107.64C745.779 107.64 745.286 107.893 744.886 108.4C744.486 108.88 744.179 109.613 743.966 110.6C743.779 111.56 743.686 112.787 743.686 114.28V126H739.926V112.04C739.926 111.08 739.859 110.28 739.726 109.64C739.619 109 739.419 108.507 739.126 108.16C738.832 107.813 738.392 107.64 737.806 107.64C737.166 107.64 736.659 107.907 736.286 108.44C735.912 108.973 735.646 109.733 735.486 110.72C735.326 111.68 735.246 112.867 735.246 114.28V126H731.526ZM753.11 126V104.44H756.03L756.59 106.92H756.79C757.137 106.2 757.497 105.64 757.87 105.24C758.27 104.813 758.71 104.507 759.19 104.32C759.67 104.133 760.203 104.04 760.79 104.04C761.91 104.04 762.763 104.32 763.35 104.88C763.963 105.413 764.417 106.213 764.71 107.28H764.87C765.323 106.24 765.883 105.44 766.55 104.88C767.243 104.32 768.15 104.04 769.27 104.04C770.39 104.04 771.257 104.333 771.87 104.92C772.51 105.48 772.963 106.347 773.23 107.52C773.497 108.667 773.63 110.147 773.63 111.96V126H769.87V112.04C769.87 111.107 769.83 110.32 769.75 109.68C769.67 109.04 769.497 108.547 769.23 108.2C768.963 107.827 768.537 107.64 767.95 107.64C767.363 107.64 766.87 107.893 766.47 108.4C766.07 108.88 765.763 109.613 765.55 110.6C765.363 111.56 765.27 112.787 765.27 114.28V126H761.51V112.04C761.51 111.08 761.443 110.28 761.31 109.64C761.203 109 761.003 108.507 760.71 108.16C760.417 107.813 759.977 107.64 759.39 107.64C758.75 107.64 758.243 107.907 757.87 108.44C757.497 108.973 757.23 109.733 757.07 110.72C756.91 111.68 756.83 112.867 756.83 114.28V126H753.11ZM786.574 126.4C784.201 126.4 782.161 125.973 780.454 125.12C778.774 124.24 777.481 122.973 776.574 121.32C775.668 119.667 775.214 117.64 775.214 115.24C775.214 112.92 775.628 110.933 776.454 109.28C777.308 107.6 778.494 106.307 780.014 105.4C781.534 104.493 783.334 104.04 785.414 104.04C787.334 104.04 788.974 104.453 790.334 105.28C791.721 106.107 792.788 107.28 793.534 108.8C794.281 110.293 794.654 112.093 794.654 114.2V116.2H779.454C779.508 117.827 779.854 119.133 780.494 120.12C781.134 121.107 782.001 121.827 783.094 122.28C784.188 122.707 785.441 122.92 786.854 122.92C787.974 122.92 789.108 122.773 790.254 122.48C791.428 122.16 792.601 121.747 793.774 121.24V124.88C792.574 125.413 791.361 125.8 790.134 126.04C788.908 126.28 787.721 126.4 786.574 126.4ZM790.574 113C790.548 111.827 790.321 110.827 789.894 110C789.494 109.173 788.921 108.533 788.174 108.08C787.428 107.627 786.521 107.4 785.454 107.4C783.828 107.4 782.494 107.907 781.454 108.92C780.414 109.907 779.774 111.267 779.534 113H790.574ZM796.759 126V123.24L803.039 122.48V107.96L797.519 107.4V104.44H806.359L806.919 108.28H807.119C807.865 106.92 808.705 105.88 809.639 105.16C810.599 104.413 811.825 104.04 813.319 104.04C814.092 104.04 814.825 104.107 815.519 104.24C816.239 104.373 816.905 104.587 817.519 104.88L816.399 108.68C815.972 108.467 815.465 108.293 814.879 108.16C814.319 108 813.719 107.92 813.079 107.92C811.905 107.92 810.879 108.253 809.999 108.92C809.145 109.587 808.479 110.48 807.999 111.6C807.545 112.72 807.319 113.96 807.319 115.32V122.48L813.399 123.24V126H796.759ZM829.623 126.4C827.436 126.4 825.57 126.013 824.023 125.24C822.503 124.467 821.343 123.267 820.543 121.64C819.743 120.013 819.343 117.933 819.343 115.4C819.343 112.733 819.77 110.56 820.623 108.88C821.503 107.2 822.743 105.973 824.343 105.2C825.943 104.427 827.81 104.04 829.943 104.04C831.143 104.04 832.29 104.16 833.383 104.4C834.476 104.64 835.503 105 836.463 105.48L835.223 108.92C834.316 108.467 833.45 108.147 832.623 107.96C831.796 107.773 830.97 107.68 830.143 107.68C828.65 107.68 827.423 107.973 826.463 108.56C825.503 109.12 824.796 109.96 824.343 111.08C823.89 112.2 823.663 113.613 823.663 115.32C823.663 117.08 823.903 118.507 824.383 119.6C824.863 120.693 825.583 121.493 826.543 122C827.503 122.507 828.69 122.76 830.103 122.76C831.17 122.76 832.21 122.64 833.223 122.4C834.263 122.133 835.223 121.787 836.103 121.36V125.12C835.196 125.547 834.17 125.867 833.023 126.08C831.903 126.293 830.77 126.4 829.623 126.4ZM851.328 126.4C848.954 126.4 846.914 125.973 845.208 125.12C843.528 124.24 842.234 122.973 841.328 121.32C840.421 119.667 839.968 117.64 839.968 115.24C839.968 112.92 840.381 110.933 841.208 109.28C842.061 107.6 843.248 106.307 844.768 105.4C846.288 104.493 848.088 104.04 850.168 104.04C852.088 104.04 853.728 104.453 855.088 105.28C856.474 106.107 857.541 107.28 858.288 108.8C859.034 110.293 859.408 112.093 859.408 114.2V116.2H844.208C844.261 117.827 844.608 119.133 845.248 120.12C845.888 121.107 846.754 121.827 847.848 122.28C848.941 122.707 850.194 122.92 851.608 122.92C852.728 122.92 853.861 122.773 855.008 122.48C856.181 122.16 857.354 121.747 858.528 121.24V124.88C857.328 125.413 856.114 125.8 854.888 126.04C853.661 126.28 852.474 126.4 851.328 126.4ZM855.328 113C855.301 111.827 855.074 110.827 854.648 110C854.248 109.173 853.674 108.533 852.928 108.08C852.181 107.627 851.274 107.4 850.208 107.4C848.581 107.4 847.248 107.907 846.208 108.92C845.168 109.907 844.528 111.267 844.288 113H855.328ZM871.272 126.4C870.445 126.4 869.765 126.16 869.232 125.68C868.699 125.2 868.432 124.453 868.432 123.44C868.432 122.373 868.699 121.613 869.232 121.16C869.765 120.707 870.445 120.48 871.272 120.48C872.099 120.48 872.765 120.72 873.272 121.2C873.805 121.653 874.072 122.4 874.072 123.44C874.072 124.427 873.805 125.173 873.272 125.68C872.765 126.16 872.099 126.4 871.272 126.4Z" fill="#CCCCCC"/>
</svg>
