<svg width="956" height="174" viewBox="0 0 956 174" fill="none" xmlns="http://www.w3.org/2000/svg">
<path d="M7.373 137V128.168L27.469 125.736V79.272L9.805 77.48V68.008H38.093L39.885 80.296H40.525C42.9143 75.944 45.6023 72.616 48.589 70.312C51.661 67.9227 55.5863 66.728 60.365 66.728C62.8397 66.728 65.1863 66.9413 67.405 67.368C69.709 67.7947 71.8423 68.4773 73.805 69.416L70.221 81.576C68.8557 80.8933 67.2343 80.3387 65.357 79.912C63.565 79.4 61.645 79.144 59.597 79.144C55.8423 79.144 52.557 80.2107 49.741 82.344C47.0103 84.4773 44.877 87.336 43.341 90.92C41.8903 94.504 41.165 98.472 41.165 102.824V125.736L60.621 128.168V137H7.373ZM99.867 138.28C92.955 138.28 87.4937 136.531 83.483 133.032C79.4723 129.533 77.467 124.456 77.467 117.8C77.467 112.765 78.619 108.627 80.923 105.384C83.3123 102.056 86.7683 99.5813 91.291 97.96C95.899 96.2533 101.446 95.3147 107.931 95.144L122.907 94.76V91.816C122.907 86.5253 121.456 82.856 118.555 80.808C115.739 78.76 111.814 77.736 106.779 77.736C103.28 77.736 99.867 78.1627 96.539 79.016C93.211 79.8693 89.9257 81.1067 86.683 82.728L82.203 72.744C85.6163 71.0373 89.371 69.6293 93.467 68.52C97.6483 67.3253 102.299 66.728 107.419 66.728C116.379 66.728 123.291 68.6907 128.155 72.616C133.019 76.5413 135.451 82.6427 135.451 90.92V137H124.827L123.035 127.656H122.523C120.56 130.131 118.427 132.136 116.123 133.672C113.904 135.208 111.43 136.36 108.699 137.128C105.968 137.896 103.024 138.28 99.867 138.28ZM103.195 127.4C106.779 127.4 110.064 126.76 113.051 125.48C116.038 124.115 118.427 122.152 120.219 119.592C122.011 116.947 122.907 113.704 122.907 109.864V103.848L111.131 104.104C106.267 104.275 102.299 104.872 99.227 105.896C96.2403 106.92 94.0217 108.371 92.571 110.248C91.2057 112.125 90.523 114.387 90.523 117.032C90.523 120.701 91.675 123.347 93.979 124.968C96.3683 126.589 99.4403 127.4 103.195 127.4ZM147.817 137V128.168L171.881 125.736V79.272L150.249 77.48V68.008H185.577V125.736L207.849 128.168V137H147.817ZM177.897 56.872C175.252 56.872 173.076 56.1467 171.369 54.696C169.748 53.16 168.937 50.9413 168.937 48.04C168.937 45.0533 169.748 42.8347 171.369 41.384C173.076 39.848 175.294 39.08 178.025 39.08C180.67 39.08 182.804 39.848 184.425 41.384C186.132 42.8347 186.985 45.0533 186.985 48.04C186.985 50.9413 186.132 53.16 184.425 54.696C182.804 56.1467 180.628 56.872 177.897 56.872ZM216.887 137V128.168L241.335 125.736V50.984L218.807 48.68V39.72H255.031V125.736L276.919 128.168V137H216.887ZM293.381 141.992L284.549 136.872L342.277 41L350.853 46.12L293.381 141.992ZM317.317 138.28C311.514 138.28 306.522 137.171 302.341 134.952C298.245 132.733 294.832 129.576 292.101 125.48C289.37 121.299 287.365 116.349 286.085 110.632C284.89 104.829 284.293 98.3867 284.293 91.304C284.293 81.7467 285.445 73.4267 287.749 66.344C290.053 59.2613 293.637 53.8 298.501 49.96C303.45 46.0347 309.765 44.072 317.445 44.072C323.248 44.072 328.24 45.1813 332.421 47.4C336.602 49.5333 340.016 52.6907 342.661 56.872C345.392 61.0533 347.397 66.0027 348.677 71.72C349.957 77.4373 350.597 83.88 350.597 91.048C350.597 98.216 349.957 104.701 348.677 110.504C347.397 116.307 345.392 121.299 342.661 125.48C340.016 129.576 336.56 132.733 332.293 134.952C328.112 137.171 323.12 138.28 317.317 138.28ZM317.573 126.376C322.266 126.376 326.021 125.011 328.837 122.28C331.653 119.464 333.658 115.453 334.853 110.248C336.133 104.957 336.773 98.6 336.773 91.176C336.773 79.9973 335.322 71.336 332.421 65.192C329.52 59.048 324.57 55.976 317.573 55.976C312.88 55.976 309.082 57.384 306.181 60.2C303.365 62.9307 301.317 66.9413 300.037 72.232C298.757 77.4373 298.117 83.752 298.117 91.176C298.117 98.6 298.757 104.957 300.037 110.248C301.317 115.453 303.365 119.464 306.181 122.28C309.082 125.011 312.88 126.376 317.573 126.376Z" fill="black"/>
<path d="M409.64 76V47.44H418.16C421.547 47.44 424.027 48.1867 425.6 49.68C427.173 51.1467 427.96 53.24 427.96 55.96C427.96 57.6133 427.627 59.16 426.96 60.6C426.32 62.0133 425.24 63.1467 423.72 64C422.227 64.8267 420.213 65.24 417.68 65.24H413.8V76H409.64ZM417.24 61.6C418.68 61.6 419.88 61.4133 420.84 61.04C421.8 60.64 422.507 60.04 422.96 59.24C423.44 58.44 423.68 57.4133 423.68 56.16C423.68 54.3467 423.213 53.0533 422.28 52.28C421.347 51.48 419.88 51.08 417.88 51.08H413.8V61.6H417.24ZM441.224 76.4C438.851 76.4 436.811 75.9733 435.104 75.12C433.424 74.24 432.131 72.9733 431.224 71.32C430.318 69.6667 429.864 67.64 429.864 65.24C429.864 62.92 430.278 60.9333 431.104 59.28C431.958 57.6 433.144 56.3067 434.664 55.4C436.184 54.4933 437.984 54.04 440.064 54.04C441.984 54.04 443.624 54.4533 444.984 55.28C446.371 56.1067 447.438 57.28 448.184 58.8C448.931 60.2933 449.304 62.0933 449.304 64.2V66.2H434.104C434.158 67.8267 434.504 69.1333 435.144 70.12C435.784 71.1067 436.651 71.8267 437.744 72.28C438.838 72.7067 440.091 72.92 441.504 72.92C442.624 72.92 443.758 72.7733 444.904 72.48C446.078 72.16 447.251 71.7467 448.424 71.24V74.88C447.224 75.4133 446.011 75.8 444.784 76.04C443.558 76.28 442.371 76.4 441.224 76.4ZM445.224 63C445.198 61.8267 444.971 60.8267 444.544 60C444.144 59.1733 443.571 58.5333 442.824 58.08C442.078 57.6267 441.171 57.4 440.104 57.4C438.478 57.4 437.144 57.9067 436.104 58.92C435.064 59.9067 434.424 61.2667 434.184 63H445.224ZM451.409 76V73.24L457.689 72.48V57.96L452.169 57.4V54.44H461.009L461.569 58.28H461.769C462.515 56.92 463.355 55.88 464.289 55.16C465.249 54.4133 466.475 54.04 467.969 54.04C468.742 54.04 469.475 54.1067 470.169 54.24C470.889 54.3733 471.555 54.5867 472.169 54.88L471.049 58.68C470.622 58.4667 470.115 58.2933 469.529 58.16C468.969 58 468.369 57.92 467.729 57.92C466.555 57.92 465.529 58.2533 464.649 58.92C463.795 59.5867 463.129 60.48 462.649 61.6C462.195 62.72 461.969 63.96 461.969 65.32V72.48L468.049 73.24V76H451.409ZM472.513 76V54.44H475.433L475.993 56.92H476.193C476.54 56.2 476.9 55.64 477.273 55.24C477.673 54.8133 478.113 54.5067 478.593 54.32C479.073 54.1333 479.606 54.04 480.193 54.04C481.313 54.04 482.166 54.32 482.753 54.88C483.366 55.4133 483.82 56.2133 484.113 57.28H484.273C484.726 56.24 485.286 55.44 485.953 54.88C486.646 54.32 487.553 54.04 488.673 54.04C489.793 54.04 490.66 54.3333 491.273 54.92C491.913 55.48 492.366 56.3467 492.633 57.52C492.9 58.6667 493.033 60.1467 493.033 61.96V76H489.273V62.04C489.273 61.1067 489.233 60.32 489.153 59.68C489.073 59.04 488.9 58.5467 488.633 58.2C488.366 57.8267 487.94 57.64 487.353 57.64C486.766 57.64 486.273 57.8933 485.873 58.4C485.473 58.88 485.166 59.6133 484.953 60.6C484.766 61.56 484.673 62.7867 484.673 64.28V76H480.913V62.04C480.913 61.08 480.846 60.28 480.713 59.64C480.606 59 480.406 58.5067 480.113 58.16C479.82 57.8133 479.38 57.64 478.793 57.64C478.153 57.64 477.646 57.9067 477.273 58.44C476.9 58.9733 476.633 59.7333 476.473 60.72C476.313 61.68 476.233 62.8667 476.233 64.28V76H472.513ZM495.298 76V73.24L502.818 72.48V57.96L496.058 57.4V54.44H507.098V72.48L514.058 73.24V76H495.298ZM504.698 50.96C503.871 50.96 503.191 50.7333 502.658 50.28C502.151 49.8 501.898 49.1067 501.898 48.2C501.898 47.2667 502.151 46.5733 502.658 46.12C503.191 45.64 503.884 45.4 504.738 45.4C505.564 45.4 506.231 45.64 506.738 46.12C507.271 46.5733 507.538 47.2667 507.538 48.2C507.538 49.1067 507.271 49.8 506.738 50.28C506.231 50.7333 505.551 50.96 504.698 50.96ZM525.002 76.4C523.669 76.4 522.389 76.28 521.162 76.04C519.935 75.8267 518.829 75.5067 517.842 75.08V71.12C518.829 71.5733 519.935 71.9867 521.162 72.36C522.389 72.7067 523.775 72.88 525.322 72.88C526.869 72.88 527.989 72.6533 528.682 72.2C529.375 71.7467 529.722 71.0667 529.722 70.16C529.722 69.6 529.575 69.1467 529.282 68.8C528.989 68.4533 528.469 68.1067 527.722 67.76C527.002 67.4133 525.975 66.9733 524.642 66.44C523.335 65.8533 522.189 65.2933 521.202 64.76C520.215 64.2267 519.455 63.5867 518.922 62.84C518.389 62.0933 518.122 61.1333 518.122 59.96C518.122 58.6267 518.469 57.52 519.162 56.64C519.855 55.76 520.829 55.1067 522.082 54.68C523.362 54.2533 524.855 54.04 526.562 54.04C527.815 54.04 529.029 54.16 530.202 54.4C531.375 54.64 532.562 55.0133 533.762 55.52L532.482 58.8C531.362 58.3467 530.322 58.0267 529.362 57.84C528.429 57.6533 527.482 57.56 526.522 57.56C525.082 57.56 524.015 57.7467 523.322 58.12C522.655 58.4667 522.322 59.04 522.322 59.84C522.322 60.4 522.495 60.8667 522.842 61.24C523.189 61.6133 523.735 61.9733 524.482 62.32C525.229 62.64 526.189 63.0533 527.362 63.56C528.722 64.0933 529.895 64.6133 530.882 65.12C531.895 65.6267 532.669 66.2667 533.202 67.04C533.735 67.7867 534.002 68.8133 534.002 70.12C534.002 71.5067 533.655 72.6667 532.962 73.6C532.295 74.5333 531.295 75.24 529.962 75.72C528.629 76.1733 526.975 76.4 525.002 76.4ZM546.586 76.4C545.253 76.4 543.973 76.28 542.746 76.04C541.52 75.8267 540.413 75.5067 539.426 75.08V71.12C540.413 71.5733 541.52 71.9867 542.746 72.36C543.973 72.7067 545.36 72.88 546.906 72.88C548.453 72.88 549.573 72.6533 550.266 72.2C550.96 71.7467 551.306 71.0667 551.306 70.16C551.306 69.6 551.16 69.1467 550.866 68.8C550.573 68.4533 550.053 68.1067 549.306 67.76C548.586 67.4133 547.56 66.9733 546.226 66.44C544.92 65.8533 543.773 65.2933 542.786 64.76C541.8 64.2267 541.04 63.5867 540.506 62.84C539.973 62.0933 539.706 61.1333 539.706 59.96C539.706 58.6267 540.053 57.52 540.746 56.64C541.44 55.76 542.413 55.1067 543.666 54.68C544.946 54.2533 546.44 54.04 548.146 54.04C549.4 54.04 550.613 54.16 551.786 54.4C552.96 54.64 554.146 55.0133 555.346 55.52L554.066 58.8C552.946 58.3467 551.906 58.0267 550.946 57.84C550.013 57.6533 549.066 57.56 548.106 57.56C546.666 57.56 545.6 57.7467 544.906 58.12C544.24 58.4667 543.906 59.04 543.906 59.84C543.906 60.4 544.08 60.8667 544.426 61.24C544.773 61.6133 545.32 61.9733 546.066 62.32C546.813 62.64 547.773 63.0533 548.946 63.56C550.306 64.0933 551.48 64.6133 552.466 65.12C553.48 65.6267 554.253 66.2667 554.786 67.04C555.32 67.7867 555.586 68.8133 555.586 70.12C555.586 71.5067 555.24 72.6667 554.546 73.6C553.88 74.5333 552.88 75.24 551.546 75.72C550.213 76.1733 548.56 76.4 546.586 76.4ZM560.051 76V73.24L567.571 72.48V57.96L560.811 57.4V54.44H571.851V72.48L578.811 73.24V76H560.051ZM569.451 50.96C568.624 50.96 567.944 50.7333 567.411 50.28C566.904 49.8 566.651 49.1067 566.651 48.2C566.651 47.2667 566.904 46.5733 567.411 46.12C567.944 45.64 568.637 45.4 569.491 45.4C570.317 45.4 570.984 45.64 571.491 46.12C572.024 46.5733 572.291 47.2667 572.291 48.2C572.291 49.1067 572.024 49.8 571.491 50.28C570.984 50.7333 570.304 50.96 569.451 50.96ZM590.715 76.4C589.248 76.4 587.902 76.16 586.675 75.68C585.448 75.2 584.382 74.4933 583.475 73.56C582.595 72.6 581.915 71.4267 581.435 70.04C580.955 68.6533 580.715 67.04 580.715 65.2C580.715 62.7467 581.128 60.7067 581.955 59.08C582.808 57.4267 583.982 56.1733 585.475 55.32C586.968 54.4667 588.688 54.04 590.635 54.04C592.582 54.04 594.302 54.4667 595.795 55.32C597.315 56.1467 598.502 57.3867 599.355 59.04C600.208 60.6933 600.635 62.76 600.635 65.24C600.635 67.0533 600.395 68.6533 599.915 70.04C599.435 71.4267 598.755 72.6 597.875 73.56C597.022 74.4933 595.982 75.2 594.755 75.68C593.555 76.16 592.208 76.4 590.715 76.4ZM590.715 72.96C591.968 72.96 593.008 72.6533 593.835 72.04C594.688 71.4 595.315 70.4933 595.715 69.32C596.142 68.1467 596.355 66.7733 596.355 65.2C596.355 63.6 596.142 62.2267 595.715 61.08C595.315 59.9333 594.688 59.0533 593.835 58.44C593.008 57.8 591.955 57.48 590.675 57.48C588.755 57.48 587.315 58.1733 586.355 59.56C585.422 60.92 584.955 62.8 584.955 65.2C584.955 66.7733 585.168 68.1467 585.595 69.32C586.022 70.4933 586.662 71.4 587.515 72.04C588.368 72.6533 589.435 72.96 590.715 72.96ZM603.179 76V54.44H606.499L607.139 57.48H607.379C607.806 56.7067 608.353 56.0667 609.019 55.56C609.686 55.0533 610.459 54.68 611.339 54.44C612.246 54.1733 613.219 54.04 614.259 54.04C616.499 54.04 618.273 54.68 619.579 55.96C620.886 57.2133 621.539 59.1333 621.539 61.72V76H617.299V62.6C617.299 60.84 616.939 59.56 616.219 58.76C615.526 57.9333 614.433 57.52 612.939 57.52C610.939 57.52 609.513 58.2 608.659 59.56C607.833 60.92 607.419 62.8 607.419 65.2V76H603.179ZM624.804 76V73.24L632.444 72.48V49.12L625.404 48.4V45.6H636.724V72.48L643.564 73.24V76H624.804ZM657.068 76.4C654.695 76.4 652.655 75.9733 650.948 75.12C649.268 74.24 647.975 72.9733 647.068 71.32C646.161 69.6667 645.708 67.64 645.708 65.24C645.708 62.92 646.121 60.9333 646.948 59.28C647.801 57.6 648.988 56.3067 650.508 55.4C652.028 54.4933 653.828 54.04 655.908 54.04C657.828 54.04 659.468 54.4533 660.828 55.28C662.215 56.1067 663.281 57.28 664.028 58.8C664.775 60.2933 665.148 62.0933 665.148 64.2V66.2H649.948C650.001 67.8267 650.348 69.1333 650.988 70.12C651.628 71.1067 652.495 71.8267 653.588 72.28C654.681 72.7067 655.935 72.92 657.348 72.92C658.468 72.92 659.601 72.7733 660.748 72.48C661.921 72.16 663.095 71.7467 664.268 71.24V74.88C663.068 75.4133 661.855 75.8 660.628 76.04C659.401 76.28 658.215 76.4 657.068 76.4ZM661.068 63C661.041 61.8267 660.815 60.8267 660.388 60C659.988 59.1733 659.415 58.5333 658.668 58.08C657.921 57.6267 657.015 57.4 655.948 57.4C654.321 57.4 652.988 57.9067 651.948 58.92C650.908 59.9067 650.268 61.2667 650.028 63H661.068ZM676.093 76.4C674.759 76.4 673.479 76.28 672.253 76.04C671.026 75.8267 669.919 75.5067 668.933 75.08V71.12C669.919 71.5733 671.026 71.9867 672.253 72.36C673.479 72.7067 674.866 72.88 676.413 72.88C677.959 72.88 679.079 72.6533 679.773 72.2C680.466 71.7467 680.813 71.0667 680.813 70.16C680.813 69.6 680.666 69.1467 680.373 68.8C680.079 68.4533 679.559 68.1067 678.813 67.76C678.093 67.4133 677.066 66.9733 675.733 66.44C674.426 65.8533 673.279 65.2933 672.293 64.76C671.306 64.2267 670.546 63.5867 670.013 62.84C669.479 62.0933 669.213 61.1333 669.213 59.96C669.213 58.6267 669.559 57.52 670.253 56.64C670.946 55.76 671.919 55.1067 673.173 54.68C674.453 54.2533 675.946 54.04 677.653 54.04C678.906 54.04 680.119 54.16 681.293 54.4C682.466 54.64 683.653 55.0133 684.853 55.52L683.573 58.8C682.453 58.3467 681.413 58.0267 680.453 57.84C679.519 57.6533 678.573 57.56 677.613 57.56C676.173 57.56 675.106 57.7467 674.413 58.12C673.746 58.4667 673.413 59.04 673.413 59.84C673.413 60.4 673.586 60.8667 673.933 61.24C674.279 61.6133 674.826 61.9733 675.573 62.32C676.319 62.64 677.279 63.0533 678.453 63.56C679.813 64.0933 680.986 64.6133 681.973 65.12C682.986 65.6267 683.759 66.2667 684.293 67.04C684.826 67.7867 685.093 68.8133 685.093 70.12C685.093 71.5067 684.746 72.6667 684.053 73.6C683.386 74.5333 682.386 75.24 681.053 75.72C679.719 76.1733 678.066 76.4 676.093 76.4ZM697.677 76.4C696.344 76.4 695.064 76.28 693.837 76.04C692.61 75.8267 691.504 75.5067 690.517 75.08V71.12C691.504 71.5733 692.61 71.9867 693.837 72.36C695.064 72.7067 696.45 72.88 697.997 72.88C699.544 72.88 700.664 72.6533 701.357 72.2C702.05 71.7467 702.397 71.0667 702.397 70.16C702.397 69.6 702.25 69.1467 701.957 68.8C701.664 68.4533 701.144 68.1067 700.397 67.76C699.677 67.4133 698.65 66.9733 697.317 66.44C696.01 65.8533 694.864 65.2933 693.877 64.76C692.89 64.2267 692.13 63.5867 691.597 62.84C691.064 62.0933 690.797 61.1333 690.797 59.96C690.797 58.6267 691.144 57.52 691.837 56.64C692.53 55.76 693.504 55.1067 694.757 54.68C696.037 54.2533 697.53 54.04 699.237 54.04C700.49 54.04 701.704 54.16 702.877 54.4C704.05 54.64 705.237 55.0133 706.437 55.52L705.157 58.8C704.037 58.3467 702.997 58.0267 702.037 57.84C701.104 57.6533 700.157 57.56 699.197 57.56C697.757 57.56 696.69 57.7467 695.997 58.12C695.33 58.4667 694.997 59.04 694.997 59.84C694.997 60.4 695.17 60.8667 695.517 61.24C695.864 61.6133 696.41 61.9733 697.157 62.32C697.904 62.64 698.864 63.0533 700.037 63.56C701.397 64.0933 702.57 64.6133 703.557 65.12C704.57 65.6267 705.344 66.2667 705.877 67.04C706.41 67.7867 706.677 68.8133 706.677 70.12C706.677 71.5067 706.33 72.6667 705.637 73.6C704.97 74.5333 703.97 75.24 702.637 75.72C701.304 76.1733 699.65 76.4 697.677 76.4ZM740.846 76.4C739.512 76.4 738.232 76.28 737.006 76.04C735.779 75.8267 734.672 75.5067 733.686 75.08V71.12C734.672 71.5733 735.779 71.9867 737.006 72.36C738.232 72.7067 739.619 72.88 741.166 72.88C742.712 72.88 743.832 72.6533 744.526 72.2C745.219 71.7467 745.566 71.0667 745.566 70.16C745.566 69.6 745.419 69.1467 745.126 68.8C744.832 68.4533 744.312 68.1067 743.566 67.76C742.846 67.4133 741.819 66.9733 740.486 66.44C739.179 65.8533 738.032 65.2933 737.046 64.76C736.059 64.2267 735.299 63.5867 734.766 62.84C734.232 62.0933 733.966 61.1333 733.966 59.96C733.966 58.6267 734.312 57.52 735.006 56.64C735.699 55.76 736.672 55.1067 737.926 54.68C739.206 54.2533 740.699 54.04 742.406 54.04C743.659 54.04 744.872 54.16 746.046 54.4C747.219 54.64 748.406 55.0133 749.606 55.52L748.326 58.8C747.206 58.3467 746.166 58.0267 745.206 57.84C744.272 57.6533 743.326 57.56 742.366 57.56C740.926 57.56 739.859 57.7467 739.166 58.12C738.499 58.4667 738.166 59.04 738.166 59.84C738.166 60.4 738.339 60.8667 738.686 61.24C739.032 61.6133 739.579 61.9733 740.326 62.32C741.072 62.64 742.032 63.0533 743.206 63.56C744.566 64.0933 745.739 64.6133 746.726 65.12C747.739 65.6267 748.512 66.2667 749.046 67.04C749.579 67.7867 749.846 68.8133 749.846 70.12C749.846 71.5067 749.499 72.6667 748.806 73.6C748.139 74.5333 747.139 75.24 745.806 75.72C744.472 76.1733 742.819 76.4 740.846 76.4ZM767.31 76.4C765.683 76.4 764.257 76.1867 763.03 75.76C761.803 75.3067 760.843 74.56 760.15 73.52C759.483 72.4533 759.15 71.0133 759.15 69.2V57.96H753.55V55.16L759.27 54.36L760.07 48.8H763.39V54.44H771.71V57.96H763.39V68.52C763.39 69.5867 763.55 70.44 763.87 71.08C764.19 71.72 764.683 72.1867 765.35 72.48C766.017 72.7733 766.83 72.92 767.79 72.92C768.483 72.92 769.203 72.8533 769.95 72.72C770.723 72.5867 771.47 72.4533 772.19 72.32V75.68C771.443 75.8933 770.657 76.0667 769.83 76.2C769.003 76.3333 768.163 76.4 767.31 76.4ZM782.494 76.4C780.334 76.4 778.628 75.8533 777.374 74.76C776.121 73.6667 775.494 72.08 775.494 70C775.494 68.4267 775.854 67.1333 776.574 66.12C777.321 65.08 778.401 64.3067 779.814 63.8C781.254 63.2667 782.988 62.9733 785.014 62.92L789.694 62.8V61.88C789.694 60.2267 789.241 59.08 788.334 58.44C787.454 57.8 786.228 57.48 784.654 57.48C783.561 57.48 782.494 57.6133 781.454 57.88C780.414 58.1467 779.388 58.5333 778.374 59.04L776.974 55.92C778.041 55.3867 779.214 54.9467 780.494 54.6C781.801 54.2267 783.254 54.04 784.854 54.04C787.654 54.04 789.814 54.6533 791.334 55.88C792.854 57.1067 793.614 59.0133 793.614 61.6V76H790.294L789.734 73.08H789.574C788.961 73.8533 788.294 74.48 787.574 74.96C786.881 75.44 786.108 75.8 785.254 76.04C784.401 76.28 783.481 76.4 782.494 76.4ZM783.534 73C784.654 73 785.681 72.8 786.614 72.4C787.548 71.9733 788.294 71.36 788.854 70.56C789.414 69.7333 789.694 68.72 789.694 67.52V65.64L786.014 65.72C784.494 65.7733 783.254 65.96 782.294 66.28C781.361 66.6 780.668 67.0533 780.214 67.64C779.788 68.2267 779.574 68.9333 779.574 69.76C779.574 70.9067 779.934 71.7333 780.654 72.24C781.401 72.7467 782.361 73 783.534 73ZM807.959 76.4C806.492 76.4 805.212 76.1067 804.119 75.52C803.052 74.9333 802.185 74.2133 801.519 73.36H801.239L800.759 76H797.439V45.6H801.559V52.88C801.559 53.52 801.545 54.2133 801.519 54.96C801.492 55.68 801.439 56.44 801.359 57.24H801.559C802.145 56.3333 802.985 55.5733 804.079 54.96C805.172 54.3467 806.479 54.04 807.999 54.04C809.332 54.04 810.519 54.2933 811.559 54.8C812.625 55.28 813.519 56.0133 814.239 57C814.959 57.96 815.505 59.1333 815.879 60.52C816.279 61.88 816.479 63.4267 816.479 65.16C816.479 66.9467 816.279 68.5333 815.879 69.92C815.505 71.3067 814.945 72.48 814.199 73.44C813.479 74.4 812.585 75.1333 811.519 75.64C810.479 76.1467 809.292 76.4 807.959 76.4ZM806.919 72.92C808.705 72.92 810.025 72.2667 810.879 70.96C811.732 69.6267 812.159 67.6933 812.159 65.16C812.159 62.6533 811.732 60.76 810.879 59.48C810.025 58.1733 808.692 57.52 806.879 57.52C805.199 57.52 803.892 58.16 802.959 59.44C802.025 60.6933 801.559 62.5867 801.559 65.12C801.559 67.68 801.999 69.6267 802.879 70.96C803.785 72.2667 805.132 72.92 806.919 72.92ZM819.063 76V73.24L826.703 72.48V49.12L819.663 48.4V45.6H830.983V72.48L837.823 73.24V76H819.063ZM851.328 76.4C848.954 76.4 846.914 75.9733 845.208 75.12C843.528 74.24 842.234 72.9733 841.328 71.32C840.421 69.6667 839.968 67.64 839.968 65.24C839.968 62.92 840.381 60.9333 841.208 59.28C842.061 57.6 843.248 56.3067 844.768 55.4C846.288 54.4933 848.088 54.04 850.168 54.04C852.088 54.04 853.728 54.4533 855.088 55.28C856.474 56.1067 857.541 57.28 858.288 58.8C859.034 60.2933 859.408 62.0933 859.408 64.2V66.2H844.208C844.261 67.8267 844.608 69.1333 845.248 70.12C845.888 71.1067 846.754 71.8267 847.848 72.28C848.941 72.7067 850.194 72.92 851.608 72.92C852.728 72.92 853.861 72.7733 855.008 72.48C856.181 72.16 857.354 71.7467 858.528 71.24V74.88C857.328 75.4133 856.114 75.8 854.888 76.04C853.661 76.28 852.474 76.4 851.328 76.4ZM855.328 63C855.301 61.8267 855.074 60.8267 854.648 60C854.248 59.1733 853.674 58.5333 852.928 58.08C852.181 57.6267 851.274 57.4 850.208 57.4C848.581 57.4 847.248 57.9067 846.208 58.92C845.168 59.9067 844.528 61.2667 844.288 63H855.328ZM872.792 76.4C870.605 76.4 868.739 76.0133 867.192 75.24C865.672 74.4667 864.512 73.2667 863.712 71.64C862.912 70.0133 862.512 67.9333 862.512 65.4C862.512 62.7333 862.939 60.56 863.792 58.88C864.672 57.2 865.912 55.9733 867.512 55.2C869.112 54.4267 870.979 54.04 873.112 54.04C874.312 54.04 875.459 54.16 876.552 54.4C877.645 54.64 878.672 55 879.632 55.48L878.392 58.92C877.485 58.4667 876.619 58.1467 875.792 57.96C874.965 57.7733 874.139 57.68 873.312 57.68C871.819 57.68 870.592 57.9733 869.632 58.56C868.672 59.12 867.965 59.96 867.512 61.08C867.059 62.2 866.832 63.6133 866.832 65.32C866.832 67.08 867.072 68.5067 867.552 69.6C868.032 70.6933 868.752 71.4933 869.712 72C870.672 72.5067 871.859 72.76 873.272 72.76C874.339 72.76 875.379 72.64 876.392 72.4C877.432 72.1333 878.392 71.7867 879.272 71.36V75.12C878.365 75.5467 877.339 75.8667 876.192 76.08C875.072 76.2933 873.939 76.4 872.792 76.4ZM892.896 76.4C891.43 76.4 890.083 76.16 888.856 75.68C887.63 75.2 886.563 74.4933 885.656 73.56C884.776 72.6 884.096 71.4267 883.616 70.04C883.136 68.6533 882.896 67.04 882.896 65.2C882.896 62.7467 883.31 60.7067 884.136 59.08C884.99 57.4267 886.163 56.1733 887.656 55.32C889.15 54.4667 890.87 54.04 892.816 54.04C894.763 54.04 896.483 54.4667 897.976 55.32C899.496 56.1467 900.683 57.3867 901.536 59.04C902.39 60.6933 902.816 62.76 902.816 65.24C902.816 67.0533 902.576 68.6533 902.096 70.04C901.616 71.4267 900.936 72.6 900.056 73.56C899.203 74.4933 898.163 75.2 896.936 75.68C895.736 76.16 894.39 76.4 892.896 76.4ZM892.896 72.96C894.15 72.96 895.19 72.6533 896.016 72.04C896.87 71.4 897.496 70.4933 897.896 69.32C898.323 68.1467 898.536 66.7733 898.536 65.2C898.536 63.6 898.323 62.2267 897.896 61.08C897.496 59.9333 896.87 59.0533 896.016 58.44C895.19 57.8 894.136 57.48 892.856 57.48C890.936 57.48 889.496 58.1733 888.536 59.56C887.603 60.92 887.136 62.8 887.136 65.2C887.136 66.7733 887.35 68.1467 887.776 69.32C888.203 70.4933 888.843 71.4 889.696 72.04C890.55 72.6533 891.616 72.96 892.896 72.96ZM905.401 76V73.24L912.921 72.48V57.96L906.161 57.4V54.44H917.201V72.48L924.161 73.24V76H905.401ZM914.801 50.96C913.974 50.96 913.294 50.7333 912.761 50.28C912.254 49.8 912.001 49.1067 912.001 48.2C912.001 47.2667 912.254 46.5733 912.761 46.12C913.294 45.64 913.987 45.4 914.841 45.4C915.667 45.4 916.334 45.64 916.841 46.12C917.374 46.5733 917.641 47.2667 917.641 48.2C917.641 49.1067 917.374 49.8 916.841 50.28C916.334 50.7333 915.654 50.96 914.801 50.96ZM926.945 76V54.44H930.265L930.905 57.48H931.145C931.572 56.7067 932.118 56.0667 932.785 55.56C933.452 55.0533 934.225 54.68 935.105 54.44C936.012 54.1733 936.985 54.04 938.025 54.04C940.265 54.04 942.038 54.68 943.345 55.96C944.652 57.2133 945.305 59.1333 945.305 61.72V76H941.065V62.6C941.065 60.84 940.705 59.56 939.985 58.76C939.292 57.9333 938.198 57.52 936.705 57.52C934.705 57.52 933.278 58.2 932.425 59.56C931.598 60.92 931.185 62.8 931.185 65.2V76H926.945ZM408.92 139.6V108.44H412.28L412.88 111.32H413.08C413.533 110.627 414.067 110.04 414.68 109.56C415.293 109.053 416 108.68 416.8 108.44C417.6 108.173 418.507 108.04 419.52 108.04C420.853 108.04 422.04 108.293 423.08 108.8C424.147 109.28 425.04 110.013 425.76 111C426.48 111.96 427.027 113.133 427.4 114.52C427.773 115.88 427.96 117.44 427.96 119.2C427.96 121.6 427.613 123.64 426.92 125.32C426.227 127 425.24 128.267 423.96 129.12C422.68 129.973 421.173 130.4 419.44 130.4C418.48 130.4 417.6 130.267 416.8 130C416 129.733 415.293 129.373 414.68 128.92C414.067 128.44 413.533 127.92 413.08 127.36H412.84C412.947 127.973 413.013 128.56 413.04 129.12C413.067 129.653 413.08 130.12 413.08 130.52V139.6H408.92ZM418.36 126.92C420.2 126.92 421.533 126.28 422.36 125C423.187 123.72 423.6 121.76 423.6 119.12C423.6 116.56 423.187 114.653 422.36 113.4C421.56 112.147 420.213 111.52 418.32 111.52C416.56 111.52 415.24 112.12 414.36 113.32C413.507 114.493 413.08 116.187 413.08 118.4V119.16C413.08 121.613 413.48 123.52 414.28 124.88C415.08 126.24 416.44 126.92 418.36 126.92ZM437.144 130.4C434.984 130.4 433.278 129.853 432.024 128.76C430.771 127.667 430.144 126.08 430.144 124C430.144 122.427 430.504 121.133 431.224 120.12C431.971 119.08 433.051 118.307 434.464 117.8C435.904 117.267 437.638 116.973 439.664 116.92L444.344 116.8V115.88C444.344 114.227 443.891 113.08 442.984 112.44C442.104 111.8 440.878 111.48 439.304 111.48C438.211 111.48 437.144 111.613 436.104 111.88C435.064 112.147 434.038 112.533 433.024 113.04L431.624 109.92C432.691 109.387 433.864 108.947 435.144 108.6C436.451 108.227 437.904 108.04 439.504 108.04C442.304 108.04 444.464 108.653 445.984 109.88C447.504 111.107 448.264 113.013 448.264 115.6V130H444.944L444.384 127.08H444.224C443.611 127.853 442.944 128.48 442.224 128.96C441.531 129.44 440.758 129.8 439.904 130.04C439.051 130.28 438.131 130.4 437.144 130.4ZM438.184 127C439.304 127 440.331 126.8 441.264 126.4C442.198 125.973 442.944 125.36 443.504 124.56C444.064 123.733 444.344 122.72 444.344 121.52V119.64L440.664 119.72C439.144 119.773 437.904 119.96 436.944 120.28C436.011 120.6 435.318 121.053 434.864 121.64C434.438 122.227 434.224 122.933 434.224 123.76C434.224 124.907 434.584 125.733 435.304 126.24C436.051 126.747 437.011 127 438.184 127ZM454.569 139.8C454.062 139.8 453.555 139.76 453.049 139.68C452.542 139.627 452.089 139.56 451.689 139.48V136.08C452.009 136.133 452.382 136.187 452.809 136.24C453.235 136.293 453.635 136.32 454.009 136.32C454.835 136.32 455.515 136.173 456.049 135.88C456.609 135.613 457.089 135.2 457.489 134.64C457.915 134.08 458.302 133.36 458.649 132.48L459.569 130.08L450.689 108.44H455.009L459.849 121.04C460.169 121.787 460.462 122.613 460.729 123.52C461.022 124.4 461.275 125.28 461.489 126.16H461.609C461.769 125.547 461.929 124.947 462.089 124.36C462.275 123.773 462.449 123.2 462.609 122.64C462.795 122.053 462.969 121.507 463.129 121L467.209 108.44H471.649L462.809 132.32C462.249 133.867 461.622 135.2 460.929 136.32C460.262 137.44 459.422 138.293 458.409 138.88C457.395 139.493 456.115 139.8 454.569 139.8ZM472.513 130V108.44H475.433L475.993 110.92H476.193C476.54 110.2 476.9 109.64 477.273 109.24C477.673 108.813 478.113 108.507 478.593 108.32C479.073 108.133 479.606 108.04 480.193 108.04C481.313 108.04 482.166 108.32 482.753 108.88C483.366 109.413 483.82 110.213 484.113 111.28H484.273C484.726 110.24 485.286 109.44 485.953 108.88C486.646 108.32 487.553 108.04 488.673 108.04C489.793 108.04 490.66 108.333 491.273 108.92C491.913 109.48 492.366 110.347 492.633 111.52C492.9 112.667 493.033 114.147 493.033 115.96V130H489.273V116.04C489.273 115.107 489.233 114.32 489.153 113.68C489.073 113.04 488.9 112.547 488.633 112.2C488.366 111.827 487.94 111.64 487.353 111.64C486.766 111.64 486.273 111.893 485.873 112.4C485.473 112.88 485.166 113.613 484.953 114.6C484.766 115.56 484.673 116.787 484.673 118.28V130H480.913V116.04C480.913 115.08 480.846 114.28 480.713 113.64C480.606 113 480.406 112.507 480.113 112.16C479.82 111.813 479.38 111.64 478.793 111.64C478.153 111.64 477.646 111.907 477.273 112.44C476.9 112.973 476.633 113.733 476.473 114.72C476.313 115.68 476.233 116.867 476.233 118.28V130H472.513ZM505.978 130.4C503.604 130.4 501.564 129.973 499.858 129.12C498.178 128.24 496.884 126.973 495.978 125.32C495.071 123.667 494.618 121.64 494.618 119.24C494.618 116.92 495.031 114.933 495.858 113.28C496.711 111.6 497.898 110.307 499.418 109.4C500.938 108.493 502.738 108.04 504.818 108.04C506.738 108.04 508.378 108.453 509.738 109.28C511.124 110.107 512.191 111.28 512.938 112.8C513.684 114.293 514.058 116.093 514.058 118.2V120.2H498.858C498.911 121.827 499.258 123.133 499.898 124.12C500.538 125.107 501.404 125.827 502.498 126.28C503.591 126.707 504.844 126.92 506.258 126.92C507.378 126.92 508.511 126.773 509.658 126.48C510.831 126.16 512.004 125.747 513.178 125.24V128.88C511.978 129.413 510.764 129.8 509.538 130.04C508.311 130.28 507.124 130.4 505.978 130.4ZM509.978 117C509.951 115.827 509.724 114.827 509.298 114C508.898 113.173 508.324 112.533 507.578 112.08C506.831 111.627 505.924 111.4 504.858 111.4C503.231 111.4 501.898 111.907 500.858 112.92C499.818 113.907 499.178 115.267 498.938 117H509.978ZM516.842 130V108.44H520.162L520.802 111.48H521.042C521.469 110.707 522.015 110.067 522.682 109.56C523.349 109.053 524.122 108.68 525.002 108.44C525.909 108.173 526.882 108.04 527.922 108.04C530.162 108.04 531.935 108.68 533.242 109.96C534.549 111.213 535.202 113.133 535.202 115.72V130H530.962V116.6C530.962 114.84 530.602 113.56 529.882 112.76C529.189 111.933 528.095 111.52 526.602 111.52C524.602 111.52 523.175 112.2 522.322 113.56C521.495 114.92 521.082 116.8 521.082 119.2V130H516.842ZM551.466 130.4C549.84 130.4 548.413 130.187 547.186 129.76C545.96 129.307 545 128.56 544.306 127.52C543.64 126.453 543.306 125.013 543.306 123.2V111.96H537.706V109.16L543.426 108.36L544.226 102.8H547.546V108.44H555.866V111.96H547.546V122.52C547.546 123.587 547.706 124.44 548.026 125.08C548.346 125.72 548.84 126.187 549.506 126.48C550.173 126.773 550.986 126.92 551.946 126.92C552.64 126.92 553.36 126.853 554.106 126.72C554.88 126.587 555.626 126.453 556.346 126.32V129.68C555.6 129.893 554.813 130.067 553.986 130.2C553.16 130.333 552.32 130.4 551.466 130.4ZM568.171 130.4C566.837 130.4 565.557 130.28 564.331 130.04C563.104 129.827 561.997 129.507 561.011 129.08V125.12C561.997 125.573 563.104 125.987 564.331 126.36C565.557 126.707 566.944 126.88 568.491 126.88C570.037 126.88 571.157 126.653 571.851 126.2C572.544 125.747 572.891 125.067 572.891 124.16C572.891 123.6 572.744 123.147 572.451 122.8C572.157 122.453 571.637 122.107 570.891 121.76C570.171 121.413 569.144 120.973 567.811 120.44C566.504 119.853 565.357 119.293 564.371 118.76C563.384 118.227 562.624 117.587 562.091 116.84C561.557 116.093 561.291 115.133 561.291 113.96C561.291 112.627 561.637 111.52 562.331 110.64C563.024 109.76 563.997 109.107 565.251 108.68C566.531 108.253 568.024 108.04 569.731 108.04C570.984 108.04 572.197 108.16 573.371 108.4C574.544 108.64 575.731 109.013 576.931 109.52L575.651 112.8C574.531 112.347 573.491 112.027 572.531 111.84C571.597 111.653 570.651 111.56 569.691 111.56C568.251 111.56 567.184 111.747 566.491 112.12C565.824 112.467 565.491 113.04 565.491 113.84C565.491 114.4 565.664 114.867 566.011 115.24C566.357 115.613 566.904 115.973 567.651 116.32C568.397 116.64 569.357 117.053 570.531 117.56C571.891 118.093 573.064 118.613 574.051 119.12C575.064 119.627 575.837 120.267 576.371 121.04C576.904 121.787 577.171 122.813 577.171 124.12C577.171 125.507 576.824 126.667 576.131 127.6C575.464 128.533 574.464 129.24 573.131 129.72C571.797 130.173 570.144 130.4 568.171 130.4ZM609.579 130V111.96H602.939V109.16L609.579 108.44V106.32C609.579 104.613 609.899 103.253 610.539 102.24C611.179 101.227 612.086 100.507 613.259 100.08C614.459 99.6267 615.886 99.4 617.539 99.4C618.659 99.4 619.686 99.48 620.619 99.64C621.579 99.8 622.433 100 623.179 100.24L622.179 103.52C621.593 103.36 620.913 103.227 620.139 103.12C619.393 102.987 618.686 102.92 618.019 102.92C616.659 102.92 615.619 103.213 614.899 103.8C614.179 104.36 613.819 105.373 613.819 106.84V108.44H621.579V111.96H613.819V130H609.579ZM633.884 130.4C632.417 130.4 631.07 130.16 629.844 129.68C628.617 129.2 627.55 128.493 626.644 127.56C625.764 126.6 625.084 125.427 624.604 124.04C624.124 122.653 623.884 121.04 623.884 119.2C623.884 116.747 624.297 114.707 625.124 113.08C625.977 111.427 627.15 110.173 628.644 109.32C630.137 108.467 631.857 108.04 633.804 108.04C635.75 108.04 637.47 108.467 638.964 109.32C640.484 110.147 641.67 111.387 642.524 113.04C643.377 114.693 643.804 116.76 643.804 119.24C643.804 121.053 643.564 122.653 643.084 124.04C642.604 125.427 641.924 126.6 641.044 127.56C640.19 128.493 639.15 129.2 637.924 129.68C636.724 130.16 635.377 130.4 633.884 130.4ZM633.884 126.96C635.137 126.96 636.177 126.653 637.004 126.04C637.857 125.4 638.484 124.493 638.884 123.32C639.31 122.147 639.524 120.773 639.524 119.2C639.524 117.6 639.31 116.227 638.884 115.08C638.484 113.933 637.857 113.053 637.004 112.44C636.177 111.8 635.124 111.48 633.844 111.48C631.924 111.48 630.484 112.173 629.524 113.56C628.59 114.92 628.124 116.8 628.124 119.2C628.124 120.773 628.337 122.147 628.764 123.32C629.19 124.493 629.83 125.4 630.684 126.04C631.537 126.653 632.604 126.96 633.884 126.96ZM645.668 130V127.24L651.948 126.48V111.96L646.428 111.4V108.44H655.268L655.828 112.28H656.028C656.775 110.92 657.615 109.88 658.548 109.16C659.508 108.413 660.735 108.04 662.228 108.04C663.001 108.04 663.735 108.107 664.428 108.24C665.148 108.373 665.815 108.587 666.428 108.88L665.308 112.68C664.881 112.467 664.375 112.293 663.788 112.16C663.228 112 662.628 111.92 661.988 111.92C660.815 111.92 659.788 112.253 658.908 112.92C658.055 113.587 657.388 114.48 656.908 115.6C656.455 116.72 656.228 117.96 656.228 119.32V126.48L662.308 127.24V130H645.668ZM700.117 130.4C697.93 130.4 696.064 130.013 694.517 129.24C692.997 128.467 691.837 127.267 691.037 125.64C690.237 124.013 689.837 121.933 689.837 119.4C689.837 116.733 690.264 114.56 691.117 112.88C691.997 111.2 693.237 109.973 694.837 109.2C696.437 108.427 698.304 108.04 700.437 108.04C701.637 108.04 702.784 108.16 703.877 108.4C704.97 108.64 705.997 109 706.957 109.48L705.717 112.92C704.81 112.467 703.944 112.147 703.117 111.96C702.29 111.773 701.464 111.68 700.637 111.68C699.144 111.68 697.917 111.973 696.957 112.56C695.997 113.12 695.29 113.96 694.837 115.08C694.384 116.2 694.157 117.613 694.157 119.32C694.157 121.08 694.397 122.507 694.877 123.6C695.357 124.693 696.077 125.493 697.037 126C697.997 126.507 699.184 126.76 700.597 126.76C701.664 126.76 702.704 126.64 703.717 126.4C704.757 126.133 705.717 125.787 706.597 125.36V129.12C705.69 129.547 704.664 129.867 703.517 130.08C702.397 130.293 701.264 130.4 700.117 130.4ZM720.221 130.4C718.755 130.4 717.408 130.16 716.181 129.68C714.955 129.2 713.888 128.493 712.981 127.56C712.101 126.6 711.421 125.427 710.941 124.04C710.461 122.653 710.221 121.04 710.221 119.2C710.221 116.747 710.635 114.707 711.461 113.08C712.315 111.427 713.488 110.173 714.981 109.32C716.475 108.467 718.195 108.04 720.141 108.04C722.088 108.04 723.808 108.467 725.301 109.32C726.821 110.147 728.008 111.387 728.861 113.04C729.715 114.693 730.141 116.76 730.141 119.24C730.141 121.053 729.901 122.653 729.421 124.04C728.941 125.427 728.261 126.6 727.381 127.56C726.528 128.493 725.488 129.2 724.261 129.68C723.061 130.16 721.715 130.4 720.221 130.4ZM720.221 126.96C721.475 126.96 722.515 126.653 723.341 126.04C724.195 125.4 724.821 124.493 725.221 123.32C725.648 122.147 725.861 120.773 725.861 119.2C725.861 117.6 725.648 116.227 725.221 115.08C724.821 113.933 724.195 113.053 723.341 112.44C722.515 111.8 721.461 111.48 720.181 111.48C718.261 111.48 716.821 112.173 715.861 113.56C714.928 114.92 714.461 116.8 714.461 119.2C714.461 120.773 714.675 122.147 715.101 123.32C715.528 124.493 716.168 125.4 717.021 126.04C717.875 126.653 718.941 126.96 720.221 126.96ZM731.526 130V108.44H734.446L735.006 110.92H735.206C735.552 110.2 735.912 109.64 736.286 109.24C736.686 108.813 737.126 108.507 737.606 108.32C738.086 108.133 738.619 108.04 739.206 108.04C740.326 108.04 741.179 108.32 741.766 108.88C742.379 109.413 742.832 110.213 743.126 111.28H743.286C743.739 110.24 744.299 109.44 744.966 108.88C745.659 108.32 746.566 108.04 747.686 108.04C748.806 108.04 749.672 108.333 750.286 108.92C750.926 109.48 751.379 110.347 751.646 111.52C751.912 112.667 752.046 114.147 752.046 115.96V130H748.286V116.04C748.286 115.107 748.246 114.32 748.166 113.68C748.086 113.04 747.912 112.547 747.646 112.2C747.379 111.827 746.952 111.64 746.366 111.64C745.779 111.64 745.286 111.893 744.886 112.4C744.486 112.88 744.179 113.613 743.966 114.6C743.779 115.56 743.686 116.787 743.686 118.28V130H739.926V116.04C739.926 115.08 739.859 114.28 739.726 113.64C739.619 113 739.419 112.507 739.126 112.16C738.832 111.813 738.392 111.64 737.806 111.64C737.166 111.64 736.659 111.907 736.286 112.44C735.912 112.973 735.646 113.733 735.486 114.72C735.326 115.68 735.246 116.867 735.246 118.28V130H731.526ZM753.11 130V108.44H756.03L756.59 110.92H756.79C757.137 110.2 757.497 109.64 757.87 109.24C758.27 108.813 758.71 108.507 759.19 108.32C759.67 108.133 760.203 108.04 760.79 108.04C761.91 108.04 762.763 108.32 763.35 108.88C763.963 109.413 764.417 110.213 764.71 111.28H764.87C765.323 110.24 765.883 109.44 766.55 108.88C767.243 108.32 768.15 108.04 769.27 108.04C770.39 108.04 771.257 108.333 771.87 108.92C772.51 109.48 772.963 110.347 773.23 111.52C773.497 112.667 773.63 114.147 773.63 115.96V130H769.87V116.04C769.87 115.107 769.83 114.32 769.75 113.68C769.67 113.04 769.497 112.547 769.23 112.2C768.963 111.827 768.537 111.64 767.95 111.64C767.363 111.64 766.87 111.893 766.47 112.4C766.07 112.88 765.763 113.613 765.55 114.6C765.363 115.56 765.27 116.787 765.27 118.28V130H761.51V116.04C761.51 115.08 761.443 114.28 761.31 113.64C761.203 113 761.003 112.507 760.71 112.16C760.417 111.813 759.977 111.64 759.39 111.64C758.75 111.64 758.243 111.907 757.87 112.44C757.497 112.973 757.23 113.733 757.07 114.72C756.91 115.68 756.83 116.867 756.83 118.28V130H753.11ZM786.574 130.4C784.201 130.4 782.161 129.973 780.454 129.12C778.774 128.24 777.481 126.973 776.574 125.32C775.668 123.667 775.214 121.64 775.214 119.24C775.214 116.92 775.628 114.933 776.454 113.28C777.308 111.6 778.494 110.307 780.014 109.4C781.534 108.493 783.334 108.04 785.414 108.04C787.334 108.04 788.974 108.453 790.334 109.28C791.721 110.107 792.788 111.28 793.534 112.8C794.281 114.293 794.654 116.093 794.654 118.2V120.2H779.454C779.508 121.827 779.854 123.133 780.494 124.12C781.134 125.107 782.001 125.827 783.094 126.28C784.188 126.707 785.441 126.92 786.854 126.92C787.974 126.92 789.108 126.773 790.254 126.48C791.428 126.16 792.601 125.747 793.774 125.24V128.88C792.574 129.413 791.361 129.8 790.134 130.04C788.908 130.28 787.721 130.4 786.574 130.4ZM790.574 117C790.548 115.827 790.321 114.827 789.894 114C789.494 113.173 788.921 112.533 788.174 112.08C787.428 111.627 786.521 111.4 785.454 111.4C783.828 111.4 782.494 111.907 781.454 112.92C780.414 113.907 779.774 115.267 779.534 117H790.574ZM796.759 130V127.24L803.039 126.48V111.96L797.519 111.4V108.44H806.359L806.919 112.28H807.119C807.865 110.92 808.705 109.88 809.639 109.16C810.599 108.413 811.825 108.04 813.319 108.04C814.092 108.04 814.825 108.107 815.519 108.24C816.239 108.373 816.905 108.587 817.519 108.88L816.399 112.68C815.972 112.467 815.465 112.293 814.879 112.16C814.319 112 813.719 111.92 813.079 111.92C811.905 111.92 810.879 112.253 809.999 112.92C809.145 113.587 808.479 114.48 807.999 115.6C807.545 116.72 807.319 117.96 807.319 119.32V126.48L813.399 127.24V130H796.759ZM829.623 130.4C827.436 130.4 825.57 130.013 824.023 129.24C822.503 128.467 821.343 127.267 820.543 125.64C819.743 124.013 819.343 121.933 819.343 119.4C819.343 116.733 819.77 114.56 820.623 112.88C821.503 111.2 822.743 109.973 824.343 109.2C825.943 108.427 827.81 108.04 829.943 108.04C831.143 108.04 832.29 108.16 833.383 108.4C834.476 108.64 835.503 109 836.463 109.48L835.223 112.92C834.316 112.467 833.45 112.147 832.623 111.96C831.796 111.773 830.97 111.68 830.143 111.68C828.65 111.68 827.423 111.973 826.463 112.56C825.503 113.12 824.796 113.96 824.343 115.08C823.89 116.2 823.663 117.613 823.663 119.32C823.663 121.08 823.903 122.507 824.383 123.6C824.863 124.693 825.583 125.493 826.543 126C827.503 126.507 828.69 126.76 830.103 126.76C831.17 126.76 832.21 126.64 833.223 126.4C834.263 126.133 835.223 125.787 836.103 125.36V129.12C835.196 129.547 834.17 129.867 833.023 130.08C831.903 130.293 830.77 130.4 829.623 130.4ZM851.328 130.4C848.954 130.4 846.914 129.973 845.208 129.12C843.528 128.24 842.234 126.973 841.328 125.32C840.421 123.667 839.968 121.64 839.968 119.24C839.968 116.92 840.381 114.933 841.208 113.28C842.061 111.6 843.248 110.307 844.768 109.4C846.288 108.493 848.088 108.04 850.168 108.04C852.088 108.04 853.728 108.453 855.088 109.28C856.474 110.107 857.541 111.28 858.288 112.8C859.034 114.293 859.408 116.093 859.408 118.2V120.2H844.208C844.261 121.827 844.608 123.133 845.248 124.12C845.888 125.107 846.754 125.827 847.848 126.28C848.941 126.707 850.194 126.92 851.608 126.92C852.728 126.92 853.861 126.773 855.008 126.48C856.181 126.16 857.354 125.747 858.528 125.24V128.88C857.328 129.413 856.114 129.8 854.888 130.04C853.661 130.28 852.474 130.4 851.328 130.4ZM855.328 117C855.301 115.827 855.074 114.827 854.648 114C854.248 113.173 853.674 112.533 852.928 112.08C852.181 111.627 851.274 111.4 850.208 111.4C848.581 111.4 847.248 111.907 846.208 112.92C845.168 113.907 844.528 115.267 844.288 117H855.328ZM871.272 130.4C870.445 130.4 869.765 130.16 869.232 129.68C868.699 129.2 868.432 128.453 868.432 127.44C868.432 126.373 868.699 125.613 869.232 125.16C869.765 124.707 870.445 124.48 871.272 124.48C872.099 124.48 872.765 124.72 873.272 125.2C873.805 125.653 874.072 126.4 874.072 127.44C874.072 128.427 873.805 129.173 873.272 129.68C872.765 130.16 872.099 130.4 871.272 130.4Z" fill="#666666"/>
</svg>
