<svg width="956" height="174" viewBox="0 0 956 174" fill="none" xmlns="http://www.w3.org/2000/svg">
<path d="M7.373 137V128.168L27.469 125.736V79.272L9.805 77.48V68.008H38.093L39.885 80.296H40.525C42.9143 75.944 45.6023 72.616 48.589 70.312C51.661 67.9227 55.5863 66.728 60.365 66.728C62.8397 66.728 65.1863 66.9413 67.405 67.368C69.709 67.7947 71.8423 68.4773 73.805 69.416L70.221 81.576C68.8557 80.8933 67.2343 80.3387 65.357 79.912C63.565 79.4 61.645 79.144 59.597 79.144C55.8423 79.144 52.557 80.2107 49.741 82.344C47.0103 84.4773 44.877 87.336 43.341 90.92C41.8903 94.504 41.165 98.472 41.165 102.824V125.736L60.621 128.168V137H7.373ZM99.867 138.28C92.955 138.28 87.4937 136.531 83.483 133.032C79.4723 129.533 77.467 124.456 77.467 117.8C77.467 112.765 78.619 108.627 80.923 105.384C83.3123 102.056 86.7683 99.5813 91.291 97.96C95.899 96.2533 101.446 95.3147 107.931 95.144L122.907 94.76V91.816C122.907 86.5253 121.456 82.856 118.555 80.808C115.739 78.76 111.814 77.736 106.779 77.736C103.28 77.736 99.867 78.1627 96.539 79.016C93.211 79.8693 89.9257 81.1067 86.683 82.728L82.203 72.744C85.6163 71.0373 89.371 69.6293 93.467 68.52C97.6483 67.3253 102.299 66.728 107.419 66.728C116.379 66.728 123.291 68.6907 128.155 72.616C133.019 76.5413 135.451 82.6427 135.451 90.92V137H124.827L123.035 127.656H122.523C120.56 130.131 118.427 132.136 116.123 133.672C113.904 135.208 111.43 136.36 108.699 137.128C105.968 137.896 103.024 138.28 99.867 138.28ZM103.195 127.4C106.779 127.4 110.064 126.76 113.051 125.48C116.038 124.115 118.427 122.152 120.219 119.592C122.011 116.947 122.907 113.704 122.907 109.864V103.848L111.131 104.104C106.267 104.275 102.299 104.872 99.227 105.896C96.2403 106.92 94.0217 108.371 92.571 110.248C91.2057 112.125 90.523 114.387 90.523 117.032C90.523 120.701 91.675 123.347 93.979 124.968C96.3683 126.589 99.4403 127.4 103.195 127.4ZM147.817 137V128.168L171.881 125.736V79.272L150.249 77.48V68.008H185.577V125.736L207.849 128.168V137H147.817ZM177.897 56.872C175.252 56.872 173.076 56.1467 171.369 54.696C169.748 53.16 168.937 50.9413 168.937 48.04C168.937 45.0533 169.748 42.8347 171.369 41.384C173.076 39.848 175.294 39.08 178.025 39.08C180.67 39.08 182.804 39.848 184.425 41.384C186.132 42.8347 186.985 45.0533 186.985 48.04C186.985 50.9413 186.132 53.16 184.425 54.696C182.804 56.1467 180.628 56.872 177.897 56.872ZM216.887 137V128.168L241.335 125.736V50.984L218.807 48.68V39.72H255.031V125.736L276.919 128.168V137H216.887ZM293.381 141.992L284.549 136.872L342.277 41L350.853 46.12L293.381 141.992ZM317.317 138.28C311.514 138.28 306.522 137.171 302.341 134.952C298.245 132.733 294.832 129.576 292.101 125.48C289.37 121.299 287.365 116.349 286.085 110.632C284.89 104.829 284.293 98.3867 284.293 91.304C284.293 81.7467 285.445 73.4267 287.749 66.344C290.053 59.2613 293.637 53.8 298.501 49.96C303.45 46.0347 309.765 44.072 317.445 44.072C323.248 44.072 328.24 45.1813 332.421 47.4C336.602 49.5333 340.016 52.6907 342.661 56.872C345.392 61.0533 347.397 66.0027 348.677 71.72C349.957 77.4373 350.597 83.88 350.597 91.048C350.597 98.216 349.957 104.701 348.677 110.504C347.397 116.307 345.392 121.299 342.661 125.48C340.016 129.576 336.56 132.733 332.293 134.952C328.112 137.171 323.12 138.28 317.317 138.28ZM317.573 126.376C322.266 126.376 326.021 125.011 328.837 122.28C331.653 119.464 333.658 115.453 334.853 110.248C336.133 104.957 336.773 98.6 336.773 91.176C336.773 79.9973 335.322 71.336 332.421 65.192C329.52 59.048 324.57 55.976 317.573 55.976C312.88 55.976 309.082 57.384 306.181 60.2C303.365 62.9307 301.317 66.9413 300.037 72.232C298.757 77.4373 298.117 83.752 298.117 91.176C298.117 98.6 298.757 104.957 300.037 110.248C301.317 115.453 303.365 119.464 306.181 122.28C309.082 125.011 312.88 126.376 317.573 126.376Z" fill="black"/>
<path d="M409.64 76V47.44H418.16C421.547 47.44 424.027 48.1867 425.6 49.68C427.173 51.1467 427.96 53.24 427.96 55.96C427.96 57.6133 427.627 59.16 426.96 60.6C426.32 62.0133 425.24 63.1467 423.72 64C422.227 64.8267 420.213 65.24 417.68 65.24H413.8V76H409.64ZM417.24 61.6C418.68 61.6 419.88 61.4133 420.84 61.04C421.8 60.64 422.507 60.04 422.96 59.24C423.44 58.44 423.68 57.4133 423.68 56.16C423.68 54.3467 423.213 53.0533 422.28 52.28C421.347 51.48 419.88 51.08 417.88 51.08H413.8V61.6H417.24ZM442.824 76.4C440.451 76.4 438.411 75.9733 436.704 75.12C435.024 74.24 433.731 72.9733 432.824 71.32C431.918 69.6667 431.464 67.64 431.464 65.24C431.464 62.92 431.878 60.9333 432.704 59.28C433.558 57.6 434.744 56.3067 436.264 55.4C437.784 54.4933 439.584 54.04 441.664 54.04C443.584 54.04 445.224 54.4533 446.584 55.28C447.971 56.1067 449.038 57.28 449.784 58.8C450.531 60.2933 450.904 62.0933 450.904 64.2V66.2H435.704C435.758 67.8267 436.104 69.1333 436.744 70.12C437.384 71.1067 438.251 71.8267 439.344 72.28C440.438 72.7067 441.691 72.92 443.104 72.92C444.224 72.92 445.358 72.7733 446.504 72.48C447.678 72.16 448.851 71.7467 450.024 71.24V74.88C448.824 75.4133 447.611 75.8 446.384 76.04C445.158 76.28 443.971 76.4 442.824 76.4ZM446.824 63C446.798 61.8267 446.571 60.8267 446.144 60C445.744 59.1733 445.171 58.5333 444.424 58.08C443.678 57.6267 442.771 57.4 441.704 57.4C440.078 57.4 438.744 57.9067 437.704 58.92C436.664 59.9067 436.024 61.2667 435.784 63H446.824ZM466.009 76.4C463.635 76.4 461.595 75.9733 459.889 75.12C458.209 74.24 456.915 72.9733 456.009 71.32C455.102 69.6667 454.649 67.64 454.649 65.24C454.649 62.92 455.062 60.9333 455.889 59.28C456.742 57.6 457.929 56.3067 459.449 55.4C460.969 54.4933 462.769 54.04 464.849 54.04C466.769 54.04 468.409 54.4533 469.769 55.28C471.155 56.1067 472.222 57.28 472.969 58.8C473.715 60.2933 474.089 62.0933 474.089 64.2V66.2H458.889C458.942 67.8267 459.289 69.1333 459.929 70.12C460.569 71.1067 461.435 71.8267 462.529 72.28C463.622 72.7067 464.875 72.92 466.289 72.92C467.409 72.92 468.542 72.7733 469.689 72.48C470.862 72.16 472.035 71.7467 473.209 71.24V74.88C472.009 75.4133 470.795 75.8 469.569 76.04C468.342 76.28 467.155 76.4 466.009 76.4ZM470.009 63C469.982 61.8267 469.755 60.8267 469.329 60C468.929 59.1733 468.355 58.5333 467.609 58.08C466.862 57.6267 465.955 57.4 464.889 57.4C463.262 57.4 461.929 57.9067 460.889 58.92C459.849 59.9067 459.209 61.2667 458.969 63H470.009ZM477.793 76V73.24L484.073 72.48V57.96L478.553 57.4V54.44H487.393L487.953 58.28H488.153C488.9 56.92 489.74 55.88 490.673 55.16C491.633 54.4133 492.86 54.04 494.353 54.04C495.126 54.04 495.86 54.1067 496.553 54.24C497.273 54.3733 497.94 54.5867 498.553 54.88L497.433 58.68C497.006 58.4667 496.5 58.2933 495.913 58.16C495.353 58 494.753 57.92 494.113 57.92C492.94 57.92 491.913 58.2533 491.033 58.92C490.18 59.5867 489.513 60.48 489.033 61.6C488.58 62.72 488.353 63.96 488.353 65.32V72.48L494.433 73.24V76H477.793ZM504.738 67.08V63.36H516.738V67.08H504.738ZM537.882 76.4C536.255 76.4 534.829 76.1867 533.602 75.76C532.375 75.3067 531.415 74.56 530.722 73.52C530.055 72.4533 529.722 71.0133 529.722 69.2V57.96H524.122V55.16L529.842 54.36L530.642 48.8H533.962V54.44H542.282V57.96H533.962V68.52C533.962 69.5867 534.122 70.44 534.442 71.08C534.762 71.72 535.255 72.1867 535.922 72.48C536.589 72.7733 537.402 72.92 538.362 72.92C539.055 72.92 539.775 72.8533 540.522 72.72C541.295 72.5867 542.042 72.4533 542.762 72.32V75.68C542.015 75.8933 541.229 76.0667 540.402 76.2C539.575 76.3333 538.735 76.4 537.882 76.4ZM557.146 76.4C555.68 76.4 554.333 76.16 553.106 75.68C551.88 75.2 550.813 74.4933 549.906 73.56C549.026 72.6 548.346 71.4267 547.866 70.04C547.386 68.6533 547.146 67.04 547.146 65.2C547.146 62.7467 547.56 60.7067 548.386 59.08C549.24 57.4267 550.413 56.1733 551.906 55.32C553.4 54.4667 555.12 54.04 557.066 54.04C559.013 54.04 560.733 54.4667 562.226 55.32C563.746 56.1467 564.933 57.3867 565.786 59.04C566.64 60.6933 567.066 62.76 567.066 65.24C567.066 67.0533 566.826 68.6533 566.346 70.04C565.866 71.4267 565.186 72.6 564.306 73.56C563.453 74.4933 562.413 75.2 561.186 75.68C559.986 76.16 558.64 76.4 557.146 76.4ZM557.146 72.96C558.4 72.96 559.44 72.6533 560.266 72.04C561.12 71.4 561.746 70.4933 562.146 69.32C562.573 68.1467 562.786 66.7733 562.786 65.2C562.786 63.6 562.573 62.2267 562.146 61.08C561.746 59.9333 561.12 59.0533 560.266 58.44C559.44 57.8 558.386 57.48 557.106 57.48C555.186 57.48 553.746 58.1733 552.786 59.56C551.853 60.92 551.386 62.8 551.386 65.2C551.386 66.7733 551.6 68.1467 552.026 69.32C552.453 70.4933 553.093 71.4 553.946 72.04C554.8 72.6533 555.866 72.96 557.146 72.96ZM574.291 67.08V63.36H586.291V67.08H574.291ZM594.395 85.6V54.44H597.755L598.355 57.32H598.555C599.008 56.6267 599.542 56.04 600.155 55.56C600.768 55.0533 601.475 54.68 602.275 54.44C603.075 54.1733 603.982 54.04 604.995 54.04C606.328 54.04 607.515 54.2933 608.555 54.8C609.622 55.28 610.515 56.0133 611.235 57C611.955 57.96 612.502 59.1333 612.875 60.52C613.248 61.88 613.435 63.44 613.435 65.2C613.435 67.6 613.088 69.64 612.395 71.32C611.702 73 610.715 74.2667 609.435 75.12C608.155 75.9733 606.648 76.4 604.915 76.4C603.955 76.4 603.075 76.2667 602.275 76C601.475 75.7333 600.768 75.3733 600.155 74.92C599.542 74.44 599.008 73.92 598.555 73.36H598.315C598.422 73.9733 598.488 74.56 598.515 75.12C598.542 75.6533 598.555 76.12 598.555 76.52V85.6H594.395ZM603.835 72.92C605.675 72.92 607.008 72.28 607.835 71C608.662 69.72 609.075 67.76 609.075 65.12C609.075 62.56 608.662 60.6533 607.835 59.4C607.035 58.1467 605.688 57.52 603.795 57.52C602.035 57.52 600.715 58.12 599.835 59.32C598.982 60.4933 598.555 62.1867 598.555 64.4V65.16C598.555 67.6133 598.955 69.52 599.755 70.88C600.555 72.24 601.915 72.92 603.835 72.92ZM628.299 76.4C625.926 76.4 623.886 75.9733 622.179 75.12C620.499 74.24 619.206 72.9733 618.299 71.32C617.393 69.6667 616.939 67.64 616.939 65.24C616.939 62.92 617.353 60.9333 618.179 59.28C619.033 57.6 620.219 56.3067 621.739 55.4C623.259 54.4933 625.059 54.04 627.139 54.04C629.059 54.04 630.699 54.4533 632.059 55.28C633.446 56.1067 634.513 57.28 635.259 58.8C636.006 60.2933 636.379 62.0933 636.379 64.2V66.2H621.179C621.233 67.8267 621.579 69.1333 622.219 70.12C622.859 71.1067 623.726 71.8267 624.819 72.28C625.913 72.7067 627.166 72.92 628.579 72.92C629.699 72.92 630.833 72.7733 631.979 72.48C633.153 72.16 634.326 71.7467 635.499 71.24V74.88C634.299 75.4133 633.086 75.8 631.859 76.04C630.633 76.28 629.446 76.4 628.299 76.4ZM632.299 63C632.273 61.8267 632.046 60.8267 631.619 60C631.219 59.1733 630.646 58.5333 629.899 58.08C629.153 57.6267 628.246 57.4 627.179 57.4C625.553 57.4 624.219 57.9067 623.179 58.92C622.139 59.9067 621.499 61.2667 621.259 63H632.299ZM651.484 76.4C649.11 76.4 647.07 75.9733 645.364 75.12C643.684 74.24 642.39 72.9733 641.484 71.32C640.577 69.6667 640.124 67.64 640.124 65.24C640.124 62.92 640.537 60.9333 641.364 59.28C642.217 57.6 643.404 56.3067 644.924 55.4C646.444 54.4933 648.244 54.04 650.324 54.04C652.244 54.04 653.884 54.4533 655.244 55.28C656.63 56.1067 657.697 57.28 658.444 58.8C659.19 60.2933 659.564 62.0933 659.564 64.2V66.2H644.364C644.417 67.8267 644.764 69.1333 645.404 70.12C646.044 71.1067 646.91 71.8267 648.004 72.28C649.097 72.7067 650.35 72.92 651.764 72.92C652.884 72.92 654.017 72.7733 655.164 72.48C656.337 72.16 657.51 71.7467 658.684 71.24V74.88C657.484 75.4133 656.27 75.8 655.044 76.04C653.817 76.28 652.63 76.4 651.484 76.4ZM655.484 63C655.457 61.8267 655.23 60.8267 654.804 60C654.404 59.1733 653.83 58.5333 653.084 58.08C652.337 57.6267 651.43 57.4 650.364 57.4C648.737 57.4 647.404 57.9067 646.364 58.92C645.324 59.9067 644.684 61.2667 644.444 63H655.484ZM663.268 76V73.24L669.548 72.48V57.96L664.028 57.4V54.44H672.868L673.428 58.28H673.628C674.375 56.92 675.215 55.88 676.148 55.16C677.108 54.4133 678.335 54.04 679.828 54.04C680.601 54.04 681.335 54.1067 682.028 54.24C682.748 54.3733 683.415 54.5867 684.028 54.88L682.908 58.68C682.481 58.4667 681.975 58.2933 681.388 58.16C680.828 58 680.228 57.92 679.588 57.92C678.415 57.92 677.388 58.2533 676.508 58.92C675.655 59.5867 674.988 60.48 674.508 61.6C674.055 62.72 673.828 63.96 673.828 65.32V72.48L679.908 73.24V76H663.268ZM718.477 76.4C717.144 76.4 715.864 76.28 714.637 76.04C713.41 75.8267 712.304 75.5067 711.317 75.08V71.12C712.304 71.5733 713.41 71.9867 714.637 72.36C715.864 72.7067 717.25 72.88 718.797 72.88C720.344 72.88 721.464 72.6533 722.157 72.2C722.85 71.7467 723.197 71.0667 723.197 70.16C723.197 69.6 723.05 69.1467 722.757 68.8C722.464 68.4533 721.944 68.1067 721.197 67.76C720.477 67.4133 719.45 66.9733 718.117 66.44C716.81 65.8533 715.664 65.2933 714.677 64.76C713.69 64.2267 712.93 63.5867 712.397 62.84C711.864 62.0933 711.597 61.1333 711.597 59.96C711.597 58.6267 711.944 57.52 712.637 56.64C713.33 55.76 714.304 55.1067 715.557 54.68C716.837 54.2533 718.33 54.04 720.037 54.04C721.29 54.04 722.504 54.16 723.677 54.4C724.85 54.64 726.037 55.0133 727.237 55.52L725.957 58.8C724.837 58.3467 723.797 58.0267 722.837 57.84C721.904 57.6533 720.957 57.56 719.997 57.56C718.557 57.56 717.49 57.7467 716.797 58.12C716.13 58.4667 715.797 59.04 715.797 59.84C715.797 60.4 715.97 60.8667 716.317 61.24C716.664 61.6133 717.21 61.9733 717.957 62.32C718.704 62.64 719.664 63.0533 720.837 63.56C722.197 64.0933 723.37 64.6133 724.357 65.12C725.37 65.6267 726.144 66.2667 726.677 67.04C727.21 67.7867 727.477 68.8133 727.477 70.12C727.477 71.5067 727.13 72.6667 726.437 73.6C725.77 74.5333 724.77 75.24 723.437 75.72C722.104 76.1733 720.45 76.4 718.477 76.4ZM746.541 76.4C744.915 76.4 743.488 76.1867 742.261 75.76C741.035 75.3067 740.075 74.56 739.381 73.52C738.715 72.4533 738.381 71.0133 738.381 69.2V57.96H732.781V55.16L738.501 54.36L739.301 48.8H742.621V54.44H750.941V57.96H742.621V68.52C742.621 69.5867 742.781 70.44 743.101 71.08C743.421 71.72 743.915 72.1867 744.581 72.48C745.248 72.7733 746.061 72.92 747.021 72.92C747.715 72.92 748.435 72.8533 749.181 72.72C749.955 72.5867 750.701 72.4533 751.421 72.32V75.68C750.675 75.8933 749.888 76.0667 749.061 76.2C748.235 76.3333 747.395 76.4 746.541 76.4ZM763.326 76.4C761.166 76.4 759.459 75.8533 758.206 74.76C756.952 73.6667 756.326 72.08 756.326 70C756.326 68.4267 756.686 67.1333 757.406 66.12C758.152 65.08 759.232 64.3067 760.646 63.8C762.086 63.2667 763.819 62.9733 765.846 62.92L770.526 62.8V61.88C770.526 60.2267 770.072 59.08 769.166 58.44C768.286 57.8 767.059 57.48 765.486 57.48C764.392 57.48 763.326 57.6133 762.286 57.88C761.246 58.1467 760.219 58.5333 759.206 59.04L757.806 55.92C758.872 55.3867 760.046 54.9467 761.326 54.6C762.632 54.2267 764.086 54.04 765.686 54.04C768.486 54.04 770.646 54.6533 772.166 55.88C773.686 57.1067 774.446 59.0133 774.446 61.6V76H771.126L770.566 73.08H770.406C769.792 73.8533 769.126 74.48 768.406 74.96C767.712 75.44 766.939 75.8 766.086 76.04C765.232 76.28 764.312 76.4 763.326 76.4ZM764.366 73C765.486 73 766.512 72.8 767.446 72.4C768.379 71.9733 769.126 71.36 769.686 70.56C770.246 69.7333 770.526 68.72 770.526 67.52V65.64L766.846 65.72C765.326 65.7733 764.086 65.96 763.126 66.28C762.192 66.6 761.499 67.0533 761.046 67.64C760.619 68.2267 760.406 68.9333 760.406 69.76C760.406 70.9067 760.766 71.7333 761.486 72.24C762.232 72.7467 763.192 73 764.366 73ZM790.39 76.4C788.923 76.4 787.643 76.1067 786.55 75.52C785.483 74.9333 784.617 74.2133 783.95 73.36H783.67L783.19 76H779.87V45.6H783.99V52.88C783.99 53.52 783.977 54.2133 783.95 54.96C783.923 55.68 783.87 56.44 783.79 57.24H783.99C784.577 56.3333 785.417 55.5733 786.51 54.96C787.603 54.3467 788.91 54.04 790.43 54.04C791.763 54.04 792.95 54.2933 793.99 54.8C795.057 55.28 795.95 56.0133 796.67 57C797.39 57.96 797.937 59.1333 798.31 60.52C798.71 61.88 798.91 63.4267 798.91 65.16C798.91 66.9467 798.71 68.5333 798.31 69.92C797.937 71.3067 797.377 72.48 796.63 73.44C795.91 74.4 795.017 75.1333 793.95 75.64C792.91 76.1467 791.723 76.4 790.39 76.4ZM789.35 72.92C791.137 72.92 792.457 72.2667 793.31 70.96C794.163 69.6267 794.59 67.6933 794.59 65.16C794.59 62.6533 794.163 60.76 793.31 59.48C792.457 58.1733 791.123 57.52 789.31 57.52C787.63 57.52 786.323 58.16 785.39 59.44C784.457 60.6933 783.99 62.5867 783.99 65.12C783.99 67.68 784.43 69.6267 785.31 70.96C786.217 72.2667 787.563 72.92 789.35 72.92ZM803.094 76V73.24L810.734 72.48V49.12L803.694 48.4V45.6H815.014V72.48L821.854 73.24V76H803.094ZM836.959 76.4C834.585 76.4 832.545 75.9733 830.839 75.12C829.159 74.24 827.865 72.9733 826.959 71.32C826.052 69.6667 825.599 67.64 825.599 65.24C825.599 62.92 826.012 60.9333 826.839 59.28C827.692 57.6 828.879 56.3067 830.399 55.4C831.919 54.4933 833.719 54.04 835.799 54.04C837.719 54.04 839.359 54.4533 840.719 55.28C842.105 56.1067 843.172 57.28 843.919 58.8C844.665 60.2933 845.039 62.0933 845.039 64.2V66.2H829.839C829.892 67.8267 830.239 69.1333 830.879 70.12C831.519 71.1067 832.385 71.8267 833.479 72.28C834.572 72.7067 835.825 72.92 837.239 72.92C838.359 72.92 839.492 72.7733 840.639 72.48C841.812 72.16 842.985 71.7467 844.159 71.24V74.88C842.959 75.4133 841.745 75.8 840.519 76.04C839.292 76.28 838.105 76.4 836.959 76.4ZM840.959 63C840.932 61.8267 840.705 60.8267 840.279 60C839.879 59.1733 839.305 58.5333 838.559 58.08C837.812 57.6267 836.905 57.4 835.839 57.4C834.212 57.4 832.879 57.9067 831.839 58.92C830.799 59.9067 830.159 61.2667 829.919 63H840.959ZM860.023 76.4C857.836 76.4 855.97 76.0133 854.423 75.24C852.903 74.4667 851.743 73.2667 850.943 71.64C850.143 70.0133 849.743 67.9333 849.743 65.4C849.743 62.7333 850.17 60.56 851.023 58.88C851.903 57.2 853.143 55.9733 854.743 55.2C856.343 54.4267 858.21 54.04 860.343 54.04C861.543 54.04 862.69 54.16 863.783 54.4C864.876 54.64 865.903 55 866.863 55.48L865.623 58.92C864.716 58.4667 863.85 58.1467 863.023 57.96C862.196 57.7733 861.37 57.68 860.543 57.68C859.05 57.68 857.823 57.9733 856.863 58.56C855.903 59.12 855.196 59.96 854.743 61.08C854.29 62.2 854.063 63.6133 854.063 65.32C854.063 67.08 854.303 68.5067 854.783 69.6C855.263 70.6933 855.983 71.4933 856.943 72C857.903 72.5067 859.09 72.76 860.503 72.76C861.57 72.76 862.61 72.64 863.623 72.4C864.663 72.1333 865.623 71.7867 866.503 71.36V75.12C865.596 75.5467 864.57 75.8667 863.423 76.08C862.303 76.2933 861.17 76.4 860.023 76.4ZM881.728 76.4C880.261 76.4 878.914 76.16 877.688 75.68C876.461 75.2 875.394 74.4933 874.488 73.56C873.608 72.6 872.928 71.4267 872.448 70.04C871.968 68.6533 871.728 67.04 871.728 65.2C871.728 62.7467 872.141 60.7067 872.968 59.08C873.821 57.4267 874.994 56.1733 876.488 55.32C877.981 54.4667 879.701 54.04 881.648 54.04C883.594 54.04 885.314 54.4667 886.808 55.32C888.328 56.1467 889.514 57.3867 890.368 59.04C891.221 60.6933 891.648 62.76 891.648 65.24C891.648 67.0533 891.408 68.6533 890.928 70.04C890.448 71.4267 889.768 72.6 888.888 73.56C888.034 74.4933 886.994 75.2 885.768 75.68C884.568 76.16 883.221 76.4 881.728 76.4ZM881.728 72.96C882.981 72.96 884.021 72.6533 884.848 72.04C885.701 71.4 886.328 70.4933 886.728 69.32C887.154 68.1467 887.368 66.7733 887.368 65.2C887.368 63.6 887.154 62.2267 886.728 61.08C886.328 59.9333 885.701 59.0533 884.848 58.44C884.021 57.8 882.968 57.48 881.688 57.48C879.768 57.48 878.328 58.1733 877.368 59.56C876.434 60.92 875.968 62.8 875.968 65.2C875.968 66.7733 876.181 68.1467 876.608 69.32C877.034 70.4933 877.674 71.4 878.528 72.04C879.381 72.6533 880.448 72.96 881.728 72.96ZM895.832 76V73.24L903.352 72.48V57.96L896.592 57.4V54.44H907.632V72.48L914.592 73.24V76H895.832ZM905.232 50.96C904.405 50.96 903.725 50.7333 903.192 50.28C902.685 49.8 902.432 49.1067 902.432 48.2C902.432 47.2667 902.685 46.5733 903.192 46.12C903.725 45.64 904.419 45.4 905.272 45.4C906.099 45.4 906.765 45.64 907.272 46.12C907.805 46.5733 908.072 47.2667 908.072 48.2C908.072 49.1067 907.805 49.8 907.272 50.28C906.765 50.7333 906.085 50.96 905.232 50.96ZM918.976 76V54.44H922.296L922.936 57.48H923.176C923.603 56.7067 924.15 56.0667 924.816 55.56C925.483 55.0533 926.256 54.68 927.136 54.44C928.043 54.1733 929.016 54.04 930.056 54.04C932.296 54.04 934.07 54.68 935.376 55.96C936.683 57.2133 937.336 59.1333 937.336 61.72V76H933.096V62.6C933.096 60.84 932.736 59.56 932.016 58.76C931.323 57.9333 930.23 57.52 928.736 57.52C926.736 57.52 925.31 58.2 924.456 59.56C923.63 60.92 923.216 62.8 923.216 65.2V76H918.976ZM408.92 139.6V108.44H412.28L412.88 111.32H413.08C413.533 110.627 414.067 110.04 414.68 109.56C415.293 109.053 416 108.68 416.8 108.44C417.6 108.173 418.507 108.04 419.52 108.04C420.853 108.04 422.04 108.293 423.08 108.8C424.147 109.28 425.04 110.013 425.76 111C426.48 111.96 427.027 113.133 427.4 114.52C427.773 115.88 427.96 117.44 427.96 119.2C427.96 121.6 427.613 123.64 426.92 125.32C426.227 127 425.24 128.267 423.96 129.12C422.68 129.973 421.173 130.4 419.44 130.4C418.48 130.4 417.6 130.267 416.8 130C416 129.733 415.293 129.373 414.68 128.92C414.067 128.44 413.533 127.92 413.08 127.36H412.84C412.947 127.973 413.013 128.56 413.04 129.12C413.067 129.653 413.08 130.12 413.08 130.52V139.6H408.92ZM418.36 126.92C420.2 126.92 421.533 126.28 422.36 125C423.187 123.72 423.6 121.76 423.6 119.12C423.6 116.56 423.187 114.653 422.36 113.4C421.56 112.147 420.213 111.52 418.32 111.52C416.56 111.52 415.24 112.12 414.36 113.32C413.507 114.493 413.08 116.187 413.08 118.4V119.16C413.08 121.613 413.48 123.52 414.28 124.88C415.08 126.24 416.44 126.92 418.36 126.92ZM438.744 130.4C436.584 130.4 434.878 129.853 433.624 128.76C432.371 127.667 431.744 126.08 431.744 124C431.744 122.427 432.104 121.133 432.824 120.12C433.571 119.08 434.651 118.307 436.064 117.8C437.504 117.267 439.238 116.973 441.264 116.92L445.944 116.8V115.88C445.944 114.227 445.491 113.08 444.584 112.44C443.704 111.8 442.478 111.48 440.904 111.48C439.811 111.48 438.744 111.613 437.704 111.88C436.664 112.147 435.638 112.533 434.624 113.04L433.224 109.92C434.291 109.387 435.464 108.947 436.744 108.6C438.051 108.227 439.504 108.04 441.104 108.04C443.904 108.04 446.064 108.653 447.584 109.88C449.104 111.107 449.864 113.013 449.864 115.6V130H446.544L445.984 127.08H445.824C445.211 127.853 444.544 128.48 443.824 128.96C443.131 129.44 442.358 129.8 441.504 130.04C440.651 130.28 439.731 130.4 438.744 130.4ZM439.784 127C440.904 127 441.931 126.8 442.864 126.4C443.798 125.973 444.544 125.36 445.104 124.56C445.664 123.733 445.944 122.72 445.944 121.52V119.64L442.264 119.72C440.744 119.773 439.504 119.96 438.544 120.28C437.611 120.6 436.918 121.053 436.464 121.64C436.038 122.227 435.824 122.933 435.824 123.76C435.824 124.907 436.184 125.733 436.904 126.24C437.651 126.747 438.611 127 439.784 127ZM457.769 139.8C457.262 139.8 456.755 139.76 456.249 139.68C455.742 139.627 455.289 139.56 454.889 139.48V136.08C455.209 136.133 455.582 136.187 456.009 136.24C456.435 136.293 456.835 136.32 457.209 136.32C458.035 136.32 458.715 136.173 459.249 135.88C459.809 135.613 460.289 135.2 460.689 134.64C461.115 134.08 461.502 133.36 461.849 132.48L462.769 130.08L453.889 108.44H458.209L463.049 121.04C463.369 121.787 463.662 122.613 463.929 123.52C464.222 124.4 464.475 125.28 464.689 126.16H464.809C464.969 125.547 465.129 124.947 465.289 124.36C465.475 123.773 465.649 123.2 465.809 122.64C465.995 122.053 466.169 121.507 466.329 121L470.409 108.44H474.849L466.009 132.32C465.449 133.867 464.822 135.2 464.129 136.32C463.462 137.44 462.622 138.293 461.609 138.88C460.595 139.493 459.315 139.8 457.769 139.8ZM477.313 130V108.44H480.233L480.793 110.92H480.993C481.34 110.2 481.7 109.64 482.073 109.24C482.473 108.813 482.913 108.507 483.393 108.32C483.873 108.133 484.406 108.04 484.993 108.04C486.113 108.04 486.966 108.32 487.553 108.88C488.166 109.413 488.62 110.213 488.913 111.28H489.073C489.526 110.24 490.086 109.44 490.753 108.88C491.446 108.32 492.353 108.04 493.473 108.04C494.593 108.04 495.46 108.333 496.073 108.92C496.713 109.48 497.166 110.347 497.433 111.52C497.7 112.667 497.833 114.147 497.833 115.96V130H494.073V116.04C494.073 115.107 494.033 114.32 493.953 113.68C493.873 113.04 493.7 112.547 493.433 112.2C493.166 111.827 492.74 111.64 492.153 111.64C491.566 111.64 491.073 111.893 490.673 112.4C490.273 112.88 489.966 113.613 489.753 114.6C489.566 115.56 489.473 116.787 489.473 118.28V130H485.713V116.04C485.713 115.08 485.646 114.28 485.513 113.64C485.406 113 485.206 112.507 484.913 112.16C484.62 111.813 484.18 111.64 483.593 111.64C482.953 111.64 482.446 111.907 482.073 112.44C481.7 112.973 481.433 113.733 481.273 114.72C481.113 115.68 481.033 116.867 481.033 118.28V130H477.313ZM512.378 130.4C510.004 130.4 507.964 129.973 506.258 129.12C504.578 128.24 503.284 126.973 502.378 125.32C501.471 123.667 501.018 121.64 501.018 119.24C501.018 116.92 501.431 114.933 502.258 113.28C503.111 111.6 504.298 110.307 505.818 109.4C507.338 108.493 509.138 108.04 511.218 108.04C513.138 108.04 514.778 108.453 516.138 109.28C517.524 110.107 518.591 111.28 519.338 112.8C520.084 114.293 520.458 116.093 520.458 118.2V120.2H505.258C505.311 121.827 505.658 123.133 506.298 124.12C506.938 125.107 507.804 125.827 508.898 126.28C509.991 126.707 511.244 126.92 512.658 126.92C513.778 126.92 514.911 126.773 516.058 126.48C517.231 126.16 518.404 125.747 519.578 125.24V128.88C518.378 129.413 517.164 129.8 515.938 130.04C514.711 130.28 513.524 130.4 512.378 130.4ZM516.378 117C516.351 115.827 516.124 114.827 515.698 114C515.298 113.173 514.724 112.533 513.978 112.08C513.231 111.627 512.324 111.4 511.258 111.4C509.631 111.4 508.298 111.907 507.258 112.92C506.218 113.907 505.578 115.267 505.338 117H516.378ZM524.842 130V108.44H528.162L528.802 111.48H529.042C529.469 110.707 530.015 110.067 530.682 109.56C531.349 109.053 532.122 108.68 533.002 108.44C533.909 108.173 534.882 108.04 535.922 108.04C538.162 108.04 539.935 108.68 541.242 109.96C542.549 111.213 543.202 113.133 543.202 115.72V130H538.962V116.6C538.962 114.84 538.602 113.56 537.882 112.76C537.189 111.933 536.095 111.52 534.602 111.52C532.602 111.52 531.175 112.2 530.322 113.56C529.495 114.92 529.082 116.8 529.082 119.2V130H524.842ZM561.066 130.4C559.44 130.4 558.013 130.187 556.786 129.76C555.56 129.307 554.6 128.56 553.906 127.52C553.24 126.453 552.906 125.013 552.906 123.2V111.96H547.306V109.16L553.026 108.36L553.826 102.8H557.146V108.44H565.466V111.96H557.146V122.52C557.146 123.587 557.306 124.44 557.626 125.08C557.946 125.72 558.44 126.187 559.106 126.48C559.773 126.773 560.586 126.92 561.546 126.92C562.24 126.92 562.96 126.853 563.706 126.72C564.48 126.587 565.226 126.453 565.946 126.32V129.68C565.2 129.893 564.413 130.067 563.586 130.2C562.76 130.333 561.92 130.4 561.066 130.4ZM579.371 130.4C578.037 130.4 576.757 130.28 575.531 130.04C574.304 129.827 573.197 129.507 572.211 129.08V125.12C573.197 125.573 574.304 125.987 575.531 126.36C576.757 126.707 578.144 126.88 579.691 126.88C581.237 126.88 582.357 126.653 583.051 126.2C583.744 125.747 584.091 125.067 584.091 124.16C584.091 123.6 583.944 123.147 583.651 122.8C583.357 122.453 582.837 122.107 582.091 121.76C581.371 121.413 580.344 120.973 579.011 120.44C577.704 119.853 576.557 119.293 575.571 118.76C574.584 118.227 573.824 117.587 573.291 116.84C572.757 116.093 572.491 115.133 572.491 113.96C572.491 112.627 572.837 111.52 573.531 110.64C574.224 109.76 575.197 109.107 576.451 108.68C577.731 108.253 579.224 108.04 580.931 108.04C582.184 108.04 583.397 108.16 584.571 108.4C585.744 108.64 586.931 109.013 588.131 109.52L586.851 112.8C585.731 112.347 584.691 112.027 583.731 111.84C582.797 111.653 581.851 111.56 580.891 111.56C579.451 111.56 578.384 111.747 577.691 112.12C577.024 112.467 576.691 113.04 576.691 113.84C576.691 114.4 576.864 114.867 577.211 115.24C577.557 115.613 578.104 115.973 578.851 116.32C579.597 116.64 580.557 117.053 581.731 117.56C583.091 118.093 584.264 118.613 585.251 119.12C586.264 119.627 587.037 120.267 587.571 121.04C588.104 121.787 588.371 122.813 588.371 124.12C588.371 125.507 588.024 126.667 587.331 127.6C586.664 128.533 585.664 129.24 584.331 129.72C582.997 130.173 581.344 130.4 579.371 130.4ZM623.979 130V111.96H617.339V109.16L623.979 108.44V106.32C623.979 104.613 624.299 103.253 624.939 102.24C625.579 101.227 626.486 100.507 627.659 100.08C628.859 99.6267 630.286 99.4 631.939 99.4C633.059 99.4 634.086 99.48 635.019 99.64C635.979 99.8 636.833 100 637.579 100.24L636.579 103.52C635.993 103.36 635.313 103.227 634.539 103.12C633.793 102.987 633.086 102.92 632.419 102.92C631.059 102.92 630.019 103.213 629.299 103.8C628.579 104.36 628.219 105.373 628.219 106.84V108.44H635.979V111.96H628.219V130H623.979ZM649.884 130.4C648.417 130.4 647.07 130.16 645.844 129.68C644.617 129.2 643.55 128.493 642.644 127.56C641.764 126.6 641.084 125.427 640.604 124.04C640.124 122.653 639.884 121.04 639.884 119.2C639.884 116.747 640.297 114.707 641.124 113.08C641.977 111.427 643.15 110.173 644.644 109.32C646.137 108.467 647.857 108.04 649.804 108.04C651.75 108.04 653.47 108.467 654.964 109.32C656.484 110.147 657.67 111.387 658.524 113.04C659.377 114.693 659.804 116.76 659.804 119.24C659.804 121.053 659.564 122.653 659.084 124.04C658.604 125.427 657.924 126.6 657.044 127.56C656.19 128.493 655.15 129.2 653.924 129.68C652.724 130.16 651.377 130.4 649.884 130.4ZM649.884 126.96C651.137 126.96 652.177 126.653 653.004 126.04C653.857 125.4 654.484 124.493 654.884 123.32C655.31 122.147 655.524 120.773 655.524 119.2C655.524 117.6 655.31 116.227 654.884 115.08C654.484 113.933 653.857 113.053 653.004 112.44C652.177 111.8 651.124 111.48 649.844 111.48C647.924 111.48 646.484 112.173 645.524 113.56C644.59 114.92 644.124 116.8 644.124 119.2C644.124 120.773 644.337 122.147 644.764 123.32C645.19 124.493 645.83 125.4 646.684 126.04C647.537 126.653 648.604 126.96 649.884 126.96ZM663.268 130V127.24L669.548 126.48V111.96L664.028 111.4V108.44H672.868L673.428 112.28H673.628C674.375 110.92 675.215 109.88 676.148 109.16C677.108 108.413 678.335 108.04 679.828 108.04C680.601 108.04 681.335 108.107 682.028 108.24C682.748 108.373 683.415 108.587 684.028 108.88L682.908 112.68C682.481 112.467 681.975 112.293 681.388 112.16C680.828 112 680.228 111.92 679.588 111.92C678.415 111.92 677.388 112.253 676.508 112.92C675.655 113.587 674.988 114.48 674.508 115.6C674.055 116.72 673.828 117.96 673.828 119.32V126.48L679.908 127.24V130H663.268ZM720.917 130.4C718.73 130.4 716.864 130.013 715.317 129.24C713.797 128.467 712.637 127.267 711.837 125.64C711.037 124.013 710.637 121.933 710.637 119.4C710.637 116.733 711.064 114.56 711.917 112.88C712.797 111.2 714.037 109.973 715.637 109.2C717.237 108.427 719.104 108.04 721.237 108.04C722.437 108.04 723.584 108.16 724.677 108.4C725.77 108.64 726.797 109 727.757 109.48L726.517 112.92C725.61 112.467 724.744 112.147 723.917 111.96C723.09 111.773 722.264 111.68 721.437 111.68C719.944 111.68 718.717 111.973 717.757 112.56C716.797 113.12 716.09 113.96 715.637 115.08C715.184 116.2 714.957 117.613 714.957 119.32C714.957 121.08 715.197 122.507 715.677 123.6C716.157 124.693 716.877 125.493 717.837 126C718.797 126.507 719.984 126.76 721.397 126.76C722.464 126.76 723.504 126.64 724.517 126.4C725.557 126.133 726.517 125.787 727.397 125.36V129.12C726.49 129.547 725.464 129.867 724.317 130.08C723.197 130.293 722.064 130.4 720.917 130.4ZM742.621 130.4C741.155 130.4 739.808 130.16 738.581 129.68C737.355 129.2 736.288 128.493 735.381 127.56C734.501 126.6 733.821 125.427 733.341 124.04C732.861 122.653 732.621 121.04 732.621 119.2C732.621 116.747 733.035 114.707 733.861 113.08C734.715 111.427 735.888 110.173 737.381 109.32C738.875 108.467 740.595 108.04 742.541 108.04C744.488 108.04 746.208 108.467 747.701 109.32C749.221 110.147 750.408 111.387 751.261 113.04C752.115 114.693 752.541 116.76 752.541 119.24C752.541 121.053 752.301 122.653 751.821 124.04C751.341 125.427 750.661 126.6 749.781 127.56C748.928 128.493 747.888 129.2 746.661 129.68C745.461 130.16 744.115 130.4 742.621 130.4ZM742.621 126.96C743.875 126.96 744.915 126.653 745.741 126.04C746.595 125.4 747.221 124.493 747.621 123.32C748.048 122.147 748.261 120.773 748.261 119.2C748.261 117.6 748.048 116.227 747.621 115.08C747.221 113.933 746.595 113.053 745.741 112.44C744.915 111.8 743.861 111.48 742.581 111.48C740.661 111.48 739.221 112.173 738.261 113.56C737.328 114.92 736.861 116.8 736.861 119.2C736.861 120.773 737.075 122.147 737.501 123.32C737.928 124.493 738.568 125.4 739.421 126.04C740.275 126.653 741.341 126.96 742.621 126.96ZM755.526 130V108.44H758.446L759.006 110.92H759.206C759.552 110.2 759.912 109.64 760.286 109.24C760.686 108.813 761.126 108.507 761.606 108.32C762.086 108.133 762.619 108.04 763.206 108.04C764.326 108.04 765.179 108.32 765.766 108.88C766.379 109.413 766.832 110.213 767.126 111.28H767.286C767.739 110.24 768.299 109.44 768.966 108.88C769.659 108.32 770.566 108.04 771.686 108.04C772.806 108.04 773.672 108.333 774.286 108.92C774.926 109.48 775.379 110.347 775.646 111.52C775.912 112.667 776.046 114.147 776.046 115.96V130H772.286V116.04C772.286 115.107 772.246 114.32 772.166 113.68C772.086 113.04 771.912 112.547 771.646 112.2C771.379 111.827 770.952 111.64 770.366 111.64C769.779 111.64 769.286 111.893 768.886 112.4C768.486 112.88 768.179 113.613 767.966 114.6C767.779 115.56 767.686 116.787 767.686 118.28V130H763.926V116.04C763.926 115.08 763.859 114.28 763.726 113.64C763.619 113 763.419 112.507 763.126 112.16C762.832 111.813 762.392 111.64 761.806 111.64C761.166 111.64 760.659 111.907 760.286 112.44C759.912 112.973 759.646 113.733 759.486 114.72C759.326 115.68 759.246 116.867 759.246 118.28V130H755.526ZM778.71 130V108.44H781.63L782.19 110.92H782.39C782.737 110.2 783.097 109.64 783.47 109.24C783.87 108.813 784.31 108.507 784.79 108.32C785.27 108.133 785.803 108.04 786.39 108.04C787.51 108.04 788.363 108.32 788.95 108.88C789.563 109.413 790.017 110.213 790.31 111.28H790.47C790.923 110.24 791.483 109.44 792.15 108.88C792.843 108.32 793.75 108.04 794.87 108.04C795.99 108.04 796.857 108.333 797.47 108.92C798.11 109.48 798.563 110.347 798.83 111.52C799.097 112.667 799.23 114.147 799.23 115.96V130H795.47V116.04C795.47 115.107 795.43 114.32 795.35 113.68C795.27 113.04 795.097 112.547 794.83 112.2C794.563 111.827 794.137 111.64 793.55 111.64C792.963 111.64 792.47 111.893 792.07 112.4C791.67 112.88 791.363 113.613 791.15 114.6C790.963 115.56 790.87 116.787 790.87 118.28V130H787.11V116.04C787.11 115.08 787.043 114.28 786.91 113.64C786.803 113 786.603 112.507 786.31 112.16C786.017 111.813 785.577 111.64 784.99 111.64C784.35 111.64 783.843 111.907 783.47 112.44C783.097 112.973 782.83 113.733 782.67 114.72C782.51 115.68 782.43 116.867 782.43 118.28V130H778.71ZM813.774 130.4C811.401 130.4 809.361 129.973 807.654 129.12C805.974 128.24 804.681 126.973 803.774 125.32C802.868 123.667 802.414 121.64 802.414 119.24C802.414 116.92 802.828 114.933 803.654 113.28C804.508 111.6 805.694 110.307 807.214 109.4C808.734 108.493 810.534 108.04 812.614 108.04C814.534 108.04 816.174 108.453 817.534 109.28C818.921 110.107 819.988 111.28 820.734 112.8C821.481 114.293 821.854 116.093 821.854 118.2V120.2H806.654C806.708 121.827 807.054 123.133 807.694 124.12C808.334 125.107 809.201 125.827 810.294 126.28C811.388 126.707 812.641 126.92 814.054 126.92C815.174 126.92 816.308 126.773 817.454 126.48C818.628 126.16 819.801 125.747 820.974 125.24V128.88C819.774 129.413 818.561 129.8 817.334 130.04C816.108 130.28 814.921 130.4 813.774 130.4ZM817.774 117C817.748 115.827 817.521 114.827 817.094 114C816.694 113.173 816.121 112.533 815.374 112.08C814.628 111.627 813.721 111.4 812.654 111.4C811.028 111.4 809.694 111.907 808.654 112.92C807.614 113.907 806.974 115.267 806.734 117H817.774ZM825.559 130V127.24L831.839 126.48V111.96L826.319 111.4V108.44H835.159L835.719 112.28H835.919C836.665 110.92 837.505 109.88 838.439 109.16C839.399 108.413 840.625 108.04 842.119 108.04C842.892 108.04 843.625 108.107 844.319 108.24C845.039 108.373 845.705 108.587 846.319 108.88L845.199 112.68C844.772 112.467 844.265 112.293 843.679 112.16C843.119 112 842.519 111.92 841.879 111.92C840.705 111.92 839.679 112.253 838.799 112.92C837.945 113.587 837.279 114.48 836.799 115.6C836.345 116.72 836.119 117.96 836.119 119.32V126.48L842.199 127.24V130H825.559ZM860.023 130.4C857.836 130.4 855.97 130.013 854.423 129.24C852.903 128.467 851.743 127.267 850.943 125.64C850.143 124.013 849.743 121.933 849.743 119.4C849.743 116.733 850.17 114.56 851.023 112.88C851.903 111.2 853.143 109.973 854.743 109.2C856.343 108.427 858.21 108.04 860.343 108.04C861.543 108.04 862.69 108.16 863.783 108.4C864.876 108.64 865.903 109 866.863 109.48L865.623 112.92C864.716 112.467 863.85 112.147 863.023 111.96C862.196 111.773 861.37 111.68 860.543 111.68C859.05 111.68 857.823 111.973 856.863 112.56C855.903 113.12 855.196 113.96 854.743 115.08C854.29 116.2 854.063 117.613 854.063 119.32C854.063 121.08 854.303 122.507 854.783 123.6C855.263 124.693 855.983 125.493 856.943 126C857.903 126.507 859.09 126.76 860.503 126.76C861.57 126.76 862.61 126.64 863.623 126.4C864.663 126.133 865.623 125.787 866.503 125.36V129.12C865.596 129.547 864.57 129.867 863.423 130.08C862.303 130.293 861.17 130.4 860.023 130.4ZM883.328 130.4C880.954 130.4 878.914 129.973 877.208 129.12C875.528 128.24 874.234 126.973 873.328 125.32C872.421 123.667 871.968 121.64 871.968 119.24C871.968 116.92 872.381 114.933 873.208 113.28C874.061 111.6 875.248 110.307 876.768 109.4C878.288 108.493 880.088 108.04 882.168 108.04C884.088 108.04 885.728 108.453 887.088 109.28C888.474 110.107 889.541 111.28 890.288 112.8C891.034 114.293 891.408 116.093 891.408 118.2V120.2H876.208C876.261 121.827 876.608 123.133 877.248 124.12C877.888 125.107 878.754 125.827 879.848 126.28C880.941 126.707 882.194 126.92 883.608 126.92C884.728 126.92 885.861 126.773 887.008 126.48C888.181 126.16 889.354 125.747 890.528 125.24V128.88C889.328 129.413 888.114 129.8 886.888 130.04C885.661 130.28 884.474 130.4 883.328 130.4ZM887.328 117C887.301 115.827 887.074 114.827 886.648 114C886.248 113.173 885.674 112.533 884.928 112.08C884.181 111.627 883.274 111.4 882.208 111.4C880.581 111.4 879.248 111.907 878.208 112.92C877.168 113.907 876.528 115.267 876.288 117H887.328ZM904.872 130.4C904.045 130.4 903.365 130.16 902.832 129.68C902.299 129.2 902.032 128.453 902.032 127.44C902.032 126.373 902.299 125.613 902.832 125.16C903.365 124.707 904.045 124.48 904.872 124.48C905.699 124.48 906.365 124.72 906.872 125.2C907.405 125.653 907.672 126.4 907.672 127.44C907.672 128.427 907.405 129.173 906.872 129.68C906.365 130.16 905.699 130.4 904.872 130.4Z" fill="#666666"/>
</svg>
