<svg width="956" height="174" viewBox="0 0 956 174" fill="none" xmlns="http://www.w3.org/2000/svg">
<path d="M7.373 137V128.168L27.469 125.736V79.272L9.805 77.48V68.008H38.093L39.885 80.296H40.525C42.9143 75.944 45.6023 72.616 48.589 70.312C51.661 67.9227 55.5863 66.728 60.365 66.728C62.8397 66.728 65.1863 66.9413 67.405 67.368C69.709 67.7947 71.8423 68.4773 73.805 69.416L70.221 81.576C68.8557 80.8933 67.2343 80.3387 65.357 79.912C63.565 79.4 61.645 79.144 59.597 79.144C55.8423 79.144 52.557 80.2107 49.741 82.344C47.0103 84.4773 44.877 87.336 43.341 90.92C41.8903 94.504 41.165 98.472 41.165 102.824V125.736L60.621 128.168V137H7.373ZM99.867 138.28C92.955 138.28 87.4937 136.531 83.483 133.032C79.4723 129.533 77.467 124.456 77.467 117.8C77.467 112.765 78.619 108.627 80.923 105.384C83.3123 102.056 86.7683 99.5813 91.291 97.96C95.899 96.2533 101.446 95.3147 107.931 95.144L122.907 94.76V91.816C122.907 86.5253 121.456 82.856 118.555 80.808C115.739 78.76 111.814 77.736 106.779 77.736C103.28 77.736 99.867 78.1627 96.539 79.016C93.211 79.8693 89.9257 81.1067 86.683 82.728L82.203 72.744C85.6163 71.0373 89.371 69.6293 93.467 68.52C97.6483 67.3253 102.299 66.728 107.419 66.728C116.379 66.728 123.291 68.6907 128.155 72.616C133.019 76.5413 135.451 82.6427 135.451 90.92V137H124.827L123.035 127.656H122.523C120.56 130.131 118.427 132.136 116.123 133.672C113.904 135.208 111.43 136.36 108.699 137.128C105.968 137.896 103.024 138.28 99.867 138.28ZM103.195 127.4C106.779 127.4 110.064 126.76 113.051 125.48C116.038 124.115 118.427 122.152 120.219 119.592C122.011 116.947 122.907 113.704 122.907 109.864V103.848L111.131 104.104C106.267 104.275 102.299 104.872 99.227 105.896C96.2403 106.92 94.0217 108.371 92.571 110.248C91.2057 112.125 90.523 114.387 90.523 117.032C90.523 120.701 91.675 123.347 93.979 124.968C96.3683 126.589 99.4403 127.4 103.195 127.4ZM147.817 137V128.168L171.881 125.736V79.272L150.249 77.48V68.008H185.577V125.736L207.849 128.168V137H147.817ZM177.897 56.872C175.252 56.872 173.076 56.1467 171.369 54.696C169.748 53.16 168.937 50.9413 168.937 48.04C168.937 45.0533 169.748 42.8347 171.369 41.384C173.076 39.848 175.294 39.08 178.025 39.08C180.67 39.08 182.804 39.848 184.425 41.384C186.132 42.8347 186.985 45.0533 186.985 48.04C186.985 50.9413 186.132 53.16 184.425 54.696C182.804 56.1467 180.628 56.872 177.897 56.872ZM216.887 137V128.168L241.335 125.736V50.984L218.807 48.68V39.72H255.031V125.736L276.919 128.168V137H216.887ZM293.381 141.992L284.549 136.872L342.277 41L350.853 46.12L293.381 141.992ZM317.317 138.28C311.514 138.28 306.522 137.171 302.341 134.952C298.245 132.733 294.832 129.576 292.101 125.48C289.37 121.299 287.365 116.349 286.085 110.632C284.89 104.829 284.293 98.3867 284.293 91.304C284.293 81.7467 285.445 73.4267 287.749 66.344C290.053 59.2613 293.637 53.8 298.501 49.96C303.45 46.0347 309.765 44.072 317.445 44.072C323.248 44.072 328.24 45.1813 332.421 47.4C336.602 49.5333 340.016 52.6907 342.661 56.872C345.392 61.0533 347.397 66.0027 348.677 71.72C349.957 77.4373 350.597 83.88 350.597 91.048C350.597 98.216 349.957 104.701 348.677 110.504C347.397 116.307 345.392 121.299 342.661 125.48C340.016 129.576 336.56 132.733 332.293 134.952C328.112 137.171 323.12 138.28 317.317 138.28ZM317.573 126.376C322.266 126.376 326.021 125.011 328.837 122.28C331.653 119.464 333.658 115.453 334.853 110.248C336.133 104.957 336.773 98.6 336.773 91.176C336.773 79.9973 335.322 71.336 332.421 65.192C329.52 59.048 324.57 55.976 317.573 55.976C312.88 55.976 309.082 57.384 306.181 60.2C303.365 62.9307 301.317 66.9413 300.037 72.232C298.757 77.4373 298.117 83.752 298.117 91.176C298.117 98.6 298.757 104.957 300.037 110.248C301.317 115.453 303.365 119.464 306.181 122.28C309.082 125.011 312.88 126.376 317.573 126.376Z" fill="white"/>
<path d="M409.64 72V43.44H418.16C421.547 43.44 424.027 44.1867 425.6 45.68C427.173 47.1467 427.96 49.24 427.96 51.96C427.96 53.6133 427.627 55.16 426.96 56.6C426.32 58.0133 425.24 59.1467 423.72 60C422.227 60.8267 420.213 61.24 417.68 61.24H413.8V72H409.64ZM417.24 57.6C418.68 57.6 419.88 57.4133 420.84 57.04C421.8 56.64 422.507 56.04 422.96 55.24C423.44 54.44 423.68 53.4133 423.68 52.16C423.68 50.3467 423.213 49.0533 422.28 48.28C421.347 47.48 419.88 47.08 417.88 47.08H413.8V57.6H417.24ZM442.824 72.4C440.451 72.4 438.411 71.9733 436.704 71.12C435.024 70.24 433.731 68.9733 432.824 67.32C431.918 65.6667 431.464 63.64 431.464 61.24C431.464 58.92 431.878 56.9333 432.704 55.28C433.558 53.6 434.744 52.3067 436.264 51.4C437.784 50.4933 439.584 50.04 441.664 50.04C443.584 50.04 445.224 50.4533 446.584 51.28C447.971 52.1067 449.038 53.28 449.784 54.8C450.531 56.2933 450.904 58.0933 450.904 60.2V62.2H435.704C435.758 63.8267 436.104 65.1333 436.744 66.12C437.384 67.1067 438.251 67.8267 439.344 68.28C440.438 68.7067 441.691 68.92 443.104 68.92C444.224 68.92 445.358 68.7733 446.504 68.48C447.678 68.16 448.851 67.7467 450.024 67.24V70.88C448.824 71.4133 447.611 71.8 446.384 72.04C445.158 72.28 443.971 72.4 442.824 72.4ZM446.824 59C446.798 57.8267 446.571 56.8267 446.144 56C445.744 55.1733 445.171 54.5333 444.424 54.08C443.678 53.6267 442.771 53.4 441.704 53.4C440.078 53.4 438.744 53.9067 437.704 54.92C436.664 55.9067 436.024 57.2667 435.784 59H446.824ZM466.009 72.4C463.635 72.4 461.595 71.9733 459.889 71.12C458.209 70.24 456.915 68.9733 456.009 67.32C455.102 65.6667 454.649 63.64 454.649 61.24C454.649 58.92 455.062 56.9333 455.889 55.28C456.742 53.6 457.929 52.3067 459.449 51.4C460.969 50.4933 462.769 50.04 464.849 50.04C466.769 50.04 468.409 50.4533 469.769 51.28C471.155 52.1067 472.222 53.28 472.969 54.8C473.715 56.2933 474.089 58.0933 474.089 60.2V62.2H458.889C458.942 63.8267 459.289 65.1333 459.929 66.12C460.569 67.1067 461.435 67.8267 462.529 68.28C463.622 68.7067 464.875 68.92 466.289 68.92C467.409 68.92 468.542 68.7733 469.689 68.48C470.862 68.16 472.035 67.7467 473.209 67.24V70.88C472.009 71.4133 470.795 71.8 469.569 72.04C468.342 72.28 467.155 72.4 466.009 72.4ZM470.009 59C469.982 57.8267 469.755 56.8267 469.329 56C468.929 55.1733 468.355 54.5333 467.609 54.08C466.862 53.6267 465.955 53.4 464.889 53.4C463.262 53.4 461.929 53.9067 460.889 54.92C459.849 55.9067 459.209 57.2667 458.969 59H470.009ZM477.793 72V69.24L484.073 68.48V53.96L478.553 53.4V50.44H487.393L487.953 54.28H488.153C488.9 52.92 489.74 51.88 490.673 51.16C491.633 50.4133 492.86 50.04 494.353 50.04C495.126 50.04 495.86 50.1067 496.553 50.24C497.273 50.3733 497.94 50.5867 498.553 50.88L497.433 54.68C497.006 54.4667 496.5 54.2933 495.913 54.16C495.353 54 494.753 53.92 494.113 53.92C492.94 53.92 491.913 54.2533 491.033 54.92C490.18 55.5867 489.513 56.48 489.033 57.6C488.58 58.72 488.353 59.96 488.353 61.32V68.48L494.433 69.24V72H477.793ZM504.738 63.08V59.36H516.738V63.08H504.738ZM537.882 72.4C536.255 72.4 534.829 72.1867 533.602 71.76C532.375 71.3067 531.415 70.56 530.722 69.52C530.055 68.4533 529.722 67.0133 529.722 65.2V53.96H524.122V51.16L529.842 50.36L530.642 44.8H533.962V50.44H542.282V53.96H533.962V64.52C533.962 65.5867 534.122 66.44 534.442 67.08C534.762 67.72 535.255 68.1867 535.922 68.48C536.589 68.7733 537.402 68.92 538.362 68.92C539.055 68.92 539.775 68.8533 540.522 68.72C541.295 68.5867 542.042 68.4533 542.762 68.32V71.68C542.015 71.8933 541.229 72.0667 540.402 72.2C539.575 72.3333 538.735 72.4 537.882 72.4ZM557.146 72.4C555.68 72.4 554.333 72.16 553.106 71.68C551.88 71.2 550.813 70.4933 549.906 69.56C549.026 68.6 548.346 67.4267 547.866 66.04C547.386 64.6533 547.146 63.04 547.146 61.2C547.146 58.7467 547.56 56.7067 548.386 55.08C549.24 53.4267 550.413 52.1733 551.906 51.32C553.4 50.4667 555.12 50.04 557.066 50.04C559.013 50.04 560.733 50.4667 562.226 51.32C563.746 52.1467 564.933 53.3867 565.786 55.04C566.64 56.6933 567.066 58.76 567.066 61.24C567.066 63.0533 566.826 64.6533 566.346 66.04C565.866 67.4267 565.186 68.6 564.306 69.56C563.453 70.4933 562.413 71.2 561.186 71.68C559.986 72.16 558.64 72.4 557.146 72.4ZM557.146 68.96C558.4 68.96 559.44 68.6533 560.266 68.04C561.12 67.4 561.746 66.4933 562.146 65.32C562.573 64.1467 562.786 62.7733 562.786 61.2C562.786 59.6 562.573 58.2267 562.146 57.08C561.746 55.9333 561.12 55.0533 560.266 54.44C559.44 53.8 558.386 53.48 557.106 53.48C555.186 53.48 553.746 54.1733 552.786 55.56C551.853 56.92 551.386 58.8 551.386 61.2C551.386 62.7733 551.6 64.1467 552.026 65.32C552.453 66.4933 553.093 67.4 553.946 68.04C554.8 68.6533 555.866 68.96 557.146 68.96ZM574.291 63.08V59.36H586.291V63.08H574.291ZM594.395 81.6V50.44H597.755L598.355 53.32H598.555C599.008 52.6267 599.542 52.04 600.155 51.56C600.768 51.0533 601.475 50.68 602.275 50.44C603.075 50.1733 603.982 50.04 604.995 50.04C606.328 50.04 607.515 50.2933 608.555 50.8C609.622 51.28 610.515 52.0133 611.235 53C611.955 53.96 612.502 55.1333 612.875 56.52C613.248 57.88 613.435 59.44 613.435 61.2C613.435 63.6 613.088 65.64 612.395 67.32C611.702 69 610.715 70.2667 609.435 71.12C608.155 71.9733 606.648 72.4 604.915 72.4C603.955 72.4 603.075 72.2667 602.275 72C601.475 71.7333 600.768 71.3733 600.155 70.92C599.542 70.44 599.008 69.92 598.555 69.36H598.315C598.422 69.9733 598.488 70.56 598.515 71.12C598.542 71.6533 598.555 72.12 598.555 72.52V81.6H594.395ZM603.835 68.92C605.675 68.92 607.008 68.28 607.835 67C608.662 65.72 609.075 63.76 609.075 61.12C609.075 58.56 608.662 56.6533 607.835 55.4C607.035 54.1467 605.688 53.52 603.795 53.52C602.035 53.52 600.715 54.12 599.835 55.32C598.982 56.4933 598.555 58.1867 598.555 60.4V61.16C598.555 63.6133 598.955 65.52 599.755 66.88C600.555 68.24 601.915 68.92 603.835 68.92ZM628.299 72.4C625.926 72.4 623.886 71.9733 622.179 71.12C620.499 70.24 619.206 68.9733 618.299 67.32C617.393 65.6667 616.939 63.64 616.939 61.24C616.939 58.92 617.353 56.9333 618.179 55.28C619.033 53.6 620.219 52.3067 621.739 51.4C623.259 50.4933 625.059 50.04 627.139 50.04C629.059 50.04 630.699 50.4533 632.059 51.28C633.446 52.1067 634.513 53.28 635.259 54.8C636.006 56.2933 636.379 58.0933 636.379 60.2V62.2H621.179C621.233 63.8267 621.579 65.1333 622.219 66.12C622.859 67.1067 623.726 67.8267 624.819 68.28C625.913 68.7067 627.166 68.92 628.579 68.92C629.699 68.92 630.833 68.7733 631.979 68.48C633.153 68.16 634.326 67.7467 635.499 67.24V70.88C634.299 71.4133 633.086 71.8 631.859 72.04C630.633 72.28 629.446 72.4 628.299 72.4ZM632.299 59C632.273 57.8267 632.046 56.8267 631.619 56C631.219 55.1733 630.646 54.5333 629.899 54.08C629.153 53.6267 628.246 53.4 627.179 53.4C625.553 53.4 624.219 53.9067 623.179 54.92C622.139 55.9067 621.499 57.2667 621.259 59H632.299ZM651.484 72.4C649.11 72.4 647.07 71.9733 645.364 71.12C643.684 70.24 642.39 68.9733 641.484 67.32C640.577 65.6667 640.124 63.64 640.124 61.24C640.124 58.92 640.537 56.9333 641.364 55.28C642.217 53.6 643.404 52.3067 644.924 51.4C646.444 50.4933 648.244 50.04 650.324 50.04C652.244 50.04 653.884 50.4533 655.244 51.28C656.63 52.1067 657.697 53.28 658.444 54.8C659.19 56.2933 659.564 58.0933 659.564 60.2V62.2H644.364C644.417 63.8267 644.764 65.1333 645.404 66.12C646.044 67.1067 646.91 67.8267 648.004 68.28C649.097 68.7067 650.35 68.92 651.764 68.92C652.884 68.92 654.017 68.7733 655.164 68.48C656.337 68.16 657.51 67.7467 658.684 67.24V70.88C657.484 71.4133 656.27 71.8 655.044 72.04C653.817 72.28 652.63 72.4 651.484 72.4ZM655.484 59C655.457 57.8267 655.23 56.8267 654.804 56C654.404 55.1733 653.83 54.5333 653.084 54.08C652.337 53.6267 651.43 53.4 650.364 53.4C648.737 53.4 647.404 53.9067 646.364 54.92C645.324 55.9067 644.684 57.2667 644.444 59H655.484ZM663.268 72V69.24L669.548 68.48V53.96L664.028 53.4V50.44H672.868L673.428 54.28H673.628C674.375 52.92 675.215 51.88 676.148 51.16C677.108 50.4133 678.335 50.04 679.828 50.04C680.601 50.04 681.335 50.1067 682.028 50.24C682.748 50.3733 683.415 50.5867 684.028 50.88L682.908 54.68C682.481 54.4667 681.975 54.2933 681.388 54.16C680.828 54 680.228 53.92 679.588 53.92C678.415 53.92 677.388 54.2533 676.508 54.92C675.655 55.5867 674.988 56.48 674.508 57.6C674.055 58.72 673.828 59.96 673.828 61.32V68.48L679.908 69.24V72H663.268ZM718.477 72.4C717.144 72.4 715.864 72.28 714.637 72.04C713.41 71.8267 712.304 71.5067 711.317 71.08V67.12C712.304 67.5733 713.41 67.9867 714.637 68.36C715.864 68.7067 717.25 68.88 718.797 68.88C720.344 68.88 721.464 68.6533 722.157 68.2C722.85 67.7467 723.197 67.0667 723.197 66.16C723.197 65.6 723.05 65.1467 722.757 64.8C722.464 64.4533 721.944 64.1067 721.197 63.76C720.477 63.4133 719.45 62.9733 718.117 62.44C716.81 61.8533 715.664 61.2933 714.677 60.76C713.69 60.2267 712.93 59.5867 712.397 58.84C711.864 58.0933 711.597 57.1333 711.597 55.96C711.597 54.6267 711.944 53.52 712.637 52.64C713.33 51.76 714.304 51.1067 715.557 50.68C716.837 50.2533 718.33 50.04 720.037 50.04C721.29 50.04 722.504 50.16 723.677 50.4C724.85 50.64 726.037 51.0133 727.237 51.52L725.957 54.8C724.837 54.3467 723.797 54.0267 722.837 53.84C721.904 53.6533 720.957 53.56 719.997 53.56C718.557 53.56 717.49 53.7467 716.797 54.12C716.13 54.4667 715.797 55.04 715.797 55.84C715.797 56.4 715.97 56.8667 716.317 57.24C716.664 57.6133 717.21 57.9733 717.957 58.32C718.704 58.64 719.664 59.0533 720.837 59.56C722.197 60.0933 723.37 60.6133 724.357 61.12C725.37 61.6267 726.144 62.2667 726.677 63.04C727.21 63.7867 727.477 64.8133 727.477 66.12C727.477 67.5067 727.13 68.6667 726.437 69.6C725.77 70.5333 724.77 71.24 723.437 71.72C722.104 72.1733 720.45 72.4 718.477 72.4ZM746.541 72.4C744.915 72.4 743.488 72.1867 742.261 71.76C741.035 71.3067 740.075 70.56 739.381 69.52C738.715 68.4533 738.381 67.0133 738.381 65.2V53.96H732.781V51.16L738.501 50.36L739.301 44.8H742.621V50.44H750.941V53.96H742.621V64.52C742.621 65.5867 742.781 66.44 743.101 67.08C743.421 67.72 743.915 68.1867 744.581 68.48C745.248 68.7733 746.061 68.92 747.021 68.92C747.715 68.92 748.435 68.8533 749.181 68.72C749.955 68.5867 750.701 68.4533 751.421 68.32V71.68C750.675 71.8933 749.888 72.0667 749.061 72.2C748.235 72.3333 747.395 72.4 746.541 72.4ZM763.326 72.4C761.166 72.4 759.459 71.8533 758.206 70.76C756.952 69.6667 756.326 68.08 756.326 66C756.326 64.4267 756.686 63.1333 757.406 62.12C758.152 61.08 759.232 60.3067 760.646 59.8C762.086 59.2667 763.819 58.9733 765.846 58.92L770.526 58.8V57.88C770.526 56.2267 770.072 55.08 769.166 54.44C768.286 53.8 767.059 53.48 765.486 53.48C764.392 53.48 763.326 53.6133 762.286 53.88C761.246 54.1467 760.219 54.5333 759.206 55.04L757.806 51.92C758.872 51.3867 760.046 50.9467 761.326 50.6C762.632 50.2267 764.086 50.04 765.686 50.04C768.486 50.04 770.646 50.6533 772.166 51.88C773.686 53.1067 774.446 55.0133 774.446 57.6V72H771.126L770.566 69.08H770.406C769.792 69.8533 769.126 70.48 768.406 70.96C767.712 71.44 766.939 71.8 766.086 72.04C765.232 72.28 764.312 72.4 763.326 72.4ZM764.366 69C765.486 69 766.512 68.8 767.446 68.4C768.379 67.9733 769.126 67.36 769.686 66.56C770.246 65.7333 770.526 64.72 770.526 63.52V61.64L766.846 61.72C765.326 61.7733 764.086 61.96 763.126 62.28C762.192 62.6 761.499 63.0533 761.046 63.64C760.619 64.2267 760.406 64.9333 760.406 65.76C760.406 66.9067 760.766 67.7333 761.486 68.24C762.232 68.7467 763.192 69 764.366 69ZM790.39 72.4C788.923 72.4 787.643 72.1067 786.55 71.52C785.483 70.9333 784.617 70.2133 783.95 69.36H783.67L783.19 72H779.87V41.6H783.99V48.88C783.99 49.52 783.977 50.2133 783.95 50.96C783.923 51.68 783.87 52.44 783.79 53.24H783.99C784.577 52.3333 785.417 51.5733 786.51 50.96C787.603 50.3467 788.91 50.04 790.43 50.04C791.763 50.04 792.95 50.2933 793.99 50.8C795.057 51.28 795.95 52.0133 796.67 53C797.39 53.96 797.937 55.1333 798.31 56.52C798.71 57.88 798.91 59.4267 798.91 61.16C798.91 62.9467 798.71 64.5333 798.31 65.92C797.937 67.3067 797.377 68.48 796.63 69.44C795.91 70.4 795.017 71.1333 793.95 71.64C792.91 72.1467 791.723 72.4 790.39 72.4ZM789.35 68.92C791.137 68.92 792.457 68.2667 793.31 66.96C794.163 65.6267 794.59 63.6933 794.59 61.16C794.59 58.6533 794.163 56.76 793.31 55.48C792.457 54.1733 791.123 53.52 789.31 53.52C787.63 53.52 786.323 54.16 785.39 55.44C784.457 56.6933 783.99 58.5867 783.99 61.12C783.99 63.68 784.43 65.6267 785.31 66.96C786.217 68.2667 787.563 68.92 789.35 68.92ZM803.094 72V69.24L810.734 68.48V45.12L803.694 44.4V41.6H815.014V68.48L821.854 69.24V72H803.094ZM836.959 72.4C834.585 72.4 832.545 71.9733 830.839 71.12C829.159 70.24 827.865 68.9733 826.959 67.32C826.052 65.6667 825.599 63.64 825.599 61.24C825.599 58.92 826.012 56.9333 826.839 55.28C827.692 53.6 828.879 52.3067 830.399 51.4C831.919 50.4933 833.719 50.04 835.799 50.04C837.719 50.04 839.359 50.4533 840.719 51.28C842.105 52.1067 843.172 53.28 843.919 54.8C844.665 56.2933 845.039 58.0933 845.039 60.2V62.2H829.839C829.892 63.8267 830.239 65.1333 830.879 66.12C831.519 67.1067 832.385 67.8267 833.479 68.28C834.572 68.7067 835.825 68.92 837.239 68.92C838.359 68.92 839.492 68.7733 840.639 68.48C841.812 68.16 842.985 67.7467 844.159 67.24V70.88C842.959 71.4133 841.745 71.8 840.519 72.04C839.292 72.28 838.105 72.4 836.959 72.4ZM840.959 59C840.932 57.8267 840.705 56.8267 840.279 56C839.879 55.1733 839.305 54.5333 838.559 54.08C837.812 53.6267 836.905 53.4 835.839 53.4C834.212 53.4 832.879 53.9067 831.839 54.92C830.799 55.9067 830.159 57.2667 829.919 59H840.959ZM860.023 72.4C857.836 72.4 855.97 72.0133 854.423 71.24C852.903 70.4667 851.743 69.2667 850.943 67.64C850.143 66.0133 849.743 63.9333 849.743 61.4C849.743 58.7333 850.17 56.56 851.023 54.88C851.903 53.2 853.143 51.9733 854.743 51.2C856.343 50.4267 858.21 50.04 860.343 50.04C861.543 50.04 862.69 50.16 863.783 50.4C864.876 50.64 865.903 51 866.863 51.48L865.623 54.92C864.716 54.4667 863.85 54.1467 863.023 53.96C862.196 53.7733 861.37 53.68 860.543 53.68C859.05 53.68 857.823 53.9733 856.863 54.56C855.903 55.12 855.196 55.96 854.743 57.08C854.29 58.2 854.063 59.6133 854.063 61.32C854.063 63.08 854.303 64.5067 854.783 65.6C855.263 66.6933 855.983 67.4933 856.943 68C857.903 68.5067 859.09 68.76 860.503 68.76C861.57 68.76 862.61 68.64 863.623 68.4C864.663 68.1333 865.623 67.7867 866.503 67.36V71.12C865.596 71.5467 864.57 71.8667 863.423 72.08C862.303 72.2933 861.17 72.4 860.023 72.4ZM881.728 72.4C880.261 72.4 878.914 72.16 877.688 71.68C876.461 71.2 875.394 70.4933 874.488 69.56C873.608 68.6 872.928 67.4267 872.448 66.04C871.968 64.6533 871.728 63.04 871.728 61.2C871.728 58.7467 872.141 56.7067 872.968 55.08C873.821 53.4267 874.994 52.1733 876.488 51.32C877.981 50.4667 879.701 50.04 881.648 50.04C883.594 50.04 885.314 50.4667 886.808 51.32C888.328 52.1467 889.514 53.3867 890.368 55.04C891.221 56.6933 891.648 58.76 891.648 61.24C891.648 63.0533 891.408 64.6533 890.928 66.04C890.448 67.4267 889.768 68.6 888.888 69.56C888.034 70.4933 886.994 71.2 885.768 71.68C884.568 72.16 883.221 72.4 881.728 72.4ZM881.728 68.96C882.981 68.96 884.021 68.6533 884.848 68.04C885.701 67.4 886.328 66.4933 886.728 65.32C887.154 64.1467 887.368 62.7733 887.368 61.2C887.368 59.6 887.154 58.2267 886.728 57.08C886.328 55.9333 885.701 55.0533 884.848 54.44C884.021 53.8 882.968 53.48 881.688 53.48C879.768 53.48 878.328 54.1733 877.368 55.56C876.434 56.92 875.968 58.8 875.968 61.2C875.968 62.7733 876.181 64.1467 876.608 65.32C877.034 66.4933 877.674 67.4 878.528 68.04C879.381 68.6533 880.448 68.96 881.728 68.96ZM895.832 72V69.24L903.352 68.48V53.96L896.592 53.4V50.44H907.632V68.48L914.592 69.24V72H895.832ZM905.232 46.96C904.405 46.96 903.725 46.7333 903.192 46.28C902.685 45.8 902.432 45.1067 902.432 44.2C902.432 43.2667 902.685 42.5733 903.192 42.12C903.725 41.64 904.419 41.4 905.272 41.4C906.099 41.4 906.765 41.64 907.272 42.12C907.805 42.5733 908.072 43.2667 908.072 44.2C908.072 45.1067 907.805 45.8 907.272 46.28C906.765 46.7333 906.085 46.96 905.232 46.96ZM918.976 72V50.44H922.296L922.936 53.48H923.176C923.603 52.7067 924.15 52.0667 924.816 51.56C925.483 51.0533 926.256 50.68 927.136 50.44C928.043 50.1733 929.016 50.04 930.056 50.04C932.296 50.04 934.07 50.68 935.376 51.96C936.683 53.2133 937.336 55.1333 937.336 57.72V72H933.096V58.6C933.096 56.84 932.736 55.56 932.016 54.76C931.323 53.9333 930.23 53.52 928.736 53.52C926.736 53.52 925.31 54.2 924.456 55.56C923.63 56.92 923.216 58.8 923.216 61.2V72H918.976ZM408.92 135.6V104.44H412.28L412.88 107.32H413.08C413.533 106.627 414.067 106.04 414.68 105.56C415.293 105.053 416 104.68 416.8 104.44C417.6 104.173 418.507 104.04 419.52 104.04C420.853 104.04 422.04 104.293 423.08 104.8C424.147 105.28 425.04 106.013 425.76 107C426.48 107.96 427.027 109.133 427.4 110.52C427.773 111.88 427.96 113.44 427.96 115.2C427.96 117.6 427.613 119.64 426.92 121.32C426.227 123 425.24 124.267 423.96 125.12C422.68 125.973 421.173 126.4 419.44 126.4C418.48 126.4 417.6 126.267 416.8 126C416 125.733 415.293 125.373 414.68 124.92C414.067 124.44 413.533 123.92 413.08 123.36H412.84C412.947 123.973 413.013 124.56 413.04 125.12C413.067 125.653 413.08 126.12 413.08 126.52V135.6H408.92ZM418.36 122.92C420.2 122.92 421.533 122.28 422.36 121C423.187 119.72 423.6 117.76 423.6 115.12C423.6 112.56 423.187 110.653 422.36 109.4C421.56 108.147 420.213 107.52 418.32 107.52C416.56 107.52 415.24 108.12 414.36 109.32C413.507 110.493 413.08 112.187 413.08 114.4V115.16C413.08 117.613 413.48 119.52 414.28 120.88C415.08 122.24 416.44 122.92 418.36 122.92ZM438.744 126.4C436.584 126.4 434.878 125.853 433.624 124.76C432.371 123.667 431.744 122.08 431.744 120C431.744 118.427 432.104 117.133 432.824 116.12C433.571 115.08 434.651 114.307 436.064 113.8C437.504 113.267 439.238 112.973 441.264 112.92L445.944 112.8V111.88C445.944 110.227 445.491 109.08 444.584 108.44C443.704 107.8 442.478 107.48 440.904 107.48C439.811 107.48 438.744 107.613 437.704 107.88C436.664 108.147 435.638 108.533 434.624 109.04L433.224 105.92C434.291 105.387 435.464 104.947 436.744 104.6C438.051 104.227 439.504 104.04 441.104 104.04C443.904 104.04 446.064 104.653 447.584 105.88C449.104 107.107 449.864 109.013 449.864 111.6V126H446.544L445.984 123.08H445.824C445.211 123.853 444.544 124.48 443.824 124.96C443.131 125.44 442.358 125.8 441.504 126.04C440.651 126.28 439.731 126.4 438.744 126.4ZM439.784 123C440.904 123 441.931 122.8 442.864 122.4C443.798 121.973 444.544 121.36 445.104 120.56C445.664 119.733 445.944 118.72 445.944 117.52V115.64L442.264 115.72C440.744 115.773 439.504 115.96 438.544 116.28C437.611 116.6 436.918 117.053 436.464 117.64C436.038 118.227 435.824 118.933 435.824 119.76C435.824 120.907 436.184 121.733 436.904 122.24C437.651 122.747 438.611 123 439.784 123ZM457.769 135.8C457.262 135.8 456.755 135.76 456.249 135.68C455.742 135.627 455.289 135.56 454.889 135.48V132.08C455.209 132.133 455.582 132.187 456.009 132.24C456.435 132.293 456.835 132.32 457.209 132.32C458.035 132.32 458.715 132.173 459.249 131.88C459.809 131.613 460.289 131.2 460.689 130.64C461.115 130.08 461.502 129.36 461.849 128.48L462.769 126.08L453.889 104.44H458.209L463.049 117.04C463.369 117.787 463.662 118.613 463.929 119.52C464.222 120.4 464.475 121.28 464.689 122.16H464.809C464.969 121.547 465.129 120.947 465.289 120.36C465.475 119.773 465.649 119.2 465.809 118.64C465.995 118.053 466.169 117.507 466.329 117L470.409 104.44H474.849L466.009 128.32C465.449 129.867 464.822 131.2 464.129 132.32C463.462 133.44 462.622 134.293 461.609 134.88C460.595 135.493 459.315 135.8 457.769 135.8ZM477.313 126V104.44H480.233L480.793 106.92H480.993C481.34 106.2 481.7 105.64 482.073 105.24C482.473 104.813 482.913 104.507 483.393 104.32C483.873 104.133 484.406 104.04 484.993 104.04C486.113 104.04 486.966 104.32 487.553 104.88C488.166 105.413 488.62 106.213 488.913 107.28H489.073C489.526 106.24 490.086 105.44 490.753 104.88C491.446 104.32 492.353 104.04 493.473 104.04C494.593 104.04 495.46 104.333 496.073 104.92C496.713 105.48 497.166 106.347 497.433 107.52C497.7 108.667 497.833 110.147 497.833 111.96V126H494.073V112.04C494.073 111.107 494.033 110.32 493.953 109.68C493.873 109.04 493.7 108.547 493.433 108.2C493.166 107.827 492.74 107.64 492.153 107.64C491.566 107.64 491.073 107.893 490.673 108.4C490.273 108.88 489.966 109.613 489.753 110.6C489.566 111.56 489.473 112.787 489.473 114.28V126H485.713V112.04C485.713 111.08 485.646 110.28 485.513 109.64C485.406 109 485.206 108.507 484.913 108.16C484.62 107.813 484.18 107.64 483.593 107.64C482.953 107.64 482.446 107.907 482.073 108.44C481.7 108.973 481.433 109.733 481.273 110.72C481.113 111.68 481.033 112.867 481.033 114.28V126H477.313ZM512.378 126.4C510.004 126.4 507.964 125.973 506.258 125.12C504.578 124.24 503.284 122.973 502.378 121.32C501.471 119.667 501.018 117.64 501.018 115.24C501.018 112.92 501.431 110.933 502.258 109.28C503.111 107.6 504.298 106.307 505.818 105.4C507.338 104.493 509.138 104.04 511.218 104.04C513.138 104.04 514.778 104.453 516.138 105.28C517.524 106.107 518.591 107.28 519.338 108.8C520.084 110.293 520.458 112.093 520.458 114.2V116.2H505.258C505.311 117.827 505.658 119.133 506.298 120.12C506.938 121.107 507.804 121.827 508.898 122.28C509.991 122.707 511.244 122.92 512.658 122.92C513.778 122.92 514.911 122.773 516.058 122.48C517.231 122.16 518.404 121.747 519.578 121.24V124.88C518.378 125.413 517.164 125.8 515.938 126.04C514.711 126.28 513.524 126.4 512.378 126.4ZM516.378 113C516.351 111.827 516.124 110.827 515.698 110C515.298 109.173 514.724 108.533 513.978 108.08C513.231 107.627 512.324 107.4 511.258 107.4C509.631 107.4 508.298 107.907 507.258 108.92C506.218 109.907 505.578 111.267 505.338 113H516.378ZM524.842 126V104.44H528.162L528.802 107.48H529.042C529.469 106.707 530.015 106.067 530.682 105.56C531.349 105.053 532.122 104.68 533.002 104.44C533.909 104.173 534.882 104.04 535.922 104.04C538.162 104.04 539.935 104.68 541.242 105.96C542.549 107.213 543.202 109.133 543.202 111.72V126H538.962V112.6C538.962 110.84 538.602 109.56 537.882 108.76C537.189 107.933 536.095 107.52 534.602 107.52C532.602 107.52 531.175 108.2 530.322 109.56C529.495 110.92 529.082 112.8 529.082 115.2V126H524.842ZM561.066 126.4C559.44 126.4 558.013 126.187 556.786 125.76C555.56 125.307 554.6 124.56 553.906 123.52C553.24 122.453 552.906 121.013 552.906 119.2V107.96H547.306V105.16L553.026 104.36L553.826 98.8H557.146V104.44H565.466V107.96H557.146V118.52C557.146 119.587 557.306 120.44 557.626 121.08C557.946 121.72 558.44 122.187 559.106 122.48C559.773 122.773 560.586 122.92 561.546 122.92C562.24 122.92 562.96 122.853 563.706 122.72C564.48 122.587 565.226 122.453 565.946 122.32V125.68C565.2 125.893 564.413 126.067 563.586 126.2C562.76 126.333 561.92 126.4 561.066 126.4ZM579.371 126.4C578.037 126.4 576.757 126.28 575.531 126.04C574.304 125.827 573.197 125.507 572.211 125.08V121.12C573.197 121.573 574.304 121.987 575.531 122.36C576.757 122.707 578.144 122.88 579.691 122.88C581.237 122.88 582.357 122.653 583.051 122.2C583.744 121.747 584.091 121.067 584.091 120.16C584.091 119.6 583.944 119.147 583.651 118.8C583.357 118.453 582.837 118.107 582.091 117.76C581.371 117.413 580.344 116.973 579.011 116.44C577.704 115.853 576.557 115.293 575.571 114.76C574.584 114.227 573.824 113.587 573.291 112.84C572.757 112.093 572.491 111.133 572.491 109.96C572.491 108.627 572.837 107.52 573.531 106.64C574.224 105.76 575.197 105.107 576.451 104.68C577.731 104.253 579.224 104.04 580.931 104.04C582.184 104.04 583.397 104.16 584.571 104.4C585.744 104.64 586.931 105.013 588.131 105.52L586.851 108.8C585.731 108.347 584.691 108.027 583.731 107.84C582.797 107.653 581.851 107.56 580.891 107.56C579.451 107.56 578.384 107.747 577.691 108.12C577.024 108.467 576.691 109.04 576.691 109.84C576.691 110.4 576.864 110.867 577.211 111.24C577.557 111.613 578.104 111.973 578.851 112.32C579.597 112.64 580.557 113.053 581.731 113.56C583.091 114.093 584.264 114.613 585.251 115.12C586.264 115.627 587.037 116.267 587.571 117.04C588.104 117.787 588.371 118.813 588.371 120.12C588.371 121.507 588.024 122.667 587.331 123.6C586.664 124.533 585.664 125.24 584.331 125.72C582.997 126.173 581.344 126.4 579.371 126.4ZM623.979 126V107.96H617.339V105.16L623.979 104.44V102.32C623.979 100.613 624.299 99.2533 624.939 98.24C625.579 97.2267 626.486 96.5067 627.659 96.08C628.859 95.6267 630.286 95.4 631.939 95.4C633.059 95.4 634.086 95.48 635.019 95.64C635.979 95.8 636.833 96 637.579 96.24L636.579 99.52C635.993 99.36 635.313 99.2267 634.539 99.12C633.793 98.9867 633.086 98.92 632.419 98.92C631.059 98.92 630.019 99.2133 629.299 99.8C628.579 100.36 628.219 101.373 628.219 102.84V104.44H635.979V107.96H628.219V126H623.979ZM649.884 126.4C648.417 126.4 647.07 126.16 645.844 125.68C644.617 125.2 643.55 124.493 642.644 123.56C641.764 122.6 641.084 121.427 640.604 120.04C640.124 118.653 639.884 117.04 639.884 115.2C639.884 112.747 640.297 110.707 641.124 109.08C641.977 107.427 643.15 106.173 644.644 105.32C646.137 104.467 647.857 104.04 649.804 104.04C651.75 104.04 653.47 104.467 654.964 105.32C656.484 106.147 657.67 107.387 658.524 109.04C659.377 110.693 659.804 112.76 659.804 115.24C659.804 117.053 659.564 118.653 659.084 120.04C658.604 121.427 657.924 122.6 657.044 123.56C656.19 124.493 655.15 125.2 653.924 125.68C652.724 126.16 651.377 126.4 649.884 126.4ZM649.884 122.96C651.137 122.96 652.177 122.653 653.004 122.04C653.857 121.4 654.484 120.493 654.884 119.32C655.31 118.147 655.524 116.773 655.524 115.2C655.524 113.6 655.31 112.227 654.884 111.08C654.484 109.933 653.857 109.053 653.004 108.44C652.177 107.8 651.124 107.48 649.844 107.48C647.924 107.48 646.484 108.173 645.524 109.56C644.59 110.92 644.124 112.8 644.124 115.2C644.124 116.773 644.337 118.147 644.764 119.32C645.19 120.493 645.83 121.4 646.684 122.04C647.537 122.653 648.604 122.96 649.884 122.96ZM663.268 126V123.24L669.548 122.48V107.96L664.028 107.4V104.44H672.868L673.428 108.28H673.628C674.375 106.92 675.215 105.88 676.148 105.16C677.108 104.413 678.335 104.04 679.828 104.04C680.601 104.04 681.335 104.107 682.028 104.24C682.748 104.373 683.415 104.587 684.028 104.88L682.908 108.68C682.481 108.467 681.975 108.293 681.388 108.16C680.828 108 680.228 107.92 679.588 107.92C678.415 107.92 677.388 108.253 676.508 108.92C675.655 109.587 674.988 110.48 674.508 111.6C674.055 112.72 673.828 113.96 673.828 115.32V122.48L679.908 123.24V126H663.268ZM720.917 126.4C718.73 126.4 716.864 126.013 715.317 125.24C713.797 124.467 712.637 123.267 711.837 121.64C711.037 120.013 710.637 117.933 710.637 115.4C710.637 112.733 711.064 110.56 711.917 108.88C712.797 107.2 714.037 105.973 715.637 105.2C717.237 104.427 719.104 104.04 721.237 104.04C722.437 104.04 723.584 104.16 724.677 104.4C725.77 104.64 726.797 105 727.757 105.48L726.517 108.92C725.61 108.467 724.744 108.147 723.917 107.96C723.09 107.773 722.264 107.68 721.437 107.68C719.944 107.68 718.717 107.973 717.757 108.56C716.797 109.12 716.09 109.96 715.637 111.08C715.184 112.2 714.957 113.613 714.957 115.32C714.957 117.08 715.197 118.507 715.677 119.6C716.157 120.693 716.877 121.493 717.837 122C718.797 122.507 719.984 122.76 721.397 122.76C722.464 122.76 723.504 122.64 724.517 122.4C725.557 122.133 726.517 121.787 727.397 121.36V125.12C726.49 125.547 725.464 125.867 724.317 126.08C723.197 126.293 722.064 126.4 720.917 126.4ZM742.621 126.4C741.155 126.4 739.808 126.16 738.581 125.68C737.355 125.2 736.288 124.493 735.381 123.56C734.501 122.6 733.821 121.427 733.341 120.04C732.861 118.653 732.621 117.04 732.621 115.2C732.621 112.747 733.035 110.707 733.861 109.08C734.715 107.427 735.888 106.173 737.381 105.32C738.875 104.467 740.595 104.04 742.541 104.04C744.488 104.04 746.208 104.467 747.701 105.32C749.221 106.147 750.408 107.387 751.261 109.04C752.115 110.693 752.541 112.76 752.541 115.24C752.541 117.053 752.301 118.653 751.821 120.04C751.341 121.427 750.661 122.6 749.781 123.56C748.928 124.493 747.888 125.2 746.661 125.68C745.461 126.16 744.115 126.4 742.621 126.4ZM742.621 122.96C743.875 122.96 744.915 122.653 745.741 122.04C746.595 121.4 747.221 120.493 747.621 119.32C748.048 118.147 748.261 116.773 748.261 115.2C748.261 113.6 748.048 112.227 747.621 111.08C747.221 109.933 746.595 109.053 745.741 108.44C744.915 107.8 743.861 107.48 742.581 107.48C740.661 107.48 739.221 108.173 738.261 109.56C737.328 110.92 736.861 112.8 736.861 115.2C736.861 116.773 737.075 118.147 737.501 119.32C737.928 120.493 738.568 121.4 739.421 122.04C740.275 122.653 741.341 122.96 742.621 122.96ZM755.526 126V104.44H758.446L759.006 106.92H759.206C759.552 106.2 759.912 105.64 760.286 105.24C760.686 104.813 761.126 104.507 761.606 104.32C762.086 104.133 762.619 104.04 763.206 104.04C764.326 104.04 765.179 104.32 765.766 104.88C766.379 105.413 766.832 106.213 767.126 107.28H767.286C767.739 106.24 768.299 105.44 768.966 104.88C769.659 104.32 770.566 104.04 771.686 104.04C772.806 104.04 773.672 104.333 774.286 104.92C774.926 105.48 775.379 106.347 775.646 107.52C775.912 108.667 776.046 110.147 776.046 111.96V126H772.286V112.04C772.286 111.107 772.246 110.32 772.166 109.68C772.086 109.04 771.912 108.547 771.646 108.2C771.379 107.827 770.952 107.64 770.366 107.64C769.779 107.64 769.286 107.893 768.886 108.4C768.486 108.88 768.179 109.613 767.966 110.6C767.779 111.56 767.686 112.787 767.686 114.28V126H763.926V112.04C763.926 111.08 763.859 110.28 763.726 109.64C763.619 109 763.419 108.507 763.126 108.16C762.832 107.813 762.392 107.64 761.806 107.64C761.166 107.64 760.659 107.907 760.286 108.44C759.912 108.973 759.646 109.733 759.486 110.72C759.326 111.68 759.246 112.867 759.246 114.28V126H755.526ZM778.71 126V104.44H781.63L782.19 106.92H782.39C782.737 106.2 783.097 105.64 783.47 105.24C783.87 104.813 784.31 104.507 784.79 104.32C785.27 104.133 785.803 104.04 786.39 104.04C787.51 104.04 788.363 104.32 788.95 104.88C789.563 105.413 790.017 106.213 790.31 107.28H790.47C790.923 106.24 791.483 105.44 792.15 104.88C792.843 104.32 793.75 104.04 794.87 104.04C795.99 104.04 796.857 104.333 797.47 104.92C798.11 105.48 798.563 106.347 798.83 107.52C799.097 108.667 799.23 110.147 799.23 111.96V126H795.47V112.04C795.47 111.107 795.43 110.32 795.35 109.68C795.27 109.04 795.097 108.547 794.83 108.2C794.563 107.827 794.137 107.64 793.55 107.64C792.963 107.64 792.47 107.893 792.07 108.4C791.67 108.88 791.363 109.613 791.15 110.6C790.963 111.56 790.87 112.787 790.87 114.28V126H787.11V112.04C787.11 111.08 787.043 110.28 786.91 109.64C786.803 109 786.603 108.507 786.31 108.16C786.017 107.813 785.577 107.64 784.99 107.64C784.35 107.64 783.843 107.907 783.47 108.44C783.097 108.973 782.83 109.733 782.67 110.72C782.51 111.68 782.43 112.867 782.43 114.28V126H778.71ZM813.774 126.4C811.401 126.4 809.361 125.973 807.654 125.12C805.974 124.24 804.681 122.973 803.774 121.32C802.868 119.667 802.414 117.64 802.414 115.24C802.414 112.92 802.828 110.933 803.654 109.28C804.508 107.6 805.694 106.307 807.214 105.4C808.734 104.493 810.534 104.04 812.614 104.04C814.534 104.04 816.174 104.453 817.534 105.28C818.921 106.107 819.988 107.28 820.734 108.8C821.481 110.293 821.854 112.093 821.854 114.2V116.2H806.654C806.708 117.827 807.054 119.133 807.694 120.12C808.334 121.107 809.201 121.827 810.294 122.28C811.388 122.707 812.641 122.92 814.054 122.92C815.174 122.92 816.308 122.773 817.454 122.48C818.628 122.16 819.801 121.747 820.974 121.24V124.88C819.774 125.413 818.561 125.8 817.334 126.04C816.108 126.28 814.921 126.4 813.774 126.4ZM817.774 113C817.748 111.827 817.521 110.827 817.094 110C816.694 109.173 816.121 108.533 815.374 108.08C814.628 107.627 813.721 107.4 812.654 107.4C811.028 107.4 809.694 107.907 808.654 108.92C807.614 109.907 806.974 111.267 806.734 113H817.774ZM825.559 126V123.24L831.839 122.48V107.96L826.319 107.4V104.44H835.159L835.719 108.28H835.919C836.665 106.92 837.505 105.88 838.439 105.16C839.399 104.413 840.625 104.04 842.119 104.04C842.892 104.04 843.625 104.107 844.319 104.24C845.039 104.373 845.705 104.587 846.319 104.88L845.199 108.68C844.772 108.467 844.265 108.293 843.679 108.16C843.119 108 842.519 107.92 841.879 107.92C840.705 107.92 839.679 108.253 838.799 108.92C837.945 109.587 837.279 110.48 836.799 111.6C836.345 112.72 836.119 113.96 836.119 115.32V122.48L842.199 123.24V126H825.559ZM860.023 126.4C857.836 126.4 855.97 126.013 854.423 125.24C852.903 124.467 851.743 123.267 850.943 121.64C850.143 120.013 849.743 117.933 849.743 115.4C849.743 112.733 850.17 110.56 851.023 108.88C851.903 107.2 853.143 105.973 854.743 105.2C856.343 104.427 858.21 104.04 860.343 104.04C861.543 104.04 862.69 104.16 863.783 104.4C864.876 104.64 865.903 105 866.863 105.48L865.623 108.92C864.716 108.467 863.85 108.147 863.023 107.96C862.196 107.773 861.37 107.68 860.543 107.68C859.05 107.68 857.823 107.973 856.863 108.56C855.903 109.12 855.196 109.96 854.743 111.08C854.29 112.2 854.063 113.613 854.063 115.32C854.063 117.08 854.303 118.507 854.783 119.6C855.263 120.693 855.983 121.493 856.943 122C857.903 122.507 859.09 122.76 860.503 122.76C861.57 122.76 862.61 122.64 863.623 122.4C864.663 122.133 865.623 121.787 866.503 121.36V125.12C865.596 125.547 864.57 125.867 863.423 126.08C862.303 126.293 861.17 126.4 860.023 126.4ZM883.328 126.4C880.954 126.4 878.914 125.973 877.208 125.12C875.528 124.24 874.234 122.973 873.328 121.32C872.421 119.667 871.968 117.64 871.968 115.24C871.968 112.92 872.381 110.933 873.208 109.28C874.061 107.6 875.248 106.307 876.768 105.4C878.288 104.493 880.088 104.04 882.168 104.04C884.088 104.04 885.728 104.453 887.088 105.28C888.474 106.107 889.541 107.28 890.288 108.8C891.034 110.293 891.408 112.093 891.408 114.2V116.2H876.208C876.261 117.827 876.608 119.133 877.248 120.12C877.888 121.107 878.754 121.827 879.848 122.28C880.941 122.707 882.194 122.92 883.608 122.92C884.728 122.92 885.861 122.773 887.008 122.48C888.181 122.16 889.354 121.747 890.528 121.24V124.88C889.328 125.413 888.114 125.8 886.888 126.04C885.661 126.28 884.474 126.4 883.328 126.4ZM887.328 113C887.301 111.827 887.074 110.827 886.648 110C886.248 109.173 885.674 108.533 884.928 108.08C884.181 107.627 883.274 107.4 882.208 107.4C880.581 107.4 879.248 107.907 878.208 108.92C877.168 109.907 876.528 111.267 876.288 113H887.328ZM904.872 126.4C904.045 126.4 903.365 126.16 902.832 125.68C902.299 125.2 902.032 124.453 902.032 123.44C902.032 122.373 902.299 121.613 902.832 121.16C903.365 120.707 904.045 120.48 904.872 120.48C905.699 120.48 906.365 120.72 906.872 121.2C907.405 121.653 907.672 122.4 907.672 123.44C907.672 124.427 907.405 125.173 906.872 125.68C906.365 126.16 905.699 126.4 904.872 126.4Z" fill="#CCCCCC"/>
</svg>
