<svg width="343.48" height="102.912" viewBox="0 0 343.48 102.912" fill="none" xmlns="http://www.w3.org/2000/svg">
<path d="M1.62125e-05 97.9199V89.0879L20.096 86.6559V40.1919L2.43202 38.3999V28.9279H30.72L32.512 41.2159H33.152C35.5414 36.8639 38.2294 33.5359 41.216 31.2319C44.288 28.8426 48.2134 27.6479 52.992 27.6479C55.4667 27.6479 57.8134 27.8613 60.032 28.2879C62.336 28.7146 64.4694 29.3973 66.432 30.3359L62.848 42.4959C61.4827 41.8133 59.8614 41.2586 57.984 40.8319C56.192 40.3199 54.272 40.0639 52.224 40.0639C48.4694 40.0639 45.184 41.1306 42.368 43.2639C39.6374 45.3973 37.504 48.2559 35.968 51.8399C34.5174 55.4239 33.792 59.3919 33.792 63.7439V86.6559L53.248 89.0879V97.9199H1.62125e-05ZM92.494 99.1999C85.582 99.1999 80.1207 97.4506 76.11 93.9519C72.0993 90.4533 70.094 85.3759 70.094 78.7199C70.094 73.6853 71.246 69.5466 73.55 66.3039C75.9393 62.9759 79.3953 60.5013 83.918 58.8799C88.526 57.1733 94.0727 56.2346 100.558 56.0639L115.534 55.6799V52.7359C115.534 47.4453 114.083 43.7759 111.182 41.7279C108.366 39.6799 104.441 38.6559 99.406 38.6559C95.9073 38.6559 92.494 39.0826 89.166 39.9359C85.838 40.7893 82.5527 42.0266 79.31 43.6479L74.83 33.6639C78.2433 31.9573 81.998 30.5493 86.094 29.4399C90.2753 28.2453 94.926 27.6479 100.046 27.6479C109.006 27.6479 115.918 29.6106 120.782 33.5359C125.646 37.4613 128.078 43.5626 128.078 51.8399V97.9199H117.454L115.662 88.5759H115.15C113.187 91.0506 111.054 93.0559 108.75 94.5919C106.531 96.1279 104.057 97.2799 101.326 98.0479C98.5954 98.8159 95.6514 99.1999 92.494 99.1999ZM95.822 88.3199C99.406 88.3199 102.691 87.6799 105.678 86.3999C108.665 85.0346 111.054 83.0719 112.846 80.5119C114.638 77.8666 115.534 74.6239 115.534 70.7839V64.7679L103.758 65.0239C98.894 65.1946 94.926 65.7919 91.854 66.8159C88.8674 67.8399 86.6487 69.2906 85.198 71.1679C83.8327 73.0453 83.15 75.3066 83.15 77.9519C83.15 81.6213 84.302 84.2666 86.606 85.8879C88.9954 87.5093 92.0674 88.3199 95.822 88.3199ZM140.444 97.9199V89.0879L164.508 86.6559V40.1919L142.876 38.3999V28.9279H178.204V86.6559L200.476 89.0879V97.9199H140.444ZM170.524 17.7919C167.879 17.7919 165.703 17.0666 163.996 15.6159C162.375 14.0799 161.564 11.8613 161.564 8.95992C161.564 5.97325 162.375 3.75459 163.996 2.30392C165.703 0.767916 167.921 -8.39233e-05 170.652 -8.39233e-05C173.297 -8.39233e-05 175.431 0.767916 177.052 2.30392C178.759 3.75459 179.612 5.97325 179.612 8.95992C179.612 11.8613 178.759 14.0799 177.052 15.6159C175.431 17.0666 173.255 17.7919 170.524 17.7919ZM209.514 97.9199V89.0879L233.962 86.6559V11.9039L211.434 9.59991V0.639915H247.658V86.6559L269.546 89.0879V97.9199H209.514ZM286.008 102.912L277.176 97.7919L334.904 1.91991L343.48 7.03992L286.008 102.912ZM309.944 99.1999C304.141 99.1999 299.149 98.0906 294.968 95.8719C290.872 93.6533 287.459 90.4959 284.728 86.3999C281.997 82.2186 279.992 77.2693 278.712 71.5519C277.517 65.7493 276.92 59.3066 276.92 52.2239C276.92 42.6666 278.072 34.3466 280.376 27.2639C282.68 20.1812 286.264 14.7199 291.128 10.8799C296.077 6.95459 302.392 4.99192 310.072 4.99192C315.875 4.99192 320.867 6.10125 325.048 8.31992C329.229 10.4533 332.643 13.6106 335.288 17.7919C338.019 21.9733 340.024 26.9226 341.304 32.6399C342.584 38.3573 343.224 44.7999 343.224 51.9679C343.224 59.1359 342.584 65.6213 341.304 71.4239C340.024 77.2266 338.019 82.2186 335.288 86.3999C332.643 90.4959 329.187 93.6533 324.92 95.8719C320.739 98.0906 315.747 99.1999 309.944 99.1999ZM310.2 87.2959C314.893 87.2959 318.648 85.9306 321.464 83.1999C324.28 80.3839 326.285 76.3733 327.48 71.1679C328.76 65.8773 329.4 59.5199 329.4 52.0959C329.4 40.9173 327.949 32.2559 325.048 26.1119C322.147 19.9679 317.197 16.8959 310.2 16.8959C305.507 16.8959 301.709 18.3039 298.808 21.1199C295.992 23.8506 293.944 27.8613 292.664 33.1519C291.384 38.3573 290.744 44.6719 290.744 52.0959C290.744 59.5199 291.384 65.8773 292.664 71.1679C293.944 76.3733 295.992 80.3839 298.808 83.1999C301.709 85.9306 305.507 87.2959 310.2 87.2959Z" fill="white"/>
</svg>
