<svg width="2600" height="694" viewBox="0 0 2600 694" fill="none" xmlns="http://www.w3.org/2000/svg">
<rect x="1000.5" y="0.5" width="599" height="399" rx="19.5" fill="#151518" stroke="#2e2e33" stroke-width="1.25" vector-effect="non-scaling-stroke"/>
<path d="M1172.53 175V168.376L1187.6 166.552V131.704L1174.35 130.36V123.256H1195.57L1196.91 132.472H1197.39C1199.19 129.208 1201.2 126.712 1203.44 124.984C1205.75 123.192 1208.69 122.296 1212.27 122.296C1214.13 122.296 1215.89 122.456 1217.55 122.776C1219.28 123.096 1220.88 123.608 1222.35 124.312L1219.67 133.432C1218.64 132.92 1217.43 132.504 1216.02 132.184C1214.67 131.8 1213.23 131.608 1211.7 131.608C1208.88 131.608 1206.42 132.408 1204.31 134.008C1202.26 135.608 1200.66 137.752 1199.51 140.44C1198.42 143.128 1197.87 146.104 1197.87 149.368V166.552L1212.47 168.376V175H1172.53ZM1241.9 175.96C1236.72 175.96 1232.62 174.648 1229.61 172.024C1226.6 169.4 1225.1 165.592 1225.1 160.6C1225.1 156.824 1225.96 153.72 1227.69 151.288C1229.48 148.792 1232.08 146.936 1235.47 145.72C1238.92 144.44 1243.08 143.736 1247.95 143.608L1259.18 143.32V141.112C1259.18 137.144 1258.09 134.392 1255.92 132.856C1253.8 131.32 1250.86 130.552 1247.08 130.552C1244.46 130.552 1241.9 130.872 1239.4 131.512C1236.91 132.152 1234.44 133.08 1232.01 134.296L1228.65 126.808C1231.21 125.528 1234.03 124.472 1237.1 123.64C1240.24 122.744 1243.72 122.296 1247.56 122.296C1254.28 122.296 1259.47 123.768 1263.12 126.712C1266.76 129.656 1268.59 134.232 1268.59 140.44V175H1260.62L1259.28 167.992H1258.89C1257.42 169.848 1255.82 171.352 1254.09 172.504C1252.43 173.656 1250.57 174.52 1248.52 175.096C1246.48 175.672 1244.27 175.96 1241.9 175.96ZM1244.4 167.8C1247.08 167.8 1249.55 167.32 1251.79 166.36C1254.03 165.336 1255.82 163.864 1257.16 161.944C1258.51 159.96 1259.18 157.528 1259.18 154.648V150.136L1250.35 150.328C1246.7 150.456 1243.72 150.904 1241.42 151.672C1239.18 152.44 1237.52 153.528 1236.43 154.936C1235.4 156.344 1234.89 158.04 1234.89 160.024C1234.89 162.776 1235.76 164.76 1237.48 165.976C1239.28 167.192 1241.58 167.8 1244.4 167.8ZM1277.86 175V168.376L1295.91 166.552V131.704L1279.69 130.36V123.256H1306.18V166.552L1322.89 168.376V175H1277.86ZM1300.42 114.904C1298.44 114.904 1296.81 114.36 1295.53 113.272C1294.31 112.12 1293.7 110.456 1293.7 108.28C1293.7 106.04 1294.31 104.376 1295.53 103.288C1296.81 102.136 1298.47 101.56 1300.52 101.56C1302.5 101.56 1304.1 102.136 1305.32 103.288C1306.6 104.376 1307.24 106.04 1307.24 108.28C1307.24 110.456 1306.6 112.12 1305.32 113.272C1304.1 114.36 1302.47 114.904 1300.42 114.904ZM1329.67 175V168.376L1348 166.552V110.488L1331.11 108.76V102.04H1358.27V166.552L1374.69 168.376V175H1329.67ZM1387.04 178.744L1380.41 174.904L1423.71 103L1430.14 106.84L1387.04 178.744ZM1404.99 175.96C1400.64 175.96 1396.89 175.128 1393.76 173.464C1390.68 171.8 1388.12 169.432 1386.08 166.36C1384.03 163.224 1382.52 159.512 1381.56 155.224C1380.67 150.872 1380.22 146.04 1380.22 140.728C1380.22 133.56 1381.08 127.32 1382.81 122.008C1384.54 116.696 1387.23 112.6 1390.88 109.72C1394.59 106.776 1399.32 105.304 1405.08 105.304C1409.44 105.304 1413.18 106.136 1416.32 107.8C1419.45 109.4 1422.01 111.768 1424 114.904C1426.04 118.04 1427.55 121.752 1428.51 126.04C1429.47 130.328 1429.95 135.16 1429.95 140.536C1429.95 145.912 1429.47 150.776 1428.51 155.128C1427.55 159.48 1426.04 163.224 1424 166.36C1422.01 169.432 1419.42 171.8 1416.22 173.464C1413.08 175.128 1409.34 175.96 1404.99 175.96ZM1405.18 167.032C1408.7 167.032 1411.52 166.008 1413.63 163.96C1415.74 161.848 1417.24 158.84 1418.14 154.936C1419.1 150.968 1419.58 146.2 1419.58 140.632C1419.58 132.248 1418.49 125.752 1416.32 121.144C1414.14 116.536 1410.43 114.232 1405.18 114.232C1401.66 114.232 1398.81 115.288 1396.64 117.4C1394.52 119.448 1392.99 122.456 1392.03 126.424C1391.07 130.328 1390.59 135.064 1390.59 140.632C1390.59 146.2 1391.07 150.968 1392.03 154.936C1392.99 158.84 1394.52 161.848 1396.64 163.96C1398.81 166.008 1401.66 167.032 1405.18 167.032Z" fill="#fafafa"/>
<path d="M1148.47 266.4C1146.98 266.4 1145.52 266.267 1144.11 266C1142.7 265.707 1141.51 265.32 1140.55 264.84V260.96C1141.67 261.467 1142.94 261.907 1144.35 262.28C1145.76 262.627 1147.18 262.8 1148.59 262.8C1149.82 262.8 1150.86 262.64 1151.71 262.32C1152.56 262 1153.2 261.507 1153.63 260.84C1154.08 260.173 1154.31 259.333 1154.31 258.32C1154.31 257.44 1154.11 256.747 1153.71 256.24C1153.31 255.707 1152.64 255.2 1151.71 254.72C1150.8 254.24 1149.56 253.64 1147.99 252.92C1146.84 252.387 1145.74 251.787 1144.67 251.12C1143.63 250.453 1142.78 249.613 1142.11 248.6C1141.47 247.56 1141.15 246.24 1141.15 244.64C1141.15 242.96 1141.52 241.56 1142.27 240.44C1143.02 239.32 1144.07 238.48 1145.43 237.92C1146.82 237.333 1148.46 237.04 1150.35 237.04C1151.68 237.04 1153.03 237.187 1154.39 237.48C1155.75 237.773 1156.99 238.187 1158.11 238.72L1156.75 242.16C1155.74 241.707 1154.67 241.36 1153.55 241.12C1152.46 240.853 1151.4 240.72 1150.39 240.72C1149.4 240.72 1148.54 240.867 1147.79 241.16C1147.04 241.427 1146.47 241.853 1146.07 242.44C1145.7 243.027 1145.51 243.8 1145.51 244.76C1145.51 245.667 1145.7 246.4 1146.07 246.96C1146.44 247.493 1147.04 247.973 1147.87 248.4C1148.7 248.827 1149.75 249.333 1151.03 249.92C1152.55 250.613 1153.88 251.293 1155.03 251.96C1156.18 252.627 1157.07 253.44 1157.71 254.4C1158.35 255.36 1158.67 256.653 1158.67 258.28C1158.67 259.587 1158.44 260.747 1157.99 261.76C1157.54 262.747 1156.87 263.587 1155.99 264.28C1155.14 264.973 1154.08 265.507 1152.83 265.88C1151.58 266.227 1150.12 266.4 1148.47 266.4ZM1162.37 266V237.44H1168.33L1172.41 254.04H1172.53L1176.73 237.44H1182.61V266H1178.65V253.16C1178.65 252.547 1178.67 251.893 1178.69 251.2C1178.72 250.48 1178.75 249.76 1178.77 249.04C1178.8 248.32 1178.83 247.613 1178.85 246.92C1178.91 246.2 1178.95 245.507 1178.97 244.84C1179.03 244.173 1179.08 243.56 1179.13 243C1179.19 242.44 1179.23 241.947 1179.25 241.52H1179.05L1174.49 259H1170.49L1165.81 241.48H1165.61C1165.67 241.88 1165.72 242.36 1165.77 242.92C1165.83 243.453 1165.88 244.053 1165.93 244.72C1165.99 245.387 1166.04 246.093 1166.09 246.84C1166.15 247.56 1166.19 248.293 1166.21 249.04C1166.24 249.787 1166.25 250.52 1166.25 251.24C1166.28 251.96 1166.29 252.627 1166.29 253.24V266H1162.37ZM1184.36 266L1193.24 237.32H1198.08L1207 266H1202.68L1196.88 246C1196.77 245.573 1196.64 245.12 1196.48 244.64C1196.34 244.133 1196.2 243.587 1196.04 243C1195.9 242.413 1195.77 241.84 1195.64 241.28C1195.53 241.84 1195.4 242.413 1195.24 243C1195.1 243.587 1194.97 244.133 1194.84 244.64C1194.7 245.147 1194.58 245.6 1194.48 246L1188.6 266H1184.36ZM1190 257.72L1191.2 254.08H1200.04L1200.92 257.72H1190ZM1210.5 266V237.44H1217.46C1219.7 237.44 1221.57 237.76 1223.06 238.4C1224.56 239.013 1225.68 239.92 1226.42 241.12C1227.2 242.32 1227.58 243.813 1227.58 245.6C1227.58 247.04 1227.36 248.28 1226.9 249.32C1226.45 250.333 1225.82 251.187 1225.02 251.88C1224.25 252.547 1223.36 253.08 1222.34 253.48L1229.82 266H1225.18L1218.58 254.6H1214.74V266H1210.5ZM1217.34 250.96C1218.73 250.96 1219.85 250.773 1220.7 250.4C1221.58 250 1222.22 249.427 1222.62 248.68C1223.05 247.907 1223.26 246.973 1223.26 245.88C1223.26 244.12 1222.77 242.88 1221.78 242.16C1220.82 241.44 1219.3 241.08 1217.22 241.08H1214.74V250.96H1217.34ZM1239.93 266V241.16H1231.69V237.44H1252.41V241.16H1244.17V266H1239.93ZM1290.86 266.4C1288.06 266.4 1285.78 265.787 1284.02 264.56C1282.26 263.333 1280.95 261.64 1280.1 259.48C1279.27 257.293 1278.86 254.76 1278.86 251.88C1278.86 249.587 1279.12 247.533 1279.66 245.72C1280.22 243.88 1281.03 242.32 1282.1 241.04C1283.19 239.733 1284.51 238.747 1286.06 238.08C1287.6 237.387 1289.39 237.04 1291.42 237.04C1292.8 237.04 1294.07 237.187 1295.22 237.48C1296.39 237.773 1297.5 238.187 1298.54 238.72L1297.02 242.16C1296.14 241.707 1295.2 241.373 1294.22 241.16C1293.23 240.92 1292.27 240.8 1291.34 240.8C1289.98 240.8 1288.78 241.053 1287.74 241.56C1286.72 242.04 1285.88 242.76 1285.22 243.72C1284.55 244.653 1284.04 245.8 1283.7 247.16C1283.38 248.52 1283.22 250.08 1283.22 251.84C1283.22 254.107 1283.48 256.04 1284.02 257.64C1284.58 259.24 1285.44 260.467 1286.62 261.32C1287.79 262.147 1289.31 262.56 1291.18 262.56C1292.11 262.56 1293.08 262.453 1294.1 262.24C1295.14 262.027 1296.22 261.68 1297.34 261.2V265.16C1296.24 265.587 1295.16 265.893 1294.1 266.08C1293.06 266.293 1291.98 266.4 1290.86 266.4ZM1311.56 266.4C1309.75 266.4 1308.19 266.053 1306.88 265.36C1305.6 264.667 1304.53 263.68 1303.68 262.4C1302.83 261.093 1302.2 259.547 1301.8 257.76C1301.43 255.947 1301.24 253.933 1301.24 251.72C1301.24 248.733 1301.6 246.133 1302.32 243.92C1303.04 241.707 1304.16 240 1305.68 238.8C1307.23 237.573 1309.2 236.96 1311.6 236.96C1313.41 236.96 1314.97 237.307 1316.28 238C1317.59 238.667 1318.65 239.653 1319.48 240.96C1320.33 242.267 1320.96 243.813 1321.36 245.6C1321.76 247.387 1321.96 249.4 1321.96 251.64C1321.96 253.88 1321.76 255.907 1321.36 257.72C1320.96 259.533 1320.33 261.093 1319.48 262.4C1318.65 263.68 1317.57 264.667 1316.24 265.36C1314.93 266.053 1313.37 266.4 1311.56 266.4ZM1311.64 262.68C1313.11 262.68 1314.28 262.253 1315.16 261.4C1316.04 260.52 1316.67 259.267 1317.04 257.64C1317.44 255.987 1317.64 254 1317.64 251.68C1317.64 248.187 1317.19 245.48 1316.28 243.56C1315.37 241.64 1313.83 240.68 1311.64 240.68C1310.17 240.68 1308.99 241.12 1308.08 242C1307.2 242.853 1306.56 244.107 1306.16 245.76C1305.76 247.387 1305.56 249.36 1305.56 251.68C1305.56 254 1305.76 255.987 1306.16 257.64C1306.56 259.267 1307.2 260.52 1308.08 261.4C1308.99 262.253 1310.17 262.68 1311.64 262.68ZM1325.3 266V237.44H1330.98L1340.5 261H1340.62C1340.57 260.173 1340.52 259.387 1340.46 258.64C1340.44 257.893 1340.41 257.173 1340.38 256.48C1340.36 255.76 1340.33 255.067 1340.3 254.4C1340.3 253.707 1340.3 253.013 1340.3 252.32V237.44H1344.26V266H1338.86L1328.94 241.6H1328.78C1328.84 242.427 1328.89 243.24 1328.94 244.04C1329.02 244.813 1329.08 245.587 1329.1 246.36C1329.16 247.107 1329.2 247.84 1329.22 248.56C1329.25 249.253 1329.26 249.92 1329.26 250.56V266H1325.3ZM1355.85 266V241.16H1347.61V237.44H1368.33V241.16H1360.09V266H1355.85ZM1372.79 266V237.44H1379.75C1381.99 237.44 1383.86 237.76 1385.35 238.4C1386.85 239.013 1387.97 239.92 1388.71 241.12C1389.49 242.32 1389.87 243.813 1389.87 245.6C1389.87 247.04 1389.65 248.28 1389.19 249.32C1388.74 250.333 1388.11 251.187 1387.31 251.88C1386.54 252.547 1385.65 253.08 1384.63 253.48L1392.11 266H1387.47L1380.87 254.6H1377.03V266H1372.79ZM1379.63 250.96C1381.02 250.96 1382.14 250.773 1382.99 250.4C1383.87 250 1384.51 249.427 1384.91 248.68C1385.34 247.907 1385.55 246.973 1385.55 245.88C1385.55 244.12 1385.06 242.88 1384.07 242.16C1383.11 241.44 1381.59 241.08 1379.51 241.08H1377.03V250.96H1379.63ZM1393.02 266L1401.9 237.32H1406.74L1415.66 266H1411.34L1405.54 246C1405.43 245.573 1405.3 245.12 1405.14 244.64C1405 244.133 1404.86 243.587 1404.7 243C1404.56 242.413 1404.43 241.84 1404.3 241.28C1404.19 241.84 1404.06 242.413 1403.9 243C1403.76 243.587 1403.63 244.133 1403.5 244.64C1403.36 245.147 1403.24 245.6 1403.14 246L1397.26 266H1393.02ZM1398.66 257.72L1399.86 254.08H1408.7L1409.58 257.72H1398.66ZM1429.96 266.4C1427.16 266.4 1424.88 265.787 1423.12 264.56C1421.36 263.333 1420.06 261.64 1419.2 259.48C1418.38 257.293 1417.96 254.76 1417.96 251.88C1417.96 249.587 1418.23 247.533 1418.76 245.72C1419.32 243.88 1420.14 242.32 1421.2 241.04C1422.3 239.733 1423.62 238.747 1425.16 238.08C1426.71 237.387 1428.5 237.04 1430.52 237.04C1431.91 237.04 1433.18 237.187 1434.32 237.48C1435.5 237.773 1436.6 238.187 1437.64 238.72L1436.12 242.16C1435.24 241.707 1434.31 241.373 1433.32 241.16C1432.34 240.92 1431.38 240.8 1430.44 240.8C1429.08 240.8 1427.88 241.053 1426.84 241.56C1425.83 242.04 1424.99 242.76 1424.32 243.72C1423.66 244.653 1423.15 245.8 1422.8 247.16C1422.48 248.52 1422.32 250.08 1422.32 251.84C1422.32 254.107 1422.59 256.04 1423.12 257.64C1423.68 259.24 1424.55 260.467 1425.72 261.32C1426.9 262.147 1428.42 262.56 1430.28 262.56C1431.22 262.56 1432.19 262.453 1433.2 262.24C1434.24 262.027 1435.32 261.68 1436.44 261.2V265.16C1435.35 265.587 1434.27 265.893 1433.2 266.08C1432.16 266.293 1431.08 266.4 1429.96 266.4ZM1448.59 266V241.16H1440.35V237.44H1461.07V241.16H1452.83V266H1448.59ZM1215.74 320.4C1214.12 320.4 1212.74 320.08 1211.62 319.44C1210.53 318.773 1209.7 317.88 1209.14 316.76C1208.58 315.613 1208.3 314.333 1208.3 312.92C1208.3 311.453 1208.58 310.16 1209.14 309.04C1209.73 307.92 1210.5 306.893 1211.46 305.96C1212.45 305.027 1213.54 304.12 1214.74 303.24C1215.38 302.787 1216.05 302.267 1216.74 301.68C1217.46 301.067 1218.08 300.373 1218.58 299.6C1219.09 298.8 1219.34 297.92 1219.34 296.96C1219.34 296.053 1219.12 295.36 1218.66 294.88C1218.24 294.373 1217.65 294.12 1216.9 294.12C1216.13 294.12 1215.52 294.387 1215.06 294.92C1214.64 295.427 1214.42 296.16 1214.42 297.12C1214.42 297.893 1214.54 298.653 1214.78 299.4C1215.02 300.147 1215.33 300.84 1215.7 301.48C1216.1 302.12 1216.49 302.68 1216.86 303.16L1230.14 320H1225.26L1214.34 305.6C1213.81 304.907 1213.26 304.133 1212.7 303.28C1212.14 302.4 1211.66 301.453 1211.26 300.44C1210.86 299.4 1210.66 298.307 1210.66 297.16C1210.66 295.293 1211.21 293.813 1212.3 292.72C1213.42 291.6 1214.93 291.04 1216.82 291.04C1218.77 291.04 1220.29 291.587 1221.38 292.68C1222.48 293.773 1223.02 295.213 1223.02 297C1223.02 298.227 1222.73 299.373 1222.14 300.44C1221.56 301.507 1220.8 302.493 1219.86 303.4C1218.93 304.28 1217.96 305.133 1216.94 305.96C1216.14 306.6 1215.38 307.24 1214.66 307.88C1213.94 308.52 1213.36 309.227 1212.9 310C1212.48 310.773 1212.26 311.667 1212.26 312.68C1212.26 313.827 1212.61 314.813 1213.3 315.64C1214 316.44 1214.97 316.84 1216.22 316.84C1217.18 316.84 1218.08 316.613 1218.9 316.16C1219.76 315.68 1220.53 315.04 1221.22 314.24C1221.92 313.44 1222.52 312.56 1223.02 311.6C1223.53 310.613 1223.94 309.613 1224.26 308.6C1224.61 307.587 1224.86 306.627 1225.02 305.72H1228.86C1228.62 307.213 1228.25 308.68 1227.74 310.12C1227.24 311.533 1226.6 312.867 1225.82 314.12C1225.08 315.373 1224.2 316.467 1223.18 317.4C1222.17 318.333 1221.04 319.067 1219.78 319.6C1218.56 320.133 1217.21 320.4 1215.74 320.4ZM1256.87 320V291.44H1273.99V295.16H1261.03V303.24H1273.31V306.96H1261.03V316.28H1273.99V320H1256.87ZM1287.58 320.4C1286.08 320.4 1284.63 320.267 1283.22 320C1281.8 319.707 1280.62 319.32 1279.66 318.84V314.96C1280.78 315.467 1282.04 315.907 1283.46 316.28C1284.87 316.627 1286.28 316.8 1287.7 316.8C1288.92 316.8 1289.96 316.64 1290.82 316.32C1291.67 316 1292.31 315.507 1292.74 314.84C1293.19 314.173 1293.42 313.333 1293.42 312.32C1293.42 311.44 1293.22 310.747 1292.82 310.24C1292.42 309.707 1291.75 309.2 1290.82 308.72C1289.91 308.24 1288.67 307.64 1287.1 306.92C1285.95 306.387 1284.84 305.787 1283.78 305.12C1282.74 304.453 1281.88 303.613 1281.22 302.6C1280.58 301.56 1280.26 300.24 1280.26 298.64C1280.26 296.96 1280.63 295.56 1281.38 294.44C1282.12 293.32 1283.18 292.48 1284.54 291.92C1285.92 291.333 1287.56 291.04 1289.46 291.04C1290.79 291.04 1292.14 291.187 1293.5 291.48C1294.86 291.773 1296.1 292.187 1297.22 292.72L1295.86 296.16C1294.84 295.707 1293.78 295.36 1292.66 295.12C1291.56 294.853 1290.51 294.72 1289.5 294.72C1288.51 294.72 1287.64 294.867 1286.9 295.16C1286.15 295.427 1285.58 295.853 1285.18 296.44C1284.8 297.027 1284.62 297.8 1284.62 298.76C1284.62 299.667 1284.8 300.4 1285.18 300.96C1285.55 301.493 1286.15 301.973 1286.98 302.4C1287.8 302.827 1288.86 303.333 1290.14 303.92C1291.66 304.613 1292.99 305.293 1294.14 305.96C1295.28 306.627 1296.18 307.44 1296.82 308.4C1297.46 309.36 1297.78 310.653 1297.78 312.28C1297.78 313.587 1297.55 314.747 1297.1 315.76C1296.64 316.747 1295.98 317.587 1295.1 318.28C1294.24 318.973 1293.19 319.507 1291.94 319.88C1290.68 320.227 1289.23 320.4 1287.58 320.4ZM1314.04 320.4C1311.24 320.4 1308.96 319.787 1307.2 318.56C1305.44 317.333 1304.13 315.64 1303.28 313.48C1302.45 311.293 1302.04 308.76 1302.04 305.88C1302.04 303.587 1302.31 301.533 1302.84 299.72C1303.4 297.88 1304.21 296.32 1305.28 295.04C1306.37 293.733 1307.69 292.747 1309.24 292.08C1310.79 291.387 1312.57 291.04 1314.6 291.04C1315.99 291.04 1317.25 291.187 1318.4 291.48C1319.57 291.773 1320.68 292.187 1321.72 292.72L1320.2 296.16C1319.32 295.707 1318.39 295.373 1317.4 295.16C1316.41 294.92 1315.45 294.8 1314.52 294.8C1313.16 294.8 1311.96 295.053 1310.92 295.56C1309.91 296.04 1309.07 296.76 1308.4 297.72C1307.73 298.653 1307.23 299.8 1306.88 301.16C1306.56 302.52 1306.4 304.08 1306.4 305.84C1306.4 308.107 1306.67 310.04 1307.2 311.64C1307.76 313.24 1308.63 314.467 1309.8 315.32C1310.97 316.147 1312.49 316.56 1314.36 316.56C1315.29 316.56 1316.27 316.453 1317.28 316.24C1318.32 316.027 1319.4 315.68 1320.52 315.2V319.16C1319.43 319.587 1318.35 319.893 1317.28 320.08C1316.24 320.293 1315.16 320.4 1314.04 320.4ZM1326.42 320V291.44H1333.38C1335.62 291.44 1337.49 291.76 1338.98 292.4C1340.48 293.013 1341.6 293.92 1342.34 295.12C1343.12 296.32 1343.5 297.813 1343.5 299.6C1343.5 301.04 1343.28 302.28 1342.82 303.32C1342.37 304.333 1341.74 305.187 1340.94 305.88C1340.17 306.547 1339.28 307.08 1338.26 307.48L1345.74 320H1341.1L1334.5 308.6H1330.66V320H1326.42ZM1333.26 304.96C1334.65 304.96 1335.77 304.773 1336.62 304.4C1337.5 304 1338.14 303.427 1338.54 302.68C1338.97 301.907 1339.18 300.973 1339.18 299.88C1339.18 298.12 1338.69 296.88 1337.7 296.16C1336.74 295.44 1335.22 295.08 1333.14 295.08H1330.66V304.96H1333.26ZM1357.93 320.4C1356.12 320.4 1354.56 320.053 1353.25 319.36C1351.97 318.667 1350.9 317.68 1350.05 316.4C1349.2 315.093 1348.57 313.547 1348.17 311.76C1347.8 309.947 1347.61 307.933 1347.61 305.72C1347.61 302.733 1347.97 300.133 1348.69 297.92C1349.41 295.707 1350.53 294 1352.05 292.8C1353.6 291.573 1355.57 290.96 1357.97 290.96C1359.78 290.96 1361.34 291.307 1362.65 292C1363.96 292.667 1365.02 293.653 1365.85 294.96C1366.7 296.267 1367.33 297.813 1367.73 299.6C1368.13 301.387 1368.33 303.4 1368.33 305.64C1368.33 307.88 1368.13 309.907 1367.73 311.72C1367.33 313.533 1366.7 315.093 1365.85 316.4C1365.02 317.68 1363.94 318.667 1362.61 319.36C1361.3 320.053 1359.74 320.4 1357.93 320.4ZM1358.01 316.68C1359.48 316.68 1360.65 316.253 1361.53 315.4C1362.41 314.52 1363.04 313.267 1363.41 311.64C1363.81 309.987 1364.01 308 1364.01 305.68C1364.01 302.187 1363.56 299.48 1362.65 297.56C1361.74 295.64 1360.2 294.68 1358.01 294.68C1356.54 294.68 1355.36 295.12 1354.45 296C1353.57 296.853 1352.93 298.107 1352.53 299.76C1352.13 301.387 1351.93 303.36 1351.93 305.68C1351.93 308 1352.13 309.987 1352.53 311.64C1352.93 313.267 1353.57 314.52 1354.45 315.4C1355.36 316.253 1356.54 316.68 1358.01 316.68ZM1372.87 320L1369.99 291.44H1373.79C1373.95 293.013 1374.09 294.467 1374.19 295.8C1374.33 297.107 1374.43 298.32 1374.51 299.44C1374.62 300.56 1374.7 301.627 1374.75 302.64C1374.83 303.627 1374.91 304.613 1374.99 305.6C1375.05 306.293 1375.1 307.027 1375.15 307.8C1375.21 308.573 1375.26 309.36 1375.31 310.16C1375.37 310.933 1375.41 311.68 1375.43 312.4C1375.46 313.12 1375.49 313.787 1375.51 314.4C1375.54 314.987 1375.55 315.453 1375.55 315.8H1375.71C1375.79 315.267 1375.89 314.653 1375.99 313.96C1376.13 313.24 1376.26 312.493 1376.39 311.72C1376.55 310.947 1376.7 310.213 1376.83 309.52C1376.99 308.8 1377.13 308.173 1377.23 307.64L1379.15 298.44H1383.23L1385.19 307.72C1385.33 308.387 1385.47 309.08 1385.63 309.8C1385.82 310.52 1385.98 311.253 1386.11 312C1386.27 312.72 1386.41 313.413 1386.51 314.08C1386.65 314.72 1386.75 315.307 1386.83 315.84H1386.95C1386.98 315.413 1386.99 314.907 1386.99 314.32C1387.02 313.707 1387.03 313.04 1387.03 312.32C1387.06 311.6 1387.09 310.84 1387.11 310.04C1387.17 309.24 1387.22 308.427 1387.27 307.6C1387.33 306.747 1387.38 305.92 1387.43 305.12C1387.49 304.4 1387.54 303.667 1387.59 302.92C1387.65 302.147 1387.7 301.36 1387.75 300.56C1387.83 299.733 1387.91 298.867 1387.99 297.96C1388.07 297.027 1388.15 296.027 1388.23 294.96C1388.31 293.867 1388.41 292.693 1388.51 291.44H1392.31L1389.71 320H1384.83L1382.19 307.88C1382.03 307.16 1381.89 306.467 1381.75 305.8C1381.65 305.133 1381.55 304.533 1381.47 304C1381.39 303.44 1381.33 302.987 1381.27 302.64H1381.11C1381.09 302.987 1381.03 303.44 1380.95 304C1380.87 304.533 1380.77 305.133 1380.63 305.8C1380.53 306.44 1380.39 307.133 1380.23 307.88L1377.67 320H1372.87Z" fill="#a1a1aa"/>
<rect x="0.5" y="0.5" width="599" height="399" rx="19.5" fill="#151518" stroke="#2e2e33" stroke-width="1.25" vector-effect="non-scaling-stroke"/>
<path d="M136.377 270.4C134.884 270.4 133.431 270.267 132.017 270C130.604 269.707 129.417 269.32 128.457 268.84V264.96C129.577 265.467 130.844 265.907 132.257 266.28C133.671 266.627 135.084 266.8 136.497 266.8C137.724 266.8 138.764 266.64 139.617 266.32C140.471 266 141.111 265.507 141.537 264.84C141.991 264.173 142.217 263.333 142.217 262.32C142.217 261.44 142.017 260.747 141.617 260.24C141.217 259.707 140.551 259.2 139.617 258.72C138.711 258.24 137.471 257.64 135.897 256.92C134.751 256.387 133.644 255.787 132.577 255.12C131.537 254.453 130.684 253.613 130.017 252.6C129.377 251.56 129.057 250.24 129.057 248.64C129.057 246.96 129.431 245.56 130.177 244.44C130.924 243.32 131.977 242.48 133.337 241.92C134.724 241.333 136.364 241.04 138.257 241.04C139.591 241.04 140.937 241.187 142.297 241.48C143.657 241.773 144.897 242.187 146.017 242.72L144.657 246.16C143.644 245.707 142.577 245.36 141.457 245.12C140.364 244.853 139.311 244.72 138.297 244.72C137.311 244.72 136.444 244.867 135.697 245.16C134.951 245.427 134.377 245.853 133.977 246.44C133.604 247.027 133.417 247.8 133.417 248.76C133.417 249.667 133.604 250.4 133.977 250.96C134.351 251.493 134.951 251.973 135.777 252.4C136.604 252.827 137.657 253.333 138.937 253.92C140.457 254.613 141.791 255.293 142.937 255.96C144.084 256.627 144.977 257.44 145.617 258.4C146.257 259.36 146.577 260.653 146.577 262.28C146.577 263.587 146.351 264.747 145.897 265.76C145.444 266.747 144.777 267.587 143.897 268.28C143.044 268.973 141.991 269.507 140.737 269.88C139.484 270.227 138.031 270.4 136.377 270.4ZM152.562 270V267.08L158.282 266.52V244.92L152.562 244.36V241.44H168.242V244.36L162.442 244.92V266.52L168.242 267.08V270H152.562ZM185.226 270.4C182.586 270.4 180.359 269.853 178.546 268.76C176.759 267.64 175.426 266.027 174.546 263.92C173.666 261.787 173.226 259.187 173.226 256.12C173.226 252.947 173.693 250.24 174.626 248C175.586 245.733 176.986 244.013 178.826 242.84C180.693 241.64 182.973 241.04 185.666 241.04C187.079 241.04 188.359 241.2 189.506 241.52C190.679 241.813 191.773 242.227 192.786 242.76L191.346 246.24C190.626 245.787 189.813 245.44 188.906 245.2C187.999 244.933 186.999 244.8 185.906 244.8C184.039 244.8 182.479 245.24 181.226 246.12C179.973 247 179.039 248.267 178.426 249.92C177.813 251.573 177.506 253.587 177.506 255.96C177.506 258.04 177.759 259.893 178.266 261.52C178.799 263.12 179.639 264.387 180.786 265.32C181.933 266.227 183.466 266.68 185.386 266.68C186.159 266.68 186.839 266.627 187.426 266.52C188.039 266.387 188.586 266.267 189.066 266.16V258.28H184.266V254.64H193.066V268.88C191.973 269.333 190.773 269.707 189.466 270C188.159 270.267 186.746 270.4 185.226 270.4ZM197.29 270V241.44H202.97L212.49 265H212.61C212.557 264.173 212.504 263.387 212.45 262.64C212.424 261.893 212.397 261.173 212.37 260.48C212.344 259.76 212.317 259.067 212.29 258.4C212.29 257.707 212.29 257.013 212.29 256.32V241.44H216.25V270H210.85L200.93 245.6H200.77C200.824 246.427 200.877 247.24 200.93 248.04C201.01 248.813 201.064 249.587 201.09 250.36C201.144 251.107 201.184 251.84 201.21 252.56C201.237 253.253 201.25 253.92 201.25 254.56V270H197.29ZM229.115 270.4C227.621 270.4 226.168 270.267 224.755 270C223.341 269.707 222.155 269.32 221.195 268.84V264.96C222.315 265.467 223.581 265.907 224.995 266.28C226.408 266.627 227.821 266.8 229.235 266.8C230.461 266.8 231.501 266.64 232.355 266.32C233.208 266 233.848 265.507 234.275 264.84C234.728 264.173 234.955 263.333 234.955 262.32C234.955 261.44 234.755 260.747 234.355 260.24C233.955 259.707 233.288 259.2 232.355 258.72C231.448 258.24 230.208 257.64 228.635 256.92C227.488 256.387 226.381 255.787 225.315 255.12C224.275 254.453 223.421 253.613 222.755 252.6C222.115 251.56 221.795 250.24 221.795 248.64C221.795 246.96 222.168 245.56 222.915 244.44C223.661 243.32 224.715 242.48 226.075 241.92C227.461 241.333 229.101 241.04 230.995 241.04C232.328 241.04 233.675 241.187 235.035 241.48C236.395 241.773 237.635 242.187 238.755 242.72L237.395 246.16C236.381 245.707 235.315 245.36 234.195 245.12C233.101 244.853 232.048 244.72 231.035 244.72C230.048 244.72 229.181 244.867 228.435 245.16C227.688 245.427 227.115 245.853 226.715 246.44C226.341 247.027 226.155 247.8 226.155 248.76C226.155 249.667 226.341 250.4 226.715 250.96C227.088 251.493 227.688 251.973 228.515 252.4C229.341 252.827 230.395 253.333 231.675 253.92C233.195 254.613 234.528 255.293 235.675 255.96C236.821 256.627 237.715 257.44 238.355 258.4C238.995 259.36 239.315 260.653 239.315 262.28C239.315 263.587 239.088 264.747 238.635 265.76C238.181 266.747 237.515 267.587 236.635 268.28C235.781 268.973 234.728 269.507 233.475 269.88C232.221 270.227 230.768 270.4 229.115 270.4ZM276.283 270.4C274.47 270.4 272.91 270.053 271.603 269.36C270.323 268.667 269.257 267.68 268.403 266.4C267.55 265.093 266.923 263.547 266.523 261.76C266.15 259.947 265.963 257.933 265.963 255.72C265.963 252.733 266.323 250.133 267.043 247.92C267.763 245.707 268.883 244 270.403 242.8C271.95 241.573 273.923 240.96 276.323 240.96C278.137 240.96 279.697 241.307 281.003 242C282.31 242.667 283.377 243.653 284.203 244.96C285.057 246.267 285.683 247.813 286.083 249.6C286.483 251.387 286.683 253.4 286.683 255.64C286.683 257.88 286.483 259.907 286.083 261.72C285.683 263.533 285.057 265.093 284.203 266.4C283.377 267.68 282.297 268.667 280.963 269.36C279.657 270.053 278.097 270.4 276.283 270.4ZM276.363 266.68C277.83 266.68 279.003 266.253 279.883 265.4C280.763 264.52 281.39 263.267 281.763 261.64C282.163 259.987 282.363 258 282.363 255.68C282.363 252.187 281.91 249.48 281.003 247.56C280.097 245.64 278.55 244.68 276.363 244.68C274.897 244.68 273.71 245.12 272.803 246C271.923 246.853 271.283 248.107 270.883 249.76C270.483 251.387 270.283 253.36 270.283 255.68C270.283 258 270.483 259.987 270.883 261.64C271.283 263.267 271.923 264.52 272.803 265.4C273.71 266.253 274.897 266.68 276.363 266.68ZM291.148 270V241.44H308.268V245.16H295.308V254.48H307.588V258.2H295.308V270H291.148ZM314.332 270V241.44H331.452V245.16H318.492V254.48H330.772V258.2H318.492V270H314.332ZM339.877 261.08V257.36H351.877V261.08H339.877ZM371.501 270.4C368.701 270.4 366.421 269.787 364.661 268.56C362.901 267.333 361.594 265.64 360.741 263.48C359.914 261.293 359.501 258.76 359.501 255.88C359.501 253.587 359.768 251.533 360.301 249.72C360.861 247.88 361.674 246.32 362.741 245.04C363.834 243.733 365.154 242.747 366.701 242.08C368.248 241.387 370.034 241.04 372.061 241.04C373.448 241.04 374.714 241.187 375.861 241.48C377.034 241.773 378.141 242.187 379.181 242.72L377.661 246.16C376.781 245.707 375.848 245.373 374.861 245.16C373.874 244.92 372.914 244.8 371.981 244.8C370.621 244.8 369.421 245.053 368.381 245.56C367.368 246.04 366.528 246.76 365.861 247.72C365.194 248.653 364.688 249.8 364.341 251.16C364.021 252.52 363.861 254.08 363.861 255.84C363.861 258.107 364.128 260.04 364.661 261.64C365.221 263.24 366.088 264.467 367.261 265.32C368.434 266.147 369.954 266.56 371.821 266.56C372.754 266.56 373.728 266.453 374.741 266.24C375.781 266.027 376.861 265.68 377.981 265.2V269.16C376.888 269.587 375.808 269.893 374.741 270.08C373.701 270.293 372.621 270.4 371.501 270.4ZM382.765 270V241.44H387.005V253.24H397.485V241.44H401.725V270H397.485V256.96H387.005V270H382.765ZM404.11 270L412.99 241.32H417.83L426.75 270H422.43L416.63 250C416.523 249.573 416.39 249.12 416.23 248.64C416.096 248.133 415.95 247.587 415.79 247C415.656 246.413 415.523 245.84 415.39 245.28C415.283 245.84 415.15 246.413 414.99 247C414.856 247.587 414.723 248.133 414.59 248.64C414.456 249.147 414.336 249.6 414.23 250L408.35 270H404.11ZM409.75 261.72L410.95 258.08H419.79L420.67 261.72H409.75ZM430.774 270V267.08L436.494 266.52V244.92L430.774 244.36V241.44H446.454V244.36L440.654 244.92V266.52L446.454 267.08V270H430.774ZM452.318 270V241.44H457.998L467.518 265H467.638C467.585 264.173 467.532 263.387 467.478 262.64C467.452 261.893 467.425 261.173 467.398 260.48C467.372 259.76 467.345 259.067 467.318 258.4C467.318 257.707 467.318 257.013 467.318 256.32V241.44H471.278V270H465.878L455.958 245.6H455.798C455.852 246.427 455.905 247.24 455.958 248.04C456.038 248.813 456.092 249.587 456.118 250.36C456.172 251.107 456.212 251.84 456.238 252.56C456.265 253.253 456.278 253.92 456.278 254.56V270H452.318Z" fill="#a1a1aa"/>
<path d="M211.626 188V142.304H225.962C231.296 142.304 235.221 143.52 237.738 145.952C240.298 148.341 241.578 151.755 241.578 156.192C241.578 159.051 241.045 161.611 239.979 163.872C238.912 166.133 237.184 167.925 234.794 169.248C232.405 170.571 229.248 171.232 225.322 171.232H219.37V188H211.626ZM224.49 164.448C226.538 164.448 228.224 164.171 229.546 163.616C230.912 163.019 231.936 162.144 232.618 160.992C233.301 159.797 233.642 158.325 233.642 156.576C233.642 153.973 232.981 152.075 231.658 150.88C230.378 149.685 228.352 149.088 225.578 149.088H219.37V164.448H224.49ZM244.113 188L257.553 142.112H267.218L280.722 188H272.722L264.337 156.768C264.167 155.957 263.953 155.125 263.698 154.272C263.484 153.419 263.271 152.523 263.057 151.584C262.844 150.645 262.631 149.707 262.417 148.768C262.204 149.707 261.991 150.645 261.778 151.584C261.564 152.523 261.351 153.44 261.137 154.336C260.924 155.189 260.689 156 260.434 156.768L251.921 188H244.113ZM253.649 175.648L255.569 168.928H269.265L270.417 175.648H253.649ZM295.609 188V170.272L281.977 142.304H290.425L299.577 163.104L308.665 142.304H317.049L303.481 170.272V188H295.609ZM322.912 188V142.304H350.944V149.216H330.656V160.8H349.92V167.712H330.656V181.088H350.944V188H322.912ZM360.007 188V142.304H371.655C375.239 142.304 378.247 142.837 380.679 143.904C383.111 144.928 384.945 146.443 386.183 148.448C387.42 150.411 388.039 152.821 388.039 155.68C388.039 157.856 387.697 159.776 387.015 161.44C386.332 163.061 385.372 164.427 384.135 165.536C382.94 166.645 381.553 167.563 379.975 168.288L391.559 188H382.983L372.935 170.208H367.943V188H360.007ZM371.463 163.424C373.425 163.424 375.025 163.147 376.263 162.592C377.5 162.037 378.417 161.227 379.015 160.16C379.655 159.051 379.975 157.664 379.975 156C379.975 153.44 379.249 151.648 377.799 150.624C376.391 149.6 374.215 149.088 371.271 149.088H367.943V163.424H371.463Z" fill="#fafafa"/>
<rect x="2000.5" y="0.5" width="599" height="399" rx="19.5" fill="#151518" stroke="#2e2e33" stroke-width="1.25" vector-effect="non-scaling-stroke"/>
<path d="M2212.63 188V142.304H2226.96C2232.3 142.304 2236.22 143.52 2238.74 145.952C2241.3 148.341 2242.58 151.755 2242.58 156.192C2242.58 159.051 2242.05 161.611 2240.98 163.872C2239.91 166.133 2238.18 167.925 2235.79 169.248C2233.41 170.571 2230.25 171.232 2226.32 171.232H2220.37V188H2212.63ZM2225.49 164.448C2227.54 164.448 2229.22 164.171 2230.55 163.616C2231.91 163.019 2232.94 162.144 2233.62 160.992C2234.3 159.797 2234.64 158.325 2234.64 156.576C2234.64 153.973 2233.98 152.075 2232.66 150.88C2231.38 149.685 2229.35 149.088 2226.58 149.088H2220.37V164.448H2225.49ZM2245.11 188L2258.55 142.112H2268.22L2281.72 188H2273.72L2265.34 156.768C2265.17 155.957 2264.95 155.125 2264.7 154.272C2264.48 153.419 2264.27 152.523 2264.06 151.584C2263.84 150.645 2263.63 149.707 2263.42 148.768C2263.2 149.707 2262.99 150.645 2262.78 151.584C2262.56 152.523 2262.35 153.44 2262.14 154.336C2261.92 155.189 2261.69 156 2261.43 156.768L2252.92 188H2245.11ZM2254.65 175.648L2256.57 168.928H2270.27L2271.42 175.648H2254.65ZM2296.61 188V170.272L2282.98 142.304H2291.42L2300.58 163.104L2309.66 142.304H2318.05L2304.48 170.272V188H2296.61ZM2323.91 188V142.304H2351.94V149.216H2331.66V160.8H2350.92V167.712H2331.66V181.088H2351.94V188H2323.91ZM2361.01 188V142.304H2389.04V149.216H2368.75V160.8H2388.01V167.712H2368.75V181.088H2389.04V188H2361.01Z" fill="#fafafa"/>
<path d="M2079.42 270.4C2077.92 270.4 2076.47 270.267 2075.06 270C2073.64 269.707 2072.46 269.32 2071.5 268.84V264.96C2072.62 265.467 2073.88 265.907 2075.3 266.28C2076.71 266.627 2078.12 266.8 2079.54 266.8C2080.76 266.8 2081.8 266.64 2082.66 266.32C2083.51 266 2084.15 265.507 2084.58 264.84C2085.03 264.173 2085.26 263.333 2085.26 262.32C2085.26 261.44 2085.06 260.747 2084.66 260.24C2084.26 259.707 2083.59 259.2 2082.66 258.72C2081.75 258.24 2080.51 257.64 2078.94 256.92C2077.79 256.387 2076.68 255.787 2075.62 255.12C2074.58 254.453 2073.72 253.613 2073.06 252.6C2072.42 251.56 2072.1 250.24 2072.1 248.64C2072.1 246.96 2072.47 245.56 2073.22 244.44C2073.96 243.32 2075.02 242.48 2076.38 241.92C2077.76 241.333 2079.4 241.04 2081.3 241.04C2082.63 241.04 2083.98 241.187 2085.34 241.48C2086.7 241.773 2087.94 242.187 2089.06 242.72L2087.7 246.16C2086.68 245.707 2085.62 245.36 2084.5 245.12C2083.4 244.853 2082.35 244.72 2081.34 244.72C2080.35 244.72 2079.48 244.867 2078.74 245.16C2077.99 245.427 2077.42 245.853 2077.02 246.44C2076.64 247.027 2076.46 247.8 2076.46 248.76C2076.46 249.667 2076.64 250.4 2077.02 250.96C2077.39 251.493 2077.99 251.973 2078.82 252.4C2079.64 252.827 2080.7 253.333 2081.98 253.92C2083.5 254.613 2084.83 255.293 2085.98 255.96C2087.12 256.627 2088.02 257.44 2088.66 258.4C2089.3 259.36 2089.62 260.653 2089.62 262.28C2089.62 263.587 2089.39 264.747 2088.94 265.76C2088.48 266.747 2087.82 267.587 2086.94 268.28C2086.08 268.973 2085.03 269.507 2083.78 269.88C2082.52 270.227 2081.07 270.4 2079.42 270.4ZM2103.36 270.4C2101.17 270.4 2099.37 269.987 2097.96 269.16C2096.57 268.307 2095.56 267.093 2094.92 265.52C2094.28 263.947 2093.96 262.093 2093.96 259.96V241.44H2098.2V259.52C2098.2 261.013 2098.36 262.307 2098.68 263.4C2099.03 264.467 2099.57 265.28 2100.32 265.84C2101.09 266.4 2102.13 266.68 2103.44 266.68C2104.83 266.68 2105.89 266.387 2106.64 265.8C2107.41 265.187 2107.95 264.347 2108.24 263.28C2108.53 262.187 2108.68 260.92 2108.68 259.48V241.44H2112.92V260C2112.92 262.027 2112.6 263.827 2111.96 265.4C2111.35 266.947 2110.33 268.173 2108.92 269.08C2107.51 269.96 2105.65 270.4 2103.36 270.4ZM2118.27 270V241.44H2126.31C2129.29 241.44 2131.63 241.973 2133.31 243.04C2135.01 244.107 2135.87 245.907 2135.87 248.44C2135.87 250.28 2135.43 251.747 2134.55 252.84C2133.69 253.907 2132.51 254.573 2130.99 254.84V255.04C2132.05 255.253 2133 255.613 2133.83 256.12C2134.68 256.6 2135.35 257.293 2135.83 258.2C2136.33 259.08 2136.59 260.24 2136.59 261.68C2136.59 263.413 2136.21 264.907 2135.47 266.16C2134.75 267.413 2133.71 268.373 2132.35 269.04C2130.99 269.68 2129.35 270 2127.43 270H2118.27ZM2126.83 266.4C2128.85 266.4 2130.25 265.96 2131.03 265.08C2131.83 264.2 2132.23 263.04 2132.23 261.6C2132.23 260.613 2132.05 259.773 2131.71 259.08C2131.36 258.387 2130.77 257.853 2129.95 257.48C2129.15 257.107 2128.03 256.92 2126.59 256.92H2122.23V266.4H2126.83ZM2126.51 253.28C2128.35 253.28 2129.64 252.933 2130.39 252.24C2131.16 251.547 2131.55 250.493 2131.55 249.08C2131.55 247.64 2131.13 246.613 2130.31 246C2129.48 245.36 2128.05 245.04 2126.03 245.04H2122.23V253.28H2126.51ZM2139.69 270V241.44H2145.65L2149.73 258.04H2149.85L2154.05 241.44H2159.93V270H2155.97V257.16C2155.97 256.547 2155.98 255.893 2156.01 255.2C2156.04 254.48 2156.06 253.76 2156.09 253.04C2156.12 252.32 2156.14 251.613 2156.17 250.92C2156.22 250.2 2156.26 249.507 2156.29 248.84C2156.34 248.173 2156.4 247.56 2156.45 247C2156.5 246.44 2156.54 245.947 2156.57 245.52H2156.37L2151.81 263H2147.81L2143.13 245.48H2142.93C2142.98 245.88 2143.04 246.36 2143.09 246.92C2143.14 247.453 2143.2 248.053 2143.25 248.72C2143.3 249.387 2143.36 250.093 2143.41 250.84C2143.46 251.56 2143.5 252.293 2143.53 253.04C2143.56 253.787 2143.57 254.52 2143.57 255.24C2143.6 255.96 2143.61 256.627 2143.61 257.24V270H2139.69ZM2165.15 270V267.08L2170.87 266.52V244.92L2165.15 244.36V241.44H2180.83V244.36L2175.03 244.92V266.52L2180.83 267.08V270H2165.15ZM2194.06 270V245.16H2185.82V241.44H2206.54V245.16H2198.3V270H2194.06ZM2218.52 270.4C2217.03 270.4 2215.58 270.267 2214.16 270C2212.75 269.707 2211.56 269.32 2210.6 268.84V264.96C2211.72 265.467 2212.99 265.907 2214.4 266.28C2215.82 266.627 2217.23 266.8 2218.64 266.8C2219.87 266.8 2220.91 266.64 2221.76 266.32C2222.62 266 2223.26 265.507 2223.68 264.84C2224.14 264.173 2224.36 263.333 2224.36 262.32C2224.36 261.44 2224.16 260.747 2223.76 260.24C2223.36 259.707 2222.7 259.2 2221.76 258.72C2220.86 258.24 2219.62 257.64 2218.04 256.92C2216.9 256.387 2215.79 255.787 2214.72 255.12C2213.68 254.453 2212.83 253.613 2212.16 252.6C2211.52 251.56 2211.2 250.24 2211.2 248.64C2211.2 246.96 2211.58 245.56 2212.32 244.44C2213.07 243.32 2214.12 242.48 2215.48 241.92C2216.87 241.333 2218.51 241.04 2220.4 241.04C2221.74 241.04 2223.08 241.187 2224.44 241.48C2225.8 241.773 2227.04 242.187 2228.16 242.72L2226.8 246.16C2225.79 245.707 2224.72 245.36 2223.6 245.12C2222.51 244.853 2221.46 244.72 2220.44 244.72C2219.46 244.72 2218.59 244.867 2217.84 245.16C2217.1 245.427 2216.52 245.853 2216.12 246.44C2215.75 247.027 2215.56 247.8 2215.56 248.76C2215.56 249.667 2215.75 250.4 2216.12 250.96C2216.5 251.493 2217.1 251.973 2217.92 252.4C2218.75 252.827 2219.8 253.333 2221.08 253.92C2222.6 254.613 2223.94 255.293 2225.08 255.96C2226.23 256.627 2227.12 257.44 2227.76 258.4C2228.4 259.36 2228.72 260.653 2228.72 262.28C2228.72 263.587 2228.5 264.747 2228.04 265.76C2227.59 266.747 2226.92 267.587 2226.04 268.28C2225.19 268.973 2224.14 269.507 2222.88 269.88C2221.63 270.227 2220.18 270.4 2218.52 270.4ZM2263.61 270V245.16H2255.37V241.44H2276.09V245.16H2267.85V270H2263.61ZM2280.56 270V241.44H2287.52C2289.76 241.44 2291.62 241.76 2293.12 242.4C2294.61 243.013 2295.73 243.92 2296.48 245.12C2297.25 246.32 2297.64 247.813 2297.64 249.6C2297.64 251.04 2297.41 252.28 2296.96 253.32C2296.5 254.333 2295.88 255.187 2295.08 255.88C2294.3 256.547 2293.41 257.08 2292.4 257.48L2299.88 270H2295.24L2288.64 258.6H2284.8V270H2280.56ZM2287.4 254.96C2288.78 254.96 2289.9 254.773 2290.76 254.4C2291.64 254 2292.28 253.427 2292.68 252.68C2293.1 251.907 2293.32 250.973 2293.32 249.88C2293.32 248.12 2292.82 246.88 2291.84 246.16C2290.88 245.44 2289.36 245.08 2287.28 245.08H2284.8V254.96H2287.4ZM2300.78 270L2309.66 241.32H2314.5L2323.42 270H2319.1L2313.3 250C2313.19 249.573 2313.06 249.12 2312.9 248.64C2312.77 248.133 2312.62 247.587 2312.46 247C2312.33 246.413 2312.19 245.84 2312.06 245.28C2311.95 245.84 2311.82 246.413 2311.66 247C2311.53 247.587 2311.39 248.133 2311.26 248.64C2311.13 249.147 2311.01 249.6 2310.9 250L2305.02 270H2300.78ZM2306.42 261.72L2307.62 258.08H2316.46L2317.34 261.72H2306.42ZM2325.8 270V241.44H2331.48L2341 265H2341.12C2341.07 264.173 2341.02 263.387 2340.96 262.64C2340.94 261.893 2340.91 261.173 2340.88 260.48C2340.86 259.76 2340.83 259.067 2340.8 258.4C2340.8 257.707 2340.8 257.013 2340.8 256.32V241.44H2344.76V270H2339.36L2329.44 245.6H2329.28C2329.34 246.427 2329.39 247.24 2329.44 248.04C2329.52 248.813 2329.58 249.587 2329.6 250.36C2329.66 251.107 2329.7 251.84 2329.72 252.56C2329.75 253.253 2329.76 253.92 2329.76 254.56V270H2325.8ZM2357.63 270.4C2356.14 270.4 2354.68 270.267 2353.27 270C2351.86 269.707 2350.67 269.32 2349.71 268.84V264.96C2350.83 265.467 2352.1 265.907 2353.51 266.28C2354.92 266.627 2356.34 266.8 2357.75 266.8C2358.98 266.8 2360.02 266.64 2360.87 266.32C2361.72 266 2362.36 265.507 2362.79 264.84C2363.24 264.173 2363.47 263.333 2363.47 262.32C2363.47 261.44 2363.27 260.747 2362.87 260.24C2362.47 259.707 2361.8 259.2 2360.87 258.72C2359.96 258.24 2358.72 257.64 2357.15 256.92C2356 256.387 2354.9 255.787 2353.83 255.12C2352.79 254.453 2351.94 253.613 2351.27 252.6C2350.63 251.56 2350.31 250.24 2350.31 248.64C2350.31 246.96 2350.68 245.56 2351.43 244.44C2352.18 243.32 2353.23 242.48 2354.59 241.92C2355.98 241.333 2357.62 241.04 2359.51 241.04C2360.84 241.04 2362.19 241.187 2363.55 241.48C2364.91 241.773 2366.15 242.187 2367.27 242.72L2365.91 246.16C2364.9 245.707 2363.83 245.36 2362.71 245.12C2361.62 244.853 2360.56 244.72 2359.55 244.72C2358.56 244.72 2357.7 244.867 2356.95 245.16C2356.2 245.427 2355.63 245.853 2355.23 246.44C2354.86 247.027 2354.67 247.8 2354.67 248.76C2354.67 249.667 2354.86 250.4 2355.23 250.96C2355.6 251.493 2356.2 251.973 2357.03 252.4C2357.86 252.827 2358.91 253.333 2360.19 253.92C2361.71 254.613 2363.04 255.293 2364.19 255.96C2365.34 256.627 2366.23 257.44 2366.87 258.4C2367.51 259.36 2367.83 260.653 2367.83 262.28C2367.83 263.587 2367.6 264.747 2367.15 265.76C2366.7 266.747 2366.03 267.587 2365.15 268.28C2364.3 268.973 2363.24 269.507 2361.99 269.88C2360.74 270.227 2359.28 270.4 2357.63 270.4ZM2370.33 270L2379.21 241.32H2384.05L2392.97 270H2388.65L2382.85 250C2382.75 249.573 2382.61 249.12 2382.45 248.64C2382.32 248.133 2382.17 247.587 2382.01 247C2381.88 246.413 2381.75 245.84 2381.61 245.28C2381.51 245.84 2381.37 246.413 2381.21 247C2381.08 247.587 2380.95 248.133 2380.81 248.64C2380.68 249.147 2380.56 249.6 2380.45 250L2374.57 270H2370.33ZM2375.97 261.72L2377.17 258.08H2386.01L2386.89 261.72H2375.97ZM2407.28 270.4C2404.48 270.4 2402.2 269.787 2400.44 268.56C2398.68 267.333 2397.37 265.64 2396.52 263.48C2395.69 261.293 2395.28 258.76 2395.28 255.88C2395.28 253.587 2395.54 251.533 2396.08 249.72C2396.64 247.88 2397.45 246.32 2398.52 245.04C2399.61 243.733 2400.93 242.747 2402.48 242.08C2404.02 241.387 2405.81 241.04 2407.84 241.04C2409.22 241.04 2410.49 241.187 2411.64 241.48C2412.81 241.773 2413.92 242.187 2414.96 242.72L2413.44 246.16C2412.56 245.707 2411.62 245.373 2410.64 245.16C2409.65 244.92 2408.69 244.8 2407.76 244.8C2406.4 244.8 2405.2 245.053 2404.16 245.56C2403.14 246.04 2402.3 246.76 2401.64 247.72C2400.97 248.653 2400.46 249.8 2400.12 251.16C2399.8 252.52 2399.64 254.08 2399.64 255.84C2399.64 258.107 2399.9 260.04 2400.44 261.64C2401 263.24 2401.86 264.467 2403.04 265.32C2404.21 266.147 2405.73 266.56 2407.6 266.56C2408.53 266.56 2409.5 266.453 2410.52 266.24C2411.56 266.027 2412.64 265.68 2413.76 265.2V269.16C2412.66 269.587 2411.58 269.893 2410.52 270.08C2409.48 270.293 2408.4 270.4 2407.28 270.4ZM2425.9 270V245.16H2417.66V241.44H2438.38V245.16H2430.14V270H2425.9ZM2443.37 270V267.08L2449.09 266.52V244.92L2443.37 244.36V241.44H2459.05V244.36L2453.25 244.92V266.52L2459.05 267.08V270H2443.37ZM2474.35 270.4C2472.54 270.4 2470.98 270.053 2469.67 269.36C2468.39 268.667 2467.32 267.68 2466.47 266.4C2465.62 265.093 2464.99 263.547 2464.59 261.76C2464.22 259.947 2464.03 257.933 2464.03 255.72C2464.03 252.733 2464.39 250.133 2465.11 247.92C2465.83 245.707 2466.95 244 2468.47 242.8C2470.02 241.573 2471.99 240.96 2474.39 240.96C2476.2 240.96 2477.76 241.307 2479.07 242C2480.38 242.667 2481.44 243.653 2482.27 244.96C2483.12 246.267 2483.75 247.813 2484.15 249.6C2484.55 251.387 2484.75 253.4 2484.75 255.64C2484.75 257.88 2484.55 259.907 2484.15 261.72C2483.75 263.533 2483.12 265.093 2482.27 266.4C2481.44 267.68 2480.36 268.667 2479.03 269.36C2477.72 270.053 2476.16 270.4 2474.35 270.4ZM2474.43 266.68C2475.9 266.68 2477.07 266.253 2477.95 265.4C2478.83 264.52 2479.46 263.267 2479.83 261.64C2480.23 259.987 2480.43 258 2480.43 255.68C2480.43 252.187 2479.98 249.48 2479.07 247.56C2478.16 245.64 2476.62 244.68 2474.43 244.68C2472.96 244.68 2471.78 245.12 2470.87 246C2469.99 246.853 2469.35 248.107 2468.95 249.76C2468.55 251.387 2468.35 253.36 2468.35 255.68C2468.35 258 2468.55 259.987 2468.95 261.64C2469.35 263.267 2469.99 264.52 2470.87 265.4C2471.78 266.253 2472.96 266.68 2474.43 266.68ZM2488.1 270V241.44H2493.78L2503.3 265H2503.42C2503.36 264.173 2503.31 263.387 2503.26 262.64C2503.23 261.893 2503.2 261.173 2503.18 260.48C2503.15 259.76 2503.12 259.067 2503.1 258.4C2503.1 257.707 2503.1 257.013 2503.1 256.32V241.44H2507.06V270H2501.66L2491.74 245.6H2491.58C2491.63 246.427 2491.68 247.24 2491.74 248.04C2491.82 248.813 2491.87 249.587 2491.9 250.36C2491.95 251.107 2491.99 251.84 2492.02 252.56C2492.04 253.253 2492.06 253.92 2492.06 254.56V270H2488.1ZM2519.92 270.4C2518.43 270.4 2516.97 270.267 2515.56 270C2514.15 269.707 2512.96 269.32 2512 268.84V264.96C2513.12 265.467 2514.39 265.907 2515.8 266.28C2517.21 266.627 2518.63 266.8 2520.04 266.8C2521.27 266.8 2522.31 266.64 2523.16 266.32C2524.01 266 2524.65 265.507 2525.08 264.84C2525.53 264.173 2525.76 263.333 2525.76 262.32C2525.76 261.44 2525.56 260.747 2525.16 260.24C2524.76 259.707 2524.09 259.2 2523.16 258.72C2522.25 258.24 2521.01 257.64 2519.44 256.92C2518.29 256.387 2517.19 255.787 2516.12 255.12C2515.08 254.453 2514.23 253.613 2513.56 252.6C2512.92 251.56 2512.6 250.24 2512.6 248.64C2512.6 246.96 2512.97 245.56 2513.72 244.44C2514.47 243.32 2515.52 242.48 2516.88 241.92C2518.27 241.333 2519.91 241.04 2521.8 241.04C2523.13 241.04 2524.48 241.187 2525.84 241.48C2527.2 241.773 2528.44 242.187 2529.56 242.72L2528.2 246.16C2527.19 245.707 2526.12 245.36 2525 245.12C2523.91 244.853 2522.85 244.72 2521.84 244.72C2520.85 244.72 2519.99 244.867 2519.24 245.16C2518.49 245.427 2517.92 245.853 2517.52 246.44C2517.15 247.027 2516.96 247.8 2516.96 248.76C2516.96 249.667 2517.15 250.4 2517.52 250.96C2517.89 251.493 2518.49 251.973 2519.32 252.4C2520.15 252.827 2521.2 253.333 2522.48 253.92C2524 254.613 2525.33 255.293 2526.48 255.96C2527.63 256.627 2528.52 257.44 2529.16 258.4C2529.8 259.36 2530.12 260.653 2530.12 262.28C2530.12 263.587 2529.89 264.747 2529.44 265.76C2528.99 266.747 2528.32 267.587 2527.44 268.28C2526.59 268.973 2525.53 269.507 2524.28 269.88C2523.03 270.227 2521.57 270.4 2519.92 270.4Z" fill="#a1a1aa"/>
<path d="M695.95 89L704.83 60.32H709.67L718.59 89H714.27L708.47 69C708.364 68.5733 708.23 68.12 708.07 67.64C707.937 67.1333 707.79 66.5867 707.63 66C707.497 65.4133 707.364 64.84 707.23 64.28C707.124 64.84 706.99 65.4133 706.83 66C706.697 66.5867 706.564 67.1333 706.43 67.64C706.297 68.1467 706.177 68.6 706.07 69L700.19 89H695.95ZM701.59 80.72L702.79 77.08H711.63L712.51 80.72H701.59ZM730.375 89.4C728.188 89.4 726.388 88.9867 724.975 88.16C723.588 87.3067 722.575 86.0933 721.935 84.52C721.295 82.9467 720.975 81.0933 720.975 78.96V60.44H725.215V78.52C725.215 80.0133 725.375 81.3067 725.695 82.4C726.041 83.4667 726.588 84.28 727.335 84.84C728.108 85.4 729.148 85.68 730.455 85.68C731.841 85.68 732.908 85.3867 733.655 84.8C734.428 84.1867 734.961 83.3467 735.255 82.28C735.548 81.1867 735.695 79.92 735.695 78.48V60.44H739.935V79C739.935 81.0267 739.615 82.8267 738.975 84.4C738.361 85.9467 737.348 87.1733 735.935 88.08C734.521 88.96 732.668 89.4 730.375 89.4ZM751.519 89V64.16H743.279V60.44H763.999V64.16H755.759V89H751.519ZM767.343 89V60.44H771.583V72.24H782.063V60.44H786.303V89H782.063V75.96H771.583V89H767.343ZM799.968 89.4C798.154 89.4 796.594 89.0533 795.288 88.36C794.008 87.6667 792.941 86.68 792.088 85.4C791.234 84.0933 790.608 82.5467 790.208 80.76C789.834 78.9467 789.648 76.9333 789.648 74.72C789.648 71.7333 790.008 69.1333 790.728 66.92C791.448 64.7067 792.568 63 794.088 61.8C795.634 60.5733 797.608 59.96 800.008 59.96C801.821 59.96 803.381 60.3067 804.688 61C805.994 61.6667 807.061 62.6533 807.888 63.96C808.741 65.2667 809.368 66.8133 809.768 68.6C810.168 70.3867 810.368 72.4 810.368 74.64C810.368 76.88 810.168 78.9067 809.768 80.72C809.368 82.5333 808.741 84.0933 807.888 85.4C807.061 86.68 805.981 87.6667 804.648 88.36C803.341 89.0533 801.781 89.4 799.968 89.4ZM800.048 85.68C801.514 85.68 802.688 85.2533 803.568 84.4C804.448 83.52 805.074 82.2667 805.448 80.64C805.848 78.9867 806.048 77 806.048 74.68C806.048 71.1867 805.594 68.48 804.688 66.56C803.781 64.64 802.234 63.68 800.048 63.68C798.581 63.68 797.394 64.12 796.488 65C795.608 65.8533 794.968 67.1067 794.568 68.76C794.168 70.3867 793.968 72.36 793.968 74.68C793.968 77 794.168 78.9867 794.568 80.64C794.968 82.2667 795.608 83.52 796.488 84.4C797.394 85.2533 798.581 85.68 800.048 85.68ZM814.832 89V60.44H821.792C824.032 60.44 825.899 60.76 827.392 61.4C828.886 62.0133 830.006 62.92 830.752 64.12C831.526 65.32 831.912 66.8133 831.912 68.6C831.912 70.04 831.686 71.28 831.232 72.32C830.779 73.3333 830.152 74.1867 829.352 74.88C828.579 75.5467 827.686 76.08 826.672 76.48L834.152 89H829.512L822.912 77.6H819.072V89H814.832ZM821.672 73.96C823.059 73.96 824.179 73.7733 825.032 73.4C825.912 73 826.552 72.4267 826.952 71.68C827.379 70.9067 827.592 69.9733 827.592 68.88C827.592 67.12 827.099 65.88 826.112 65.16C825.152 64.44 823.632 64.08 821.552 64.08H819.072V73.96H821.672ZM838.537 89V86.08L844.257 85.52V63.92L838.537 63.36V60.44H854.217V63.36L848.417 63.92V85.52L854.217 86.08V89H838.537ZM861.201 89V85.84L873.481 64.08H862.041V60.44H878.041V63.6L865.801 85.28H878.041V89H861.201ZM884.385 89V60.44H901.505V64.16H888.545V72.24H900.825V75.96H888.545V85.28H901.505V89H884.385Z" fill="#5cc0b2"/>
<path d="M1001.41 141.414C1002.2 140.633 1002.2 139.367 1001.41 138.586L988.686 125.858C987.905 125.077 986.639 125.077 985.858 125.858C985.077 126.639 985.077 127.905 985.858 128.686L997.172 140L985.858 151.314C985.077 152.095 985.077 153.361 985.858 154.142C986.639 154.923 987.905 154.923 988.686 154.142L1001.41 141.414ZM600 140V142H1000V140V138H600V140Z" fill="#fafafa"/>
<path d="M681.846 343L672.926 314.44H677.286L682.486 332.52C682.699 333.187 682.899 333.907 683.086 334.68C683.273 335.453 683.459 336.213 683.646 336.96C683.833 337.707 683.979 338.387 684.086 339H684.286C684.393 338.387 684.526 337.72 684.686 337C684.873 336.253 685.059 335.493 685.246 334.72C685.433 333.92 685.619 333.16 685.806 332.44L690.846 314.44H695.246L686.406 343H681.846ZM707.23 343.4C705.417 343.4 703.857 343.053 702.55 342.36C701.27 341.667 700.204 340.68 699.35 339.4C698.497 338.093 697.87 336.547 697.47 334.76C697.097 332.947 696.91 330.933 696.91 328.72C696.91 325.733 697.27 323.133 697.99 320.92C698.71 318.707 699.83 317 701.35 315.8C702.897 314.573 704.87 313.96 707.27 313.96C709.084 313.96 710.644 314.307 711.95 315C713.257 315.667 714.324 316.653 715.15 317.96C716.004 319.267 716.63 320.813 717.03 322.6C717.43 324.387 717.63 326.4 717.63 328.64C717.63 330.88 717.43 332.907 717.03 334.72C716.63 336.533 716.004 338.093 715.15 339.4C714.324 340.68 713.244 341.667 711.91 342.36C710.604 343.053 709.044 343.4 707.23 343.4ZM707.31 339.68C708.777 339.68 709.95 339.253 710.83 338.4C711.71 337.52 712.337 336.267 712.71 334.64C713.11 332.987 713.31 331 713.31 328.68C713.31 325.187 712.857 322.48 711.95 320.56C711.044 318.64 709.497 317.68 707.31 317.68C705.844 317.68 704.657 318.12 703.75 319C702.87 319.853 702.23 321.107 701.83 322.76C701.43 324.387 701.23 326.36 701.23 328.68C701.23 331 701.43 332.987 701.83 334.64C702.23 336.267 702.87 337.52 703.75 338.4C704.657 339.253 705.844 339.68 707.31 339.68ZM722.615 343V340.08L728.335 339.52V317.92L722.615 317.36V314.44H738.295V317.36L732.495 317.92V339.52L738.295 340.08V343H722.615ZM744.159 343V314.44H751.639C754.146 314.44 756.319 314.973 758.159 316.04C760.026 317.107 761.466 318.68 762.479 320.76C763.492 322.813 763.999 325.373 763.999 328.44C763.999 331.613 763.479 334.28 762.439 336.44C761.399 338.6 759.906 340.24 757.959 341.36C756.012 342.453 753.666 343 750.919 343H744.159ZM750.599 339.36C753.719 339.36 756.012 338.453 757.479 336.64C758.946 334.8 759.679 332.107 759.679 328.56C759.679 326.133 759.346 324.16 758.679 322.64C758.039 321.093 757.092 319.947 755.839 319.2C754.586 318.453 753.066 318.08 751.279 318.08H748.359V339.36H750.599ZM769.383 343.04L780.343 314.4H784.263L773.303 343.04H769.383ZM791.648 343V314.44H798.608C800.848 314.44 802.714 314.76 804.208 315.4C805.701 316.013 806.821 316.92 807.568 318.12C808.341 319.32 808.728 320.813 808.728 322.6C808.728 324.04 808.501 325.28 808.048 326.32C807.594 327.333 806.968 328.187 806.168 328.88C805.394 329.547 804.501 330.08 803.488 330.48L810.968 343H806.328L799.728 331.6H795.888V343H791.648ZM798.488 327.96C799.874 327.96 800.994 327.773 801.848 327.4C802.728 327 803.368 326.427 803.768 325.68C804.194 324.907 804.408 323.973 804.408 322.88C804.408 321.12 803.914 319.88 802.928 319.16C801.968 318.44 800.448 318.08 798.368 318.08H795.888V327.96H798.488ZM814.832 343V314.44H831.952V318.16H818.992V326.24H831.272V329.96H818.992V339.28H831.952V343H814.832ZM838.017 343V314.44H855.137V318.16H842.177V327.48H854.457V331.2H842.177V343H838.017ZM869.481 343.4C867.294 343.4 865.494 342.987 864.081 342.16C862.694 341.307 861.681 340.093 861.041 338.52C860.401 336.947 860.081 335.093 860.081 332.96V314.44H864.321V332.52C864.321 334.013 864.481 335.307 864.801 336.4C865.148 337.467 865.694 338.28 866.441 338.84C867.214 339.4 868.254 339.68 869.561 339.68C870.948 339.68 872.014 339.387 872.761 338.8C873.534 338.187 874.068 337.347 874.361 336.28C874.654 335.187 874.801 333.92 874.801 332.48V314.44H879.041V333C879.041 335.027 878.721 336.827 878.081 338.4C877.468 339.947 876.454 341.173 875.041 342.08C873.628 342.96 871.774 343.4 869.481 343.4ZM883.265 343V314.44H888.945L898.465 338H898.585C898.532 337.173 898.479 336.387 898.425 335.64C898.399 334.893 898.372 334.173 898.345 333.48C898.319 332.76 898.292 332.067 898.265 331.4C898.265 330.707 898.265 330.013 898.265 329.32V314.44H902.225V343H896.825L886.905 318.6H886.745C886.799 319.427 886.852 320.24 886.905 321.04C886.985 321.813 887.039 322.587 887.065 323.36C887.119 324.107 887.159 324.84 887.185 325.56C887.212 326.253 887.225 326.92 887.225 327.56V343H883.265ZM906.45 343V314.44H913.93C916.436 314.44 918.61 314.973 920.45 316.04C922.316 317.107 923.756 318.68 924.77 320.76C925.783 322.813 926.29 325.373 926.29 328.44C926.29 331.613 925.77 334.28 924.73 336.44C923.69 338.6 922.196 340.24 920.25 341.36C918.303 342.453 915.956 343 913.21 343H906.45ZM912.89 339.36C916.01 339.36 918.303 338.453 919.77 336.64C921.236 334.8 921.97 332.107 921.97 328.56C921.97 326.133 921.636 324.16 920.97 322.64C920.33 321.093 919.383 319.947 918.13 319.2C916.876 318.453 915.356 318.08 913.57 318.08H910.65V339.36H912.89Z" fill="#5cc0b2"/>
<path d="M598.586 258.586C597.805 259.367 597.805 260.633 598.586 261.414L611.314 274.142C612.095 274.923 613.361 274.923 614.142 274.142C614.923 273.361 614.923 272.095 614.142 271.314L602.828 260L614.142 248.686C614.923 247.905 614.923 246.639 614.142 245.858C613.361 245.077 612.095 245.077 611.314 245.858L598.586 258.586ZM600 260V262H1000V260V258H600V260Z" fill="#fafafa"/>
<path d="M722.095 683V654.44H729.055C731.295 654.44 733.161 654.76 734.655 655.4C736.148 656.013 737.268 656.92 738.015 658.12C738.788 659.32 739.175 660.813 739.175 662.6C739.175 664.04 738.948 665.28 738.495 666.32C738.041 667.333 737.415 668.187 736.615 668.88C735.841 669.547 734.948 670.08 733.935 670.48L741.415 683H736.775L730.175 671.6H726.335V683H722.095ZM728.935 667.96C730.321 667.96 731.441 667.773 732.295 667.4C733.175 667 733.815 666.427 734.215 665.68C734.641 664.907 734.855 663.973 734.855 662.88C734.855 661.12 734.361 659.88 733.375 659.16C732.415 658.44 730.895 658.08 728.815 658.08H726.335V667.96H728.935ZM745.279 683V654.44H762.399V658.16H749.439V666.24H761.719V669.96H749.439V679.28H762.399V683H745.279ZM769.143 683V654.44H773.383V679.16H785.583V683H769.143ZM791.648 683V654.44H808.768V658.16H795.808V666.24H808.088V669.96H795.808V679.28H808.768V683H791.648ZM811.872 683L820.752 654.32H825.592L834.512 683H830.192L824.392 663C824.286 662.573 824.152 662.12 823.992 661.64C823.859 661.133 823.712 660.587 823.552 660C823.419 659.413 823.286 658.84 823.152 658.28C823.046 658.84 822.912 659.413 822.752 660C822.619 660.587 822.486 661.133 822.352 661.64C822.219 662.147 822.099 662.6 821.992 663L816.112 683H811.872ZM817.512 674.72L818.712 671.08H827.552L828.432 674.72H817.512ZM845.537 683.4C844.043 683.4 842.59 683.267 841.177 683C839.763 682.707 838.577 682.32 837.617 681.84V677.96C838.737 678.467 840.003 678.907 841.417 679.28C842.83 679.627 844.243 679.8 845.657 679.8C846.883 679.8 847.923 679.64 848.777 679.32C849.63 679 850.27 678.507 850.697 677.84C851.15 677.173 851.377 676.333 851.377 675.32C851.377 674.44 851.177 673.747 850.777 673.24C850.377 672.707 849.71 672.2 848.777 671.72C847.87 671.24 846.63 670.64 845.057 669.92C843.91 669.387 842.803 668.787 841.737 668.12C840.697 667.453 839.843 666.613 839.177 665.6C838.537 664.56 838.217 663.24 838.217 661.64C838.217 659.96 838.59 658.56 839.337 657.44C840.083 656.32 841.137 655.48 842.497 654.92C843.883 654.333 845.523 654.04 847.417 654.04C848.75 654.04 850.097 654.187 851.457 654.48C852.817 654.773 854.057 655.187 855.177 655.72L853.817 659.16C852.803 658.707 851.737 658.36 850.617 658.12C849.523 657.853 848.47 657.72 847.457 657.72C846.47 657.72 845.603 657.867 844.857 658.16C844.11 658.427 843.537 658.853 843.137 659.44C842.763 660.027 842.577 660.8 842.577 661.76C842.577 662.667 842.763 663.4 843.137 663.96C843.51 664.493 844.11 664.973 844.937 665.4C845.763 665.827 846.817 666.333 848.097 666.92C849.617 667.613 850.95 668.293 852.097 668.96C853.243 669.627 854.137 670.44 854.777 671.4C855.417 672.36 855.737 673.653 855.737 675.28C855.737 676.587 855.51 677.747 855.057 678.76C854.603 679.747 853.937 680.587 853.057 681.28C852.203 681.973 851.15 682.507 849.897 682.88C848.643 683.227 847.19 683.4 845.537 683.4ZM861.201 683V654.44H878.321V658.16H865.361V666.24H877.641V669.96H865.361V679.28H878.321V683H861.201Z" fill="#5cc0b2"/>
<path d="M301.414 398.586C300.633 397.805 299.367 397.805 298.586 398.586L285.858 411.314C285.077 412.095 285.077 413.361 285.858 414.142C286.639 414.923 287.905 414.923 288.687 414.142L300 402.828L311.314 414.142C312.095 414.923 313.361 414.923 314.142 414.142C314.923 413.361 314.923 412.095 314.142 411.314L301.414 398.586ZM300.003 578.986L298.003 578.986L300.003 578.986ZM320.002 598.985L320.002 600.985V600.985L320.002 598.985ZM1280 599L1280 597V597L1280 599ZM1300 579L1298 579V579L1300 579ZM300 400L298 400L298.003 578.986L300.003 578.986L302.003 578.986L302 400L300 400ZM320.002 598.985L320.002 600.985L1280 601L1280 599L1280 597L320.002 596.985L320.002 598.985ZM1300 579L1302 579L1302 399L1300 399L1298 399L1298 579L1300 579ZM1280 599L1280 601C1292.15 601 1302 591.15 1302 579L1300 579L1298 579C1298 588.941 1289.94 597 1280 597L1280 599ZM300.003 578.986L298.003 578.986C298.003 591.136 307.852 600.985 320.002 600.985L320.002 598.985L320.002 596.985C310.062 596.985 302.003 588.926 302.003 578.986L300.003 578.986Z" fill="#fafafa"/>
<path d="M1733.69 343V314.44H1740.65C1742.89 314.44 1744.75 314.76 1746.25 315.4C1747.74 316.013 1748.86 316.92 1749.61 318.12C1750.38 319.32 1750.77 320.813 1750.77 322.6C1750.77 324.04 1750.54 325.28 1750.09 326.32C1749.63 327.333 1749.01 328.187 1748.21 328.88C1747.43 329.547 1746.54 330.08 1745.53 330.48L1753.01 343H1748.37L1741.77 331.6H1737.93V343H1733.69ZM1740.53 327.96C1741.91 327.96 1743.03 327.773 1743.89 327.4C1744.77 327 1745.41 326.427 1745.81 325.68C1746.23 324.907 1746.45 323.973 1746.45 322.88C1746.45 321.12 1745.95 319.88 1744.97 319.16C1744.01 318.44 1742.49 318.08 1740.41 318.08H1737.93V327.96H1740.53ZM1756.87 343V314.44H1773.99V318.16H1761.03V326.24H1773.31V329.96H1761.03V339.28H1773.99V343H1756.87ZM1780.06 343V314.44H1797.18V318.16H1784.22V327.48H1796.5V331.2H1784.22V343H1780.06ZM1811.52 343.4C1809.33 343.4 1807.53 342.987 1806.12 342.16C1804.73 341.307 1803.72 340.093 1803.08 338.52C1802.44 336.947 1802.12 335.093 1802.12 332.96V314.44H1806.36V332.52C1806.36 334.013 1806.52 335.307 1806.84 336.4C1807.19 337.467 1807.73 338.28 1808.48 338.84C1809.25 339.4 1810.29 339.68 1811.6 339.68C1812.99 339.68 1814.05 339.387 1814.8 338.8C1815.57 338.187 1816.11 337.347 1816.4 336.28C1816.69 335.187 1816.84 333.92 1816.84 332.48V314.44H1821.08V333C1821.08 335.027 1820.76 336.827 1820.12 338.4C1819.51 339.947 1818.49 341.173 1817.08 342.08C1815.67 342.96 1813.81 343.4 1811.52 343.4ZM1825.3 343V314.44H1830.98L1840.5 338H1840.62C1840.57 337.173 1840.52 336.387 1840.46 335.64C1840.44 334.893 1840.41 334.173 1840.38 333.48C1840.36 332.76 1840.33 332.067 1840.3 331.4C1840.3 330.707 1840.3 330.013 1840.3 329.32V314.44H1844.26V343H1838.86L1828.94 318.6H1828.78C1828.84 319.427 1828.89 320.24 1828.94 321.04C1829.02 321.813 1829.08 322.587 1829.1 323.36C1829.16 324.107 1829.2 324.84 1829.22 325.56C1829.25 326.253 1829.26 326.92 1829.26 327.56V343H1825.3ZM1848.49 343V314.44H1855.97C1858.48 314.44 1860.65 314.973 1862.49 316.04C1864.36 317.107 1865.8 318.68 1866.81 320.76C1867.82 322.813 1868.33 325.373 1868.33 328.44C1868.33 331.613 1867.81 334.28 1866.77 336.44C1865.73 338.6 1864.24 340.24 1862.29 341.36C1860.34 342.453 1858 343 1855.25 343H1848.49ZM1854.93 339.36C1858.05 339.36 1860.34 338.453 1861.81 336.64C1863.28 334.8 1864.01 332.107 1864.01 328.56C1864.01 326.133 1863.68 324.16 1863.01 322.64C1862.37 321.093 1861.42 319.947 1860.17 319.2C1858.92 318.453 1857.4 318.08 1855.61 318.08H1852.69V339.36H1854.93Z" fill="#5cc0b2"/>
<path d="M1598.59 258.586C1597.8 259.367 1597.8 260.633 1598.59 261.414L1611.31 274.142C1612.09 274.923 1613.36 274.923 1614.14 274.142C1614.92 273.361 1614.92 272.095 1614.14 271.314L1602.83 260L1614.14 248.686C1614.92 247.905 1614.92 246.639 1614.14 245.858C1613.36 245.077 1612.09 245.077 1611.31 245.858L1598.59 258.586ZM1600 260V262H2000V260V258H1600V260Z" fill="#fafafa"/>
<path d="M1732.89 89.4C1730.09 89.4 1727.81 88.7867 1726.05 87.56C1724.29 86.3333 1722.99 84.64 1722.13 82.48C1721.31 80.2933 1720.89 77.76 1720.89 74.88C1720.89 72.5867 1721.16 70.5333 1721.69 68.72C1722.25 66.88 1723.07 65.32 1724.13 64.04C1725.23 62.7333 1726.55 61.7467 1728.09 61.08C1729.64 60.3867 1731.43 60.04 1733.45 60.04C1734.84 60.04 1736.11 60.1867 1737.25 60.48C1738.43 60.7733 1739.53 61.1867 1740.57 61.72L1739.05 65.16C1738.17 64.7067 1737.24 64.3733 1736.25 64.16C1735.27 63.92 1734.31 63.8 1733.37 63.8C1732.01 63.8 1730.81 64.0533 1729.77 64.56C1728.76 65.04 1727.92 65.76 1727.25 66.72C1726.59 67.6533 1726.08 68.8 1725.73 70.16C1725.41 71.52 1725.25 73.08 1725.25 74.84C1725.25 77.1067 1725.52 79.04 1726.05 80.64C1726.61 82.24 1727.48 83.4667 1728.65 84.32C1729.83 85.1467 1731.35 85.56 1733.21 85.56C1734.15 85.56 1735.12 85.4533 1736.13 85.24C1737.17 85.0267 1738.25 84.68 1739.37 84.2V88.16C1738.28 88.5867 1737.2 88.8933 1736.13 89.08C1735.09 89.2933 1734.01 89.4 1732.89 89.4ZM1742.32 89L1751.2 60.32H1756.04L1764.96 89H1760.64L1754.84 69C1754.73 68.5733 1754.6 68.12 1754.44 67.64C1754.31 67.1333 1754.16 66.5867 1754 66C1753.87 65.4133 1753.73 64.84 1753.6 64.28C1753.49 64.84 1753.36 65.4133 1753.2 66C1753.07 66.5867 1752.93 67.1333 1752.8 67.64C1752.67 68.1467 1752.55 68.6 1752.44 69L1746.56 89H1742.32ZM1747.96 80.72L1749.16 77.08H1758L1758.88 80.72H1747.96ZM1768.46 89V60.44H1776.98C1780.37 60.44 1782.85 61.1867 1784.42 62.68C1786 64.1467 1786.78 66.24 1786.78 68.96C1786.78 70.6133 1786.45 72.16 1785.78 73.6C1785.14 75.0133 1784.06 76.1467 1782.54 77C1781.05 77.8267 1779.04 78.24 1776.5 78.24H1772.62V89H1768.46ZM1776.06 74.6C1777.5 74.6 1778.7 74.4133 1779.66 74.04C1780.62 73.64 1781.33 73.04 1781.78 72.24C1782.26 71.44 1782.5 70.4133 1782.5 69.16C1782.5 67.3467 1782.04 66.0533 1781.1 65.28C1780.17 64.48 1778.7 64.08 1776.7 64.08H1772.62V74.6H1776.06ZM1797.89 89V64.16H1789.65V60.44H1810.37V64.16H1802.13V89H1797.89ZM1823.11 89.4C1820.93 89.4 1819.13 88.9867 1817.71 88.16C1816.33 87.3067 1815.31 86.0933 1814.67 84.52C1814.03 82.9467 1813.71 81.0933 1813.71 78.96V60.44H1817.95V78.52C1817.95 80.0133 1818.11 81.3067 1818.43 82.4C1818.78 83.4667 1819.33 84.28 1820.07 84.84C1820.85 85.4 1821.89 85.68 1823.19 85.68C1824.58 85.68 1825.65 85.3867 1826.39 84.8C1827.17 84.1867 1827.7 83.3467 1827.99 82.28C1828.29 81.1867 1828.43 79.92 1828.43 78.48V60.44H1832.67V79C1832.67 81.0267 1832.35 82.8267 1831.71 84.4C1831.1 85.9467 1830.09 87.1733 1828.67 88.08C1827.26 88.96 1825.41 89.4 1823.11 89.4ZM1838.02 89V60.44H1844.98C1847.22 60.44 1849.08 60.76 1850.58 61.4C1852.07 62.0133 1853.19 62.92 1853.94 64.12C1854.71 65.32 1855.1 66.8133 1855.1 68.6C1855.1 70.04 1854.87 71.28 1854.42 72.32C1853.96 73.3333 1853.34 74.1867 1852.54 74.88C1851.76 75.5467 1850.87 76.08 1849.86 76.48L1857.34 89H1852.7L1846.1 77.6H1842.26V89H1838.02ZM1844.86 73.96C1846.24 73.96 1847.36 73.7733 1848.22 73.4C1849.1 73 1849.74 72.4267 1850.14 71.68C1850.56 70.9067 1850.78 69.9733 1850.78 68.88C1850.78 67.12 1850.28 65.88 1849.3 65.16C1848.34 64.44 1846.82 64.08 1844.74 64.08H1842.26V73.96H1844.86ZM1861.2 89V60.44H1878.32V64.16H1865.36V72.24H1877.64V75.96H1865.36V85.28H1878.32V89H1861.2Z" fill="#5cc0b2"/>
<path d="M2001.41 141.414C2002.2 140.633 2002.2 139.367 2001.41 138.586L1988.69 125.858C1987.91 125.077 1986.64 125.077 1985.86 125.858C1985.08 126.639 1985.08 127.905 1985.86 128.686L1997.17 140L1985.86 151.314C1985.08 152.095 1985.08 153.361 1985.86 154.142C1986.64 154.923 1987.91 154.923 1988.69 154.142L2001.41 141.414ZM1600 140V142H2000V140V138H1600V140Z" fill="#fafafa"/>
</svg>
