<svg width="1430" height="2000" viewBox="0 0 1430 2000" fill="none" xmlns="http://www.w3.org/2000/svg">
<rect x="415.5" y="800.5" width="599" height="399" rx="19.5" fill="white" stroke="black"/>
<path d="M587.53 975V968.376L602.602 966.552V931.704L589.354 930.36V923.256H610.57L611.914 932.472H612.394C614.186 929.208 616.202 926.712 618.442 924.984C620.746 923.192 623.69 922.296 627.274 922.296C629.13 922.296 630.89 922.456 632.554 922.776C634.282 923.096 635.882 923.608 637.354 924.312L634.666 933.432C633.642 932.92 632.426 932.504 631.018 932.184C629.674 931.8 628.234 931.608 626.698 931.608C623.882 931.608 621.418 932.408 619.306 934.008C617.258 935.608 615.658 937.752 614.506 940.44C613.418 943.128 612.874 946.104 612.874 949.368V966.552L627.466 968.376V975H587.53ZM656.9 975.96C651.716 975.96 647.62 974.648 644.612 972.024C641.604 969.4 640.1 965.592 640.1 960.6C640.1 956.824 640.964 953.72 642.692 951.288C644.484 948.792 647.076 946.936 650.468 945.72C653.924 944.44 658.084 943.736 662.948 943.608L674.18 943.32V941.112C674.18 937.144 673.092 934.392 670.916 932.856C668.804 931.32 665.86 930.552 662.084 930.552C659.46 930.552 656.9 930.872 654.404 931.512C651.908 932.152 649.444 933.08 647.012 934.296L643.652 926.808C646.212 925.528 649.028 924.472 652.1 923.64C655.236 922.744 658.724 922.296 662.564 922.296C669.284 922.296 674.468 923.768 678.116 926.712C681.764 929.656 683.588 934.232 683.588 940.44V975H675.62L674.276 967.992H673.892C672.42 969.848 670.82 971.352 669.092 972.504C667.428 973.656 665.572 974.52 663.524 975.096C661.476 975.672 659.268 975.96 656.9 975.96ZM659.396 967.8C662.084 967.8 664.548 967.32 666.788 966.36C669.028 965.336 670.82 963.864 672.164 961.944C673.508 959.96 674.18 957.528 674.18 954.648V950.136L665.348 950.328C661.7 950.456 658.724 950.904 656.42 951.672C654.18 952.44 652.516 953.528 651.428 954.936C650.404 956.344 649.892 958.04 649.892 960.024C649.892 962.776 650.756 964.76 652.484 965.976C654.276 967.192 656.58 967.8 659.396 967.8ZM692.863 975V968.376L710.911 966.552V931.704L694.687 930.36V923.256H721.183V966.552L737.887 968.376V975H692.863ZM715.423 914.904C713.439 914.904 711.807 914.36 710.527 913.272C709.311 912.12 708.703 910.456 708.703 908.28C708.703 906.04 709.311 904.376 710.527 903.288C711.807 902.136 713.471 901.56 715.519 901.56C717.503 901.56 719.103 902.136 720.319 903.288C721.599 904.376 722.239 906.04 722.239 908.28C722.239 910.456 721.599 912.12 720.319 913.272C719.103 914.36 717.471 914.904 715.423 914.904ZM744.665 975V968.376L763.001 966.552V910.488L746.105 908.76V902.04H773.273V966.552L789.689 968.376V975H744.665ZM802.036 978.744L795.412 974.904L838.708 903L845.14 906.84L802.036 978.744ZM819.988 975.96C815.636 975.96 811.892 975.128 808.756 973.464C805.684 971.8 803.124 969.432 801.076 966.36C799.028 963.224 797.524 959.512 796.564 955.224C795.668 950.872 795.22 946.04 795.22 940.728C795.22 933.56 796.084 927.32 797.812 922.008C799.54 916.696 802.228 912.6 805.876 909.72C809.588 906.776 814.324 905.304 820.084 905.304C824.436 905.304 828.18 906.136 831.316 907.8C834.452 909.4 837.012 911.768 838.996 914.904C841.044 918.04 842.548 921.752 843.508 926.04C844.468 930.328 844.948 935.16 844.948 940.536C844.948 945.912 844.468 950.776 843.508 955.128C842.548 959.48 841.044 963.224 838.996 966.36C837.012 969.432 834.42 971.8 831.22 973.464C828.084 975.128 824.34 975.96 819.988 975.96ZM820.18 967.032C823.7 967.032 826.516 966.008 828.628 963.96C830.74 961.848 832.244 958.84 833.14 954.936C834.1 950.968 834.58 946.2 834.58 940.632C834.58 932.248 833.492 925.752 831.316 921.144C829.14 916.536 825.428 914.232 820.18 914.232C816.66 914.232 813.812 915.288 811.636 917.4C809.524 919.448 807.988 922.456 807.028 926.424C806.068 930.328 805.588 935.064 805.588 940.632C805.588 946.2 806.068 950.968 807.028 954.936C807.988 958.84 809.524 961.848 811.636 963.96C813.812 966.008 816.66 967.032 820.18 967.032Z" fill="black"/>
<path d="M563.469 1066.4C561.976 1066.4 560.523 1066.27 559.109 1066C557.696 1065.71 556.509 1065.32 555.549 1064.84V1060.96C556.669 1061.47 557.936 1061.91 559.349 1062.28C560.763 1062.63 562.176 1062.8 563.589 1062.8C564.816 1062.8 565.856 1062.64 566.709 1062.32C567.563 1062 568.203 1061.51 568.629 1060.84C569.083 1060.17 569.309 1059.33 569.309 1058.32C569.309 1057.44 569.109 1056.75 568.709 1056.24C568.309 1055.71 567.643 1055.2 566.709 1054.72C565.803 1054.24 564.563 1053.64 562.989 1052.92C561.843 1052.39 560.736 1051.79 559.669 1051.12C558.629 1050.45 557.776 1049.61 557.109 1048.6C556.469 1047.56 556.149 1046.24 556.149 1044.64C556.149 1042.96 556.523 1041.56 557.269 1040.44C558.016 1039.32 559.069 1038.48 560.429 1037.92C561.816 1037.33 563.456 1037.04 565.349 1037.04C566.683 1037.04 568.029 1037.19 569.389 1037.48C570.749 1037.77 571.989 1038.19 573.109 1038.72L571.749 1042.16C570.736 1041.71 569.669 1041.36 568.549 1041.12C567.456 1040.85 566.403 1040.72 565.389 1040.72C564.403 1040.72 563.536 1040.87 562.789 1041.16C562.043 1041.43 561.469 1041.85 561.069 1042.44C560.696 1043.03 560.509 1043.8 560.509 1044.76C560.509 1045.67 560.696 1046.4 561.069 1046.96C561.443 1047.49 562.043 1047.97 562.869 1048.4C563.696 1048.83 564.749 1049.33 566.029 1049.92C567.549 1050.61 568.883 1051.29 570.029 1051.96C571.176 1052.63 572.069 1053.44 572.709 1054.4C573.349 1055.36 573.669 1056.65 573.669 1058.28C573.669 1059.59 573.443 1060.75 572.989 1061.76C572.536 1062.75 571.869 1063.59 570.989 1064.28C570.136 1064.97 569.083 1065.51 567.829 1065.88C566.576 1066.23 565.123 1066.4 563.469 1066.4ZM577.374 1066V1037.44H583.334L587.414 1054.04H587.534L591.734 1037.44H597.614V1066H593.654V1053.16C593.654 1052.55 593.667 1051.89 593.694 1051.2C593.72 1050.48 593.747 1049.76 593.774 1049.04C593.8 1048.32 593.827 1047.61 593.854 1046.92C593.907 1046.2 593.947 1045.51 593.974 1044.84C594.027 1044.17 594.08 1043.56 594.134 1043C594.187 1042.44 594.227 1041.95 594.254 1041.52H594.054L589.494 1059H585.494L580.814 1041.48H580.614C580.667 1041.88 580.72 1042.36 580.774 1042.92C580.827 1043.45 580.88 1044.05 580.934 1044.72C580.987 1045.39 581.04 1046.09 581.094 1046.84C581.147 1047.56 581.187 1048.29 581.214 1049.04C581.24 1049.79 581.254 1050.52 581.254 1051.24C581.28 1051.96 581.294 1052.63 581.294 1053.24V1066H577.374ZM599.358 1066L608.238 1037.32H613.078L621.998 1066H617.678L611.878 1046C611.771 1045.57 611.638 1045.12 611.478 1044.64C611.345 1044.13 611.198 1043.59 611.038 1043C610.905 1042.41 610.771 1041.84 610.638 1041.28C610.531 1041.84 610.398 1042.41 610.238 1043C610.105 1043.59 609.971 1044.13 609.838 1044.64C609.705 1045.15 609.585 1045.6 609.478 1046L603.598 1066H599.358ZM604.998 1057.72L606.198 1054.08H615.038L615.918 1057.72H604.998ZM625.502 1066V1037.44H632.462C634.702 1037.44 636.569 1037.76 638.062 1038.4C639.556 1039.01 640.676 1039.92 641.422 1041.12C642.196 1042.32 642.582 1043.81 642.582 1045.6C642.582 1047.04 642.356 1048.28 641.902 1049.32C641.449 1050.33 640.822 1051.19 640.022 1051.88C639.249 1052.55 638.356 1053.08 637.342 1053.48L644.822 1066H640.182L633.582 1054.6H629.742V1066H625.502ZM632.342 1050.96C633.729 1050.96 634.849 1050.77 635.702 1050.4C636.582 1050 637.222 1049.43 637.622 1048.68C638.049 1047.91 638.262 1046.97 638.262 1045.88C638.262 1044.12 637.769 1042.88 636.782 1042.16C635.822 1041.44 634.302 1041.08 632.222 1041.08H629.742V1050.96H632.342ZM654.927 1066V1041.16H646.687V1037.44H667.407V1041.16H659.167V1066H654.927ZM705.856 1066.4C703.056 1066.4 700.776 1065.79 699.016 1064.56C697.256 1063.33 695.949 1061.64 695.096 1059.48C694.269 1057.29 693.856 1054.76 693.856 1051.88C693.856 1049.59 694.122 1047.53 694.656 1045.72C695.216 1043.88 696.029 1042.32 697.096 1041.04C698.189 1039.73 699.509 1038.75 701.056 1038.08C702.602 1037.39 704.389 1037.04 706.416 1037.04C707.802 1037.04 709.069 1037.19 710.216 1037.48C711.389 1037.77 712.496 1038.19 713.536 1038.72L712.016 1042.16C711.136 1041.71 710.202 1041.37 709.216 1041.16C708.229 1040.92 707.269 1040.8 706.336 1040.8C704.976 1040.8 703.776 1041.05 702.736 1041.56C701.722 1042.04 700.882 1042.76 700.216 1043.72C699.549 1044.65 699.042 1045.8 698.696 1047.16C698.376 1048.52 698.216 1050.08 698.216 1051.84C698.216 1054.11 698.482 1056.04 699.016 1057.64C699.576 1059.24 700.442 1060.47 701.616 1061.32C702.789 1062.15 704.309 1062.56 706.176 1062.56C707.109 1062.56 708.082 1062.45 709.096 1062.24C710.136 1062.03 711.216 1061.68 712.336 1061.2V1065.16C711.242 1065.59 710.162 1065.89 709.096 1066.08C708.056 1066.29 706.976 1066.4 705.856 1066.4ZM726.56 1066.4C724.747 1066.4 723.187 1066.05 721.88 1065.36C720.6 1064.67 719.533 1063.68 718.68 1062.4C717.827 1061.09 717.2 1059.55 716.8 1057.76C716.427 1055.95 716.24 1053.93 716.24 1051.72C716.24 1048.73 716.6 1046.13 717.32 1043.92C718.04 1041.71 719.16 1040 720.68 1038.8C722.227 1037.57 724.2 1036.96 726.6 1036.96C728.413 1036.96 729.973 1037.31 731.28 1038C732.587 1038.67 733.653 1039.65 734.48 1040.96C735.333 1042.27 735.96 1043.81 736.36 1045.6C736.76 1047.39 736.96 1049.4 736.96 1051.64C736.96 1053.88 736.76 1055.91 736.36 1057.72C735.96 1059.53 735.333 1061.09 734.48 1062.4C733.653 1063.68 732.573 1064.67 731.24 1065.36C729.933 1066.05 728.373 1066.4 726.56 1066.4ZM726.64 1062.68C728.107 1062.68 729.28 1062.25 730.16 1061.4C731.04 1060.52 731.667 1059.27 732.04 1057.64C732.44 1055.99 732.64 1054 732.64 1051.68C732.64 1048.19 732.187 1045.48 731.28 1043.56C730.373 1041.64 728.827 1040.68 726.64 1040.68C725.173 1040.68 723.987 1041.12 723.08 1042C722.2 1042.85 721.56 1044.11 721.16 1045.76C720.76 1047.39 720.56 1049.36 720.56 1051.68C720.56 1054 720.76 1055.99 721.16 1057.64C721.56 1059.27 722.2 1060.52 723.08 1061.4C723.987 1062.25 725.173 1062.68 726.64 1062.68ZM740.304 1066V1037.44H745.984L755.504 1061H755.624C755.571 1060.17 755.518 1059.39 755.464 1058.64C755.438 1057.89 755.411 1057.17 755.384 1056.48C755.358 1055.76 755.331 1055.07 755.304 1054.4C755.304 1053.71 755.304 1053.01 755.304 1052.32V1037.44H759.264V1066H753.864L743.944 1041.6H743.784C743.838 1042.43 743.891 1043.24 743.944 1044.04C744.024 1044.81 744.078 1045.59 744.104 1046.36C744.158 1047.11 744.198 1047.84 744.224 1048.56C744.251 1049.25 744.264 1049.92 744.264 1050.56V1066H740.304ZM770.849 1066V1041.16H762.609V1037.44H783.329V1041.16H775.089V1066H770.849ZM787.793 1066V1037.44H794.753C796.993 1037.44 798.86 1037.76 800.353 1038.4C801.846 1039.01 802.966 1039.92 803.713 1041.12C804.486 1042.32 804.873 1043.81 804.873 1045.6C804.873 1047.04 804.646 1048.28 804.193 1049.32C803.74 1050.33 803.113 1051.19 802.313 1051.88C801.54 1052.55 800.646 1053.08 799.633 1053.48L807.113 1066H802.473L795.873 1054.6H792.033V1066H787.793ZM794.633 1050.96C796.02 1050.96 797.14 1050.77 797.993 1050.4C798.873 1050 799.513 1049.43 799.913 1048.68C800.34 1047.91 800.553 1046.97 800.553 1045.88C800.553 1044.12 800.06 1042.88 799.073 1042.16C798.113 1041.44 796.593 1041.08 794.513 1041.08H792.033V1050.96H794.633ZM808.017 1066L816.897 1037.32H821.737L830.657 1066H826.337L820.537 1046C820.431 1045.57 820.297 1045.12 820.137 1044.64C820.004 1044.13 819.857 1043.59 819.697 1043C819.564 1042.41 819.431 1041.84 819.297 1041.28C819.191 1041.84 819.057 1042.41 818.897 1043C818.764 1043.59 818.631 1044.13 818.497 1044.64C818.364 1045.15 818.244 1045.6 818.137 1046L812.257 1066H808.017ZM813.657 1057.72L814.857 1054.08H823.697L824.577 1057.72H813.657ZM844.962 1066.4C842.162 1066.4 839.882 1065.79 838.122 1064.56C836.362 1063.33 835.055 1061.64 834.202 1059.48C833.375 1057.29 832.962 1054.76 832.962 1051.88C832.962 1049.59 833.229 1047.53 833.762 1045.72C834.322 1043.88 835.135 1042.32 836.202 1041.04C837.295 1039.73 838.615 1038.75 840.162 1038.08C841.709 1037.39 843.495 1037.04 845.522 1037.04C846.909 1037.04 848.175 1037.19 849.322 1037.48C850.495 1037.77 851.602 1038.19 852.642 1038.72L851.122 1042.16C850.242 1041.71 849.309 1041.37 848.322 1041.16C847.335 1040.92 846.375 1040.8 845.442 1040.8C844.082 1040.8 842.882 1041.05 841.842 1041.56C840.829 1042.04 839.989 1042.76 839.322 1043.72C838.655 1044.65 838.149 1045.8 837.802 1047.16C837.482 1048.52 837.322 1050.08 837.322 1051.84C837.322 1054.11 837.589 1056.04 838.122 1057.64C838.682 1059.24 839.549 1060.47 840.722 1061.32C841.895 1062.15 843.415 1062.56 845.282 1062.56C846.215 1062.56 847.189 1062.45 848.202 1062.24C849.242 1062.03 850.322 1061.68 851.442 1061.2V1065.16C850.349 1065.59 849.269 1065.89 848.202 1066.08C847.162 1066.29 846.082 1066.4 844.962 1066.4ZM863.586 1066V1041.16H855.346V1037.44H876.066V1041.16H867.826V1066H863.586ZM630.743 1120.4C629.116 1120.4 627.743 1120.08 626.623 1119.44C625.529 1118.77 624.703 1117.88 624.143 1116.76C623.583 1115.61 623.303 1114.33 623.303 1112.92C623.303 1111.45 623.583 1110.16 624.143 1109.04C624.729 1107.92 625.503 1106.89 626.463 1105.96C627.449 1105.03 628.543 1104.12 629.743 1103.24C630.383 1102.79 631.049 1102.27 631.743 1101.68C632.463 1101.07 633.076 1100.37 633.583 1099.6C634.089 1098.8 634.343 1097.92 634.343 1096.96C634.343 1096.05 634.116 1095.36 633.663 1094.88C633.236 1094.37 632.649 1094.12 631.903 1094.12C631.129 1094.12 630.516 1094.39 630.063 1094.92C629.636 1095.43 629.423 1096.16 629.423 1097.12C629.423 1097.89 629.543 1098.65 629.783 1099.4C630.023 1100.15 630.329 1100.84 630.703 1101.48C631.103 1102.12 631.489 1102.68 631.863 1103.16L645.143 1120H640.263L629.343 1105.6C628.809 1104.91 628.263 1104.13 627.703 1103.28C627.143 1102.4 626.663 1101.45 626.263 1100.44C625.863 1099.4 625.663 1098.31 625.663 1097.16C625.663 1095.29 626.209 1093.81 627.303 1092.72C628.423 1091.6 629.929 1091.04 631.823 1091.04C633.769 1091.04 635.289 1091.59 636.383 1092.68C637.476 1093.77 638.023 1095.21 638.023 1097C638.023 1098.23 637.729 1099.37 637.143 1100.44C636.556 1101.51 635.796 1102.49 634.863 1103.4C633.929 1104.28 632.956 1105.13 631.943 1105.96C631.143 1106.6 630.383 1107.24 629.663 1107.88C628.943 1108.52 628.356 1109.23 627.903 1110C627.476 1110.77 627.263 1111.67 627.263 1112.68C627.263 1113.83 627.609 1114.81 628.303 1115.64C628.996 1116.44 629.969 1116.84 631.223 1116.84C632.183 1116.84 633.076 1116.61 633.903 1116.16C634.756 1115.68 635.529 1115.04 636.223 1114.24C636.916 1113.44 637.516 1112.56 638.023 1111.6C638.529 1110.61 638.943 1109.61 639.263 1108.6C639.609 1107.59 639.863 1106.63 640.023 1105.72H643.863C643.623 1107.21 643.249 1108.68 642.743 1110.12C642.236 1111.53 641.596 1112.87 640.823 1114.12C640.076 1115.37 639.196 1116.47 638.183 1117.4C637.169 1118.33 636.036 1119.07 634.783 1119.6C633.556 1120.13 632.209 1120.4 630.743 1120.4ZM671.871 1120V1091.44H688.991V1095.16H676.031V1103.24H688.311V1106.96H676.031V1116.28H688.991V1120H671.871ZM702.576 1120.4C701.082 1120.4 699.629 1120.27 698.216 1120C696.802 1119.71 695.616 1119.32 694.656 1118.84V1114.96C695.776 1115.47 697.042 1115.91 698.456 1116.28C699.869 1116.63 701.282 1116.8 702.696 1116.8C703.922 1116.8 704.962 1116.64 705.816 1116.32C706.669 1116 707.309 1115.51 707.736 1114.84C708.189 1114.17 708.416 1113.33 708.416 1112.32C708.416 1111.44 708.216 1110.75 707.816 1110.24C707.416 1109.71 706.749 1109.2 705.816 1108.72C704.909 1108.24 703.669 1107.64 702.096 1106.92C700.949 1106.39 699.842 1105.79 698.776 1105.12C697.736 1104.45 696.882 1103.61 696.216 1102.6C695.576 1101.56 695.256 1100.24 695.256 1098.64C695.256 1096.96 695.629 1095.56 696.376 1094.44C697.122 1093.32 698.176 1092.48 699.536 1091.92C700.922 1091.33 702.562 1091.04 704.456 1091.04C705.789 1091.04 707.136 1091.19 708.496 1091.48C709.856 1091.77 711.096 1092.19 712.216 1092.72L710.856 1096.16C709.842 1095.71 708.776 1095.36 707.656 1095.12C706.562 1094.85 705.509 1094.72 704.496 1094.72C703.509 1094.72 702.642 1094.87 701.896 1095.16C701.149 1095.43 700.576 1095.85 700.176 1096.44C699.802 1097.03 699.616 1097.8 699.616 1098.76C699.616 1099.67 699.802 1100.4 700.176 1100.96C700.549 1101.49 701.149 1101.97 701.976 1102.4C702.802 1102.83 703.856 1103.33 705.136 1103.92C706.656 1104.61 707.989 1105.29 709.136 1105.96C710.282 1106.63 711.176 1107.44 711.816 1108.4C712.456 1109.36 712.776 1110.65 712.776 1112.28C712.776 1113.59 712.549 1114.75 712.096 1115.76C711.642 1116.75 710.976 1117.59 710.096 1118.28C709.242 1118.97 708.189 1119.51 706.936 1119.88C705.682 1120.23 704.229 1120.4 702.576 1120.4ZM729.04 1120.4C726.24 1120.4 723.96 1119.79 722.2 1118.56C720.44 1117.33 719.133 1115.64 718.28 1113.48C717.453 1111.29 717.04 1108.76 717.04 1105.88C717.04 1103.59 717.307 1101.53 717.84 1099.72C718.4 1097.88 719.213 1096.32 720.28 1095.04C721.373 1093.73 722.693 1092.75 724.24 1092.08C725.787 1091.39 727.573 1091.04 729.6 1091.04C730.987 1091.04 732.253 1091.19 733.4 1091.48C734.573 1091.77 735.68 1092.19 736.72 1092.72L735.2 1096.16C734.32 1095.71 733.387 1095.37 732.4 1095.16C731.413 1094.92 730.453 1094.8 729.52 1094.8C728.16 1094.8 726.96 1095.05 725.92 1095.56C724.907 1096.04 724.067 1096.76 723.4 1097.72C722.733 1098.65 722.227 1099.8 721.88 1101.16C721.56 1102.52 721.4 1104.08 721.4 1105.84C721.4 1108.11 721.667 1110.04 722.2 1111.64C722.76 1113.24 723.627 1114.47 724.8 1115.32C725.973 1116.15 727.493 1116.56 729.36 1116.56C730.293 1116.56 731.267 1116.45 732.28 1116.24C733.32 1116.03 734.4 1115.68 735.52 1115.2V1119.16C734.427 1119.59 733.347 1119.89 732.28 1120.08C731.24 1120.29 730.16 1120.4 729.04 1120.4ZM741.424 1120V1091.44H748.384C750.624 1091.44 752.491 1091.76 753.984 1092.4C755.478 1093.01 756.598 1093.92 757.344 1095.12C758.118 1096.32 758.504 1097.81 758.504 1099.6C758.504 1101.04 758.278 1102.28 757.824 1103.32C757.371 1104.33 756.744 1105.19 755.944 1105.88C755.171 1106.55 754.278 1107.08 753.264 1107.48L760.744 1120H756.104L749.504 1108.6H745.664V1120H741.424ZM748.264 1104.96C749.651 1104.96 750.771 1104.77 751.624 1104.4C752.504 1104 753.144 1103.43 753.544 1102.68C753.971 1101.91 754.184 1100.97 754.184 1099.88C754.184 1098.12 753.691 1096.88 752.704 1096.16C751.744 1095.44 750.224 1095.08 748.144 1095.08H745.664V1104.96H748.264ZM772.929 1120.4C771.115 1120.4 769.555 1120.05 768.249 1119.36C766.969 1118.67 765.902 1117.68 765.049 1116.4C764.195 1115.09 763.569 1113.55 763.169 1111.76C762.795 1109.95 762.609 1107.93 762.609 1105.72C762.609 1102.73 762.969 1100.13 763.689 1097.92C764.409 1095.71 765.529 1094 767.049 1092.8C768.595 1091.57 770.569 1090.96 772.969 1090.96C774.782 1090.96 776.342 1091.31 777.649 1092C778.955 1092.67 780.022 1093.65 780.849 1094.96C781.702 1096.27 782.329 1097.81 782.729 1099.6C783.129 1101.39 783.329 1103.4 783.329 1105.64C783.329 1107.88 783.129 1109.91 782.729 1111.72C782.329 1113.53 781.702 1115.09 780.849 1116.4C780.022 1117.68 778.942 1118.67 777.609 1119.36C776.302 1120.05 774.742 1120.4 772.929 1120.4ZM773.009 1116.68C774.475 1116.68 775.649 1116.25 776.529 1115.4C777.409 1114.52 778.035 1113.27 778.409 1111.64C778.809 1109.99 779.009 1108 779.009 1105.68C779.009 1102.19 778.555 1099.48 777.649 1097.56C776.742 1095.64 775.195 1094.68 773.009 1094.68C771.542 1094.68 770.355 1095.12 769.449 1096C768.569 1096.85 767.929 1098.11 767.529 1099.76C767.129 1101.39 766.929 1103.36 766.929 1105.68C766.929 1108 767.129 1109.99 767.529 1111.64C767.929 1113.27 768.569 1114.52 769.449 1115.4C770.355 1116.25 771.542 1116.68 773.009 1116.68ZM787.873 1120L784.993 1091.44H788.793C788.953 1093.01 789.086 1094.47 789.193 1095.8C789.326 1097.11 789.433 1098.32 789.513 1099.44C789.62 1100.56 789.7 1101.63 789.753 1102.64C789.833 1103.63 789.913 1104.61 789.993 1105.6C790.046 1106.29 790.1 1107.03 790.153 1107.8C790.206 1108.57 790.26 1109.36 790.313 1110.16C790.366 1110.93 790.406 1111.68 790.433 1112.4C790.46 1113.12 790.486 1113.79 790.513 1114.4C790.54 1114.99 790.553 1115.45 790.553 1115.8H790.713C790.793 1115.27 790.886 1114.65 790.993 1113.96C791.126 1113.24 791.26 1112.49 791.393 1111.72C791.553 1110.95 791.7 1110.21 791.833 1109.52C791.993 1108.8 792.126 1108.17 792.233 1107.64L794.153 1098.44H798.233L800.193 1107.72C800.326 1108.39 800.473 1109.08 800.633 1109.8C800.82 1110.52 800.98 1111.25 801.113 1112C801.273 1112.72 801.406 1113.41 801.513 1114.08C801.646 1114.72 801.753 1115.31 801.833 1115.84H801.953C801.98 1115.41 801.993 1114.91 801.993 1114.32C802.02 1113.71 802.033 1113.04 802.033 1112.32C802.06 1111.6 802.086 1110.84 802.113 1110.04C802.166 1109.24 802.22 1108.43 802.273 1107.6C802.326 1106.75 802.38 1105.92 802.433 1105.12C802.486 1104.4 802.54 1103.67 802.593 1102.92C802.646 1102.15 802.7 1101.36 802.753 1100.56C802.833 1099.73 802.913 1098.87 802.993 1097.96C803.073 1097.03 803.153 1096.03 803.233 1094.96C803.313 1093.87 803.406 1092.69 803.513 1091.44H807.313L804.713 1120H799.833L797.193 1107.88C797.033 1107.16 796.886 1106.47 796.753 1105.8C796.646 1105.13 796.553 1104.53 796.473 1104C796.393 1103.44 796.326 1102.99 796.273 1102.64H796.113C796.086 1102.99 796.033 1103.44 795.953 1104C795.873 1104.53 795.766 1105.13 795.633 1105.8C795.526 1106.44 795.393 1107.13 795.233 1107.88L792.673 1120H787.873Z" fill="#686E6E"/>
<rect x="415.5" y="0.5" width="599" height="399" rx="19.5" fill="white" stroke="black"/>
<path d="M551.377 270.4C549.884 270.4 548.431 270.267 547.017 270C545.604 269.707 544.417 269.32 543.457 268.84V264.96C544.577 265.467 545.844 265.907 547.257 266.28C548.671 266.627 550.084 266.8 551.497 266.8C552.724 266.8 553.764 266.64 554.617 266.32C555.471 266 556.111 265.507 556.537 264.84C556.991 264.173 557.217 263.333 557.217 262.32C557.217 261.44 557.017 260.747 556.617 260.24C556.217 259.707 555.551 259.2 554.617 258.72C553.711 258.24 552.471 257.64 550.897 256.92C549.751 256.387 548.644 255.787 547.577 255.12C546.537 254.453 545.684 253.613 545.017 252.6C544.377 251.56 544.057 250.24 544.057 248.64C544.057 246.96 544.431 245.56 545.177 244.44C545.924 243.32 546.977 242.48 548.337 241.92C549.724 241.333 551.364 241.04 553.257 241.04C554.591 241.04 555.937 241.187 557.297 241.48C558.657 241.773 559.897 242.187 561.017 242.72L559.657 246.16C558.644 245.707 557.577 245.36 556.457 245.12C555.364 244.853 554.311 244.72 553.297 244.72C552.311 244.72 551.444 244.867 550.697 245.16C549.951 245.427 549.377 245.853 548.977 246.44C548.604 247.027 548.417 247.8 548.417 248.76C548.417 249.667 548.604 250.4 548.977 250.96C549.351 251.493 549.951 251.973 550.777 252.4C551.604 252.827 552.657 253.333 553.937 253.92C555.457 254.613 556.791 255.293 557.937 255.96C559.084 256.627 559.977 257.44 560.617 258.4C561.257 259.36 561.577 260.653 561.577 262.28C561.577 263.587 561.351 264.747 560.897 265.76C560.444 266.747 559.777 267.587 558.897 268.28C558.044 268.973 556.991 269.507 555.737 269.88C554.484 270.227 553.031 270.4 551.377 270.4ZM567.562 270V267.08L573.282 266.52V244.92L567.562 244.36V241.44H583.242V244.36L577.442 244.92V266.52L583.242 267.08V270H567.562ZM600.226 270.4C597.586 270.4 595.359 269.853 593.546 268.76C591.759 267.64 590.426 266.027 589.546 263.92C588.666 261.787 588.226 259.187 588.226 256.12C588.226 252.947 588.693 250.24 589.626 248C590.586 245.733 591.986 244.013 593.826 242.84C595.693 241.64 597.973 241.04 600.666 241.04C602.079 241.04 603.359 241.2 604.506 241.52C605.679 241.813 606.773 242.227 607.786 242.76L606.346 246.24C605.626 245.787 604.813 245.44 603.906 245.2C602.999 244.933 601.999 244.8 600.906 244.8C599.039 244.8 597.479 245.24 596.226 246.12C594.973 247 594.039 248.267 593.426 249.92C592.813 251.573 592.506 253.587 592.506 255.96C592.506 258.04 592.759 259.893 593.266 261.52C593.799 263.12 594.639 264.387 595.786 265.32C596.933 266.227 598.466 266.68 600.386 266.68C601.159 266.68 601.839 266.627 602.426 266.52C603.039 266.387 603.586 266.267 604.066 266.16V258.28H599.266V254.64H608.066V268.88C606.973 269.333 605.773 269.707 604.466 270C603.159 270.267 601.746 270.4 600.226 270.4ZM612.29 270V241.44H617.97L627.49 265H627.61C627.557 264.173 627.504 263.387 627.45 262.64C627.424 261.893 627.397 261.173 627.37 260.48C627.344 259.76 627.317 259.067 627.29 258.4C627.29 257.707 627.29 257.013 627.29 256.32V241.44H631.25V270H625.85L615.93 245.6H615.77C615.824 246.427 615.877 247.24 615.93 248.04C616.01 248.813 616.064 249.587 616.09 250.36C616.144 251.107 616.184 251.84 616.21 252.56C616.237 253.253 616.25 253.92 616.25 254.56V270H612.29ZM644.115 270.4C642.621 270.4 641.168 270.267 639.755 270C638.341 269.707 637.155 269.32 636.195 268.84V264.96C637.315 265.467 638.581 265.907 639.995 266.28C641.408 266.627 642.821 266.8 644.235 266.8C645.461 266.8 646.501 266.64 647.355 266.32C648.208 266 648.848 265.507 649.275 264.84C649.728 264.173 649.955 263.333 649.955 262.32C649.955 261.44 649.755 260.747 649.355 260.24C648.955 259.707 648.288 259.2 647.355 258.72C646.448 258.24 645.208 257.64 643.635 256.92C642.488 256.387 641.381 255.787 640.315 255.12C639.275 254.453 638.421 253.613 637.755 252.6C637.115 251.56 636.795 250.24 636.795 248.64C636.795 246.96 637.168 245.56 637.915 244.44C638.661 243.32 639.715 242.48 641.075 241.92C642.461 241.333 644.101 241.04 645.995 241.04C647.328 241.04 648.675 241.187 650.035 241.48C651.395 241.773 652.635 242.187 653.755 242.72L652.395 246.16C651.381 245.707 650.315 245.36 649.195 245.12C648.101 244.853 647.048 244.72 646.035 244.72C645.048 244.72 644.181 244.867 643.435 245.16C642.688 245.427 642.115 245.853 641.715 246.44C641.341 247.027 641.155 247.8 641.155 248.76C641.155 249.667 641.341 250.4 641.715 250.96C642.088 251.493 642.688 251.973 643.515 252.4C644.341 252.827 645.395 253.333 646.675 253.92C648.195 254.613 649.528 255.293 650.675 255.96C651.821 256.627 652.715 257.44 653.355 258.4C653.995 259.36 654.315 260.653 654.315 262.28C654.315 263.587 654.088 264.747 653.635 265.76C653.181 266.747 652.515 267.587 651.635 268.28C650.781 268.973 649.728 269.507 648.475 269.88C647.221 270.227 645.768 270.4 644.115 270.4ZM691.283 270.4C689.47 270.4 687.91 270.053 686.603 269.36C685.323 268.667 684.257 267.68 683.403 266.4C682.55 265.093 681.923 263.547 681.523 261.76C681.15 259.947 680.963 257.933 680.963 255.72C680.963 252.733 681.323 250.133 682.043 247.92C682.763 245.707 683.883 244 685.403 242.8C686.95 241.573 688.923 240.96 691.323 240.96C693.137 240.96 694.697 241.307 696.003 242C697.31 242.667 698.377 243.653 699.203 244.96C700.057 246.267 700.683 247.813 701.083 249.6C701.483 251.387 701.683 253.4 701.683 255.64C701.683 257.88 701.483 259.907 701.083 261.72C700.683 263.533 700.057 265.093 699.203 266.4C698.377 267.68 697.297 268.667 695.963 269.36C694.657 270.053 693.097 270.4 691.283 270.4ZM691.363 266.68C692.83 266.68 694.003 266.253 694.883 265.4C695.763 264.52 696.39 263.267 696.763 261.64C697.163 259.987 697.363 258 697.363 255.68C697.363 252.187 696.91 249.48 696.003 247.56C695.097 245.64 693.55 244.68 691.363 244.68C689.897 244.68 688.71 245.12 687.803 246C686.923 246.853 686.283 248.107 685.883 249.76C685.483 251.387 685.283 253.36 685.283 255.68C685.283 258 685.483 259.987 685.883 261.64C686.283 263.267 686.923 264.52 687.803 265.4C688.71 266.253 689.897 266.68 691.363 266.68ZM706.148 270V241.44H723.268V245.16H710.308V254.48H722.588V258.2H710.308V270H706.148ZM729.332 270V241.44H746.452V245.16H733.492V254.48H745.772V258.2H733.492V270H729.332ZM754.877 261.08V257.36H766.877V261.08H754.877ZM786.501 270.4C783.701 270.4 781.421 269.787 779.661 268.56C777.901 267.333 776.594 265.64 775.741 263.48C774.914 261.293 774.501 258.76 774.501 255.88C774.501 253.587 774.768 251.533 775.301 249.72C775.861 247.88 776.674 246.32 777.741 245.04C778.834 243.733 780.154 242.747 781.701 242.08C783.248 241.387 785.034 241.04 787.061 241.04C788.448 241.04 789.714 241.187 790.861 241.48C792.034 241.773 793.141 242.187 794.181 242.72L792.661 246.16C791.781 245.707 790.848 245.373 789.861 245.16C788.874 244.92 787.914 244.8 786.981 244.8C785.621 244.8 784.421 245.053 783.381 245.56C782.368 246.04 781.528 246.76 780.861 247.72C780.194 248.653 779.688 249.8 779.341 251.16C779.021 252.52 778.861 254.08 778.861 255.84C778.861 258.107 779.128 260.04 779.661 261.64C780.221 263.24 781.088 264.467 782.261 265.32C783.434 266.147 784.954 266.56 786.821 266.56C787.754 266.56 788.728 266.453 789.741 266.24C790.781 266.027 791.861 265.68 792.981 265.2V269.16C791.888 269.587 790.808 269.893 789.741 270.08C788.701 270.293 787.621 270.4 786.501 270.4ZM797.765 270V241.44H802.005V253.24H812.485V241.44H816.725V270H812.485V256.96H802.005V270H797.765ZM819.11 270L827.99 241.32H832.83L841.75 270H837.43L831.63 250C831.523 249.573 831.39 249.12 831.23 248.64C831.096 248.133 830.95 247.587 830.79 247C830.656 246.413 830.523 245.84 830.39 245.28C830.283 245.84 830.15 246.413 829.99 247C829.856 247.587 829.723 248.133 829.59 248.64C829.456 249.147 829.336 249.6 829.23 250L823.35 270H819.11ZM824.75 261.72L825.95 258.08H834.79L835.67 261.72H824.75ZM845.774 270V267.08L851.494 266.52V244.92L845.774 244.36V241.44H861.454V244.36L855.654 244.92V266.52L861.454 267.08V270H845.774ZM867.318 270V241.44H872.998L882.518 265H882.638C882.585 264.173 882.532 263.387 882.478 262.64C882.452 261.893 882.425 261.173 882.398 260.48C882.372 259.76 882.345 259.067 882.318 258.4C882.318 257.707 882.318 257.013 882.318 256.32V241.44H886.278V270H880.878L870.958 245.6H870.798C870.852 246.427 870.905 247.24 870.958 248.04C871.038 248.813 871.092 249.587 871.118 250.36C871.172 251.107 871.212 251.84 871.238 252.56C871.265 253.253 871.278 253.92 871.278 254.56V270H867.318Z" fill="#686E6E"/>
<path d="M626.626 188V142.304H640.962C646.296 142.304 650.221 143.52 652.738 145.952C655.298 148.341 656.578 151.755 656.578 156.192C656.578 159.051 656.045 161.611 654.979 163.872C653.912 166.133 652.184 167.925 649.794 169.248C647.405 170.571 644.248 171.232 640.322 171.232H634.37V188H626.626ZM639.49 164.448C641.538 164.448 643.224 164.171 644.546 163.616C645.912 163.019 646.936 162.144 647.618 160.992C648.301 159.797 648.642 158.325 648.642 156.576C648.642 153.973 647.981 152.075 646.658 150.88C645.378 149.685 643.352 149.088 640.578 149.088H634.37V164.448H639.49ZM659.113 188L672.553 142.112H682.218L695.722 188H687.722L679.337 156.768C679.167 155.957 678.953 155.125 678.698 154.272C678.484 153.419 678.271 152.523 678.057 151.584C677.844 150.645 677.631 149.707 677.417 148.768C677.204 149.707 676.991 150.645 676.778 151.584C676.564 152.523 676.351 153.44 676.137 154.336C675.924 155.189 675.689 156 675.434 156.768L666.921 188H659.113ZM668.649 175.648L670.569 168.928H684.265L685.417 175.648H668.649ZM710.609 188V170.272L696.977 142.304H705.425L714.577 163.104L723.665 142.304H732.049L718.481 170.272V188H710.609ZM737.912 188V142.304H765.944V149.216H745.656V160.8H764.92V167.712H745.656V181.088H765.944V188H737.912ZM775.007 188V142.304H786.655C790.239 142.304 793.247 142.837 795.679 143.904C798.111 144.928 799.945 146.443 801.183 148.448C802.42 150.411 803.039 152.821 803.039 155.68C803.039 157.856 802.697 159.776 802.015 161.44C801.332 163.061 800.372 164.427 799.135 165.536C797.94 166.645 796.553 167.563 794.975 168.288L806.559 188H797.983L787.935 170.208H782.943V188H775.007ZM786.463 163.424C788.425 163.424 790.025 163.147 791.263 162.592C792.5 162.037 793.417 161.227 794.015 160.16C794.655 159.051 794.975 157.664 794.975 156C794.975 153.44 794.249 151.648 792.799 150.624C791.391 149.6 789.215 149.088 786.271 149.088H782.943V163.424H786.463Z" fill="black"/>
<rect x="415.5" y="1600.5" width="599" height="399" rx="19.5" fill="white" stroke="black"/>
<path d="M627.626 1788V1742.3H641.962C647.296 1742.3 651.221 1743.52 653.738 1745.95C656.298 1748.34 657.578 1751.75 657.578 1756.19C657.578 1759.05 657.045 1761.61 655.979 1763.87C654.912 1766.13 653.184 1767.93 650.794 1769.25C648.405 1770.57 645.248 1771.23 641.322 1771.23H635.37V1788H627.626ZM640.49 1764.45C642.538 1764.45 644.224 1764.17 645.546 1763.62C646.912 1763.02 647.936 1762.14 648.618 1760.99C649.301 1759.8 649.642 1758.33 649.642 1756.58C649.642 1753.97 648.981 1752.07 647.658 1750.88C646.378 1749.69 644.352 1749.09 641.578 1749.09H635.37V1764.45H640.49ZM660.113 1788L673.553 1742.11H683.218L696.722 1788H688.722L680.337 1756.77C680.167 1755.96 679.953 1755.13 679.698 1754.27C679.484 1753.42 679.271 1752.52 679.057 1751.58C678.844 1750.65 678.631 1749.71 678.417 1748.77C678.204 1749.71 677.991 1750.65 677.778 1751.58C677.564 1752.52 677.351 1753.44 677.137 1754.34C676.924 1755.19 676.689 1756 676.434 1756.77L667.921 1788H660.113ZM669.649 1775.65L671.569 1768.93H685.265L686.417 1775.65H669.649ZM711.609 1788V1770.27L697.977 1742.3H706.425L715.577 1763.1L724.665 1742.3H733.049L719.481 1770.27V1788H711.609ZM738.912 1788V1742.3H766.944V1749.22H746.656V1760.8H765.92V1767.71H746.656V1781.09H766.944V1788H738.912ZM776.007 1788V1742.3H804.039V1749.22H783.751V1760.8H803.015V1767.71H783.751V1781.09H804.039V1788H776.007Z" fill="black"/>
<path d="M505.508 1870.4C504.015 1870.4 502.562 1870.27 501.148 1870C499.735 1869.71 498.548 1869.32 497.588 1868.84V1864.96C498.708 1865.47 499.975 1865.91 501.388 1866.28C502.802 1866.63 504.215 1866.8 505.628 1866.8C506.855 1866.8 507.895 1866.64 508.748 1866.32C509.602 1866 510.242 1865.51 510.668 1864.84C511.122 1864.17 511.348 1863.33 511.348 1862.32C511.348 1861.44 511.148 1860.75 510.748 1860.24C510.348 1859.71 509.682 1859.2 508.748 1858.72C507.842 1858.24 506.602 1857.64 505.028 1856.92C503.882 1856.39 502.775 1855.79 501.708 1855.12C500.668 1854.45 499.815 1853.61 499.148 1852.6C498.508 1851.56 498.188 1850.24 498.188 1848.64C498.188 1846.96 498.562 1845.56 499.308 1844.44C500.055 1843.32 501.108 1842.48 502.468 1841.92C503.855 1841.33 505.495 1841.04 507.388 1841.04C508.722 1841.04 510.068 1841.19 511.428 1841.48C512.788 1841.77 514.028 1842.19 515.148 1842.72L513.788 1846.16C512.775 1845.71 511.708 1845.36 510.588 1845.12C509.495 1844.85 508.442 1844.72 507.428 1844.72C506.442 1844.72 505.575 1844.87 504.828 1845.16C504.082 1845.43 503.508 1845.85 503.108 1846.44C502.735 1847.03 502.548 1847.8 502.548 1848.76C502.548 1849.67 502.735 1850.4 503.108 1850.96C503.482 1851.49 504.082 1851.97 504.908 1852.4C505.735 1852.83 506.788 1853.33 508.068 1853.92C509.588 1854.61 510.922 1855.29 512.068 1855.96C513.215 1856.63 514.108 1857.44 514.748 1858.4C515.388 1859.36 515.708 1860.65 515.708 1862.28C515.708 1863.59 515.482 1864.75 515.028 1865.76C514.575 1866.75 513.908 1867.59 513.028 1868.28C512.175 1868.97 511.122 1869.51 509.868 1869.88C508.615 1870.23 507.162 1870.4 505.508 1870.4ZM529.453 1870.4C527.266 1870.4 525.466 1869.99 524.053 1869.16C522.666 1868.31 521.653 1867.09 521.013 1865.52C520.373 1863.95 520.053 1862.09 520.053 1859.96V1841.44H524.293V1859.52C524.293 1861.01 524.453 1862.31 524.773 1863.4C525.119 1864.47 525.666 1865.28 526.413 1865.84C527.186 1866.4 528.226 1866.68 529.533 1866.68C530.919 1866.68 531.986 1866.39 532.733 1865.8C533.506 1865.19 534.039 1864.35 534.333 1863.28C534.626 1862.19 534.773 1860.92 534.773 1859.48V1841.44H539.013V1860C539.013 1862.03 538.693 1863.83 538.053 1865.4C537.439 1866.95 536.426 1868.17 535.013 1869.08C533.599 1869.96 531.746 1870.4 529.453 1870.4ZM544.357 1870V1841.44H552.397C555.384 1841.44 557.717 1841.97 559.397 1843.04C561.104 1844.11 561.957 1845.91 561.957 1848.44C561.957 1850.28 561.517 1851.75 560.637 1852.84C559.784 1853.91 558.597 1854.57 557.077 1854.84V1855.04C558.144 1855.25 559.091 1855.61 559.917 1856.12C560.771 1856.6 561.437 1857.29 561.917 1858.2C562.424 1859.08 562.677 1860.24 562.677 1861.68C562.677 1863.41 562.304 1864.91 561.557 1866.16C560.837 1867.41 559.797 1868.37 558.437 1869.04C557.077 1869.68 555.437 1870 553.517 1870H544.357ZM552.917 1866.4C554.944 1866.4 556.344 1865.96 557.117 1865.08C557.917 1864.2 558.317 1863.04 558.317 1861.6C558.317 1860.61 558.144 1859.77 557.797 1859.08C557.451 1858.39 556.864 1857.85 556.037 1857.48C555.237 1857.11 554.117 1856.92 552.677 1856.92H548.317V1866.4H552.917ZM552.597 1853.28C554.437 1853.28 555.731 1852.93 556.477 1852.24C557.251 1851.55 557.637 1850.49 557.637 1849.08C557.637 1847.64 557.224 1846.61 556.397 1846C555.571 1845.36 554.144 1845.04 552.117 1845.04H548.317V1853.28H552.597ZM565.782 1870V1841.44H571.742L575.822 1858.04H575.942L580.142 1841.44H586.022V1870H582.062V1857.16C582.062 1856.55 582.075 1855.89 582.102 1855.2C582.128 1854.48 582.155 1853.76 582.182 1853.04C582.208 1852.32 582.235 1851.61 582.262 1850.92C582.315 1850.2 582.355 1849.51 582.382 1848.84C582.435 1848.17 582.488 1847.56 582.542 1847C582.595 1846.44 582.635 1845.95 582.662 1845.52H582.462L577.902 1863H573.902L569.222 1845.48H569.022C569.075 1845.88 569.128 1846.36 569.182 1846.92C569.235 1847.45 569.288 1848.05 569.342 1848.72C569.395 1849.39 569.448 1850.09 569.502 1850.84C569.555 1851.56 569.595 1852.29 569.622 1853.04C569.648 1853.79 569.662 1854.52 569.662 1855.24C569.688 1855.96 569.702 1856.63 569.702 1857.24V1870H565.782ZM591.246 1870V1867.08L596.966 1866.52V1844.92L591.246 1844.36V1841.44H606.926V1844.36L601.126 1844.92V1866.52L606.926 1867.08V1870H591.246ZM620.15 1870V1845.16H611.91V1841.44H632.63V1845.16H624.39V1870H620.15ZM644.615 1870.4C643.121 1870.4 641.668 1870.27 640.255 1870C638.841 1869.71 637.655 1869.32 636.695 1868.84V1864.96C637.815 1865.47 639.081 1865.91 640.495 1866.28C641.908 1866.63 643.321 1866.8 644.735 1866.8C645.961 1866.8 647.001 1866.64 647.855 1866.32C648.708 1866 649.348 1865.51 649.775 1864.84C650.228 1864.17 650.455 1863.33 650.455 1862.32C650.455 1861.44 650.255 1860.75 649.855 1860.24C649.455 1859.71 648.788 1859.2 647.855 1858.72C646.948 1858.24 645.708 1857.64 644.135 1856.92C642.988 1856.39 641.881 1855.79 640.815 1855.12C639.775 1854.45 638.921 1853.61 638.255 1852.6C637.615 1851.56 637.295 1850.24 637.295 1848.64C637.295 1846.96 637.668 1845.56 638.415 1844.44C639.161 1843.32 640.215 1842.48 641.575 1841.92C642.961 1841.33 644.601 1841.04 646.495 1841.04C647.828 1841.04 649.175 1841.19 650.535 1841.48C651.895 1841.77 653.135 1842.19 654.255 1842.72L652.895 1846.16C651.881 1845.71 650.815 1845.36 649.695 1845.12C648.601 1844.85 647.548 1844.72 646.535 1844.72C645.548 1844.72 644.681 1844.87 643.935 1845.16C643.188 1845.43 642.615 1845.85 642.215 1846.44C641.841 1847.03 641.655 1847.8 641.655 1848.76C641.655 1849.67 641.841 1850.4 642.215 1850.96C642.588 1851.49 643.188 1851.97 644.015 1852.4C644.841 1852.83 645.895 1853.33 647.175 1853.92C648.695 1854.61 650.028 1855.29 651.175 1855.96C652.321 1856.63 653.215 1857.44 653.855 1858.4C654.495 1859.36 654.815 1860.65 654.815 1862.28C654.815 1863.59 654.588 1864.75 654.135 1865.76C653.681 1866.75 653.015 1867.59 652.135 1868.28C651.281 1868.97 650.228 1869.51 648.975 1869.88C647.721 1870.23 646.268 1870.4 644.615 1870.4ZM689.703 1870V1845.16H681.463V1841.44H702.183V1845.16H693.943V1870H689.703ZM706.648 1870V1841.44H713.608C715.848 1841.44 717.714 1841.76 719.208 1842.4C720.701 1843.01 721.821 1843.92 722.568 1845.12C723.341 1846.32 723.728 1847.81 723.728 1849.6C723.728 1851.04 723.501 1852.28 723.048 1853.32C722.594 1854.33 721.968 1855.19 721.168 1855.88C720.394 1856.55 719.501 1857.08 718.488 1857.48L725.968 1870H721.328L714.728 1858.6H710.888V1870H706.648ZM713.488 1854.96C714.874 1854.96 715.994 1854.77 716.848 1854.4C717.728 1854 718.368 1853.43 718.768 1852.68C719.194 1851.91 719.408 1850.97 719.408 1849.88C719.408 1848.12 718.914 1846.88 717.928 1846.16C716.968 1845.44 715.448 1845.08 713.368 1845.08H710.888V1854.96H713.488ZM726.872 1870L735.752 1841.32H740.592L749.512 1870H745.192L739.392 1850C739.286 1849.57 739.152 1849.12 738.992 1848.64C738.859 1848.13 738.712 1847.59 738.552 1847C738.419 1846.41 738.286 1845.84 738.152 1845.28C738.046 1845.84 737.912 1846.41 737.752 1847C737.619 1847.59 737.486 1848.13 737.352 1848.64C737.219 1849.15 737.099 1849.6 736.992 1850L731.112 1870H726.872ZM732.512 1861.72L733.712 1858.08H742.552L743.432 1861.72H732.512ZM751.897 1870V1841.44H757.577L767.097 1865H767.217C767.163 1864.17 767.11 1863.39 767.057 1862.64C767.03 1861.89 767.003 1861.17 766.977 1860.48C766.95 1859.76 766.923 1859.07 766.897 1858.4C766.897 1857.71 766.897 1857.01 766.897 1856.32V1841.44H770.857V1870H765.457L755.537 1845.6H755.377C755.43 1846.43 755.483 1847.24 755.537 1848.04C755.617 1848.81 755.67 1849.59 755.697 1850.36C755.75 1851.11 755.79 1851.84 755.817 1852.56C755.843 1853.25 755.857 1853.92 755.857 1854.56V1870H751.897ZM783.721 1870.4C782.228 1870.4 780.774 1870.27 779.361 1870C777.948 1869.71 776.761 1869.32 775.801 1868.84V1864.96C776.921 1865.47 778.188 1865.91 779.601 1866.28C781.014 1866.63 782.428 1866.8 783.841 1866.8C785.068 1866.8 786.108 1866.64 786.961 1866.32C787.814 1866 788.454 1865.51 788.881 1864.84C789.334 1864.17 789.561 1863.33 789.561 1862.32C789.561 1861.44 789.361 1860.75 788.961 1860.24C788.561 1859.71 787.894 1859.2 786.961 1858.72C786.054 1858.24 784.814 1857.64 783.241 1856.92C782.094 1856.39 780.988 1855.79 779.921 1855.12C778.881 1854.45 778.028 1853.61 777.361 1852.6C776.721 1851.56 776.401 1850.24 776.401 1848.64C776.401 1846.96 776.774 1845.56 777.521 1844.44C778.268 1843.32 779.321 1842.48 780.681 1841.92C782.068 1841.33 783.708 1841.04 785.601 1841.04C786.934 1841.04 788.281 1841.19 789.641 1841.48C791.001 1841.77 792.241 1842.19 793.361 1842.72L792.001 1846.16C790.988 1845.71 789.921 1845.36 788.801 1845.12C787.708 1844.85 786.654 1844.72 785.641 1844.72C784.654 1844.72 783.788 1844.87 783.041 1845.16C782.294 1845.43 781.721 1845.85 781.321 1846.44C780.948 1847.03 780.761 1847.8 780.761 1848.76C780.761 1849.67 780.948 1850.4 781.321 1850.96C781.694 1851.49 782.294 1851.97 783.121 1852.4C783.948 1852.83 785.001 1853.33 786.281 1853.92C787.801 1854.61 789.134 1855.29 790.281 1855.96C791.428 1856.63 792.321 1857.44 792.961 1858.4C793.601 1859.36 793.921 1860.65 793.921 1862.28C793.921 1863.59 793.694 1864.75 793.241 1865.76C792.788 1866.75 792.121 1867.59 791.241 1868.28C790.388 1868.97 789.334 1869.51 788.081 1869.88C786.828 1870.23 785.374 1870.4 783.721 1870.4ZM796.425 1870L805.305 1841.32H810.145L819.065 1870H814.745L808.945 1850C808.839 1849.57 808.705 1849.12 808.545 1848.64C808.412 1848.13 808.265 1847.59 808.105 1847C807.972 1846.41 807.839 1845.84 807.705 1845.28C807.599 1845.84 807.465 1846.41 807.305 1847C807.172 1847.59 807.039 1848.13 806.905 1848.64C806.772 1849.15 806.652 1849.6 806.545 1850L800.665 1870H796.425ZM802.065 1861.72L803.265 1858.08H812.105L812.985 1861.72H802.065ZM833.37 1870.4C830.57 1870.4 828.29 1869.79 826.53 1868.56C824.77 1867.33 823.463 1865.64 822.61 1863.48C821.783 1861.29 821.37 1858.76 821.37 1855.88C821.37 1853.59 821.636 1851.53 822.17 1849.72C822.73 1847.88 823.543 1846.32 824.61 1845.04C825.703 1843.73 827.023 1842.75 828.57 1842.08C830.116 1841.39 831.903 1841.04 833.93 1841.04C835.316 1841.04 836.583 1841.19 837.73 1841.48C838.903 1841.77 840.01 1842.19 841.05 1842.72L839.53 1846.16C838.65 1845.71 837.716 1845.37 836.73 1845.16C835.743 1844.92 834.783 1844.8 833.85 1844.8C832.49 1844.8 831.29 1845.05 830.25 1845.56C829.236 1846.04 828.396 1846.76 827.73 1847.72C827.063 1848.65 826.556 1849.8 826.21 1851.16C825.89 1852.52 825.73 1854.08 825.73 1855.84C825.73 1858.11 825.996 1860.04 826.53 1861.64C827.09 1863.24 827.956 1864.47 829.13 1865.32C830.303 1866.15 831.823 1866.56 833.69 1866.56C834.623 1866.56 835.596 1866.45 836.61 1866.24C837.65 1866.03 838.73 1865.68 839.85 1865.2V1869.16C838.756 1869.59 837.676 1869.89 836.61 1870.08C835.57 1870.29 834.49 1870.4 833.37 1870.4ZM851.994 1870V1845.16H843.754V1841.44H864.474V1845.16H856.234V1870H851.994ZM869.458 1870V1867.08L875.178 1866.52V1844.92L869.458 1844.36V1841.44H885.138V1844.36L879.338 1844.92V1866.52L885.138 1867.08V1870H869.458ZM900.443 1870.4C898.629 1870.4 897.069 1870.05 895.763 1869.36C894.483 1868.67 893.416 1867.68 892.563 1866.4C891.709 1865.09 891.083 1863.55 890.683 1861.76C890.309 1859.95 890.123 1857.93 890.123 1855.72C890.123 1852.73 890.483 1850.13 891.203 1847.92C891.923 1845.71 893.043 1844 894.563 1842.8C896.109 1841.57 898.083 1840.96 900.483 1840.96C902.296 1840.96 903.856 1841.31 905.163 1842C906.469 1842.67 907.536 1843.65 908.363 1844.96C909.216 1846.27 909.843 1847.81 910.243 1849.6C910.643 1851.39 910.843 1853.4 910.843 1855.64C910.843 1857.88 910.643 1859.91 910.243 1861.72C909.843 1863.53 909.216 1865.09 908.363 1866.4C907.536 1867.68 906.456 1868.67 905.123 1869.36C903.816 1870.05 902.256 1870.4 900.443 1870.4ZM900.523 1866.68C901.989 1866.68 903.163 1866.25 904.043 1865.4C904.923 1864.52 905.549 1863.27 905.923 1861.64C906.323 1859.99 906.523 1858 906.523 1855.68C906.523 1852.19 906.069 1849.48 905.163 1847.56C904.256 1845.64 902.709 1844.68 900.523 1844.68C899.056 1844.68 897.869 1845.12 896.963 1846C896.083 1846.85 895.443 1848.11 895.043 1849.76C894.643 1851.39 894.443 1853.36 894.443 1855.68C894.443 1858 894.643 1859.99 895.043 1861.64C895.443 1863.27 896.083 1864.52 896.963 1865.4C897.869 1866.25 899.056 1866.68 900.523 1866.68ZM914.187 1870V1841.44H919.867L929.387 1865H929.507C929.454 1864.17 929.401 1863.39 929.347 1862.64C929.321 1861.89 929.294 1861.17 929.267 1860.48C929.241 1859.76 929.214 1859.07 929.187 1858.4C929.187 1857.71 929.187 1857.01 929.187 1856.32V1841.44H933.147V1870H927.747L917.827 1845.6H917.667C917.721 1846.43 917.774 1847.24 917.827 1848.04C917.907 1848.81 917.961 1849.59 917.987 1850.36C918.041 1851.11 918.081 1851.84 918.107 1852.56C918.134 1853.25 918.147 1853.92 918.147 1854.56V1870H914.187Z" fill="#686E6E"/>
<path d="M332.95 616L341.83 587.32H346.67L355.59 616H351.27L345.47 596C345.364 595.573 345.23 595.12 345.07 594.64C344.937 594.133 344.79 593.587 344.63 593C344.497 592.413 344.364 591.84 344.23 591.28C344.124 591.84 343.99 592.413 343.83 593C343.697 593.587 343.564 594.133 343.43 594.64C343.297 595.147 343.177 595.6 343.07 596L337.19 616H332.95ZM338.59 607.72L339.79 604.08H348.63L349.51 607.72H338.59ZM367.375 616.4C365.188 616.4 363.388 615.987 361.975 615.16C360.588 614.307 359.575 613.093 358.935 611.52C358.295 609.947 357.975 608.093 357.975 605.96V587.44H362.215V605.52C362.215 607.013 362.375 608.307 362.695 609.4C363.041 610.467 363.588 611.28 364.335 611.84C365.108 612.4 366.148 612.68 367.455 612.68C368.841 612.68 369.908 612.387 370.655 611.8C371.428 611.187 371.961 610.347 372.255 609.28C372.548 608.187 372.695 606.92 372.695 605.48V587.44H376.935V606C376.935 608.027 376.615 609.827 375.975 611.4C375.361 612.947 374.348 614.173 372.935 615.08C371.521 615.96 369.668 616.4 367.375 616.4ZM388.519 616V591.16H380.279V587.44H400.999V591.16H392.759V616H388.519ZM404.343 616V587.44H408.583V599.24H419.063V587.44H423.303V616H419.063V602.96H408.583V616H404.343ZM436.968 616.4C435.154 616.4 433.594 616.053 432.288 615.36C431.008 614.667 429.941 613.68 429.088 612.4C428.234 611.093 427.608 609.547 427.208 607.76C426.834 605.947 426.648 603.933 426.648 601.72C426.648 598.733 427.008 596.133 427.728 593.92C428.448 591.707 429.568 590 431.088 588.8C432.634 587.573 434.608 586.96 437.008 586.96C438.821 586.96 440.381 587.307 441.688 588C442.994 588.667 444.061 589.653 444.888 590.96C445.741 592.267 446.368 593.813 446.768 595.6C447.168 597.387 447.368 599.4 447.368 601.64C447.368 603.88 447.168 605.907 446.768 607.72C446.368 609.533 445.741 611.093 444.888 612.4C444.061 613.68 442.981 614.667 441.648 615.36C440.341 616.053 438.781 616.4 436.968 616.4ZM437.048 612.68C438.514 612.68 439.688 612.253 440.568 611.4C441.448 610.52 442.074 609.267 442.448 607.64C442.848 605.987 443.048 604 443.048 601.68C443.048 598.187 442.594 595.48 441.688 593.56C440.781 591.64 439.234 590.68 437.048 590.68C435.581 590.68 434.394 591.12 433.488 592C432.608 592.853 431.968 594.107 431.568 595.76C431.168 597.387 430.968 599.36 430.968 601.68C430.968 604 431.168 605.987 431.568 607.64C431.968 609.267 432.608 610.52 433.488 611.4C434.394 612.253 435.581 612.68 437.048 612.68ZM451.832 616V587.44H458.792C461.032 587.44 462.899 587.76 464.392 588.4C465.886 589.013 467.006 589.92 467.752 591.12C468.526 592.32 468.912 593.813 468.912 595.6C468.912 597.04 468.686 598.28 468.232 599.32C467.779 600.333 467.152 601.187 466.352 601.88C465.579 602.547 464.686 603.08 463.672 603.48L471.152 616H466.512L459.912 604.6H456.072V616H451.832ZM458.672 600.96C460.059 600.96 461.179 600.773 462.032 600.4C462.912 600 463.552 599.427 463.952 598.68C464.379 597.907 464.592 596.973 464.592 595.88C464.592 594.12 464.099 592.88 463.112 592.16C462.152 591.44 460.632 591.08 458.552 591.08H456.072V600.96H458.672ZM475.537 616V613.08L481.257 612.52V590.92L475.537 590.36V587.44H491.217V590.36L485.417 590.92V612.52L491.217 613.08V616H475.537ZM498.201 616V612.84L510.481 591.08H499.041V587.44H515.041V590.6L502.801 612.28H515.041V616H498.201ZM521.385 616V587.44H538.505V591.16H525.545V599.24H537.825V602.96H525.545V612.28H538.505V616H521.385Z" fill="#2F7D73"/>
<path d="M851.846 616L842.926 587.44H847.286L852.486 605.52C852.699 606.187 852.899 606.907 853.086 607.68C853.273 608.453 853.459 609.213 853.646 609.96C853.833 610.707 853.979 611.387 854.086 612H854.286C854.393 611.387 854.526 610.72 854.686 610C854.873 609.253 855.059 608.493 855.246 607.72C855.433 606.92 855.619 606.16 855.806 605.44L860.846 587.44H865.246L856.406 616H851.846ZM877.23 616.4C875.417 616.4 873.857 616.053 872.55 615.36C871.27 614.667 870.204 613.68 869.35 612.4C868.497 611.093 867.87 609.547 867.47 607.76C867.097 605.947 866.91 603.933 866.91 601.72C866.91 598.733 867.27 596.133 867.99 593.92C868.71 591.707 869.83 590 871.35 588.8C872.897 587.573 874.87 586.96 877.27 586.96C879.084 586.96 880.644 587.307 881.95 588C883.257 588.667 884.324 589.653 885.15 590.96C886.004 592.267 886.63 593.813 887.03 595.6C887.43 597.387 887.63 599.4 887.63 601.64C887.63 603.88 887.43 605.907 887.03 607.72C886.63 609.533 886.004 611.093 885.15 612.4C884.324 613.68 883.244 614.667 881.91 615.36C880.604 616.053 879.044 616.4 877.23 616.4ZM877.31 612.68C878.777 612.68 879.95 612.253 880.83 611.4C881.71 610.52 882.337 609.267 882.71 607.64C883.11 605.987 883.31 604 883.31 601.68C883.31 598.187 882.857 595.48 881.95 593.56C881.044 591.64 879.497 590.68 877.31 590.68C875.844 590.68 874.657 591.12 873.75 592C872.87 592.853 872.23 594.107 871.83 595.76C871.43 597.387 871.23 599.36 871.23 601.68C871.23 604 871.43 605.987 871.83 607.64C872.23 609.267 872.87 610.52 873.75 611.4C874.657 612.253 875.844 612.68 877.31 612.68ZM892.615 616V613.08L898.335 612.52V590.92L892.615 590.36V587.44H908.295V590.36L902.495 590.92V612.52L908.295 613.08V616H892.615ZM914.159 616V587.44H921.639C924.146 587.44 926.319 587.973 928.159 589.04C930.026 590.107 931.466 591.68 932.479 593.76C933.492 595.813 933.999 598.373 933.999 601.44C933.999 604.613 933.479 607.28 932.439 609.44C931.399 611.6 929.906 613.24 927.959 614.36C926.012 615.453 923.666 616 920.919 616H914.159ZM920.599 612.36C923.719 612.36 926.012 611.453 927.479 609.64C928.946 607.8 929.679 605.107 929.679 601.56C929.679 599.133 929.346 597.16 928.679 595.64C928.039 594.093 927.092 592.947 925.839 592.2C924.586 591.453 923.066 591.08 921.279 591.08H918.359V612.36H920.599ZM939.383 616.04L950.343 587.4H954.263L943.303 616.04H939.383ZM961.648 616V587.44H968.608C970.848 587.44 972.714 587.76 974.208 588.4C975.701 589.013 976.821 589.92 977.568 591.12C978.341 592.32 978.728 593.813 978.728 595.6C978.728 597.04 978.501 598.28 978.048 599.32C977.594 600.333 976.968 601.187 976.168 601.88C975.394 602.547 974.501 603.08 973.488 603.48L980.968 616H976.328L969.728 604.6H965.888V616H961.648ZM968.488 600.96C969.874 600.96 970.994 600.773 971.848 600.4C972.728 600 973.368 599.427 973.768 598.68C974.194 597.907 974.408 596.973 974.408 595.88C974.408 594.12 973.914 592.88 972.928 592.16C971.968 591.44 970.448 591.08 968.368 591.08H965.888V600.96H968.488ZM984.832 616V587.44H1001.95V591.16H988.992V599.24H1001.27V602.96H988.992V612.28H1001.95V616H984.832ZM1008.02 616V587.44H1025.14V591.16H1012.18V600.48H1024.46V604.2H1012.18V616H1008.02ZM1039.48 616.4C1037.29 616.4 1035.49 615.987 1034.08 615.16C1032.69 614.307 1031.68 613.093 1031.04 611.52C1030.4 609.947 1030.08 608.093 1030.08 605.96V587.44H1034.32V605.52C1034.32 607.013 1034.48 608.307 1034.8 609.4C1035.15 610.467 1035.69 611.28 1036.44 611.84C1037.21 612.4 1038.25 612.68 1039.56 612.68C1040.95 612.68 1042.01 612.387 1042.76 611.8C1043.53 611.187 1044.07 610.347 1044.36 609.28C1044.65 608.187 1044.8 606.92 1044.8 605.48V587.44H1049.04V606C1049.04 608.027 1048.72 609.827 1048.08 611.4C1047.47 612.947 1046.45 614.173 1045.04 615.08C1043.63 615.96 1041.77 616.4 1039.48 616.4ZM1053.27 616V587.44H1058.95L1068.47 611H1068.59C1068.53 610.173 1068.48 609.387 1068.43 608.64C1068.4 607.893 1068.37 607.173 1068.35 606.48C1068.32 605.76 1068.29 605.067 1068.27 604.4C1068.27 603.707 1068.27 603.013 1068.27 602.32V587.44H1072.23V616H1066.83L1056.91 591.6H1056.75C1056.8 592.427 1056.85 593.24 1056.91 594.04C1056.99 594.813 1057.04 595.587 1057.07 596.36C1057.12 597.107 1057.16 597.84 1057.19 598.56C1057.21 599.253 1057.23 599.92 1057.23 600.56V616H1053.27ZM1076.45 616V587.44H1083.93C1086.44 587.44 1088.61 587.973 1090.45 589.04C1092.32 590.107 1093.76 591.68 1094.77 593.76C1095.78 595.813 1096.29 598.373 1096.29 601.44C1096.29 604.613 1095.77 607.28 1094.73 609.44C1093.69 611.6 1092.2 613.24 1090.25 614.36C1088.3 615.453 1085.96 616 1083.21 616H1076.45ZM1082.89 612.36C1086.01 612.36 1088.3 611.453 1089.77 609.64C1091.24 607.8 1091.97 605.107 1091.97 601.56C1091.97 599.133 1091.64 597.16 1090.97 595.64C1090.33 594.093 1089.38 592.947 1088.13 592.2C1086.88 591.453 1085.36 591.08 1083.57 591.08H1080.65V612.36H1082.89Z" fill="#2F7D73"/>
<path d="M590.586 801.414C591.367 802.195 592.633 802.195 593.414 801.414L606.142 788.686C606.923 787.905 606.923 786.639 606.142 785.858C605.361 785.077 604.095 785.077 603.314 785.858L592 797.172L580.686 785.858C579.905 785.077 578.639 785.077 577.858 785.858C577.077 786.639 577.077 787.905 577.858 788.686L590.586 801.414ZM592 400H590V800H592H594V400H592Z" fill="black"/>
<path d="M793.414 398.586C792.633 397.805 791.367 397.805 790.586 398.586L777.858 411.314C777.077 412.095 777.077 413.361 777.858 414.142C778.639 414.923 779.905 414.923 780.686 414.142L792 402.828L803.314 414.142C804.095 414.923 805.361 414.923 806.142 414.142C806.923 413.361 806.923 412.095 806.142 411.314L793.414 398.586ZM792 400H790V800H792H794V400H792Z" fill="black"/>
<path d="M1270.09 616.668V588.108H1277.05C1279.29 588.108 1281.16 588.428 1282.65 589.068C1284.15 589.682 1285.27 590.588 1286.01 591.788C1286.79 592.988 1287.17 594.482 1287.17 596.268C1287.17 597.708 1286.95 598.948 1286.49 599.988C1286.04 601.002 1285.41 601.855 1284.61 602.548C1283.84 603.215 1282.95 603.748 1281.93 604.148L1289.41 616.668H1284.77L1278.17 605.268H1274.33V616.668H1270.09ZM1276.93 601.628C1278.32 601.628 1279.44 601.442 1280.29 601.068C1281.17 600.668 1281.81 600.095 1282.21 599.348C1282.64 598.575 1282.85 597.642 1282.85 596.548C1282.85 594.788 1282.36 593.548 1281.37 592.828C1280.41 592.108 1278.89 591.748 1276.81 591.748H1274.33V601.628H1276.93ZM1293.28 616.668V588.108H1310.4V591.828H1297.44V599.908H1309.72V603.628H1297.44V612.948H1310.4V616.668H1293.28ZM1317.14 616.668V588.108H1321.38V612.828H1333.58V616.668H1317.14ZM1339.65 616.668V588.108H1356.77V591.828H1343.81V599.908H1356.09V603.628H1343.81V612.948H1356.77V616.668H1339.65ZM1359.87 616.668L1368.75 587.988H1373.59L1382.51 616.668H1378.19L1372.39 596.668C1372.29 596.242 1372.15 595.788 1371.99 595.308C1371.86 594.802 1371.71 594.255 1371.55 593.668C1371.42 593.082 1371.29 592.508 1371.15 591.948C1371.05 592.508 1370.91 593.082 1370.75 593.668C1370.62 594.255 1370.49 594.802 1370.35 595.308C1370.22 595.815 1370.1 596.268 1369.99 596.668L1364.11 616.668H1359.87ZM1365.51 608.388L1366.71 604.748H1375.55L1376.43 608.388H1365.51ZM1393.54 617.068C1392.04 617.068 1390.59 616.935 1389.18 616.668C1387.76 616.375 1386.58 615.988 1385.62 615.508V611.628C1386.74 612.135 1388 612.575 1389.42 612.948C1390.83 613.295 1392.24 613.468 1393.66 613.468C1394.88 613.468 1395.92 613.308 1396.78 612.988C1397.63 612.668 1398.27 612.175 1398.7 611.508C1399.15 610.842 1399.38 610.002 1399.38 608.988C1399.38 608.108 1399.18 607.415 1398.78 606.908C1398.38 606.375 1397.71 605.868 1396.78 605.388C1395.87 604.908 1394.63 604.308 1393.06 603.588C1391.91 603.055 1390.8 602.455 1389.74 601.788C1388.7 601.122 1387.84 600.282 1387.18 599.268C1386.54 598.228 1386.22 596.908 1386.22 595.308C1386.22 593.628 1386.59 592.228 1387.34 591.108C1388.08 589.988 1389.14 589.148 1390.5 588.588C1391.88 588.002 1393.52 587.708 1395.42 587.708C1396.75 587.708 1398.1 587.855 1399.46 588.148C1400.82 588.442 1402.06 588.855 1403.18 589.388L1401.82 592.828C1400.8 592.375 1399.74 592.028 1398.62 591.788C1397.52 591.522 1396.47 591.388 1395.46 591.388C1394.47 591.388 1393.6 591.535 1392.86 591.828C1392.11 592.095 1391.54 592.522 1391.14 593.108C1390.76 593.695 1390.58 594.468 1390.58 595.428C1390.58 596.335 1390.76 597.068 1391.14 597.628C1391.51 598.162 1392.11 598.642 1392.94 599.068C1393.76 599.495 1394.82 600.002 1396.1 600.588C1397.62 601.282 1398.95 601.962 1400.1 602.628C1401.24 603.295 1402.14 604.108 1402.78 605.068C1403.42 606.028 1403.74 607.322 1403.74 608.948C1403.74 610.255 1403.51 611.415 1403.06 612.428C1402.6 613.415 1401.94 614.255 1401.06 614.948C1400.2 615.642 1399.15 616.175 1397.9 616.548C1396.64 616.895 1395.19 617.068 1393.54 617.068ZM1409.2 616.668V588.108H1426.32V591.828H1413.36V599.908H1425.64V603.628H1413.36V612.948H1426.32V616.668H1409.2Z" fill="#2F7D73"/>
<path d="M1014.59 201.572C1013.8 200.79 1013.81 199.524 1014.59 198.743L1027.32 186.015C1028.1 185.234 1029.37 185.234 1030.15 186.015C1030.93 186.796 1030.93 188.063 1030.15 188.844L1018.83 200.157L1030.14 211.471C1030.92 212.252 1030.92 213.519 1030.14 214.3C1029.35 215.081 1028.09 215.081 1027.31 214.3L1014.59 201.572ZM1194.99 200.159L1195 198.159L1194.99 200.159ZM1214.99 220.15L1216.99 220.149L1216.99 220.149L1214.99 220.15ZM1215 982.832L1213 982.833V982.833L1215 982.832ZM1194.99 1002.84L1194.99 1000.84V1000.84L1194.99 1002.84ZM1016 200.157L1016 198.157L1195 198.159L1194.99 200.159L1194.99 202.159L1016 202.157L1016 200.157ZM1214.99 220.15L1216.99 220.149L1217 982.831L1215 982.832L1213 982.833L1212.99 220.151L1214.99 220.15ZM1194.99 1002.84L1194.99 1004.84L1015 1004.84L1015 1002.84L1015 1000.84L1194.99 1000.84L1194.99 1002.84ZM1215 982.832L1217 982.831C1217 994.986 1207.14 1004.84 1194.99 1004.84L1194.99 1002.84L1194.99 1000.84C1204.94 1000.84 1213 992.778 1213 982.833L1215 982.832ZM1194.99 200.159L1195 198.159C1207.14 198.16 1216.99 208.003 1216.99 220.149L1214.99 220.15L1212.99 220.151C1212.99 210.213 1204.93 202.16 1194.99 202.159L1194.99 200.159Z" fill="black"/>
<path d="M427.895 1416.4C425.095 1416.4 422.815 1415.79 421.055 1414.56C419.295 1413.33 417.988 1411.64 417.135 1409.48C416.308 1407.29 415.895 1404.76 415.895 1401.88C415.895 1399.59 416.161 1397.53 416.695 1395.72C417.255 1393.88 418.068 1392.32 419.135 1391.04C420.228 1389.73 421.548 1388.75 423.095 1388.08C424.641 1387.39 426.428 1387.04 428.455 1387.04C429.841 1387.04 431.108 1387.19 432.255 1387.48C433.428 1387.77 434.535 1388.19 435.575 1388.72L434.055 1392.16C433.175 1391.71 432.241 1391.37 431.255 1391.16C430.268 1390.92 429.308 1390.8 428.375 1390.8C427.015 1390.8 425.815 1391.05 424.775 1391.56C423.761 1392.04 422.921 1392.76 422.255 1393.72C421.588 1394.65 421.081 1395.8 420.735 1397.16C420.415 1398.52 420.255 1400.08 420.255 1401.84C420.255 1404.11 420.521 1406.04 421.055 1407.64C421.615 1409.24 422.481 1410.47 423.655 1411.32C424.828 1412.15 426.348 1412.56 428.215 1412.56C429.148 1412.56 430.121 1412.45 431.135 1412.24C432.175 1412.03 433.255 1411.68 434.375 1411.2V1415.16C433.281 1415.59 432.201 1415.89 431.135 1416.08C430.095 1416.29 429.015 1416.4 427.895 1416.4ZM437.319 1416L446.199 1387.32H451.039L459.959 1416H455.639L449.839 1396C449.732 1395.57 449.599 1395.12 449.439 1394.64C449.306 1394.13 449.159 1393.59 448.999 1393C448.866 1392.41 448.732 1391.84 448.599 1391.28C448.492 1391.84 448.359 1392.41 448.199 1393C448.066 1393.59 447.932 1394.13 447.799 1394.64C447.666 1395.15 447.546 1395.6 447.439 1396L441.559 1416H437.319ZM442.959 1407.72L444.159 1404.08H452.999L453.879 1407.72H442.959ZM463.463 1416V1387.44H471.983C475.37 1387.44 477.85 1388.19 479.423 1389.68C480.997 1391.15 481.783 1393.24 481.783 1395.96C481.783 1397.61 481.45 1399.16 480.783 1400.6C480.143 1402.01 479.063 1403.15 477.543 1404C476.05 1404.83 474.037 1405.24 471.503 1405.24H467.623V1416H463.463ZM471.063 1401.6C472.503 1401.6 473.703 1401.41 474.663 1401.04C475.623 1400.64 476.33 1400.04 476.783 1399.24C477.263 1398.44 477.503 1397.41 477.503 1396.16C477.503 1394.35 477.037 1393.05 476.103 1392.28C475.17 1391.48 473.703 1391.08 471.703 1391.08H467.623V1401.6H471.063ZM492.888 1416V1391.16H484.648V1387.44H505.368V1391.16H497.128V1416H492.888ZM518.112 1416.4C515.926 1416.4 514.126 1415.99 512.712 1415.16C511.326 1414.31 510.312 1413.09 509.672 1411.52C509.032 1409.95 508.712 1408.09 508.712 1405.96V1387.44H512.952V1405.52C512.952 1407.01 513.112 1408.31 513.432 1409.4C513.779 1410.47 514.326 1411.28 515.072 1411.84C515.846 1412.4 516.886 1412.68 518.192 1412.68C519.579 1412.68 520.646 1412.39 521.392 1411.8C522.166 1411.19 522.699 1410.35 522.992 1409.28C523.286 1408.19 523.432 1406.92 523.432 1405.48V1387.44H527.672V1406C527.672 1408.03 527.352 1409.83 526.712 1411.4C526.099 1412.95 525.086 1414.17 523.672 1415.08C522.259 1415.96 520.406 1416.4 518.112 1416.4ZM533.017 1416V1387.44H539.977C542.217 1387.44 544.083 1387.76 545.577 1388.4C547.07 1389.01 548.19 1389.92 548.937 1391.12C549.71 1392.32 550.097 1393.81 550.097 1395.6C550.097 1397.04 549.87 1398.28 549.417 1399.32C548.963 1400.33 548.337 1401.19 547.537 1401.88C546.763 1402.55 545.87 1403.08 544.857 1403.48L552.337 1416H547.697L541.097 1404.6H537.257V1416H533.017ZM539.857 1400.96C541.243 1400.96 542.363 1400.77 543.217 1400.4C544.097 1400 544.737 1399.43 545.137 1398.68C545.563 1397.91 545.777 1396.97 545.777 1395.88C545.777 1394.12 545.283 1392.88 544.297 1392.16C543.337 1391.44 541.817 1391.08 539.737 1391.08H537.257V1400.96H539.857ZM556.201 1416V1387.44H573.321V1391.16H560.361V1399.24H572.641V1402.96H560.361V1412.28H573.321V1416H556.201Z" fill="#2F7D73"/>
<path d="M880.687 1416V1387.44H887.647C889.887 1387.44 891.754 1387.76 893.247 1388.4C894.74 1389.01 895.86 1389.92 896.607 1391.12C897.38 1392.32 897.767 1393.81 897.767 1395.6C897.767 1397.04 897.54 1398.28 897.087 1399.32C896.634 1400.33 896.007 1401.19 895.207 1401.88C894.434 1402.55 893.54 1403.08 892.527 1403.48L900.007 1416H895.367L888.767 1404.6H884.927V1416H880.687ZM887.527 1400.96C888.914 1400.96 890.034 1400.77 890.887 1400.4C891.767 1400 892.407 1399.43 892.807 1398.68C893.234 1397.91 893.447 1396.97 893.447 1395.88C893.447 1394.12 892.954 1392.88 891.967 1392.16C891.007 1391.44 889.487 1391.08 887.407 1391.08H884.927V1400.96H887.527ZM903.871 1416V1387.44H920.991V1391.16H908.031V1399.24H920.311V1402.96H908.031V1412.28H920.991V1416H903.871ZM927.056 1416V1387.44H944.176V1391.16H931.216V1400.48H943.496V1404.2H931.216V1416H927.056ZM958.52 1416.4C956.333 1416.4 954.533 1415.99 953.12 1415.16C951.733 1414.31 950.72 1413.09 950.08 1411.52C949.44 1409.95 949.12 1408.09 949.12 1405.96V1387.44H953.36V1405.52C953.36 1407.01 953.52 1408.31 953.84 1409.4C954.187 1410.47 954.733 1411.28 955.48 1411.84C956.253 1412.4 957.293 1412.68 958.6 1412.68C959.987 1412.68 961.053 1412.39 961.8 1411.8C962.573 1411.19 963.107 1410.35 963.4 1409.28C963.693 1408.19 963.84 1406.92 963.84 1405.48V1387.44H968.08V1406C968.08 1408.03 967.76 1409.83 967.12 1411.4C966.507 1412.95 965.493 1414.17 964.08 1415.08C962.667 1415.96 960.813 1416.4 958.52 1416.4ZM972.304 1416V1387.44H977.984L987.504 1411H987.624C987.571 1410.17 987.518 1409.39 987.464 1408.64C987.438 1407.89 987.411 1407.17 987.384 1406.48C987.358 1405.76 987.331 1405.07 987.304 1404.4C987.304 1403.71 987.304 1403.01 987.304 1402.32V1387.44H991.264V1416H985.864L975.944 1391.6H975.784C975.838 1392.43 975.891 1393.24 975.944 1394.04C976.024 1394.81 976.078 1395.59 976.104 1396.36C976.158 1397.11 976.198 1397.84 976.224 1398.56C976.251 1399.25 976.264 1399.92 976.264 1400.56V1416H972.304ZM995.489 1416V1387.44H1002.97C1005.48 1387.44 1007.65 1387.97 1009.49 1389.04C1011.36 1390.11 1012.8 1391.68 1013.81 1393.76C1014.82 1395.81 1015.33 1398.37 1015.33 1401.44C1015.33 1404.61 1014.81 1407.28 1013.77 1409.44C1012.73 1411.6 1011.24 1413.24 1009.29 1414.36C1007.34 1415.45 1005 1416 1002.25 1416H995.489ZM1001.93 1412.36C1005.05 1412.36 1007.34 1411.45 1008.81 1409.64C1010.28 1407.8 1011.01 1405.11 1011.01 1401.56C1011.01 1399.13 1010.68 1397.16 1010.01 1395.64C1009.37 1394.09 1008.42 1392.95 1007.17 1392.2C1005.92 1391.45 1004.4 1391.08 1002.61 1391.08H999.689V1412.36H1001.93Z" fill="#2F7D73"/>
<path d="M625.586 1601.41C626.367 1602.2 627.633 1602.2 628.414 1601.41L641.142 1588.69C641.923 1587.91 641.923 1586.64 641.142 1585.86C640.361 1585.08 639.095 1585.08 638.314 1585.86L627 1597.17L615.686 1585.86C614.905 1585.08 613.639 1585.08 612.858 1585.86C612.077 1586.64 612.077 1587.91 612.858 1588.69L625.586 1601.41ZM627 1200H625V1600H627H629V1200H627Z" fill="black"/>
<path d="M828.414 1198.59C827.633 1197.8 826.367 1197.8 825.586 1198.59L812.858 1211.31C812.077 1212.09 812.077 1213.36 812.858 1214.14C813.639 1214.92 814.905 1214.92 815.686 1214.14L827 1202.83L838.314 1214.14C839.095 1214.92 840.361 1214.92 841.142 1214.14C841.923 1213.36 841.923 1212.09 841.142 1211.31L828.414 1198.59ZM827 1200H825V1600H827H829V1200H827Z" fill="black"/>
</svg>
