<svg width="1098" height="2000" viewBox="0 0 1098 2000" fill="none" xmlns="http://www.w3.org/2000/svg">
<rect x="83.5" y="800.5" width="599" height="399" rx="19.5" fill="white" stroke="black"/>
<path d="M255.53 975V968.376L270.602 966.552V931.704L257.354 930.36V923.256H278.57L279.914 932.472H280.394C282.186 929.208 284.202 926.712 286.442 924.984C288.746 923.192 291.69 922.296 295.274 922.296C297.13 922.296 298.89 922.456 300.554 922.776C302.282 923.096 303.882 923.608 305.354 924.312L302.666 933.432C301.642 932.92 300.426 932.504 299.018 932.184C297.674 931.8 296.234 931.608 294.698 931.608C291.882 931.608 289.418 932.408 287.306 934.008C285.258 935.608 283.658 937.752 282.506 940.44C281.418 943.128 280.874 946.104 280.874 949.368V966.552L295.466 968.376V975H255.53ZM324.9 975.96C319.716 975.96 315.62 974.648 312.612 972.024C309.604 969.4 308.1 965.592 308.1 960.6C308.1 956.824 308.964 953.72 310.692 951.288C312.484 948.792 315.076 946.936 318.468 945.72C321.924 944.44 326.084 943.736 330.948 943.608L342.18 943.32V941.112C342.18 937.144 341.092 934.392 338.916 932.856C336.804 931.32 333.86 930.552 330.084 930.552C327.46 930.552 324.9 930.872 322.404 931.512C319.908 932.152 317.444 933.08 315.012 934.296L311.652 926.808C314.212 925.528 317.028 924.472 320.1 923.64C323.236 922.744 326.724 922.296 330.564 922.296C337.284 922.296 342.468 923.768 346.116 926.712C349.764 929.656 351.588 934.232 351.588 940.44V975H343.62L342.276 967.992H341.892C340.42 969.848 338.82 971.352 337.092 972.504C335.428 973.656 333.572 974.52 331.524 975.096C329.476 975.672 327.268 975.96 324.9 975.96ZM327.396 967.8C330.084 967.8 332.548 967.32 334.788 966.36C337.028 965.336 338.82 963.864 340.164 961.944C341.508 959.96 342.18 957.528 342.18 954.648V950.136L333.348 950.328C329.7 950.456 326.724 950.904 324.42 951.672C322.18 952.44 320.516 953.528 319.428 954.936C318.404 956.344 317.892 958.04 317.892 960.024C317.892 962.776 318.756 964.76 320.484 965.976C322.276 967.192 324.58 967.8 327.396 967.8ZM360.863 975V968.376L378.911 966.552V931.704L362.687 930.36V923.256H389.183V966.552L405.887 968.376V975H360.863ZM383.423 914.904C381.439 914.904 379.807 914.36 378.527 913.272C377.311 912.12 376.703 910.456 376.703 908.28C376.703 906.04 377.311 904.376 378.527 903.288C379.807 902.136 381.471 901.56 383.519 901.56C385.503 901.56 387.103 902.136 388.319 903.288C389.599 904.376 390.239 906.04 390.239 908.28C390.239 910.456 389.599 912.12 388.319 913.272C387.103 914.36 385.471 914.904 383.423 914.904ZM412.665 975V968.376L431.001 966.552V910.488L414.105 908.76V902.04H441.273V966.552L457.689 968.376V975H412.665ZM470.036 978.744L463.412 974.904L506.708 903L513.14 906.84L470.036 978.744ZM487.988 975.96C483.636 975.96 479.892 975.128 476.756 973.464C473.684 971.8 471.124 969.432 469.076 966.36C467.028 963.224 465.524 959.512 464.564 955.224C463.668 950.872 463.22 946.04 463.22 940.728C463.22 933.56 464.084 927.32 465.812 922.008C467.54 916.696 470.228 912.6 473.876 909.72C477.588 906.776 482.324 905.304 488.084 905.304C492.436 905.304 496.18 906.136 499.316 907.8C502.452 909.4 505.012 911.768 506.996 914.904C509.044 918.04 510.548 921.752 511.508 926.04C512.468 930.328 512.948 935.16 512.948 940.536C512.948 945.912 512.468 950.776 511.508 955.128C510.548 959.48 509.044 963.224 506.996 966.36C505.012 969.432 502.42 971.8 499.22 973.464C496.084 975.128 492.34 975.96 487.988 975.96ZM488.18 967.032C491.7 967.032 494.516 966.008 496.628 963.96C498.74 961.848 500.244 958.84 501.14 954.936C502.1 950.968 502.58 946.2 502.58 940.632C502.58 932.248 501.492 925.752 499.316 921.144C497.14 916.536 493.428 914.232 488.18 914.232C484.66 914.232 481.812 915.288 479.636 917.4C477.524 919.448 475.988 922.456 475.028 926.424C474.068 930.328 473.588 935.064 473.588 940.632C473.588 946.2 474.068 950.968 475.028 954.936C475.988 958.84 477.524 961.848 479.636 963.96C481.812 966.008 484.66 967.032 488.18 967.032Z" fill="black"/>
<path d="M231.469 1066.4C229.976 1066.4 228.523 1066.27 227.109 1066C225.696 1065.71 224.509 1065.32 223.549 1064.84V1060.96C224.669 1061.47 225.936 1061.91 227.349 1062.28C228.763 1062.63 230.176 1062.8 231.589 1062.8C232.816 1062.8 233.856 1062.64 234.709 1062.32C235.563 1062 236.203 1061.51 236.629 1060.84C237.083 1060.17 237.309 1059.33 237.309 1058.32C237.309 1057.44 237.109 1056.75 236.709 1056.24C236.309 1055.71 235.643 1055.2 234.709 1054.72C233.803 1054.24 232.563 1053.64 230.989 1052.92C229.843 1052.39 228.736 1051.79 227.669 1051.12C226.629 1050.45 225.776 1049.61 225.109 1048.6C224.469 1047.56 224.149 1046.24 224.149 1044.64C224.149 1042.96 224.523 1041.56 225.269 1040.44C226.016 1039.32 227.069 1038.48 228.429 1037.92C229.816 1037.33 231.456 1037.04 233.349 1037.04C234.683 1037.04 236.029 1037.19 237.389 1037.48C238.749 1037.77 239.989 1038.19 241.109 1038.72L239.749 1042.16C238.736 1041.71 237.669 1041.36 236.549 1041.12C235.456 1040.85 234.403 1040.72 233.389 1040.72C232.403 1040.72 231.536 1040.87 230.789 1041.16C230.043 1041.43 229.469 1041.85 229.069 1042.44C228.696 1043.03 228.509 1043.8 228.509 1044.76C228.509 1045.67 228.696 1046.4 229.069 1046.96C229.443 1047.49 230.043 1047.97 230.869 1048.4C231.696 1048.83 232.749 1049.33 234.029 1049.92C235.549 1050.61 236.883 1051.29 238.029 1051.96C239.176 1052.63 240.069 1053.44 240.709 1054.4C241.349 1055.36 241.669 1056.65 241.669 1058.28C241.669 1059.59 241.443 1060.75 240.989 1061.76C240.536 1062.75 239.869 1063.59 238.989 1064.28C238.136 1064.97 237.083 1065.51 235.829 1065.88C234.576 1066.23 233.123 1066.4 231.469 1066.4ZM245.374 1066V1037.44H251.334L255.414 1054.04H255.534L259.734 1037.44H265.614V1066H261.654V1053.16C261.654 1052.55 261.667 1051.89 261.694 1051.2C261.72 1050.48 261.747 1049.76 261.774 1049.04C261.8 1048.32 261.827 1047.61 261.854 1046.92C261.907 1046.2 261.947 1045.51 261.974 1044.84C262.027 1044.17 262.08 1043.56 262.134 1043C262.187 1042.44 262.227 1041.95 262.254 1041.52H262.054L257.494 1059H253.494L248.814 1041.48H248.614C248.667 1041.88 248.72 1042.36 248.774 1042.92C248.827 1043.45 248.88 1044.05 248.934 1044.72C248.987 1045.39 249.04 1046.09 249.094 1046.84C249.147 1047.56 249.187 1048.29 249.214 1049.04C249.24 1049.79 249.254 1050.52 249.254 1051.24C249.28 1051.96 249.294 1052.63 249.294 1053.24V1066H245.374ZM267.358 1066L276.238 1037.32H281.078L289.998 1066H285.678L279.878 1046C279.771 1045.57 279.638 1045.12 279.478 1044.64C279.345 1044.13 279.198 1043.59 279.038 1043C278.905 1042.41 278.771 1041.84 278.638 1041.28C278.531 1041.84 278.398 1042.41 278.238 1043C278.105 1043.59 277.971 1044.13 277.838 1044.64C277.705 1045.15 277.585 1045.6 277.478 1046L271.598 1066H267.358ZM272.998 1057.72L274.198 1054.08H283.038L283.918 1057.72H272.998ZM293.502 1066V1037.44H300.462C302.702 1037.44 304.569 1037.76 306.062 1038.4C307.556 1039.01 308.676 1039.92 309.422 1041.12C310.196 1042.32 310.582 1043.81 310.582 1045.6C310.582 1047.04 310.356 1048.28 309.902 1049.32C309.449 1050.33 308.822 1051.19 308.022 1051.88C307.249 1052.55 306.356 1053.08 305.342 1053.48L312.822 1066H308.182L301.582 1054.6H297.742V1066H293.502ZM300.342 1050.96C301.729 1050.96 302.849 1050.77 303.702 1050.4C304.582 1050 305.222 1049.43 305.622 1048.68C306.049 1047.91 306.262 1046.97 306.262 1045.88C306.262 1044.12 305.769 1042.88 304.782 1042.16C303.822 1041.44 302.302 1041.08 300.222 1041.08H297.742V1050.96H300.342ZM322.927 1066V1041.16H314.687V1037.44H335.407V1041.16H327.167V1066H322.927ZM373.856 1066.4C371.056 1066.4 368.776 1065.79 367.016 1064.56C365.256 1063.33 363.949 1061.64 363.096 1059.48C362.269 1057.29 361.856 1054.76 361.856 1051.88C361.856 1049.59 362.122 1047.53 362.656 1045.72C363.216 1043.88 364.029 1042.32 365.096 1041.04C366.189 1039.73 367.509 1038.75 369.056 1038.08C370.602 1037.39 372.389 1037.04 374.416 1037.04C375.802 1037.04 377.069 1037.19 378.216 1037.48C379.389 1037.77 380.496 1038.19 381.536 1038.72L380.016 1042.16C379.136 1041.71 378.202 1041.37 377.216 1041.16C376.229 1040.92 375.269 1040.8 374.336 1040.8C372.976 1040.8 371.776 1041.05 370.736 1041.56C369.722 1042.04 368.882 1042.76 368.216 1043.72C367.549 1044.65 367.042 1045.8 366.696 1047.16C366.376 1048.52 366.216 1050.08 366.216 1051.84C366.216 1054.11 366.482 1056.04 367.016 1057.64C367.576 1059.24 368.442 1060.47 369.616 1061.32C370.789 1062.15 372.309 1062.56 374.176 1062.56C375.109 1062.56 376.082 1062.45 377.096 1062.24C378.136 1062.03 379.216 1061.68 380.336 1061.2V1065.16C379.242 1065.59 378.162 1065.89 377.096 1066.08C376.056 1066.29 374.976 1066.4 373.856 1066.4ZM394.56 1066.4C392.747 1066.4 391.187 1066.05 389.88 1065.36C388.6 1064.67 387.533 1063.68 386.68 1062.4C385.827 1061.09 385.2 1059.55 384.8 1057.76C384.427 1055.95 384.24 1053.93 384.24 1051.72C384.24 1048.73 384.6 1046.13 385.32 1043.92C386.04 1041.71 387.16 1040 388.68 1038.8C390.227 1037.57 392.2 1036.96 394.6 1036.96C396.413 1036.96 397.973 1037.31 399.28 1038C400.587 1038.67 401.653 1039.65 402.48 1040.96C403.333 1042.27 403.96 1043.81 404.36 1045.6C404.76 1047.39 404.96 1049.4 404.96 1051.64C404.96 1053.88 404.76 1055.91 404.36 1057.72C403.96 1059.53 403.333 1061.09 402.48 1062.4C401.653 1063.68 400.573 1064.67 399.24 1065.36C397.933 1066.05 396.373 1066.4 394.56 1066.4ZM394.64 1062.68C396.107 1062.68 397.28 1062.25 398.16 1061.4C399.04 1060.52 399.667 1059.27 400.04 1057.64C400.44 1055.99 400.64 1054 400.64 1051.68C400.64 1048.19 400.187 1045.48 399.28 1043.56C398.373 1041.64 396.827 1040.68 394.64 1040.68C393.173 1040.68 391.987 1041.12 391.08 1042C390.2 1042.85 389.56 1044.11 389.16 1045.76C388.76 1047.39 388.56 1049.36 388.56 1051.68C388.56 1054 388.76 1055.99 389.16 1057.64C389.56 1059.27 390.2 1060.52 391.08 1061.4C391.987 1062.25 393.173 1062.68 394.64 1062.68ZM408.304 1066V1037.44H413.984L423.504 1061H423.624C423.571 1060.17 423.518 1059.39 423.464 1058.64C423.438 1057.89 423.411 1057.17 423.384 1056.48C423.358 1055.76 423.331 1055.07 423.304 1054.4C423.304 1053.71 423.304 1053.01 423.304 1052.32V1037.44H427.264V1066H421.864L411.944 1041.6H411.784C411.838 1042.43 411.891 1043.24 411.944 1044.04C412.024 1044.81 412.078 1045.59 412.104 1046.36C412.158 1047.11 412.198 1047.84 412.224 1048.56C412.251 1049.25 412.264 1049.92 412.264 1050.56V1066H408.304ZM438.849 1066V1041.16H430.609V1037.44H451.329V1041.16H443.089V1066H438.849ZM455.793 1066V1037.44H462.753C464.993 1037.44 466.86 1037.76 468.353 1038.4C469.846 1039.01 470.966 1039.92 471.713 1041.12C472.486 1042.32 472.873 1043.81 472.873 1045.6C472.873 1047.04 472.646 1048.28 472.193 1049.32C471.74 1050.33 471.113 1051.19 470.313 1051.88C469.54 1052.55 468.646 1053.08 467.633 1053.48L475.113 1066H470.473L463.873 1054.6H460.033V1066H455.793ZM462.633 1050.96C464.02 1050.96 465.14 1050.77 465.993 1050.4C466.873 1050 467.513 1049.43 467.913 1048.68C468.34 1047.91 468.553 1046.97 468.553 1045.88C468.553 1044.12 468.06 1042.88 467.073 1042.16C466.113 1041.44 464.593 1041.08 462.513 1041.08H460.033V1050.96H462.633ZM476.017 1066L484.897 1037.32H489.737L498.657 1066H494.337L488.537 1046C488.431 1045.57 488.297 1045.12 488.137 1044.64C488.004 1044.13 487.857 1043.59 487.697 1043C487.564 1042.41 487.431 1041.84 487.297 1041.28C487.191 1041.84 487.057 1042.41 486.897 1043C486.764 1043.59 486.631 1044.13 486.497 1044.64C486.364 1045.15 486.244 1045.6 486.137 1046L480.257 1066H476.017ZM481.657 1057.72L482.857 1054.08H491.697L492.577 1057.72H481.657ZM512.962 1066.4C510.162 1066.4 507.882 1065.79 506.122 1064.56C504.362 1063.33 503.055 1061.64 502.202 1059.48C501.375 1057.29 500.962 1054.76 500.962 1051.88C500.962 1049.59 501.229 1047.53 501.762 1045.72C502.322 1043.88 503.135 1042.32 504.202 1041.04C505.295 1039.73 506.615 1038.75 508.162 1038.08C509.709 1037.39 511.495 1037.04 513.522 1037.04C514.909 1037.04 516.175 1037.19 517.322 1037.48C518.495 1037.77 519.602 1038.19 520.642 1038.72L519.122 1042.16C518.242 1041.71 517.309 1041.37 516.322 1041.16C515.335 1040.92 514.375 1040.8 513.442 1040.8C512.082 1040.8 510.882 1041.05 509.842 1041.56C508.829 1042.04 507.989 1042.76 507.322 1043.72C506.655 1044.65 506.149 1045.8 505.802 1047.16C505.482 1048.52 505.322 1050.08 505.322 1051.84C505.322 1054.11 505.589 1056.04 506.122 1057.64C506.682 1059.24 507.549 1060.47 508.722 1061.32C509.895 1062.15 511.415 1062.56 513.282 1062.56C514.215 1062.56 515.189 1062.45 516.202 1062.24C517.242 1062.03 518.322 1061.68 519.442 1061.2V1065.16C518.349 1065.59 517.269 1065.89 516.202 1066.08C515.162 1066.29 514.082 1066.4 512.962 1066.4ZM531.586 1066V1041.16H523.346V1037.44H544.066V1041.16H535.826V1066H531.586ZM298.743 1120.4C297.116 1120.4 295.743 1120.08 294.623 1119.44C293.529 1118.77 292.703 1117.88 292.143 1116.76C291.583 1115.61 291.303 1114.33 291.303 1112.92C291.303 1111.45 291.583 1110.16 292.143 1109.04C292.729 1107.92 293.503 1106.89 294.463 1105.96C295.449 1105.03 296.543 1104.12 297.743 1103.24C298.383 1102.79 299.049 1102.27 299.743 1101.68C300.463 1101.07 301.076 1100.37 301.583 1099.6C302.089 1098.8 302.343 1097.92 302.343 1096.96C302.343 1096.05 302.116 1095.36 301.663 1094.88C301.236 1094.37 300.649 1094.12 299.903 1094.12C299.129 1094.12 298.516 1094.39 298.063 1094.92C297.636 1095.43 297.423 1096.16 297.423 1097.12C297.423 1097.89 297.543 1098.65 297.783 1099.4C298.023 1100.15 298.329 1100.84 298.703 1101.48C299.103 1102.12 299.489 1102.68 299.863 1103.16L313.143 1120H308.263L297.343 1105.6C296.809 1104.91 296.263 1104.13 295.703 1103.28C295.143 1102.4 294.663 1101.45 294.263 1100.44C293.863 1099.4 293.663 1098.31 293.663 1097.16C293.663 1095.29 294.209 1093.81 295.303 1092.72C296.423 1091.6 297.929 1091.04 299.823 1091.04C301.769 1091.04 303.289 1091.59 304.383 1092.68C305.476 1093.77 306.023 1095.21 306.023 1097C306.023 1098.23 305.729 1099.37 305.143 1100.44C304.556 1101.51 303.796 1102.49 302.863 1103.4C301.929 1104.28 300.956 1105.13 299.943 1105.96C299.143 1106.6 298.383 1107.24 297.663 1107.88C296.943 1108.52 296.356 1109.23 295.903 1110C295.476 1110.77 295.263 1111.67 295.263 1112.68C295.263 1113.83 295.609 1114.81 296.303 1115.64C296.996 1116.44 297.969 1116.84 299.223 1116.84C300.183 1116.84 301.076 1116.61 301.903 1116.16C302.756 1115.68 303.529 1115.04 304.223 1114.24C304.916 1113.44 305.516 1112.56 306.023 1111.6C306.529 1110.61 306.943 1109.61 307.263 1108.6C307.609 1107.59 307.863 1106.63 308.023 1105.72H311.863C311.623 1107.21 311.249 1108.68 310.743 1110.12C310.236 1111.53 309.596 1112.87 308.823 1114.12C308.076 1115.37 307.196 1116.47 306.183 1117.4C305.169 1118.33 304.036 1119.07 302.783 1119.6C301.556 1120.13 300.209 1120.4 298.743 1120.4ZM339.871 1120V1091.44H356.991V1095.16H344.031V1103.24H356.311V1106.96H344.031V1116.28H356.991V1120H339.871ZM370.576 1120.4C369.082 1120.4 367.629 1120.27 366.216 1120C364.802 1119.71 363.616 1119.32 362.656 1118.84V1114.96C363.776 1115.47 365.042 1115.91 366.456 1116.28C367.869 1116.63 369.282 1116.8 370.696 1116.8C371.922 1116.8 372.962 1116.64 373.816 1116.32C374.669 1116 375.309 1115.51 375.736 1114.84C376.189 1114.17 376.416 1113.33 376.416 1112.32C376.416 1111.44 376.216 1110.75 375.816 1110.24C375.416 1109.71 374.749 1109.2 373.816 1108.72C372.909 1108.24 371.669 1107.64 370.096 1106.92C368.949 1106.39 367.842 1105.79 366.776 1105.12C365.736 1104.45 364.882 1103.61 364.216 1102.6C363.576 1101.56 363.256 1100.24 363.256 1098.64C363.256 1096.96 363.629 1095.56 364.376 1094.44C365.122 1093.32 366.176 1092.48 367.536 1091.92C368.922 1091.33 370.562 1091.04 372.456 1091.04C373.789 1091.04 375.136 1091.19 376.496 1091.48C377.856 1091.77 379.096 1092.19 380.216 1092.72L378.856 1096.16C377.842 1095.71 376.776 1095.36 375.656 1095.12C374.562 1094.85 373.509 1094.72 372.496 1094.72C371.509 1094.72 370.642 1094.87 369.896 1095.16C369.149 1095.43 368.576 1095.85 368.176 1096.44C367.802 1097.03 367.616 1097.8 367.616 1098.76C367.616 1099.67 367.802 1100.4 368.176 1100.96C368.549 1101.49 369.149 1101.97 369.976 1102.4C370.802 1102.83 371.856 1103.33 373.136 1103.92C374.656 1104.61 375.989 1105.29 377.136 1105.96C378.282 1106.63 379.176 1107.44 379.816 1108.4C380.456 1109.36 380.776 1110.65 380.776 1112.28C380.776 1113.59 380.549 1114.75 380.096 1115.76C379.642 1116.75 378.976 1117.59 378.096 1118.28C377.242 1118.97 376.189 1119.51 374.936 1119.88C373.682 1120.23 372.229 1120.4 370.576 1120.4ZM397.04 1120.4C394.24 1120.4 391.96 1119.79 390.2 1118.56C388.44 1117.33 387.133 1115.64 386.28 1113.48C385.453 1111.29 385.04 1108.76 385.04 1105.88C385.04 1103.59 385.307 1101.53 385.84 1099.72C386.4 1097.88 387.213 1096.32 388.28 1095.04C389.373 1093.73 390.693 1092.75 392.24 1092.08C393.787 1091.39 395.573 1091.04 397.6 1091.04C398.987 1091.04 400.253 1091.19 401.4 1091.48C402.573 1091.77 403.68 1092.19 404.72 1092.72L403.2 1096.16C402.32 1095.71 401.387 1095.37 400.4 1095.16C399.413 1094.92 398.453 1094.8 397.52 1094.8C396.16 1094.8 394.96 1095.05 393.92 1095.56C392.907 1096.04 392.067 1096.76 391.4 1097.72C390.733 1098.65 390.227 1099.8 389.88 1101.16C389.56 1102.52 389.4 1104.08 389.4 1105.84C389.4 1108.11 389.667 1110.04 390.2 1111.64C390.76 1113.24 391.627 1114.47 392.8 1115.32C393.973 1116.15 395.493 1116.56 397.36 1116.56C398.293 1116.56 399.267 1116.45 400.28 1116.24C401.32 1116.03 402.4 1115.68 403.52 1115.2V1119.16C402.427 1119.59 401.347 1119.89 400.28 1120.08C399.24 1120.29 398.16 1120.4 397.04 1120.4ZM409.424 1120V1091.44H416.384C418.624 1091.44 420.491 1091.76 421.984 1092.4C423.478 1093.01 424.598 1093.92 425.344 1095.12C426.118 1096.32 426.504 1097.81 426.504 1099.6C426.504 1101.04 426.278 1102.28 425.824 1103.32C425.371 1104.33 424.744 1105.19 423.944 1105.88C423.171 1106.55 422.278 1107.08 421.264 1107.48L428.744 1120H424.104L417.504 1108.6H413.664V1120H409.424ZM416.264 1104.96C417.651 1104.96 418.771 1104.77 419.624 1104.4C420.504 1104 421.144 1103.43 421.544 1102.68C421.971 1101.91 422.184 1100.97 422.184 1099.88C422.184 1098.12 421.691 1096.88 420.704 1096.16C419.744 1095.44 418.224 1095.08 416.144 1095.08H413.664V1104.96H416.264ZM440.929 1120.4C439.115 1120.4 437.555 1120.05 436.249 1119.36C434.969 1118.67 433.902 1117.68 433.049 1116.4C432.195 1115.09 431.569 1113.55 431.169 1111.76C430.795 1109.95 430.609 1107.93 430.609 1105.72C430.609 1102.73 430.969 1100.13 431.689 1097.92C432.409 1095.71 433.529 1094 435.049 1092.8C436.595 1091.57 438.569 1090.96 440.969 1090.96C442.782 1090.96 444.342 1091.31 445.649 1092C446.955 1092.67 448.022 1093.65 448.849 1094.96C449.702 1096.27 450.329 1097.81 450.729 1099.6C451.129 1101.39 451.329 1103.4 451.329 1105.64C451.329 1107.88 451.129 1109.91 450.729 1111.72C450.329 1113.53 449.702 1115.09 448.849 1116.4C448.022 1117.68 446.942 1118.67 445.609 1119.36C444.302 1120.05 442.742 1120.4 440.929 1120.4ZM441.009 1116.68C442.475 1116.68 443.649 1116.25 444.529 1115.4C445.409 1114.52 446.035 1113.27 446.409 1111.64C446.809 1109.99 447.009 1108 447.009 1105.68C447.009 1102.19 446.555 1099.48 445.649 1097.56C444.742 1095.64 443.195 1094.68 441.009 1094.68C439.542 1094.68 438.355 1095.12 437.449 1096C436.569 1096.85 435.929 1098.11 435.529 1099.76C435.129 1101.39 434.929 1103.36 434.929 1105.68C434.929 1108 435.129 1109.99 435.529 1111.64C435.929 1113.27 436.569 1114.52 437.449 1115.4C438.355 1116.25 439.542 1116.68 441.009 1116.68ZM455.873 1120L452.993 1091.44H456.793C456.953 1093.01 457.086 1094.47 457.193 1095.8C457.326 1097.11 457.433 1098.32 457.513 1099.44C457.62 1100.56 457.7 1101.63 457.753 1102.64C457.833 1103.63 457.913 1104.61 457.993 1105.6C458.046 1106.29 458.1 1107.03 458.153 1107.8C458.206 1108.57 458.26 1109.36 458.313 1110.16C458.366 1110.93 458.406 1111.68 458.433 1112.4C458.46 1113.12 458.486 1113.79 458.513 1114.4C458.54 1114.99 458.553 1115.45 458.553 1115.8H458.713C458.793 1115.27 458.886 1114.65 458.993 1113.96C459.126 1113.24 459.26 1112.49 459.393 1111.72C459.553 1110.95 459.7 1110.21 459.833 1109.52C459.993 1108.8 460.126 1108.17 460.233 1107.64L462.153 1098.44H466.233L468.193 1107.72C468.326 1108.39 468.473 1109.08 468.633 1109.8C468.82 1110.52 468.98 1111.25 469.113 1112C469.273 1112.72 469.406 1113.41 469.513 1114.08C469.646 1114.72 469.753 1115.31 469.833 1115.84H469.953C469.98 1115.41 469.993 1114.91 469.993 1114.32C470.02 1113.71 470.033 1113.04 470.033 1112.32C470.06 1111.6 470.086 1110.84 470.113 1110.04C470.166 1109.24 470.22 1108.43 470.273 1107.6C470.326 1106.75 470.38 1105.92 470.433 1105.12C470.486 1104.4 470.54 1103.67 470.593 1102.92C470.646 1102.15 470.7 1101.36 470.753 1100.56C470.833 1099.73 470.913 1098.87 470.993 1097.96C471.073 1097.03 471.153 1096.03 471.233 1094.96C471.313 1093.87 471.406 1092.69 471.513 1091.44H475.313L472.713 1120H467.833L465.193 1107.88C465.033 1107.16 464.886 1106.47 464.753 1105.8C464.646 1105.13 464.553 1104.53 464.473 1104C464.393 1103.44 464.326 1102.99 464.273 1102.64H464.113C464.086 1102.99 464.033 1103.44 463.953 1104C463.873 1104.53 463.766 1105.13 463.633 1105.8C463.526 1106.44 463.393 1107.13 463.233 1107.88L460.673 1120H455.873Z" fill="black"/>
<rect x="83.5" y="0.5" width="599" height="399" rx="19.5" fill="white" stroke="black"/>
<path d="M219.377 270.4C217.884 270.4 216.431 270.267 215.017 270C213.604 269.707 212.417 269.32 211.457 268.84V264.96C212.577 265.467 213.844 265.907 215.257 266.28C216.671 266.627 218.084 266.8 219.497 266.8C220.724 266.8 221.764 266.64 222.617 266.32C223.471 266 224.111 265.507 224.537 264.84C224.991 264.173 225.217 263.333 225.217 262.32C225.217 261.44 225.017 260.747 224.617 260.24C224.217 259.707 223.551 259.2 222.617 258.72C221.711 258.24 220.471 257.64 218.897 256.92C217.751 256.387 216.644 255.787 215.577 255.12C214.537 254.453 213.684 253.613 213.017 252.6C212.377 251.56 212.057 250.24 212.057 248.64C212.057 246.96 212.431 245.56 213.177 244.44C213.924 243.32 214.977 242.48 216.337 241.92C217.724 241.333 219.364 241.04 221.257 241.04C222.591 241.04 223.937 241.187 225.297 241.48C226.657 241.773 227.897 242.187 229.017 242.72L227.657 246.16C226.644 245.707 225.577 245.36 224.457 245.12C223.364 244.853 222.311 244.72 221.297 244.72C220.311 244.72 219.444 244.867 218.697 245.16C217.951 245.427 217.377 245.853 216.977 246.44C216.604 247.027 216.417 247.8 216.417 248.76C216.417 249.667 216.604 250.4 216.977 250.96C217.351 251.493 217.951 251.973 218.777 252.4C219.604 252.827 220.657 253.333 221.937 253.92C223.457 254.613 224.791 255.293 225.937 255.96C227.084 256.627 227.977 257.44 228.617 258.4C229.257 259.36 229.577 260.653 229.577 262.28C229.577 263.587 229.351 264.747 228.897 265.76C228.444 266.747 227.777 267.587 226.897 268.28C226.044 268.973 224.991 269.507 223.737 269.88C222.484 270.227 221.031 270.4 219.377 270.4ZM235.562 270V267.08L241.282 266.52V244.92L235.562 244.36V241.44H251.242V244.36L245.442 244.92V266.52L251.242 267.08V270H235.562ZM268.226 270.4C265.586 270.4 263.359 269.853 261.546 268.76C259.759 267.64 258.426 266.027 257.546 263.92C256.666 261.787 256.226 259.187 256.226 256.12C256.226 252.947 256.693 250.24 257.626 248C258.586 245.733 259.986 244.013 261.826 242.84C263.693 241.64 265.973 241.04 268.666 241.04C270.079 241.04 271.359 241.2 272.506 241.52C273.679 241.813 274.773 242.227 275.786 242.76L274.346 246.24C273.626 245.787 272.813 245.44 271.906 245.2C270.999 244.933 269.999 244.8 268.906 244.8C267.039 244.8 265.479 245.24 264.226 246.12C262.973 247 262.039 248.267 261.426 249.92C260.813 251.573 260.506 253.587 260.506 255.96C260.506 258.04 260.759 259.893 261.266 261.52C261.799 263.12 262.639 264.387 263.786 265.32C264.933 266.227 266.466 266.68 268.386 266.68C269.159 266.68 269.839 266.627 270.426 266.52C271.039 266.387 271.586 266.267 272.066 266.16V258.28H267.266V254.64H276.066V268.88C274.973 269.333 273.773 269.707 272.466 270C271.159 270.267 269.746 270.4 268.226 270.4ZM280.29 270V241.44H285.97L295.49 265H295.61C295.557 264.173 295.504 263.387 295.45 262.64C295.424 261.893 295.397 261.173 295.37 260.48C295.344 259.76 295.317 259.067 295.29 258.4C295.29 257.707 295.29 257.013 295.29 256.32V241.44H299.25V270H293.85L283.93 245.6H283.77C283.824 246.427 283.877 247.24 283.93 248.04C284.01 248.813 284.064 249.587 284.09 250.36C284.144 251.107 284.184 251.84 284.21 252.56C284.237 253.253 284.25 253.92 284.25 254.56V270H280.29ZM312.115 270.4C310.621 270.4 309.168 270.267 307.755 270C306.341 269.707 305.155 269.32 304.195 268.84V264.96C305.315 265.467 306.581 265.907 307.995 266.28C309.408 266.627 310.821 266.8 312.235 266.8C313.461 266.8 314.501 266.64 315.355 266.32C316.208 266 316.848 265.507 317.275 264.84C317.728 264.173 317.955 263.333 317.955 262.32C317.955 261.44 317.755 260.747 317.355 260.24C316.955 259.707 316.288 259.2 315.355 258.72C314.448 258.24 313.208 257.64 311.635 256.92C310.488 256.387 309.381 255.787 308.315 255.12C307.275 254.453 306.421 253.613 305.755 252.6C305.115 251.56 304.795 250.24 304.795 248.64C304.795 246.96 305.168 245.56 305.915 244.44C306.661 243.32 307.715 242.48 309.075 241.92C310.461 241.333 312.101 241.04 313.995 241.04C315.328 241.04 316.675 241.187 318.035 241.48C319.395 241.773 320.635 242.187 321.755 242.72L320.395 246.16C319.381 245.707 318.315 245.36 317.195 245.12C316.101 244.853 315.048 244.72 314.035 244.72C313.048 244.72 312.181 244.867 311.435 245.16C310.688 245.427 310.115 245.853 309.715 246.44C309.341 247.027 309.155 247.8 309.155 248.76C309.155 249.667 309.341 250.4 309.715 250.96C310.088 251.493 310.688 251.973 311.515 252.4C312.341 252.827 313.395 253.333 314.675 253.92C316.195 254.613 317.528 255.293 318.675 255.96C319.821 256.627 320.715 257.44 321.355 258.4C321.995 259.36 322.315 260.653 322.315 262.28C322.315 263.587 322.088 264.747 321.635 265.76C321.181 266.747 320.515 267.587 319.635 268.28C318.781 268.973 317.728 269.507 316.475 269.88C315.221 270.227 313.768 270.4 312.115 270.4ZM359.283 270.4C357.47 270.4 355.91 270.053 354.603 269.36C353.323 268.667 352.257 267.68 351.403 266.4C350.55 265.093 349.923 263.547 349.523 261.76C349.15 259.947 348.963 257.933 348.963 255.72C348.963 252.733 349.323 250.133 350.043 247.92C350.763 245.707 351.883 244 353.403 242.8C354.95 241.573 356.923 240.96 359.323 240.96C361.137 240.96 362.697 241.307 364.003 242C365.31 242.667 366.377 243.653 367.203 244.96C368.057 246.267 368.683 247.813 369.083 249.6C369.483 251.387 369.683 253.4 369.683 255.64C369.683 257.88 369.483 259.907 369.083 261.72C368.683 263.533 368.057 265.093 367.203 266.4C366.377 267.68 365.297 268.667 363.963 269.36C362.657 270.053 361.097 270.4 359.283 270.4ZM359.363 266.68C360.83 266.68 362.003 266.253 362.883 265.4C363.763 264.52 364.39 263.267 364.763 261.64C365.163 259.987 365.363 258 365.363 255.68C365.363 252.187 364.91 249.48 364.003 247.56C363.097 245.64 361.55 244.68 359.363 244.68C357.897 244.68 356.71 245.12 355.803 246C354.923 246.853 354.283 248.107 353.883 249.76C353.483 251.387 353.283 253.36 353.283 255.68C353.283 258 353.483 259.987 353.883 261.64C354.283 263.267 354.923 264.52 355.803 265.4C356.71 266.253 357.897 266.68 359.363 266.68ZM374.148 270V241.44H391.268V245.16H378.308V254.48H390.588V258.2H378.308V270H374.148ZM397.332 270V241.44H414.452V245.16H401.492V254.48H413.772V258.2H401.492V270H397.332ZM422.877 261.08V257.36H434.877V261.08H422.877ZM454.501 270.4C451.701 270.4 449.421 269.787 447.661 268.56C445.901 267.333 444.594 265.64 443.741 263.48C442.914 261.293 442.501 258.76 442.501 255.88C442.501 253.587 442.768 251.533 443.301 249.72C443.861 247.88 444.674 246.32 445.741 245.04C446.834 243.733 448.154 242.747 449.701 242.08C451.248 241.387 453.034 241.04 455.061 241.04C456.448 241.04 457.714 241.187 458.861 241.48C460.034 241.773 461.141 242.187 462.181 242.72L460.661 246.16C459.781 245.707 458.848 245.373 457.861 245.16C456.874 244.92 455.914 244.8 454.981 244.8C453.621 244.8 452.421 245.053 451.381 245.56C450.368 246.04 449.528 246.76 448.861 247.72C448.194 248.653 447.688 249.8 447.341 251.16C447.021 252.52 446.861 254.08 446.861 255.84C446.861 258.107 447.128 260.04 447.661 261.64C448.221 263.24 449.088 264.467 450.261 265.32C451.434 266.147 452.954 266.56 454.821 266.56C455.754 266.56 456.728 266.453 457.741 266.24C458.781 266.027 459.861 265.68 460.981 265.2V269.16C459.888 269.587 458.808 269.893 457.741 270.08C456.701 270.293 455.621 270.4 454.501 270.4ZM465.765 270V241.44H470.005V253.24H480.485V241.44H484.725V270H480.485V256.96H470.005V270H465.765ZM487.11 270L495.99 241.32H500.83L509.75 270H505.43L499.63 250C499.523 249.573 499.39 249.12 499.23 248.64C499.096 248.133 498.95 247.587 498.79 247C498.656 246.413 498.523 245.84 498.39 245.28C498.283 245.84 498.15 246.413 497.99 247C497.856 247.587 497.723 248.133 497.59 248.64C497.456 249.147 497.336 249.6 497.23 250L491.35 270H487.11ZM492.75 261.72L493.95 258.08H502.79L503.67 261.72H492.75ZM513.774 270V267.08L519.494 266.52V244.92L513.774 244.36V241.44H529.454V244.36L523.654 244.92V266.52L529.454 267.08V270H513.774ZM535.318 270V241.44H540.998L550.518 265H550.638C550.585 264.173 550.532 263.387 550.478 262.64C550.452 261.893 550.425 261.173 550.398 260.48C550.372 259.76 550.345 259.067 550.318 258.4C550.318 257.707 550.318 257.013 550.318 256.32V241.44H554.278V270H548.878L538.958 245.6H538.798C538.852 246.427 538.905 247.24 538.958 248.04C539.038 248.813 539.092 249.587 539.118 250.36C539.172 251.107 539.212 251.84 539.238 252.56C539.265 253.253 539.278 253.92 539.278 254.56V270H535.318Z" fill="black"/>
<path d="M294.626 188V142.304H308.962C314.296 142.304 318.221 143.52 320.738 145.952C323.298 148.341 324.578 151.755 324.578 156.192C324.578 159.051 324.045 161.611 322.979 163.872C321.912 166.133 320.184 167.925 317.794 169.248C315.405 170.571 312.248 171.232 308.322 171.232H302.37V188H294.626ZM307.49 164.448C309.538 164.448 311.224 164.171 312.546 163.616C313.912 163.019 314.936 162.144 315.618 160.992C316.301 159.797 316.642 158.325 316.642 156.576C316.642 153.973 315.981 152.075 314.658 150.88C313.378 149.685 311.352 149.088 308.578 149.088H302.37V164.448H307.49ZM327.113 188L340.553 142.112H350.218L363.722 188H355.722L347.337 156.768C347.167 155.957 346.953 155.125 346.698 154.272C346.484 153.419 346.271 152.523 346.057 151.584C345.844 150.645 345.631 149.707 345.417 148.768C345.204 149.707 344.991 150.645 344.778 151.584C344.564 152.523 344.351 153.44 344.137 154.336C343.924 155.189 343.689 156 343.434 156.768L334.921 188H327.113ZM336.649 175.648L338.569 168.928H352.265L353.417 175.648H336.649ZM378.609 188V170.272L364.977 142.304H373.425L382.577 163.104L391.665 142.304H400.049L386.481 170.272V188H378.609ZM405.912 188V142.304H433.944V149.216H413.656V160.8H432.92V167.712H413.656V181.088H433.944V188H405.912ZM443.007 188V142.304H454.655C458.239 142.304 461.247 142.837 463.679 143.904C466.111 144.928 467.945 146.443 469.183 148.448C470.42 150.411 471.039 152.821 471.039 155.68C471.039 157.856 470.697 159.776 470.015 161.44C469.332 163.061 468.372 164.427 467.135 165.536C465.94 166.645 464.553 167.563 462.975 168.288L474.559 188H465.983L455.935 170.208H450.943V188H443.007ZM454.463 163.424C456.425 163.424 458.025 163.147 459.263 162.592C460.5 162.037 461.417 161.227 462.015 160.16C462.655 159.051 462.975 157.664 462.975 156C462.975 153.44 462.249 151.648 460.799 150.624C459.391 149.6 457.215 149.088 454.271 149.088H450.943V163.424H454.463Z" fill="black"/>
<rect x="83.5" y="1600.5" width="599" height="399" rx="19.5" fill="white" stroke="black"/>
<path d="M295.626 1788V1742.3H309.962C315.296 1742.3 319.221 1743.52 321.738 1745.95C324.298 1748.34 325.578 1751.75 325.578 1756.19C325.578 1759.05 325.045 1761.61 323.979 1763.87C322.912 1766.13 321.184 1767.93 318.794 1769.25C316.405 1770.57 313.248 1771.23 309.322 1771.23H303.37V1788H295.626ZM308.49 1764.45C310.538 1764.45 312.224 1764.17 313.546 1763.62C314.912 1763.02 315.936 1762.14 316.618 1760.99C317.301 1759.8 317.642 1758.33 317.642 1756.58C317.642 1753.97 316.981 1752.07 315.658 1750.88C314.378 1749.69 312.352 1749.09 309.578 1749.09H303.37V1764.45H308.49ZM328.113 1788L341.553 1742.11H351.218L364.722 1788H356.722L348.337 1756.77C348.167 1755.96 347.953 1755.13 347.698 1754.27C347.484 1753.42 347.271 1752.52 347.057 1751.58C346.844 1750.65 346.631 1749.71 346.417 1748.77C346.204 1749.71 345.991 1750.65 345.778 1751.58C345.564 1752.52 345.351 1753.44 345.137 1754.34C344.924 1755.19 344.689 1756 344.434 1756.77L335.921 1788H328.113ZM337.649 1775.65L339.569 1768.93H353.265L354.417 1775.65H337.649ZM379.609 1788V1770.27L365.977 1742.3H374.425L383.577 1763.1L392.665 1742.3H401.049L387.481 1770.27V1788H379.609ZM406.912 1788V1742.3H434.944V1749.22H414.656V1760.8H433.92V1767.71H414.656V1781.09H434.944V1788H406.912ZM444.007 1788V1742.3H472.039V1749.22H451.751V1760.8H471.015V1767.71H451.751V1781.09H472.039V1788H444.007Z" fill="black"/>
<path d="M173.508 1870.4C172.015 1870.4 170.562 1870.27 169.148 1870C167.735 1869.71 166.548 1869.32 165.588 1868.84V1864.96C166.708 1865.47 167.975 1865.91 169.388 1866.28C170.802 1866.63 172.215 1866.8 173.628 1866.8C174.855 1866.8 175.895 1866.64 176.748 1866.32C177.602 1866 178.242 1865.51 178.668 1864.84C179.122 1864.17 179.348 1863.33 179.348 1862.32C179.348 1861.44 179.148 1860.75 178.748 1860.24C178.348 1859.71 177.682 1859.2 176.748 1858.72C175.842 1858.24 174.602 1857.64 173.028 1856.92C171.882 1856.39 170.775 1855.79 169.708 1855.12C168.668 1854.45 167.815 1853.61 167.148 1852.6C166.508 1851.56 166.188 1850.24 166.188 1848.64C166.188 1846.96 166.562 1845.56 167.308 1844.44C168.055 1843.32 169.108 1842.48 170.468 1841.92C171.855 1841.33 173.495 1841.04 175.388 1841.04C176.722 1841.04 178.068 1841.19 179.428 1841.48C180.788 1841.77 182.028 1842.19 183.148 1842.72L181.788 1846.16C180.775 1845.71 179.708 1845.36 178.588 1845.12C177.495 1844.85 176.442 1844.72 175.428 1844.72C174.442 1844.72 173.575 1844.87 172.828 1845.16C172.082 1845.43 171.508 1845.85 171.108 1846.44C170.735 1847.03 170.548 1847.8 170.548 1848.76C170.548 1849.67 170.735 1850.4 171.108 1850.96C171.482 1851.49 172.082 1851.97 172.908 1852.4C173.735 1852.83 174.788 1853.33 176.068 1853.92C177.588 1854.61 178.922 1855.29 180.068 1855.96C181.215 1856.63 182.108 1857.44 182.748 1858.4C183.388 1859.36 183.708 1860.65 183.708 1862.28C183.708 1863.59 183.482 1864.75 183.028 1865.76C182.575 1866.75 181.908 1867.59 181.028 1868.28C180.175 1868.97 179.122 1869.51 177.868 1869.88C176.615 1870.23 175.162 1870.4 173.508 1870.4ZM197.453 1870.4C195.266 1870.4 193.466 1869.99 192.053 1869.16C190.666 1868.31 189.653 1867.09 189.013 1865.52C188.373 1863.95 188.053 1862.09 188.053 1859.96V1841.44H192.293V1859.52C192.293 1861.01 192.453 1862.31 192.773 1863.4C193.119 1864.47 193.666 1865.28 194.413 1865.84C195.186 1866.4 196.226 1866.68 197.533 1866.68C198.919 1866.68 199.986 1866.39 200.733 1865.8C201.506 1865.19 202.039 1864.35 202.333 1863.28C202.626 1862.19 202.773 1860.92 202.773 1859.48V1841.44H207.013V1860C207.013 1862.03 206.693 1863.83 206.053 1865.4C205.439 1866.95 204.426 1868.17 203.013 1869.08C201.599 1869.96 199.746 1870.4 197.453 1870.4ZM212.357 1870V1841.44H220.397C223.384 1841.44 225.717 1841.97 227.397 1843.04C229.104 1844.11 229.957 1845.91 229.957 1848.44C229.957 1850.28 229.517 1851.75 228.637 1852.84C227.784 1853.91 226.597 1854.57 225.077 1854.84V1855.04C226.144 1855.25 227.091 1855.61 227.917 1856.12C228.771 1856.6 229.437 1857.29 229.917 1858.2C230.424 1859.08 230.677 1860.24 230.677 1861.68C230.677 1863.41 230.304 1864.91 229.557 1866.16C228.837 1867.41 227.797 1868.37 226.437 1869.04C225.077 1869.68 223.437 1870 221.517 1870H212.357ZM220.917 1866.4C222.944 1866.4 224.344 1865.96 225.117 1865.08C225.917 1864.2 226.317 1863.04 226.317 1861.6C226.317 1860.61 226.144 1859.77 225.797 1859.08C225.451 1858.39 224.864 1857.85 224.037 1857.48C223.237 1857.11 222.117 1856.92 220.677 1856.92H216.317V1866.4H220.917ZM220.597 1853.28C222.437 1853.28 223.731 1852.93 224.477 1852.24C225.251 1851.55 225.637 1850.49 225.637 1849.08C225.637 1847.64 225.224 1846.61 224.397 1846C223.571 1845.36 222.144 1845.04 220.117 1845.04H216.317V1853.28H220.597ZM233.782 1870V1841.44H239.742L243.822 1858.04H243.942L248.142 1841.44H254.022V1870H250.062V1857.16C250.062 1856.55 250.075 1855.89 250.102 1855.2C250.128 1854.48 250.155 1853.76 250.182 1853.04C250.208 1852.32 250.235 1851.61 250.262 1850.92C250.315 1850.2 250.355 1849.51 250.382 1848.84C250.435 1848.17 250.488 1847.56 250.542 1847C250.595 1846.44 250.635 1845.95 250.662 1845.52H250.462L245.902 1863H241.902L237.222 1845.48H237.022C237.075 1845.88 237.128 1846.36 237.182 1846.92C237.235 1847.45 237.288 1848.05 237.342 1848.72C237.395 1849.39 237.448 1850.09 237.502 1850.84C237.555 1851.56 237.595 1852.29 237.622 1853.04C237.648 1853.79 237.662 1854.52 237.662 1855.24C237.688 1855.96 237.702 1856.63 237.702 1857.24V1870H233.782ZM259.246 1870V1867.08L264.966 1866.52V1844.92L259.246 1844.36V1841.44H274.926V1844.36L269.126 1844.92V1866.52L274.926 1867.08V1870H259.246ZM288.15 1870V1845.16H279.91V1841.44H300.63V1845.16H292.39V1870H288.15ZM312.615 1870.4C311.121 1870.4 309.668 1870.27 308.255 1870C306.841 1869.71 305.655 1869.32 304.695 1868.84V1864.96C305.815 1865.47 307.081 1865.91 308.495 1866.28C309.908 1866.63 311.321 1866.8 312.735 1866.8C313.961 1866.8 315.001 1866.64 315.855 1866.32C316.708 1866 317.348 1865.51 317.775 1864.84C318.228 1864.17 318.455 1863.33 318.455 1862.32C318.455 1861.44 318.255 1860.75 317.855 1860.24C317.455 1859.71 316.788 1859.2 315.855 1858.72C314.948 1858.24 313.708 1857.64 312.135 1856.92C310.988 1856.39 309.881 1855.79 308.815 1855.12C307.775 1854.45 306.921 1853.61 306.255 1852.6C305.615 1851.56 305.295 1850.24 305.295 1848.64C305.295 1846.96 305.668 1845.56 306.415 1844.44C307.161 1843.32 308.215 1842.48 309.575 1841.92C310.961 1841.33 312.601 1841.04 314.495 1841.04C315.828 1841.04 317.175 1841.19 318.535 1841.48C319.895 1841.77 321.135 1842.19 322.255 1842.72L320.895 1846.16C319.881 1845.71 318.815 1845.36 317.695 1845.12C316.601 1844.85 315.548 1844.72 314.535 1844.72C313.548 1844.72 312.681 1844.87 311.935 1845.16C311.188 1845.43 310.615 1845.85 310.215 1846.44C309.841 1847.03 309.655 1847.8 309.655 1848.76C309.655 1849.67 309.841 1850.4 310.215 1850.96C310.588 1851.49 311.188 1851.97 312.015 1852.4C312.841 1852.83 313.895 1853.33 315.175 1853.92C316.695 1854.61 318.028 1855.29 319.175 1855.96C320.321 1856.63 321.215 1857.44 321.855 1858.4C322.495 1859.36 322.815 1860.65 322.815 1862.28C322.815 1863.59 322.588 1864.75 322.135 1865.76C321.681 1866.75 321.015 1867.59 320.135 1868.28C319.281 1868.97 318.228 1869.51 316.975 1869.88C315.721 1870.23 314.268 1870.4 312.615 1870.4ZM357.703 1870V1845.16H349.463V1841.44H370.183V1845.16H361.943V1870H357.703ZM374.648 1870V1841.44H381.608C383.848 1841.44 385.714 1841.76 387.208 1842.4C388.701 1843.01 389.821 1843.92 390.568 1845.12C391.341 1846.32 391.728 1847.81 391.728 1849.6C391.728 1851.04 391.501 1852.28 391.048 1853.32C390.594 1854.33 389.968 1855.19 389.168 1855.88C388.394 1856.55 387.501 1857.08 386.488 1857.48L393.968 1870H389.328L382.728 1858.6H378.888V1870H374.648ZM381.488 1854.96C382.874 1854.96 383.994 1854.77 384.848 1854.4C385.728 1854 386.368 1853.43 386.768 1852.68C387.194 1851.91 387.408 1850.97 387.408 1849.88C387.408 1848.12 386.914 1846.88 385.928 1846.16C384.968 1845.44 383.448 1845.08 381.368 1845.08H378.888V1854.96H381.488ZM394.872 1870L403.752 1841.32H408.592L417.512 1870H413.192L407.392 1850C407.286 1849.57 407.152 1849.12 406.992 1848.64C406.859 1848.13 406.712 1847.59 406.552 1847C406.419 1846.41 406.286 1845.84 406.152 1845.28C406.046 1845.84 405.912 1846.41 405.752 1847C405.619 1847.59 405.486 1848.13 405.352 1848.64C405.219 1849.15 405.099 1849.6 404.992 1850L399.112 1870H394.872ZM400.512 1861.72L401.712 1858.08H410.552L411.432 1861.72H400.512ZM419.897 1870V1841.44H425.577L435.097 1865H435.217C435.163 1864.17 435.11 1863.39 435.057 1862.64C435.03 1861.89 435.003 1861.17 434.977 1860.48C434.95 1859.76 434.923 1859.07 434.897 1858.4C434.897 1857.71 434.897 1857.01 434.897 1856.32V1841.44H438.857V1870H433.457L423.537 1845.6H423.377C423.43 1846.43 423.483 1847.24 423.537 1848.04C423.617 1848.81 423.67 1849.59 423.697 1850.36C423.75 1851.11 423.79 1851.84 423.817 1852.56C423.843 1853.25 423.857 1853.92 423.857 1854.56V1870H419.897ZM451.721 1870.4C450.228 1870.4 448.774 1870.27 447.361 1870C445.948 1869.71 444.761 1869.32 443.801 1868.84V1864.96C444.921 1865.47 446.188 1865.91 447.601 1866.28C449.014 1866.63 450.428 1866.8 451.841 1866.8C453.068 1866.8 454.108 1866.64 454.961 1866.32C455.814 1866 456.454 1865.51 456.881 1864.84C457.334 1864.17 457.561 1863.33 457.561 1862.32C457.561 1861.44 457.361 1860.75 456.961 1860.24C456.561 1859.71 455.894 1859.2 454.961 1858.72C454.054 1858.24 452.814 1857.64 451.241 1856.92C450.094 1856.39 448.988 1855.79 447.921 1855.12C446.881 1854.45 446.028 1853.61 445.361 1852.6C444.721 1851.56 444.401 1850.24 444.401 1848.64C444.401 1846.96 444.774 1845.56 445.521 1844.44C446.268 1843.32 447.321 1842.48 448.681 1841.92C450.068 1841.33 451.708 1841.04 453.601 1841.04C454.934 1841.04 456.281 1841.19 457.641 1841.48C459.001 1841.77 460.241 1842.19 461.361 1842.72L460.001 1846.16C458.988 1845.71 457.921 1845.36 456.801 1845.12C455.708 1844.85 454.654 1844.72 453.641 1844.72C452.654 1844.72 451.788 1844.87 451.041 1845.16C450.294 1845.43 449.721 1845.85 449.321 1846.44C448.948 1847.03 448.761 1847.8 448.761 1848.76C448.761 1849.67 448.948 1850.4 449.321 1850.96C449.694 1851.49 450.294 1851.97 451.121 1852.4C451.948 1852.83 453.001 1853.33 454.281 1853.92C455.801 1854.61 457.134 1855.29 458.281 1855.96C459.428 1856.63 460.321 1857.44 460.961 1858.4C461.601 1859.36 461.921 1860.65 461.921 1862.28C461.921 1863.59 461.694 1864.75 461.241 1865.76C460.788 1866.75 460.121 1867.59 459.241 1868.28C458.388 1868.97 457.334 1869.51 456.081 1869.88C454.828 1870.23 453.374 1870.4 451.721 1870.4ZM464.425 1870L473.305 1841.32H478.145L487.065 1870H482.745L476.945 1850C476.839 1849.57 476.705 1849.12 476.545 1848.64C476.412 1848.13 476.265 1847.59 476.105 1847C475.972 1846.41 475.839 1845.84 475.705 1845.28C475.599 1845.84 475.465 1846.41 475.305 1847C475.172 1847.59 475.039 1848.13 474.905 1848.64C474.772 1849.15 474.652 1849.6 474.545 1850L468.665 1870H464.425ZM470.065 1861.72L471.265 1858.08H480.105L480.985 1861.72H470.065ZM501.37 1870.4C498.57 1870.4 496.29 1869.79 494.53 1868.56C492.77 1867.33 491.463 1865.64 490.61 1863.48C489.783 1861.29 489.37 1858.76 489.37 1855.88C489.37 1853.59 489.636 1851.53 490.17 1849.72C490.73 1847.88 491.543 1846.32 492.61 1845.04C493.703 1843.73 495.023 1842.75 496.57 1842.08C498.116 1841.39 499.903 1841.04 501.93 1841.04C503.316 1841.04 504.583 1841.19 505.73 1841.48C506.903 1841.77 508.01 1842.19 509.05 1842.72L507.53 1846.16C506.65 1845.71 505.716 1845.37 504.73 1845.16C503.743 1844.92 502.783 1844.8 501.85 1844.8C500.49 1844.8 499.29 1845.05 498.25 1845.56C497.236 1846.04 496.396 1846.76 495.73 1847.72C495.063 1848.65 494.556 1849.8 494.21 1851.16C493.89 1852.52 493.73 1854.08 493.73 1855.84C493.73 1858.11 493.996 1860.04 494.53 1861.64C495.09 1863.24 495.956 1864.47 497.13 1865.32C498.303 1866.15 499.823 1866.56 501.69 1866.56C502.623 1866.56 503.596 1866.45 504.61 1866.24C505.65 1866.03 506.73 1865.68 507.85 1865.2V1869.16C506.756 1869.59 505.676 1869.89 504.61 1870.08C503.57 1870.29 502.49 1870.4 501.37 1870.4ZM519.994 1870V1845.16H511.754V1841.44H532.474V1845.16H524.234V1870H519.994ZM537.458 1870V1867.08L543.178 1866.52V1844.92L537.458 1844.36V1841.44H553.138V1844.36L547.338 1844.92V1866.52L553.138 1867.08V1870H537.458ZM568.443 1870.4C566.629 1870.4 565.069 1870.05 563.763 1869.36C562.483 1868.67 561.416 1867.68 560.563 1866.4C559.709 1865.09 559.083 1863.55 558.683 1861.76C558.309 1859.95 558.123 1857.93 558.123 1855.72C558.123 1852.73 558.483 1850.13 559.203 1847.92C559.923 1845.71 561.043 1844 562.563 1842.8C564.109 1841.57 566.083 1840.96 568.483 1840.96C570.296 1840.96 571.856 1841.31 573.163 1842C574.469 1842.67 575.536 1843.65 576.363 1844.96C577.216 1846.27 577.843 1847.81 578.243 1849.6C578.643 1851.39 578.843 1853.4 578.843 1855.64C578.843 1857.88 578.643 1859.91 578.243 1861.72C577.843 1863.53 577.216 1865.09 576.363 1866.4C575.536 1867.68 574.456 1868.67 573.123 1869.36C571.816 1870.05 570.256 1870.4 568.443 1870.4ZM568.523 1866.68C569.989 1866.68 571.163 1866.25 572.043 1865.4C572.923 1864.52 573.549 1863.27 573.923 1861.64C574.323 1859.99 574.523 1858 574.523 1855.68C574.523 1852.19 574.069 1849.48 573.163 1847.56C572.256 1845.64 570.709 1844.68 568.523 1844.68C567.056 1844.68 565.869 1845.12 564.963 1846C564.083 1846.85 563.443 1848.11 563.043 1849.76C562.643 1851.39 562.443 1853.36 562.443 1855.68C562.443 1858 562.643 1859.99 563.043 1861.64C563.443 1863.27 564.083 1864.52 564.963 1865.4C565.869 1866.25 567.056 1866.68 568.523 1866.68ZM582.187 1870V1841.44H587.867L597.387 1865H597.507C597.454 1864.17 597.401 1863.39 597.347 1862.64C597.321 1861.89 597.294 1861.17 597.267 1860.48C597.241 1859.76 597.214 1859.07 597.187 1858.4C597.187 1857.71 597.187 1857.01 597.187 1856.32V1841.44H601.147V1870H595.747L585.827 1845.6H585.667C585.721 1846.43 585.774 1847.24 585.827 1848.04C585.907 1848.81 585.961 1849.59 585.987 1850.36C586.041 1851.11 586.081 1851.84 586.107 1852.56C586.134 1853.25 586.147 1853.92 586.147 1854.56V1870H582.187Z" fill="black"/>
<path d="M0.950309 616L9.83031 587.32H14.6703L23.5903 616H19.2703L13.4703 596C13.3636 595.573 13.2303 595.12 13.0703 594.64C12.937 594.133 12.7903 593.587 12.6303 593C12.497 592.413 12.3636 591.84 12.2303 591.28C12.1236 591.84 11.9903 592.413 11.8303 593C11.697 593.587 11.5636 594.133 11.4303 594.64C11.297 595.147 11.177 595.6 11.0703 596L5.19031 616H0.950309ZM6.59031 607.72L7.79031 604.08H16.6303L17.5103 607.72H6.59031ZM35.3747 616.4C33.188 616.4 31.388 615.987 29.9747 615.16C28.588 614.307 27.5747 613.093 26.9347 611.52C26.2947 609.947 25.9747 608.093 25.9747 605.96V587.44H30.2147V605.52C30.2147 607.013 30.3747 608.307 30.6947 609.4C31.0414 610.467 31.588 611.28 32.3347 611.84C33.108 612.4 34.148 612.68 35.4547 612.68C36.8414 612.68 37.908 612.387 38.6547 611.8C39.428 611.187 39.9614 610.347 40.2547 609.28C40.548 608.187 40.6947 606.92 40.6947 605.48V587.44H44.9347V606C44.9347 608.027 44.6147 609.827 43.9747 611.4C43.3614 612.947 42.348 614.173 40.9347 615.08C39.5214 615.96 37.668 616.4 35.3747 616.4ZM56.5191 616V591.16H48.2791V587.44H68.9991V591.16H60.7591V616H56.5191ZM72.3434 616V587.44H76.5834V599.24H87.0634V587.44H91.3034V616H87.0634V602.96H76.5834V616H72.3434ZM104.968 616.4C103.154 616.4 101.594 616.053 100.288 615.36C99.0078 614.667 97.9411 613.68 97.0878 612.4C96.2345 611.093 95.6078 609.547 95.2078 607.76C94.8345 605.947 94.6478 603.933 94.6478 601.72C94.6478 598.733 95.0078 596.133 95.7278 593.92C96.4478 591.707 97.5678 590 99.0878 588.8C100.634 587.573 102.608 586.96 105.008 586.96C106.821 586.96 108.381 587.307 109.688 588C110.994 588.667 112.061 589.653 112.888 590.96C113.741 592.267 114.368 593.813 114.768 595.6C115.168 597.387 115.368 599.4 115.368 601.64C115.368 603.88 115.168 605.907 114.768 607.72C114.368 609.533 113.741 611.093 112.888 612.4C112.061 613.68 110.981 614.667 109.648 615.36C108.341 616.053 106.781 616.4 104.968 616.4ZM105.048 612.68C106.514 612.68 107.688 612.253 108.568 611.4C109.448 610.52 110.074 609.267 110.448 607.64C110.848 605.987 111.048 604 111.048 601.68C111.048 598.187 110.594 595.48 109.688 593.56C108.781 591.64 107.234 590.68 105.048 590.68C103.581 590.68 102.394 591.12 101.488 592C100.608 592.853 99.9678 594.107 99.5678 595.76C99.1678 597.387 98.9678 599.36 98.9678 601.68C98.9678 604 99.1678 605.987 99.5678 607.64C99.9678 609.267 100.608 610.52 101.488 611.4C102.394 612.253 103.581 612.68 105.048 612.68ZM119.832 616V587.44H126.792C129.032 587.44 130.899 587.76 132.392 588.4C133.886 589.013 135.006 589.92 135.752 591.12C136.526 592.32 136.912 593.813 136.912 595.6C136.912 597.04 136.686 598.28 136.232 599.32C135.779 600.333 135.152 601.187 134.352 601.88C133.579 602.547 132.686 603.08 131.672 603.48L139.152 616H134.512L127.912 604.6H124.072V616H119.832ZM126.672 600.96C128.059 600.96 129.179 600.773 130.032 600.4C130.912 600 131.552 599.427 131.952 598.68C132.379 597.907 132.592 596.973 132.592 595.88C132.592 594.12 132.099 592.88 131.112 592.16C130.152 591.44 128.632 591.08 126.552 591.08H124.072V600.96H126.672ZM143.537 616V613.08L149.257 612.52V590.92L143.537 590.36V587.44H159.217V590.36L153.417 590.92V612.52L159.217 613.08V616H143.537ZM166.201 616V612.84L178.481 591.08H167.041V587.44H183.041V590.6L170.801 612.28H183.041V616H166.201ZM189.385 616V587.44H206.505V591.16H193.545V599.24H205.825V602.96H193.545V612.28H206.505V616H189.385Z" fill="black"/>
<path d="M519.846 616L510.926 587.44H515.286L520.486 605.52C520.699 606.187 520.899 606.907 521.086 607.68C521.273 608.453 521.459 609.213 521.646 609.96C521.833 610.707 521.979 611.387 522.086 612H522.286C522.393 611.387 522.526 610.72 522.686 610C522.873 609.253 523.059 608.493 523.246 607.72C523.433 606.92 523.619 606.16 523.806 605.44L528.846 587.44H533.246L524.406 616H519.846ZM545.23 616.4C543.417 616.4 541.857 616.053 540.55 615.36C539.27 614.667 538.204 613.68 537.35 612.4C536.497 611.093 535.87 609.547 535.47 607.76C535.097 605.947 534.91 603.933 534.91 601.72C534.91 598.733 535.27 596.133 535.99 593.92C536.71 591.707 537.83 590 539.35 588.8C540.897 587.573 542.87 586.96 545.27 586.96C547.084 586.96 548.644 587.307 549.95 588C551.257 588.667 552.324 589.653 553.15 590.96C554.004 592.267 554.63 593.813 555.03 595.6C555.43 597.387 555.63 599.4 555.63 601.64C555.63 603.88 555.43 605.907 555.03 607.72C554.63 609.533 554.004 611.093 553.15 612.4C552.324 613.68 551.244 614.667 549.91 615.36C548.604 616.053 547.044 616.4 545.23 616.4ZM545.31 612.68C546.777 612.68 547.95 612.253 548.83 611.4C549.71 610.52 550.337 609.267 550.71 607.64C551.11 605.987 551.31 604 551.31 601.68C551.31 598.187 550.857 595.48 549.95 593.56C549.044 591.64 547.497 590.68 545.31 590.68C543.844 590.68 542.657 591.12 541.75 592C540.87 592.853 540.23 594.107 539.83 595.76C539.43 597.387 539.23 599.36 539.23 601.68C539.23 604 539.43 605.987 539.83 607.64C540.23 609.267 540.87 610.52 541.75 611.4C542.657 612.253 543.844 612.68 545.31 612.68ZM560.615 616V613.08L566.335 612.52V590.92L560.615 590.36V587.44H576.295V590.36L570.495 590.92V612.52L576.295 613.08V616H560.615ZM582.159 616V587.44H589.639C592.146 587.44 594.319 587.973 596.159 589.04C598.026 590.107 599.466 591.68 600.479 593.76C601.492 595.813 601.999 598.373 601.999 601.44C601.999 604.613 601.479 607.28 600.439 609.44C599.399 611.6 597.906 613.24 595.959 614.36C594.012 615.453 591.666 616 588.919 616H582.159ZM588.599 612.36C591.719 612.36 594.012 611.453 595.479 609.64C596.946 607.8 597.679 605.107 597.679 601.56C597.679 599.133 597.346 597.16 596.679 595.64C596.039 594.093 595.092 592.947 593.839 592.2C592.586 591.453 591.066 591.08 589.279 591.08H586.359V612.36H588.599ZM607.383 616.04L618.343 587.4H622.263L611.303 616.04H607.383ZM629.648 616V587.44H636.608C638.848 587.44 640.714 587.76 642.208 588.4C643.701 589.013 644.821 589.92 645.568 591.12C646.341 592.32 646.728 593.813 646.728 595.6C646.728 597.04 646.501 598.28 646.048 599.32C645.594 600.333 644.968 601.187 644.168 601.88C643.394 602.547 642.501 603.08 641.488 603.48L648.968 616H644.328L637.728 604.6H633.888V616H629.648ZM636.488 600.96C637.874 600.96 638.994 600.773 639.848 600.4C640.728 600 641.368 599.427 641.768 598.68C642.194 597.907 642.408 596.973 642.408 595.88C642.408 594.12 641.914 592.88 640.928 592.16C639.968 591.44 638.448 591.08 636.368 591.08H633.888V600.96H636.488ZM652.832 616V587.44H669.952V591.16H656.992V599.24H669.272V602.96H656.992V612.28H669.952V616H652.832ZM676.017 616V587.44H693.137V591.16H680.177V600.48H692.457V604.2H680.177V616H676.017ZM707.481 616.4C705.294 616.4 703.494 615.987 702.081 615.16C700.694 614.307 699.681 613.093 699.041 611.52C698.401 609.947 698.081 608.093 698.081 605.96V587.44H702.321V605.52C702.321 607.013 702.481 608.307 702.801 609.4C703.148 610.467 703.694 611.28 704.441 611.84C705.214 612.4 706.254 612.68 707.561 612.68C708.948 612.68 710.014 612.387 710.761 611.8C711.534 611.187 712.068 610.347 712.361 609.28C712.654 608.187 712.801 606.92 712.801 605.48V587.44H717.041V606C717.041 608.027 716.721 609.827 716.081 611.4C715.468 612.947 714.454 614.173 713.041 615.08C711.628 615.96 709.774 616.4 707.481 616.4ZM721.265 616V587.44H726.945L736.465 611H736.585C736.532 610.173 736.479 609.387 736.425 608.64C736.399 607.893 736.372 607.173 736.345 606.48C736.319 605.76 736.292 605.067 736.265 604.4C736.265 603.707 736.265 603.013 736.265 602.32V587.44H740.225V616H734.825L724.905 591.6H724.745C724.799 592.427 724.852 593.24 724.905 594.04C724.985 594.813 725.039 595.587 725.065 596.36C725.119 597.107 725.159 597.84 725.185 598.56C725.212 599.253 725.225 599.92 725.225 600.56V616H721.265ZM744.45 616V587.44H751.93C754.436 587.44 756.61 587.973 758.45 589.04C760.316 590.107 761.756 591.68 762.77 593.76C763.783 595.813 764.29 598.373 764.29 601.44C764.29 604.613 763.77 607.28 762.73 609.44C761.69 611.6 760.196 613.24 758.25 614.36C756.303 615.453 753.956 616 751.21 616H744.45ZM750.89 612.36C754.01 612.36 756.303 611.453 757.77 609.64C759.236 607.8 759.97 605.107 759.97 601.56C759.97 599.133 759.636 597.16 758.97 595.64C758.33 594.093 757.383 592.947 756.13 592.2C754.876 591.453 753.356 591.08 751.57 591.08H748.65V612.36H750.89Z" fill="black"/>
<path d="M258.586 801.414C259.367 802.195 260.633 802.195 261.414 801.414L274.142 788.686C274.923 787.905 274.923 786.639 274.142 785.858C273.361 785.077 272.095 785.077 271.314 785.858L260 797.172L248.686 785.858C247.905 785.077 246.639 785.077 245.858 785.858C245.077 786.639 245.077 787.905 245.858 788.686L258.586 801.414ZM260 400H258V800H260H262V400H260Z" fill="black"/>
<path d="M461.414 398.586C460.633 397.805 459.367 397.805 458.586 398.586L445.858 411.314C445.077 412.095 445.077 413.361 445.858 414.142C446.639 414.923 447.905 414.923 448.686 414.142L460 402.828L471.314 414.142C472.095 414.923 473.361 414.923 474.142 414.142C474.923 413.361 474.923 412.095 474.142 411.314L461.414 398.586ZM460 400H458V800H460H462V400H460Z" fill="black"/>
<path d="M938.095 616.668V588.108H945.055C947.295 588.108 949.161 588.428 950.655 589.068C952.148 589.682 953.268 590.588 954.015 591.788C954.788 592.988 955.175 594.482 955.175 596.268C955.175 597.708 954.948 598.948 954.495 599.988C954.041 601.002 953.415 601.855 952.615 602.548C951.841 603.215 950.948 603.748 949.935 604.148L957.415 616.668H952.775L946.175 605.268H942.335V616.668H938.095ZM944.935 601.628C946.321 601.628 947.441 601.442 948.295 601.068C949.175 600.668 949.815 600.095 950.215 599.348C950.641 598.575 950.855 597.642 950.855 596.548C950.855 594.788 950.361 593.548 949.375 592.828C948.415 592.108 946.895 591.748 944.815 591.748H942.335V601.628H944.935ZM961.279 616.668V588.108H978.399V591.828H965.439V599.908H977.719V603.628H965.439V612.948H978.399V616.668H961.279ZM985.144 616.668V588.108H989.384V612.828H1001.58V616.668H985.144ZM1007.65 616.668V588.108H1024.77V591.828H1011.81V599.908H1024.09V603.628H1011.81V612.948H1024.77V616.668H1007.65ZM1027.87 616.668L1036.75 587.988H1041.59L1050.51 616.668H1046.19L1040.39 596.668C1040.29 596.242 1040.15 595.788 1039.99 595.308C1039.86 594.802 1039.71 594.255 1039.55 593.668C1039.42 593.082 1039.29 592.508 1039.15 591.948C1039.05 592.508 1038.91 593.082 1038.75 593.668C1038.62 594.255 1038.49 594.802 1038.35 595.308C1038.22 595.815 1038.1 596.268 1037.99 596.668L1032.11 616.668H1027.87ZM1033.51 608.388L1034.71 604.748H1043.55L1044.43 608.388H1033.51ZM1061.54 617.068C1060.04 617.068 1058.59 616.935 1057.18 616.668C1055.76 616.375 1054.58 615.988 1053.62 615.508V611.628C1054.74 612.135 1056 612.575 1057.42 612.948C1058.83 613.295 1060.24 613.468 1061.66 613.468C1062.88 613.468 1063.92 613.308 1064.78 612.988C1065.63 612.668 1066.27 612.175 1066.7 611.508C1067.15 610.842 1067.38 610.002 1067.38 608.988C1067.38 608.108 1067.18 607.415 1066.78 606.908C1066.38 606.375 1065.71 605.868 1064.78 605.388C1063.87 604.908 1062.63 604.308 1061.06 603.588C1059.91 603.055 1058.8 602.455 1057.74 601.788C1056.7 601.122 1055.84 600.282 1055.18 599.268C1054.54 598.228 1054.22 596.908 1054.22 595.308C1054.22 593.628 1054.59 592.228 1055.34 591.108C1056.08 589.988 1057.14 589.148 1058.5 588.588C1059.88 588.002 1061.52 587.708 1063.42 587.708C1064.75 587.708 1066.1 587.855 1067.46 588.148C1068.82 588.442 1070.06 588.855 1071.18 589.388L1069.82 592.828C1068.8 592.375 1067.74 592.028 1066.62 591.788C1065.52 591.522 1064.47 591.388 1063.46 591.388C1062.47 591.388 1061.6 591.535 1060.86 591.828C1060.11 592.095 1059.54 592.522 1059.14 593.108C1058.76 593.695 1058.58 594.468 1058.58 595.428C1058.58 596.335 1058.76 597.068 1059.14 597.628C1059.51 598.162 1060.11 598.642 1060.94 599.068C1061.76 599.495 1062.82 600.002 1064.1 600.588C1065.62 601.282 1066.95 601.962 1068.1 602.628C1069.24 603.295 1070.14 604.108 1070.78 605.068C1071.42 606.028 1071.74 607.322 1071.74 608.948C1071.74 610.255 1071.51 611.415 1071.06 612.428C1070.6 613.415 1069.94 614.255 1069.06 614.948C1068.2 615.642 1067.15 616.175 1065.9 616.548C1064.64 616.895 1063.19 617.068 1061.54 617.068ZM1077.2 616.668V588.108H1094.32V591.828H1081.36V599.908H1093.64V603.628H1081.36V612.948H1094.32V616.668H1077.2Z" fill="black"/>
<path d="M682.585 201.572C681.804 200.79 681.805 199.524 682.586 198.743L695.32 186.015C696.102 185.234 697.368 185.234 698.149 186.015C698.929 186.796 698.929 188.063 698.147 188.844L686.828 200.157L698.137 211.471C698.918 212.252 698.917 213.519 698.136 214.3C697.354 215.081 696.088 215.081 695.307 214.3L682.585 201.572ZM862.994 200.159L862.995 198.159L862.994 200.159ZM882.985 220.15L884.985 220.149L884.985 220.149L882.985 220.15ZM883 982.832L881 982.833V982.833L883 982.832ZM862.991 1002.84L862.992 1000.84V1000.84L862.991 1002.84ZM684 200.157L684.001 198.157L862.995 198.159L862.994 200.159L862.993 202.159L683.999 202.157L684 200.157ZM882.985 220.15L884.985 220.149L885 982.831L883 982.832L881 982.833L880.985 220.151L882.985 220.15ZM862.991 1002.84L862.99 1004.84L682.999 1004.84L683 1002.84L683.001 1000.84L862.992 1000.84L862.991 1002.84ZM883 982.832L885 982.831C885 994.986 875.144 1004.84 862.99 1004.84L862.991 1002.84L862.992 1000.84C872.936 1000.84 881 992.778 881 982.833L883 982.832ZM862.994 200.159L862.995 198.159C875.141 198.16 884.985 208.003 884.985 220.149L882.985 220.15L880.985 220.151C880.985 210.213 872.931 202.16 862.993 202.159L862.994 200.159Z" fill="black"/>
<path d="M95.8947 1416.4C93.0947 1416.4 90.8147 1415.79 89.0547 1414.56C87.2947 1413.33 85.988 1411.64 85.1347 1409.48C84.308 1407.29 83.8947 1404.76 83.8947 1401.88C83.8947 1399.59 84.1614 1397.53 84.6947 1395.72C85.2547 1393.88 86.068 1392.32 87.1347 1391.04C88.228 1389.73 89.548 1388.75 91.0947 1388.08C92.6414 1387.39 94.428 1387.04 96.4547 1387.04C97.8414 1387.04 99.108 1387.19 100.255 1387.48C101.428 1387.77 102.535 1388.19 103.575 1388.72L102.055 1392.16C101.175 1391.71 100.241 1391.37 99.2547 1391.16C98.268 1390.92 97.308 1390.8 96.3747 1390.8C95.0147 1390.8 93.8147 1391.05 92.7747 1391.56C91.7614 1392.04 90.9214 1392.76 90.2547 1393.72C89.588 1394.65 89.0814 1395.8 88.7347 1397.16C88.4147 1398.52 88.2547 1400.08 88.2547 1401.84C88.2547 1404.11 88.5214 1406.04 89.0547 1407.64C89.6147 1409.24 90.4814 1410.47 91.6547 1411.32C92.828 1412.15 94.348 1412.56 96.2147 1412.56C97.148 1412.56 98.1214 1412.45 99.1347 1412.24C100.175 1412.03 101.255 1411.68 102.375 1411.2V1415.16C101.281 1415.59 100.201 1415.89 99.1347 1416.08C98.0947 1416.29 97.0147 1416.4 95.8947 1416.4ZM105.319 1416L114.199 1387.32H119.039L127.959 1416H123.639L117.839 1396C117.732 1395.57 117.599 1395.12 117.439 1394.64C117.306 1394.13 117.159 1393.59 116.999 1393C116.866 1392.41 116.732 1391.84 116.599 1391.28C116.492 1391.84 116.359 1392.41 116.199 1393C116.066 1393.59 115.932 1394.13 115.799 1394.64C115.666 1395.15 115.546 1395.6 115.439 1396L109.559 1416H105.319ZM110.959 1407.72L112.159 1404.08H120.999L121.879 1407.72H110.959ZM131.463 1416V1387.44H139.983C143.37 1387.44 145.85 1388.19 147.423 1389.68C148.997 1391.15 149.783 1393.24 149.783 1395.96C149.783 1397.61 149.45 1399.16 148.783 1400.6C148.143 1402.01 147.063 1403.15 145.543 1404C144.05 1404.83 142.037 1405.24 139.503 1405.24H135.623V1416H131.463ZM139.063 1401.6C140.503 1401.6 141.703 1401.41 142.663 1401.04C143.623 1400.64 144.33 1400.04 144.783 1399.24C145.263 1398.44 145.503 1397.41 145.503 1396.16C145.503 1394.35 145.037 1393.05 144.103 1392.28C143.17 1391.48 141.703 1391.08 139.703 1391.08H135.623V1401.6H139.063ZM160.888 1416V1391.16H152.648V1387.44H173.368V1391.16H165.128V1416H160.888ZM186.112 1416.4C183.926 1416.4 182.126 1415.99 180.712 1415.16C179.326 1414.31 178.312 1413.09 177.672 1411.52C177.032 1409.95 176.712 1408.09 176.712 1405.96V1387.44H180.952V1405.52C180.952 1407.01 181.112 1408.31 181.432 1409.4C181.779 1410.47 182.326 1411.28 183.072 1411.84C183.846 1412.4 184.886 1412.68 186.192 1412.68C187.579 1412.68 188.646 1412.39 189.392 1411.8C190.166 1411.19 190.699 1410.35 190.992 1409.28C191.286 1408.19 191.432 1406.92 191.432 1405.48V1387.44H195.672V1406C195.672 1408.03 195.352 1409.83 194.712 1411.4C194.099 1412.95 193.086 1414.17 191.672 1415.08C190.259 1415.96 188.406 1416.4 186.112 1416.4ZM201.017 1416V1387.44H207.977C210.217 1387.44 212.083 1387.76 213.577 1388.4C215.07 1389.01 216.19 1389.92 216.937 1391.12C217.71 1392.32 218.097 1393.81 218.097 1395.6C218.097 1397.04 217.87 1398.28 217.417 1399.32C216.963 1400.33 216.337 1401.19 215.537 1401.88C214.763 1402.55 213.87 1403.08 212.857 1403.48L220.337 1416H215.697L209.097 1404.6H205.257V1416H201.017ZM207.857 1400.96C209.243 1400.96 210.363 1400.77 211.217 1400.4C212.097 1400 212.737 1399.43 213.137 1398.68C213.563 1397.91 213.777 1396.97 213.777 1395.88C213.777 1394.12 213.283 1392.88 212.297 1392.16C211.337 1391.44 209.817 1391.08 207.737 1391.08H205.257V1400.96H207.857ZM224.201 1416V1387.44H241.321V1391.16H228.361V1399.24H240.641V1402.96H228.361V1412.28H241.321V1416H224.201Z" fill="black"/>
<path d="M548.687 1416V1387.44H555.647C557.887 1387.44 559.754 1387.76 561.247 1388.4C562.74 1389.01 563.86 1389.92 564.607 1391.12C565.38 1392.32 565.767 1393.81 565.767 1395.6C565.767 1397.04 565.54 1398.28 565.087 1399.32C564.634 1400.33 564.007 1401.19 563.207 1401.88C562.434 1402.55 561.54 1403.08 560.527 1403.48L568.007 1416H563.367L556.767 1404.6H552.927V1416H548.687ZM555.527 1400.96C556.914 1400.96 558.034 1400.77 558.887 1400.4C559.767 1400 560.407 1399.43 560.807 1398.68C561.234 1397.91 561.447 1396.97 561.447 1395.88C561.447 1394.12 560.954 1392.88 559.967 1392.16C559.007 1391.44 557.487 1391.08 555.407 1391.08H552.927V1400.96H555.527ZM571.871 1416V1387.44H588.991V1391.16H576.031V1399.24H588.311V1402.96H576.031V1412.28H588.991V1416H571.871ZM595.056 1416V1387.44H612.176V1391.16H599.216V1400.48H611.496V1404.2H599.216V1416H595.056ZM626.52 1416.4C624.333 1416.4 622.533 1415.99 621.12 1415.16C619.733 1414.31 618.72 1413.09 618.08 1411.52C617.44 1409.95 617.12 1408.09 617.12 1405.96V1387.44H621.36V1405.52C621.36 1407.01 621.52 1408.31 621.84 1409.4C622.187 1410.47 622.733 1411.28 623.48 1411.84C624.253 1412.4 625.293 1412.68 626.6 1412.68C627.987 1412.68 629.053 1412.39 629.8 1411.8C630.573 1411.19 631.107 1410.35 631.4 1409.28C631.693 1408.19 631.84 1406.92 631.84 1405.48V1387.44H636.08V1406C636.08 1408.03 635.76 1409.83 635.12 1411.4C634.507 1412.95 633.493 1414.17 632.08 1415.08C630.667 1415.96 628.813 1416.4 626.52 1416.4ZM640.304 1416V1387.44H645.984L655.504 1411H655.624C655.571 1410.17 655.518 1409.39 655.464 1408.64C655.438 1407.89 655.411 1407.17 655.384 1406.48C655.358 1405.76 655.331 1405.07 655.304 1404.4C655.304 1403.71 655.304 1403.01 655.304 1402.32V1387.44H659.264V1416H653.864L643.944 1391.6H643.784C643.838 1392.43 643.891 1393.24 643.944 1394.04C644.024 1394.81 644.078 1395.59 644.104 1396.36C644.158 1397.11 644.198 1397.84 644.224 1398.56C644.251 1399.25 644.264 1399.92 644.264 1400.56V1416H640.304ZM663.489 1416V1387.44H670.969C673.475 1387.44 675.649 1387.97 677.489 1389.04C679.355 1390.11 680.795 1391.68 681.809 1393.76C682.822 1395.81 683.329 1398.37 683.329 1401.44C683.329 1404.61 682.809 1407.28 681.769 1409.44C680.729 1411.6 679.235 1413.24 677.289 1414.36C675.342 1415.45 672.995 1416 670.249 1416H663.489ZM669.929 1412.36C673.049 1412.36 675.342 1411.45 676.809 1409.64C678.275 1407.8 679.009 1405.11 679.009 1401.56C679.009 1399.13 678.675 1397.16 678.009 1395.64C677.369 1394.09 676.422 1392.95 675.169 1392.2C673.915 1391.45 672.395 1391.08 670.609 1391.08H667.689V1412.36H669.929Z" fill="black"/>
<path d="M293.586 1601.41C294.367 1602.2 295.633 1602.2 296.414 1601.41L309.142 1588.69C309.923 1587.91 309.923 1586.64 309.142 1585.86C308.361 1585.08 307.095 1585.08 306.314 1585.86L295 1597.17L283.686 1585.86C282.905 1585.08 281.639 1585.08 280.858 1585.86C280.077 1586.64 280.077 1587.91 280.858 1588.69L293.586 1601.41ZM295 1200H293V1600H295H297V1200H295Z" fill="black"/>
<path d="M496.414 1198.59C495.633 1197.8 494.367 1197.8 493.586 1198.59L480.858 1211.31C480.077 1212.09 480.077 1213.36 480.858 1214.14C481.639 1214.92 482.905 1214.92 483.686 1214.14L495 1202.83L506.314 1214.14C507.095 1214.92 508.361 1214.92 509.142 1214.14C509.923 1213.36 509.923 1212.09 509.142 1211.31L496.414 1198.59ZM495 1200H493V1600H495H497V1200H495Z" fill="black"/>
</svg>
