<svg width="1002" height="174" viewBox="0 0 1002 174" fill="none" xmlns="http://www.w3.org/2000/svg">
<path d="M7.373 137V128.168L27.469 125.736V79.272L9.805 77.48V68.008H38.093L39.885 80.296H40.525C42.9143 75.944 45.6023 72.616 48.589 70.312C51.661 67.9227 55.5863 66.728 60.365 66.728C62.8397 66.728 65.1863 66.9413 67.405 67.368C69.709 67.7947 71.8423 68.4773 73.805 69.416L70.221 81.576C68.8557 80.8933 67.2343 80.3387 65.357 79.912C63.565 79.4 61.645 79.144 59.597 79.144C55.8423 79.144 52.557 80.2107 49.741 82.344C47.0103 84.4773 44.877 87.336 43.341 90.92C41.8903 94.504 41.165 98.472 41.165 102.824V125.736L60.621 128.168V137H7.373ZM99.867 138.28C92.955 138.28 87.4937 136.531 83.483 133.032C79.4723 129.533 77.467 124.456 77.467 117.8C77.467 112.765 78.619 108.627 80.923 105.384C83.3123 102.056 86.7683 99.5813 91.291 97.96C95.899 96.2533 101.446 95.3147 107.931 95.144L122.907 94.76V91.816C122.907 86.5253 121.456 82.856 118.555 80.808C115.739 78.76 111.814 77.736 106.779 77.736C103.28 77.736 99.867 78.1627 96.539 79.016C93.211 79.8693 89.9257 81.1067 86.683 82.728L82.203 72.744C85.6163 71.0373 89.371 69.6293 93.467 68.52C97.6483 67.3253 102.299 66.728 107.419 66.728C116.379 66.728 123.291 68.6907 128.155 72.616C133.019 76.5413 135.451 82.6427 135.451 90.92V137H124.827L123.035 127.656H122.523C120.56 130.131 118.427 132.136 116.123 133.672C113.904 135.208 111.43 136.36 108.699 137.128C105.968 137.896 103.024 138.28 99.867 138.28ZM103.195 127.4C106.779 127.4 110.064 126.76 113.051 125.48C116.038 124.115 118.427 122.152 120.219 119.592C122.011 116.947 122.907 113.704 122.907 109.864V103.848L111.131 104.104C106.267 104.275 102.299 104.872 99.227 105.896C96.2403 106.92 94.0217 108.371 92.571 110.248C91.2057 112.125 90.523 114.387 90.523 117.032C90.523 120.701 91.675 123.347 93.979 124.968C96.3683 126.589 99.4403 127.4 103.195 127.4ZM147.817 137V128.168L171.881 125.736V79.272L150.249 77.48V68.008H185.577V125.736L207.849 128.168V137H147.817ZM177.897 56.872C175.252 56.872 173.076 56.1467 171.369 54.696C169.748 53.16 168.937 50.9413 168.937 48.04C168.937 45.0533 169.748 42.8347 171.369 41.384C173.076 39.848 175.294 39.08 178.025 39.08C180.67 39.08 182.804 39.848 184.425 41.384C186.132 42.8347 186.985 45.0533 186.985 48.04C186.985 50.9413 186.132 53.16 184.425 54.696C182.804 56.1467 180.628 56.872 177.897 56.872ZM216.887 137V128.168L241.335 125.736V50.984L218.807 48.68V39.72H255.031V125.736L276.919 128.168V137H216.887ZM293.381 141.992L284.549 136.872L342.277 41L350.853 46.12L293.381 141.992ZM317.317 138.28C311.514 138.28 306.522 137.171 302.341 134.952C298.245 132.733 294.832 129.576 292.101 125.48C289.37 121.299 287.365 116.349 286.085 110.632C284.89 104.829 284.293 98.3867 284.293 91.304C284.293 81.7467 285.445 73.4267 287.749 66.344C290.053 59.2613 293.637 53.8 298.501 49.96C303.45 46.0347 309.765 44.072 317.445 44.072C323.248 44.072 328.24 45.1813 332.421 47.4C336.602 49.5333 340.016 52.6907 342.661 56.872C345.392 61.0533 347.397 66.0027 348.677 71.72C349.957 77.4373 350.597 83.88 350.597 91.048C350.597 98.216 349.957 104.701 348.677 110.504C347.397 116.307 345.392 121.299 342.661 125.48C340.016 129.576 336.56 132.733 332.293 134.952C328.112 137.171 323.12 138.28 317.317 138.28ZM317.573 126.376C322.266 126.376 326.021 125.011 328.837 122.28C331.653 119.464 333.658 115.453 334.853 110.248C336.133 104.957 336.773 98.6 336.773 91.176C336.773 79.9973 335.322 71.336 332.421 65.192C329.52 59.048 324.57 55.976 317.573 55.976C312.88 55.976 309.082 57.384 306.181 60.2C303.365 62.9307 301.317 66.9413 300.037 72.232C298.757 77.4373 298.117 83.752 298.117 91.176C298.117 98.6 298.757 104.957 300.037 110.248C301.317 115.453 303.365 119.464 306.181 122.28C309.082 125.011 312.88 126.376 317.573 126.376Z" fill="white"/>
<path d="M409.64 76V47.44H418.16C421.547 47.44 424.027 48.1867 425.6 49.68C427.173 51.1467 427.96 53.24 427.96 55.96C427.96 57.6133 427.627 59.16 426.96 60.6C426.32 62.0133 425.24 63.1467 423.72 64C422.227 64.8267 420.213 65.24 417.68 65.24H413.8V76H409.64ZM417.24 61.6C418.68 61.6 419.88 61.4133 420.84 61.04C421.8 60.64 422.507 60.04 422.96 59.24C423.44 58.44 423.68 57.4133 423.68 56.16C423.68 54.3467 423.213 53.0533 422.28 52.28C421.347 51.48 419.88 51.08 417.88 51.08H413.8V61.6H417.24ZM442.824 76.4C440.451 76.4 438.411 75.9733 436.704 75.12C435.024 74.24 433.731 72.9733 432.824 71.32C431.918 69.6667 431.464 67.64 431.464 65.24C431.464 62.92 431.878 60.9333 432.704 59.28C433.558 57.6 434.744 56.3067 436.264 55.4C437.784 54.4933 439.584 54.04 441.664 54.04C443.584 54.04 445.224 54.4533 446.584 55.28C447.971 56.1067 449.038 57.28 449.784 58.8C450.531 60.2933 450.904 62.0933 450.904 64.2V66.2H435.704C435.758 67.8267 436.104 69.1333 436.744 70.12C437.384 71.1067 438.251 71.8267 439.344 72.28C440.438 72.7067 441.691 72.92 443.104 72.92C444.224 72.92 445.358 72.7733 446.504 72.48C447.678 72.16 448.851 71.7467 450.024 71.24V74.88C448.824 75.4133 447.611 75.8 446.384 76.04C445.158 76.28 443.971 76.4 442.824 76.4ZM446.824 63C446.798 61.8267 446.571 60.8267 446.144 60C445.744 59.1733 445.171 58.5333 444.424 58.08C443.678 57.6267 442.771 57.4 441.704 57.4C440.078 57.4 438.744 57.9067 437.704 58.92C436.664 59.9067 436.024 61.2667 435.784 63H446.824ZM454.609 76V73.24L460.889 72.48V57.96L455.369 57.4V54.44H464.209L464.769 58.28H464.969C465.715 56.92 466.555 55.88 467.489 55.16C468.449 54.4133 469.675 54.04 471.169 54.04C471.942 54.04 472.675 54.1067 473.369 54.24C474.089 54.3733 474.755 54.5867 475.369 54.88L474.249 58.68C473.822 58.4667 473.315 58.2933 472.729 58.16C472.169 58 471.569 57.92 470.929 57.92C469.755 57.92 468.729 58.2533 467.849 58.92C466.995 59.5867 466.329 60.48 465.849 61.6C465.395 62.72 465.169 63.96 465.169 65.32V72.48L471.249 73.24V76H454.609ZM477.313 76V54.44H480.233L480.793 56.92H480.993C481.34 56.2 481.7 55.64 482.073 55.24C482.473 54.8133 482.913 54.5067 483.393 54.32C483.873 54.1333 484.406 54.04 484.993 54.04C486.113 54.04 486.966 54.32 487.553 54.88C488.166 55.4133 488.62 56.2133 488.913 57.28H489.073C489.526 56.24 490.086 55.44 490.753 54.88C491.446 54.32 492.353 54.04 493.473 54.04C494.593 54.04 495.46 54.3333 496.073 54.92C496.713 55.48 497.166 56.3467 497.433 57.52C497.7 58.6667 497.833 60.1467 497.833 61.96V76H494.073V62.04C494.073 61.1067 494.033 60.32 493.953 59.68C493.873 59.04 493.7 58.5467 493.433 58.2C493.166 57.8267 492.74 57.64 492.153 57.64C491.566 57.64 491.073 57.8933 490.673 58.4C490.273 58.88 489.966 59.6133 489.753 60.6C489.566 61.56 489.473 62.7867 489.473 64.28V76H485.713V62.04C485.713 61.08 485.646 60.28 485.513 59.64C485.406 59 485.206 58.5067 484.913 58.16C484.62 57.8133 484.18 57.64 483.593 57.64C482.953 57.64 482.446 57.9067 482.073 58.44C481.7 58.9733 481.433 59.7333 481.273 60.72C481.113 61.68 481.033 62.8667 481.033 64.28V76H477.313ZM501.698 76V73.24L509.218 72.48V57.96L502.458 57.4V54.44H513.498V72.48L520.458 73.24V76H501.698ZM511.098 50.96C510.271 50.96 509.591 50.7333 509.058 50.28C508.551 49.8 508.298 49.1067 508.298 48.2C508.298 47.2667 508.551 46.5733 509.058 46.12C509.591 45.64 510.284 45.4 511.138 45.4C511.964 45.4 512.631 45.64 513.138 46.12C513.671 46.5733 513.938 47.2667 513.938 48.2C513.938 49.1067 513.671 49.8 513.138 50.28C512.631 50.7333 511.951 50.96 511.098 50.96ZM533.002 76.4C531.669 76.4 530.389 76.28 529.162 76.04C527.935 75.8267 526.829 75.5067 525.842 75.08V71.12C526.829 71.5733 527.935 71.9867 529.162 72.36C530.389 72.7067 531.775 72.88 533.322 72.88C534.869 72.88 535.989 72.6533 536.682 72.2C537.375 71.7467 537.722 71.0667 537.722 70.16C537.722 69.6 537.575 69.1467 537.282 68.8C536.989 68.4533 536.469 68.1067 535.722 67.76C535.002 67.4133 533.975 66.9733 532.642 66.44C531.335 65.8533 530.189 65.2933 529.202 64.76C528.215 64.2267 527.455 63.5867 526.922 62.84C526.389 62.0933 526.122 61.1333 526.122 59.96C526.122 58.6267 526.469 57.52 527.162 56.64C527.855 55.76 528.829 55.1067 530.082 54.68C531.362 54.2533 532.855 54.04 534.562 54.04C535.815 54.04 537.029 54.16 538.202 54.4C539.375 54.64 540.562 55.0133 541.762 55.52L540.482 58.8C539.362 58.3467 538.322 58.0267 537.362 57.84C536.429 57.6533 535.482 57.56 534.522 57.56C533.082 57.56 532.015 57.7467 531.322 58.12C530.655 58.4667 530.322 59.04 530.322 59.84C530.322 60.4 530.495 60.8667 530.842 61.24C531.189 61.6133 531.735 61.9733 532.482 62.32C533.229 62.64 534.189 63.0533 535.362 63.56C536.722 64.0933 537.895 64.6133 538.882 65.12C539.895 65.6267 540.669 66.2667 541.202 67.04C541.735 67.7867 542.002 68.8133 542.002 70.12C542.002 71.5067 541.655 72.6667 540.962 73.6C540.295 74.5333 539.295 75.24 537.962 75.72C536.629 76.1733 534.975 76.4 533.002 76.4ZM556.186 76.4C554.853 76.4 553.573 76.28 552.346 76.04C551.12 75.8267 550.013 75.5067 549.026 75.08V71.12C550.013 71.5733 551.12 71.9867 552.346 72.36C553.573 72.7067 554.96 72.88 556.506 72.88C558.053 72.88 559.173 72.6533 559.866 72.2C560.56 71.7467 560.906 71.0667 560.906 70.16C560.906 69.6 560.76 69.1467 560.466 68.8C560.173 68.4533 559.653 68.1067 558.906 67.76C558.186 67.4133 557.16 66.9733 555.826 66.44C554.52 65.8533 553.373 65.2933 552.386 64.76C551.4 64.2267 550.64 63.5867 550.106 62.84C549.573 62.0933 549.306 61.1333 549.306 59.96C549.306 58.6267 549.653 57.52 550.346 56.64C551.04 55.76 552.013 55.1067 553.266 54.68C554.546 54.2533 556.04 54.04 557.746 54.04C559 54.04 560.213 54.16 561.386 54.4C562.56 54.64 563.746 55.0133 564.946 55.52L563.666 58.8C562.546 58.3467 561.506 58.0267 560.546 57.84C559.613 57.6533 558.666 57.56 557.706 57.56C556.266 57.56 555.2 57.7467 554.506 58.12C553.84 58.4667 553.506 59.04 553.506 59.84C553.506 60.4 553.68 60.8667 554.026 61.24C554.373 61.6133 554.92 61.9733 555.666 62.32C556.413 62.64 557.373 63.0533 558.546 63.56C559.906 64.0933 561.08 64.6133 562.066 65.12C563.08 65.6267 563.853 66.2667 564.386 67.04C564.92 67.7867 565.186 68.8133 565.186 70.12C565.186 71.5067 564.84 72.6667 564.146 73.6C563.48 74.5333 562.48 75.24 561.146 75.72C559.813 76.1733 558.16 76.4 556.186 76.4ZM571.251 76V73.24L578.771 72.48V57.96L572.011 57.4V54.44H583.051V72.48L590.011 73.24V76H571.251ZM580.651 50.96C579.824 50.96 579.144 50.7333 578.611 50.28C578.104 49.8 577.851 49.1067 577.851 48.2C577.851 47.2667 578.104 46.5733 578.611 46.12C579.144 45.64 579.837 45.4 580.691 45.4C581.517 45.4 582.184 45.64 582.691 46.12C583.224 46.5733 583.491 47.2667 583.491 48.2C583.491 49.1067 583.224 49.8 582.691 50.28C582.184 50.7333 581.504 50.96 580.651 50.96ZM603.515 76.4C602.048 76.4 600.702 76.16 599.475 75.68C598.248 75.2 597.182 74.4933 596.275 73.56C595.395 72.6 594.715 71.4267 594.235 70.04C593.755 68.6533 593.515 67.04 593.515 65.2C593.515 62.7467 593.928 60.7067 594.755 59.08C595.608 57.4267 596.782 56.1733 598.275 55.32C599.768 54.4667 601.488 54.04 603.435 54.04C605.382 54.04 607.102 54.4667 608.595 55.32C610.115 56.1467 611.302 57.3867 612.155 59.04C613.008 60.6933 613.435 62.76 613.435 65.24C613.435 67.0533 613.195 68.6533 612.715 70.04C612.235 71.4267 611.555 72.6 610.675 73.56C609.822 74.4933 608.782 75.2 607.555 75.68C606.355 76.16 605.008 76.4 603.515 76.4ZM603.515 72.96C604.768 72.96 605.808 72.6533 606.635 72.04C607.488 71.4 608.115 70.4933 608.515 69.32C608.942 68.1467 609.155 66.7733 609.155 65.2C609.155 63.6 608.942 62.2267 608.515 61.08C608.115 59.9333 607.488 59.0533 606.635 58.44C605.808 57.8 604.755 57.48 603.475 57.48C601.555 57.48 600.115 58.1733 599.155 59.56C598.222 60.92 597.755 62.8 597.755 65.2C597.755 66.7733 597.968 68.1467 598.395 69.32C598.822 70.4933 599.462 71.4 600.315 72.04C601.168 72.6533 602.235 72.96 603.515 72.96ZM617.579 76V54.44H620.899L621.539 57.48H621.779C622.206 56.7067 622.753 56.0667 623.419 55.56C624.086 55.0533 624.859 54.68 625.739 54.44C626.646 54.1733 627.619 54.04 628.659 54.04C630.899 54.04 632.673 54.68 633.979 55.96C635.286 57.2133 635.939 59.1333 635.939 61.72V76H631.699V62.6C631.699 60.84 631.339 59.56 630.619 58.76C629.926 57.9333 628.833 57.52 627.339 57.52C625.339 57.52 623.913 58.2 623.059 59.56C622.233 60.92 621.819 62.8 621.819 65.2V76H617.579ZM640.804 76V73.24L648.444 72.48V49.12L641.404 48.4V45.6H652.724V72.48L659.564 73.24V76H640.804ZM674.668 76.4C672.295 76.4 670.255 75.9733 668.548 75.12C666.868 74.24 665.575 72.9733 664.668 71.32C663.761 69.6667 663.308 67.64 663.308 65.24C663.308 62.92 663.721 60.9333 664.548 59.28C665.401 57.6 666.588 56.3067 668.108 55.4C669.628 54.4933 671.428 54.04 673.508 54.04C675.428 54.04 677.068 54.4533 678.428 55.28C679.815 56.1067 680.881 57.28 681.628 58.8C682.375 60.2933 682.748 62.0933 682.748 64.2V66.2H667.548C667.601 67.8267 667.948 69.1333 668.588 70.12C669.228 71.1067 670.095 71.8267 671.188 72.28C672.281 72.7067 673.535 72.92 674.948 72.92C676.068 72.92 677.201 72.7733 678.348 72.48C679.521 72.16 680.695 71.7467 681.868 71.24V74.88C680.668 75.4133 679.455 75.8 678.228 76.04C677.001 76.28 675.815 76.4 674.668 76.4ZM678.668 63C678.641 61.8267 678.415 60.8267 677.988 60C677.588 59.1733 677.015 58.5333 676.268 58.08C675.521 57.6267 674.615 57.4 673.548 57.4C671.921 57.4 670.588 57.9067 669.548 58.92C668.508 59.9067 667.868 61.2667 667.628 63H678.668ZM695.292 76.4C693.959 76.4 692.679 76.28 691.452 76.04C690.226 75.8267 689.119 75.5067 688.132 75.08V71.12C689.119 71.5733 690.226 71.9867 691.452 72.36C692.679 72.7067 694.066 72.88 695.612 72.88C697.159 72.88 698.279 72.6533 698.972 72.2C699.666 71.7467 700.012 71.0667 700.012 70.16C700.012 69.6 699.866 69.1467 699.572 68.8C699.279 68.4533 698.759 68.1067 698.012 67.76C697.292 67.4133 696.266 66.9733 694.932 66.44C693.626 65.8533 692.479 65.2933 691.492 64.76C690.506 64.2267 689.746 63.5867 689.212 62.84C688.679 62.0933 688.412 61.1333 688.412 59.96C688.412 58.6267 688.759 57.52 689.452 56.64C690.146 55.76 691.119 55.1067 692.372 54.68C693.652 54.2533 695.146 54.04 696.852 54.04C698.106 54.04 699.319 54.16 700.492 54.4C701.666 54.64 702.852 55.0133 704.052 55.52L702.772 58.8C701.652 58.3467 700.612 58.0267 699.652 57.84C698.719 57.6533 697.772 57.56 696.812 57.56C695.372 57.56 694.306 57.7467 693.612 58.12C692.946 58.4667 692.612 59.04 692.612 59.84C692.612 60.4 692.786 60.8667 693.132 61.24C693.479 61.6133 694.026 61.9733 694.772 62.32C695.519 62.64 696.479 63.0533 697.652 63.56C699.012 64.0933 700.186 64.6133 701.172 65.12C702.186 65.6267 702.959 66.2667 703.492 67.04C704.026 67.7867 704.292 68.8133 704.292 70.12C704.292 71.5067 703.946 72.6667 703.252 73.6C702.586 74.5333 701.586 75.24 700.252 75.72C698.919 76.1733 697.266 76.4 695.292 76.4ZM718.477 76.4C717.144 76.4 715.864 76.28 714.637 76.04C713.41 75.8267 712.304 75.5067 711.317 75.08V71.12C712.304 71.5733 713.41 71.9867 714.637 72.36C715.864 72.7067 717.25 72.88 718.797 72.88C720.344 72.88 721.464 72.6533 722.157 72.2C722.85 71.7467 723.197 71.0667 723.197 70.16C723.197 69.6 723.05 69.1467 722.757 68.8C722.464 68.4533 721.944 68.1067 721.197 67.76C720.477 67.4133 719.45 66.9733 718.117 66.44C716.81 65.8533 715.664 65.2933 714.677 64.76C713.69 64.2267 712.93 63.5867 712.397 62.84C711.864 62.0933 711.597 61.1333 711.597 59.96C711.597 58.6267 711.944 57.52 712.637 56.64C713.33 55.76 714.304 55.1067 715.557 54.68C716.837 54.2533 718.33 54.04 720.037 54.04C721.29 54.04 722.504 54.16 723.677 54.4C724.85 54.64 726.037 55.0133 727.237 55.52L725.957 58.8C724.837 58.3467 723.797 58.0267 722.837 57.84C721.904 57.6533 720.957 57.56 719.997 57.56C718.557 57.56 717.49 57.7467 716.797 58.12C716.13 58.4667 715.797 59.04 715.797 59.84C715.797 60.4 715.97 60.8667 716.317 61.24C716.664 61.6133 717.21 61.9733 717.957 62.32C718.704 62.64 719.664 63.0533 720.837 63.56C722.197 64.0933 723.37 64.6133 724.357 65.12C725.37 65.6267 726.144 66.2667 726.677 67.04C727.21 67.7867 727.477 68.8133 727.477 70.12C727.477 71.5067 727.13 72.6667 726.437 73.6C725.77 74.5333 724.77 75.24 723.437 75.72C722.104 76.1733 720.45 76.4 718.477 76.4ZM764.846 76.4C763.512 76.4 762.232 76.28 761.006 76.04C759.779 75.8267 758.672 75.5067 757.686 75.08V71.12C758.672 71.5733 759.779 71.9867 761.006 72.36C762.232 72.7067 763.619 72.88 765.166 72.88C766.712 72.88 767.832 72.6533 768.526 72.2C769.219 71.7467 769.566 71.0667 769.566 70.16C769.566 69.6 769.419 69.1467 769.126 68.8C768.832 68.4533 768.312 68.1067 767.566 67.76C766.846 67.4133 765.819 66.9733 764.486 66.44C763.179 65.8533 762.032 65.2933 761.046 64.76C760.059 64.2267 759.299 63.5867 758.766 62.84C758.232 62.0933 757.966 61.1333 757.966 59.96C757.966 58.6267 758.312 57.52 759.006 56.64C759.699 55.76 760.672 55.1067 761.926 54.68C763.206 54.2533 764.699 54.04 766.406 54.04C767.659 54.04 768.872 54.16 770.046 54.4C771.219 54.64 772.406 55.0133 773.606 55.52L772.326 58.8C771.206 58.3467 770.166 58.0267 769.206 57.84C768.272 57.6533 767.326 57.56 766.366 57.56C764.926 57.56 763.859 57.7467 763.166 58.12C762.499 58.4667 762.166 59.04 762.166 59.84C762.166 60.4 762.339 60.8667 762.686 61.24C763.032 61.6133 763.579 61.9733 764.326 62.32C765.072 62.64 766.032 63.0533 767.206 63.56C768.566 64.0933 769.739 64.6133 770.726 65.12C771.739 65.6267 772.512 66.2667 773.046 67.04C773.579 67.7867 773.846 68.8133 773.846 70.12C773.846 71.5067 773.499 72.6667 772.806 73.6C772.139 74.5333 771.139 75.24 769.806 75.72C768.472 76.1733 766.819 76.4 764.846 76.4ZM792.91 76.4C791.283 76.4 789.857 76.1867 788.63 75.76C787.403 75.3067 786.443 74.56 785.75 73.52C785.083 72.4533 784.75 71.0133 784.75 69.2V57.96H779.15V55.16L784.87 54.36L785.67 48.8H788.99V54.44H797.31V57.96H788.99V68.52C788.99 69.5867 789.15 70.44 789.47 71.08C789.79 71.72 790.283 72.1867 790.95 72.48C791.617 72.7733 792.43 72.92 793.39 72.92C794.083 72.92 794.803 72.8533 795.55 72.72C796.323 72.5867 797.07 72.4533 797.79 72.32V75.68C797.043 75.8933 796.257 76.0667 795.43 76.2C794.603 76.3333 793.763 76.4 792.91 76.4ZM809.694 76.4C807.534 76.4 805.828 75.8533 804.574 74.76C803.321 73.6667 802.694 72.08 802.694 70C802.694 68.4267 803.054 67.1333 803.774 66.12C804.521 65.08 805.601 64.3067 807.014 63.8C808.454 63.2667 810.188 62.9733 812.214 62.92L816.894 62.8V61.88C816.894 60.2267 816.441 59.08 815.534 58.44C814.654 57.8 813.428 57.48 811.854 57.48C810.761 57.48 809.694 57.6133 808.654 57.88C807.614 58.1467 806.588 58.5333 805.574 59.04L804.174 55.92C805.241 55.3867 806.414 54.9467 807.694 54.6C809.001 54.2267 810.454 54.04 812.054 54.04C814.854 54.04 817.014 54.6533 818.534 55.88C820.054 57.1067 820.814 59.0133 820.814 61.6V76H817.494L816.934 73.08H816.774C816.161 73.8533 815.494 74.48 814.774 74.96C814.081 75.44 813.308 75.8 812.454 76.04C811.601 76.28 810.681 76.4 809.694 76.4ZM810.734 73C811.854 73 812.881 72.8 813.814 72.4C814.748 71.9733 815.494 71.36 816.054 70.56C816.614 69.7333 816.894 68.72 816.894 67.52V65.64L813.214 65.72C811.694 65.7733 810.454 65.96 809.494 66.28C808.561 66.6 807.868 67.0533 807.414 67.64C806.988 68.2267 806.774 68.9333 806.774 69.76C806.774 70.9067 807.134 71.7333 807.854 72.24C808.601 72.7467 809.561 73 810.734 73ZM836.759 76.4C835.292 76.4 834.012 76.1067 832.919 75.52C831.852 74.9333 830.985 74.2133 830.319 73.36H830.039L829.559 76H826.239V45.6H830.359V52.88C830.359 53.52 830.345 54.2133 830.319 54.96C830.292 55.68 830.239 56.44 830.159 57.24H830.359C830.945 56.3333 831.785 55.5733 832.879 54.96C833.972 54.3467 835.279 54.04 836.799 54.04C838.132 54.04 839.319 54.2933 840.359 54.8C841.425 55.28 842.319 56.0133 843.039 57C843.759 57.96 844.305 59.1333 844.679 60.52C845.079 61.88 845.279 63.4267 845.279 65.16C845.279 66.9467 845.079 68.5333 844.679 69.92C844.305 71.3067 843.745 72.48 842.999 73.44C842.279 74.4 841.385 75.1333 840.319 75.64C839.279 76.1467 838.092 76.4 836.759 76.4ZM835.719 72.92C837.505 72.92 838.825 72.2667 839.679 70.96C840.532 69.6267 840.959 67.6933 840.959 65.16C840.959 62.6533 840.532 60.76 839.679 59.48C838.825 58.1733 837.492 57.52 835.679 57.52C833.999 57.52 832.692 58.16 831.759 59.44C830.825 60.6933 830.359 62.5867 830.359 65.12C830.359 67.68 830.799 69.6267 831.679 70.96C832.585 72.2667 833.932 72.92 835.719 72.92ZM849.463 76V73.24L857.103 72.48V49.12L850.063 48.4V45.6H861.383V72.48L868.223 73.24V76H849.463ZM883.328 76.4C880.954 76.4 878.914 75.9733 877.208 75.12C875.528 74.24 874.234 72.9733 873.328 71.32C872.421 69.6667 871.968 67.64 871.968 65.24C871.968 62.92 872.381 60.9333 873.208 59.28C874.061 57.6 875.248 56.3067 876.768 55.4C878.288 54.4933 880.088 54.04 882.168 54.04C884.088 54.04 885.728 54.4533 887.088 55.28C888.474 56.1067 889.541 57.28 890.288 58.8C891.034 60.2933 891.408 62.0933 891.408 64.2V66.2H876.208C876.261 67.8267 876.608 69.1333 877.248 70.12C877.888 71.1067 878.754 71.8267 879.848 72.28C880.941 72.7067 882.194 72.92 883.608 72.92C884.728 72.92 885.861 72.7733 887.008 72.48C888.181 72.16 889.354 71.7467 890.528 71.24V74.88C889.328 75.4133 888.114 75.8 886.888 76.04C885.661 76.28 884.474 76.4 883.328 76.4ZM887.328 63C887.301 61.8267 887.074 60.8267 886.648 60C886.248 59.1733 885.674 58.5333 884.928 58.08C884.181 57.6267 883.274 57.4 882.208 57.4C880.581 57.4 879.248 57.9067 878.208 58.92C877.168 59.9067 876.528 61.2667 876.288 63H887.328ZM906.392 76.4C904.205 76.4 902.339 76.0133 900.792 75.24C899.272 74.4667 898.112 73.2667 897.312 71.64C896.512 70.0133 896.112 67.9333 896.112 65.4C896.112 62.7333 896.539 60.56 897.392 58.88C898.272 57.2 899.512 55.9733 901.112 55.2C902.712 54.4267 904.579 54.04 906.712 54.04C907.912 54.04 909.059 54.16 910.152 54.4C911.245 54.64 912.272 55 913.232 55.48L911.992 58.92C911.085 58.4667 910.219 58.1467 909.392 57.96C908.565 57.7733 907.739 57.68 906.912 57.68C905.419 57.68 904.192 57.9733 903.232 58.56C902.272 59.12 901.565 59.96 901.112 61.08C900.659 62.2 900.432 63.6133 900.432 65.32C900.432 67.08 900.672 68.5067 901.152 69.6C901.632 70.6933 902.352 71.4933 903.312 72C904.272 72.5067 905.459 72.76 906.872 72.76C907.939 72.76 908.979 72.64 909.992 72.4C911.032 72.1333 911.992 71.7867 912.872 71.36V75.12C911.965 75.5467 910.939 75.8667 909.792 76.08C908.672 76.2933 907.539 76.4 906.392 76.4ZM928.096 76.4C926.63 76.4 925.283 76.16 924.056 75.68C922.83 75.2 921.763 74.4933 920.856 73.56C919.976 72.6 919.296 71.4267 918.816 70.04C918.336 68.6533 918.096 67.04 918.096 65.2C918.096 62.7467 918.51 60.7067 919.336 59.08C920.19 57.4267 921.363 56.1733 922.856 55.32C924.35 54.4667 926.07 54.04 928.016 54.04C929.963 54.04 931.683 54.4667 933.176 55.32C934.696 56.1467 935.883 57.3867 936.736 59.04C937.59 60.6933 938.016 62.76 938.016 65.24C938.016 67.0533 937.776 68.6533 937.296 70.04C936.816 71.4267 936.136 72.6 935.256 73.56C934.403 74.4933 933.363 75.2 932.136 75.68C930.936 76.16 929.59 76.4 928.096 76.4ZM928.096 72.96C929.35 72.96 930.39 72.6533 931.216 72.04C932.07 71.4 932.696 70.4933 933.096 69.32C933.523 68.1467 933.736 66.7733 933.736 65.2C933.736 63.6 933.523 62.2267 933.096 61.08C932.696 59.9333 932.07 59.0533 931.216 58.44C930.39 57.8 929.336 57.48 928.056 57.48C926.136 57.48 924.696 58.1733 923.736 59.56C922.803 60.92 922.336 62.8 922.336 65.2C922.336 66.7733 922.55 68.1467 922.976 69.32C923.403 70.4933 924.043 71.4 924.896 72.04C925.75 72.6533 926.816 72.96 928.096 72.96ZM942.201 76V73.24L949.721 72.48V57.96L942.961 57.4V54.44H954.001V72.48L960.961 73.24V76H942.201ZM951.601 50.96C950.774 50.96 950.094 50.7333 949.561 50.28C949.054 49.8 948.801 49.1067 948.801 48.2C948.801 47.2667 949.054 46.5733 949.561 46.12C950.094 45.64 950.787 45.4 951.641 45.4C952.467 45.4 953.134 45.64 953.641 46.12C954.174 46.5733 954.441 47.2667 954.441 48.2C954.441 49.1067 954.174 49.8 953.641 50.28C953.134 50.7333 952.454 50.96 951.601 50.96ZM965.345 76V54.44H968.665L969.305 57.48H969.545C969.972 56.7067 970.518 56.0667 971.185 55.56C971.852 55.0533 972.625 54.68 973.505 54.44C974.412 54.1733 975.385 54.04 976.425 54.04C978.665 54.04 980.438 54.68 981.745 55.96C983.052 57.2133 983.705 59.1333 983.705 61.72V76H979.465V62.6C979.465 60.84 979.105 59.56 978.385 58.76C977.692 57.9333 976.598 57.52 975.105 57.52C973.105 57.52 971.678 58.2 970.825 59.56C969.998 60.92 969.585 62.8 969.585 65.2V76H965.345ZM408.92 139.6V108.44H412.28L412.88 111.32H413.08C413.533 110.627 414.067 110.04 414.68 109.56C415.293 109.053 416 108.68 416.8 108.44C417.6 108.173 418.507 108.04 419.52 108.04C420.853 108.04 422.04 108.293 423.08 108.8C424.147 109.28 425.04 110.013 425.76 111C426.48 111.96 427.027 113.133 427.4 114.52C427.773 115.88 427.96 117.44 427.96 119.2C427.96 121.6 427.613 123.64 426.92 125.32C426.227 127 425.24 128.267 423.96 129.12C422.68 129.973 421.173 130.4 419.44 130.4C418.48 130.4 417.6 130.267 416.8 130C416 129.733 415.293 129.373 414.68 128.92C414.067 128.44 413.533 127.92 413.08 127.36H412.84C412.947 127.973 413.013 128.56 413.04 129.12C413.067 129.653 413.08 130.12 413.08 130.52V139.6H408.92ZM418.36 126.92C420.2 126.92 421.533 126.28 422.36 125C423.187 123.72 423.6 121.76 423.6 119.12C423.6 116.56 423.187 114.653 422.36 113.4C421.56 112.147 420.213 111.52 418.32 111.52C416.56 111.52 415.24 112.12 414.36 113.32C413.507 114.493 413.08 116.187 413.08 118.4V119.16C413.08 121.613 413.48 123.52 414.28 124.88C415.08 126.24 416.44 126.92 418.36 126.92ZM438.744 130.4C436.584 130.4 434.878 129.853 433.624 128.76C432.371 127.667 431.744 126.08 431.744 124C431.744 122.427 432.104 121.133 432.824 120.12C433.571 119.08 434.651 118.307 436.064 117.8C437.504 117.267 439.238 116.973 441.264 116.92L445.944 116.8V115.88C445.944 114.227 445.491 113.08 444.584 112.44C443.704 111.8 442.478 111.48 440.904 111.48C439.811 111.48 438.744 111.613 437.704 111.88C436.664 112.147 435.638 112.533 434.624 113.04L433.224 109.92C434.291 109.387 435.464 108.947 436.744 108.6C438.051 108.227 439.504 108.04 441.104 108.04C443.904 108.04 446.064 108.653 447.584 109.88C449.104 111.107 449.864 113.013 449.864 115.6V130H446.544L445.984 127.08H445.824C445.211 127.853 444.544 128.48 443.824 128.96C443.131 129.44 442.358 129.8 441.504 130.04C440.651 130.28 439.731 130.4 438.744 130.4ZM439.784 127C440.904 127 441.931 126.8 442.864 126.4C443.798 125.973 444.544 125.36 445.104 124.56C445.664 123.733 445.944 122.72 445.944 121.52V119.64L442.264 119.72C440.744 119.773 439.504 119.96 438.544 120.28C437.611 120.6 436.918 121.053 436.464 121.64C436.038 122.227 435.824 122.933 435.824 123.76C435.824 124.907 436.184 125.733 436.904 126.24C437.651 126.747 438.611 127 439.784 127ZM457.769 139.8C457.262 139.8 456.755 139.76 456.249 139.68C455.742 139.627 455.289 139.56 454.889 139.48V136.08C455.209 136.133 455.582 136.187 456.009 136.24C456.435 136.293 456.835 136.32 457.209 136.32C458.035 136.32 458.715 136.173 459.249 135.88C459.809 135.613 460.289 135.2 460.689 134.64C461.115 134.08 461.502 133.36 461.849 132.48L462.769 130.08L453.889 108.44H458.209L463.049 121.04C463.369 121.787 463.662 122.613 463.929 123.52C464.222 124.4 464.475 125.28 464.689 126.16H464.809C464.969 125.547 465.129 124.947 465.289 124.36C465.475 123.773 465.649 123.2 465.809 122.64C465.995 122.053 466.169 121.507 466.329 121L470.409 108.44H474.849L466.009 132.32C465.449 133.867 464.822 135.2 464.129 136.32C463.462 137.44 462.622 138.293 461.609 138.88C460.595 139.493 459.315 139.8 457.769 139.8ZM477.313 130V108.44H480.233L480.793 110.92H480.993C481.34 110.2 481.7 109.64 482.073 109.24C482.473 108.813 482.913 108.507 483.393 108.32C483.873 108.133 484.406 108.04 484.993 108.04C486.113 108.04 486.966 108.32 487.553 108.88C488.166 109.413 488.62 110.213 488.913 111.28H489.073C489.526 110.24 490.086 109.44 490.753 108.88C491.446 108.32 492.353 108.04 493.473 108.04C494.593 108.04 495.46 108.333 496.073 108.92C496.713 109.48 497.166 110.347 497.433 111.52C497.7 112.667 497.833 114.147 497.833 115.96V130H494.073V116.04C494.073 115.107 494.033 114.32 493.953 113.68C493.873 113.04 493.7 112.547 493.433 112.2C493.166 111.827 492.74 111.64 492.153 111.64C491.566 111.64 491.073 111.893 490.673 112.4C490.273 112.88 489.966 113.613 489.753 114.6C489.566 115.56 489.473 116.787 489.473 118.28V130H485.713V116.04C485.713 115.08 485.646 114.28 485.513 113.64C485.406 113 485.206 112.507 484.913 112.16C484.62 111.813 484.18 111.64 483.593 111.64C482.953 111.64 482.446 111.907 482.073 112.44C481.7 112.973 481.433 113.733 481.273 114.72C481.113 115.68 481.033 116.867 481.033 118.28V130H477.313ZM512.378 130.4C510.004 130.4 507.964 129.973 506.258 129.12C504.578 128.24 503.284 126.973 502.378 125.32C501.471 123.667 501.018 121.64 501.018 119.24C501.018 116.92 501.431 114.933 502.258 113.28C503.111 111.6 504.298 110.307 505.818 109.4C507.338 108.493 509.138 108.04 511.218 108.04C513.138 108.04 514.778 108.453 516.138 109.28C517.524 110.107 518.591 111.28 519.338 112.8C520.084 114.293 520.458 116.093 520.458 118.2V120.2H505.258C505.311 121.827 505.658 123.133 506.298 124.12C506.938 125.107 507.804 125.827 508.898 126.28C509.991 126.707 511.244 126.92 512.658 126.92C513.778 126.92 514.911 126.773 516.058 126.48C517.231 126.16 518.404 125.747 519.578 125.24V128.88C518.378 129.413 517.164 129.8 515.938 130.04C514.711 130.28 513.524 130.4 512.378 130.4ZM516.378 117C516.351 115.827 516.124 114.827 515.698 114C515.298 113.173 514.724 112.533 513.978 112.08C513.231 111.627 512.324 111.4 511.258 111.4C509.631 111.4 508.298 111.907 507.258 112.92C506.218 113.907 505.578 115.267 505.338 117H516.378ZM524.842 130V108.44H528.162L528.802 111.48H529.042C529.469 110.707 530.015 110.067 530.682 109.56C531.349 109.053 532.122 108.68 533.002 108.44C533.909 108.173 534.882 108.04 535.922 108.04C538.162 108.04 539.935 108.68 541.242 109.96C542.549 111.213 543.202 113.133 543.202 115.72V130H538.962V116.6C538.962 114.84 538.602 113.56 537.882 112.76C537.189 111.933 536.095 111.52 534.602 111.52C532.602 111.52 531.175 112.2 530.322 113.56C529.495 114.92 529.082 116.8 529.082 119.2V130H524.842ZM561.066 130.4C559.44 130.4 558.013 130.187 556.786 129.76C555.56 129.307 554.6 128.56 553.906 127.52C553.24 126.453 552.906 125.013 552.906 123.2V111.96H547.306V109.16L553.026 108.36L553.826 102.8H557.146V108.44H565.466V111.96H557.146V122.52C557.146 123.587 557.306 124.44 557.626 125.08C557.946 125.72 558.44 126.187 559.106 126.48C559.773 126.773 560.586 126.92 561.546 126.92C562.24 126.92 562.96 126.853 563.706 126.72C564.48 126.587 565.226 126.453 565.946 126.32V129.68C565.2 129.893 564.413 130.067 563.586 130.2C562.76 130.333 561.92 130.4 561.066 130.4ZM579.371 130.4C578.037 130.4 576.757 130.28 575.531 130.04C574.304 129.827 573.197 129.507 572.211 129.08V125.12C573.197 125.573 574.304 125.987 575.531 126.36C576.757 126.707 578.144 126.88 579.691 126.88C581.237 126.88 582.357 126.653 583.051 126.2C583.744 125.747 584.091 125.067 584.091 124.16C584.091 123.6 583.944 123.147 583.651 122.8C583.357 122.453 582.837 122.107 582.091 121.76C581.371 121.413 580.344 120.973 579.011 120.44C577.704 119.853 576.557 119.293 575.571 118.76C574.584 118.227 573.824 117.587 573.291 116.84C572.757 116.093 572.491 115.133 572.491 113.96C572.491 112.627 572.837 111.52 573.531 110.64C574.224 109.76 575.197 109.107 576.451 108.68C577.731 108.253 579.224 108.04 580.931 108.04C582.184 108.04 583.397 108.16 584.571 108.4C585.744 108.64 586.931 109.013 588.131 109.52L586.851 112.8C585.731 112.347 584.691 112.027 583.731 111.84C582.797 111.653 581.851 111.56 580.891 111.56C579.451 111.56 578.384 111.747 577.691 112.12C577.024 112.467 576.691 113.04 576.691 113.84C576.691 114.4 576.864 114.867 577.211 115.24C577.557 115.613 578.104 115.973 578.851 116.32C579.597 116.64 580.557 117.053 581.731 117.56C583.091 118.093 584.264 118.613 585.251 119.12C586.264 119.627 587.037 120.267 587.571 121.04C588.104 121.787 588.371 122.813 588.371 124.12C588.371 125.507 588.024 126.667 587.331 127.6C586.664 128.533 585.664 129.24 584.331 129.72C582.997 130.173 581.344 130.4 579.371 130.4ZM623.979 130V111.96H617.339V109.16L623.979 108.44V106.32C623.979 104.613 624.299 103.253 624.939 102.24C625.579 101.227 626.486 100.507 627.659 100.08C628.859 99.6267 630.286 99.4 631.939 99.4C633.059 99.4 634.086 99.48 635.019 99.64C635.979 99.8 636.833 100 637.579 100.24L636.579 103.52C635.993 103.36 635.313 103.227 634.539 103.12C633.793 102.987 633.086 102.92 632.419 102.92C631.059 102.92 630.019 103.213 629.299 103.8C628.579 104.36 628.219 105.373 628.219 106.84V108.44H635.979V111.96H628.219V130H623.979ZM649.884 130.4C648.417 130.4 647.07 130.16 645.844 129.68C644.617 129.2 643.55 128.493 642.644 127.56C641.764 126.6 641.084 125.427 640.604 124.04C640.124 122.653 639.884 121.04 639.884 119.2C639.884 116.747 640.297 114.707 641.124 113.08C641.977 111.427 643.15 110.173 644.644 109.32C646.137 108.467 647.857 108.04 649.804 108.04C651.75 108.04 653.47 108.467 654.964 109.32C656.484 110.147 657.67 111.387 658.524 113.04C659.377 114.693 659.804 116.76 659.804 119.24C659.804 121.053 659.564 122.653 659.084 124.04C658.604 125.427 657.924 126.6 657.044 127.56C656.19 128.493 655.15 129.2 653.924 129.68C652.724 130.16 651.377 130.4 649.884 130.4ZM649.884 126.96C651.137 126.96 652.177 126.653 653.004 126.04C653.857 125.4 654.484 124.493 654.884 123.32C655.31 122.147 655.524 120.773 655.524 119.2C655.524 117.6 655.31 116.227 654.884 115.08C654.484 113.933 653.857 113.053 653.004 112.44C652.177 111.8 651.124 111.48 649.844 111.48C647.924 111.48 646.484 112.173 645.524 113.56C644.59 114.92 644.124 116.8 644.124 119.2C644.124 120.773 644.337 122.147 644.764 123.32C645.19 124.493 645.83 125.4 646.684 126.04C647.537 126.653 648.604 126.96 649.884 126.96ZM663.268 130V127.24L669.548 126.48V111.96L664.028 111.4V108.44H672.868L673.428 112.28H673.628C674.375 110.92 675.215 109.88 676.148 109.16C677.108 108.413 678.335 108.04 679.828 108.04C680.601 108.04 681.335 108.107 682.028 108.24C682.748 108.373 683.415 108.587 684.028 108.88L682.908 112.68C682.481 112.467 681.975 112.293 681.388 112.16C680.828 112 680.228 111.92 679.588 111.92C678.415 111.92 677.388 112.253 676.508 112.92C675.655 113.587 674.988 114.48 674.508 115.6C674.055 116.72 673.828 117.96 673.828 119.32V126.48L679.908 127.24V130H663.268ZM720.917 130.4C718.73 130.4 716.864 130.013 715.317 129.24C713.797 128.467 712.637 127.267 711.837 125.64C711.037 124.013 710.637 121.933 710.637 119.4C710.637 116.733 711.064 114.56 711.917 112.88C712.797 111.2 714.037 109.973 715.637 109.2C717.237 108.427 719.104 108.04 721.237 108.04C722.437 108.04 723.584 108.16 724.677 108.4C725.77 108.64 726.797 109 727.757 109.48L726.517 112.92C725.61 112.467 724.744 112.147 723.917 111.96C723.09 111.773 722.264 111.68 721.437 111.68C719.944 111.68 718.717 111.973 717.757 112.56C716.797 113.12 716.09 113.96 715.637 115.08C715.184 116.2 714.957 117.613 714.957 119.32C714.957 121.08 715.197 122.507 715.677 123.6C716.157 124.693 716.877 125.493 717.837 126C718.797 126.507 719.984 126.76 721.397 126.76C722.464 126.76 723.504 126.64 724.517 126.4C725.557 126.133 726.517 125.787 727.397 125.36V129.12C726.49 129.547 725.464 129.867 724.317 130.08C723.197 130.293 722.064 130.4 720.917 130.4ZM742.621 130.4C741.155 130.4 739.808 130.16 738.581 129.68C737.355 129.2 736.288 128.493 735.381 127.56C734.501 126.6 733.821 125.427 733.341 124.04C732.861 122.653 732.621 121.04 732.621 119.2C732.621 116.747 733.035 114.707 733.861 113.08C734.715 111.427 735.888 110.173 737.381 109.32C738.875 108.467 740.595 108.04 742.541 108.04C744.488 108.04 746.208 108.467 747.701 109.32C749.221 110.147 750.408 111.387 751.261 113.04C752.115 114.693 752.541 116.76 752.541 119.24C752.541 121.053 752.301 122.653 751.821 124.04C751.341 125.427 750.661 126.6 749.781 127.56C748.928 128.493 747.888 129.2 746.661 129.68C745.461 130.16 744.115 130.4 742.621 130.4ZM742.621 126.96C743.875 126.96 744.915 126.653 745.741 126.04C746.595 125.4 747.221 124.493 747.621 123.32C748.048 122.147 748.261 120.773 748.261 119.2C748.261 117.6 748.048 116.227 747.621 115.08C747.221 113.933 746.595 113.053 745.741 112.44C744.915 111.8 743.861 111.48 742.581 111.48C740.661 111.48 739.221 112.173 738.261 113.56C737.328 114.92 736.861 116.8 736.861 119.2C736.861 120.773 737.075 122.147 737.501 123.32C737.928 124.493 738.568 125.4 739.421 126.04C740.275 126.653 741.341 126.96 742.621 126.96ZM755.526 130V108.44H758.446L759.006 110.92H759.206C759.552 110.2 759.912 109.64 760.286 109.24C760.686 108.813 761.126 108.507 761.606 108.32C762.086 108.133 762.619 108.04 763.206 108.04C764.326 108.04 765.179 108.32 765.766 108.88C766.379 109.413 766.832 110.213 767.126 111.28H767.286C767.739 110.24 768.299 109.44 768.966 108.88C769.659 108.32 770.566 108.04 771.686 108.04C772.806 108.04 773.672 108.333 774.286 108.92C774.926 109.48 775.379 110.347 775.646 111.52C775.912 112.667 776.046 114.147 776.046 115.96V130H772.286V116.04C772.286 115.107 772.246 114.32 772.166 113.68C772.086 113.04 771.912 112.547 771.646 112.2C771.379 111.827 770.952 111.64 770.366 111.64C769.779 111.64 769.286 111.893 768.886 112.4C768.486 112.88 768.179 113.613 767.966 114.6C767.779 115.56 767.686 116.787 767.686 118.28V130H763.926V116.04C763.926 115.08 763.859 114.28 763.726 113.64C763.619 113 763.419 112.507 763.126 112.16C762.832 111.813 762.392 111.64 761.806 111.64C761.166 111.64 760.659 111.907 760.286 112.44C759.912 112.973 759.646 113.733 759.486 114.72C759.326 115.68 759.246 116.867 759.246 118.28V130H755.526ZM778.71 130V108.44H781.63L782.19 110.92H782.39C782.737 110.2 783.097 109.64 783.47 109.24C783.87 108.813 784.31 108.507 784.79 108.32C785.27 108.133 785.803 108.04 786.39 108.04C787.51 108.04 788.363 108.32 788.95 108.88C789.563 109.413 790.017 110.213 790.31 111.28H790.47C790.923 110.24 791.483 109.44 792.15 108.88C792.843 108.32 793.75 108.04 794.87 108.04C795.99 108.04 796.857 108.333 797.47 108.92C798.11 109.48 798.563 110.347 798.83 111.52C799.097 112.667 799.23 114.147 799.23 115.96V130H795.47V116.04C795.47 115.107 795.43 114.32 795.35 113.68C795.27 113.04 795.097 112.547 794.83 112.2C794.563 111.827 794.137 111.64 793.55 111.64C792.963 111.64 792.47 111.893 792.07 112.4C791.67 112.88 791.363 113.613 791.15 114.6C790.963 115.56 790.87 116.787 790.87 118.28V130H787.11V116.04C787.11 115.08 787.043 114.28 786.91 113.64C786.803 113 786.603 112.507 786.31 112.16C786.017 111.813 785.577 111.64 784.99 111.64C784.35 111.64 783.843 111.907 783.47 112.44C783.097 112.973 782.83 113.733 782.67 114.72C782.51 115.68 782.43 116.867 782.43 118.28V130H778.71ZM813.774 130.4C811.401 130.4 809.361 129.973 807.654 129.12C805.974 128.24 804.681 126.973 803.774 125.32C802.868 123.667 802.414 121.64 802.414 119.24C802.414 116.92 802.828 114.933 803.654 113.28C804.508 111.6 805.694 110.307 807.214 109.4C808.734 108.493 810.534 108.04 812.614 108.04C814.534 108.04 816.174 108.453 817.534 109.28C818.921 110.107 819.988 111.28 820.734 112.8C821.481 114.293 821.854 116.093 821.854 118.2V120.2H806.654C806.708 121.827 807.054 123.133 807.694 124.12C808.334 125.107 809.201 125.827 810.294 126.28C811.388 126.707 812.641 126.92 814.054 126.92C815.174 126.92 816.308 126.773 817.454 126.48C818.628 126.16 819.801 125.747 820.974 125.24V128.88C819.774 129.413 818.561 129.8 817.334 130.04C816.108 130.28 814.921 130.4 813.774 130.4ZM817.774 117C817.748 115.827 817.521 114.827 817.094 114C816.694 113.173 816.121 112.533 815.374 112.08C814.628 111.627 813.721 111.4 812.654 111.4C811.028 111.4 809.694 111.907 808.654 112.92C807.614 113.907 806.974 115.267 806.734 117H817.774ZM825.559 130V127.24L831.839 126.48V111.96L826.319 111.4V108.44H835.159L835.719 112.28H835.919C836.665 110.92 837.505 109.88 838.439 109.16C839.399 108.413 840.625 108.04 842.119 108.04C842.892 108.04 843.625 108.107 844.319 108.24C845.039 108.373 845.705 108.587 846.319 108.88L845.199 112.68C844.772 112.467 844.265 112.293 843.679 112.16C843.119 112 842.519 111.92 841.879 111.92C840.705 111.92 839.679 112.253 838.799 112.92C837.945 113.587 837.279 114.48 836.799 115.6C836.345 116.72 836.119 117.96 836.119 119.32V126.48L842.199 127.24V130H825.559ZM860.023 130.4C857.836 130.4 855.97 130.013 854.423 129.24C852.903 128.467 851.743 127.267 850.943 125.64C850.143 124.013 849.743 121.933 849.743 119.4C849.743 116.733 850.17 114.56 851.023 112.88C851.903 111.2 853.143 109.973 854.743 109.2C856.343 108.427 858.21 108.04 860.343 108.04C861.543 108.04 862.69 108.16 863.783 108.4C864.876 108.64 865.903 109 866.863 109.48L865.623 112.92C864.716 112.467 863.85 112.147 863.023 111.96C862.196 111.773 861.37 111.68 860.543 111.68C859.05 111.68 857.823 111.973 856.863 112.56C855.903 113.12 855.196 113.96 854.743 115.08C854.29 116.2 854.063 117.613 854.063 119.32C854.063 121.08 854.303 122.507 854.783 123.6C855.263 124.693 855.983 125.493 856.943 126C857.903 126.507 859.09 126.76 860.503 126.76C861.57 126.76 862.61 126.64 863.623 126.4C864.663 126.133 865.623 125.787 866.503 125.36V129.12C865.596 129.547 864.57 129.867 863.423 130.08C862.303 130.293 861.17 130.4 860.023 130.4ZM883.328 130.4C880.954 130.4 878.914 129.973 877.208 129.12C875.528 128.24 874.234 126.973 873.328 125.32C872.421 123.667 871.968 121.64 871.968 119.24C871.968 116.92 872.381 114.933 873.208 113.28C874.061 111.6 875.248 110.307 876.768 109.4C878.288 108.493 880.088 108.04 882.168 108.04C884.088 108.04 885.728 108.453 887.088 109.28C888.474 110.107 889.541 111.28 890.288 112.8C891.034 114.293 891.408 116.093 891.408 118.2V120.2H876.208C876.261 121.827 876.608 123.133 877.248 124.12C877.888 125.107 878.754 125.827 879.848 126.28C880.941 126.707 882.194 126.92 883.608 126.92C884.728 126.92 885.861 126.773 887.008 126.48C888.181 126.16 889.354 125.747 890.528 125.24V128.88C889.328 129.413 888.114 129.8 886.888 130.04C885.661 130.28 884.474 130.4 883.328 130.4ZM887.328 117C887.301 115.827 887.074 114.827 886.648 114C886.248 113.173 885.674 112.533 884.928 112.08C884.181 111.627 883.274 111.4 882.208 111.4C880.581 111.4 879.248 111.907 878.208 112.92C877.168 113.907 876.528 115.267 876.288 117H887.328ZM904.872 130.4C904.045 130.4 903.365 130.16 902.832 129.68C902.299 129.2 902.032 128.453 902.032 127.44C902.032 126.373 902.299 125.613 902.832 125.16C903.365 124.707 904.045 124.48 904.872 124.48C905.699 124.48 906.365 124.72 906.872 125.2C907.405 125.653 907.672 126.4 907.672 127.44C907.672 128.427 907.405 129.173 906.872 129.68C906.365 130.16 905.699 130.4 904.872 130.4Z" fill="#CCCCCC"/>
</svg>
