<svg width="2600" height="694" viewBox="0 0 2600 694" fill="none" xmlns="http://www.w3.org/2000/svg">
<rect x="1000.5" y="0.5" width="599" height="399" rx="19.5" fill="white" stroke="black"/>
<path d="M1129.37 187V178.168L1149.47 175.736V129.272L1131.81 127.48V118.008H1160.09L1161.89 130.296H1162.53C1164.91 125.944 1167.6 122.616 1170.59 120.312C1173.66 117.923 1177.59 116.728 1182.37 116.728C1184.84 116.728 1187.19 116.941 1189.41 117.368C1191.71 117.795 1193.84 118.477 1195.81 119.416L1192.22 131.576C1190.86 130.893 1189.23 130.339 1187.36 129.912C1185.57 129.4 1183.65 129.144 1181.6 129.144C1177.84 129.144 1174.56 130.211 1171.74 132.344C1169.01 134.477 1166.88 137.336 1165.34 140.92C1163.89 144.504 1163.17 148.472 1163.17 152.824V175.736L1182.62 178.168V187H1129.37ZM1221.87 188.28C1214.96 188.28 1209.49 186.531 1205.48 183.032C1201.47 179.533 1199.47 174.456 1199.47 167.8C1199.47 162.765 1200.62 158.627 1202.92 155.384C1205.31 152.056 1208.77 149.581 1213.29 147.96C1217.9 146.253 1223.45 145.315 1229.93 145.144L1244.91 144.76V141.816C1244.91 136.525 1243.46 132.856 1240.56 130.808C1237.74 128.76 1233.81 127.736 1228.78 127.736C1225.28 127.736 1221.87 128.163 1218.54 129.016C1215.21 129.869 1211.93 131.107 1208.68 132.728L1204.2 122.744C1207.62 121.037 1211.37 119.629 1215.47 118.52C1219.65 117.325 1224.3 116.728 1229.42 116.728C1238.38 116.728 1245.29 118.691 1250.16 122.616C1255.02 126.541 1257.45 132.643 1257.45 140.92V187H1246.83L1245.04 177.656H1244.52C1242.56 180.131 1240.43 182.136 1238.12 183.672C1235.9 185.208 1233.43 186.36 1230.7 187.128C1227.97 187.896 1225.02 188.28 1221.87 188.28ZM1225.2 177.4C1228.78 177.4 1232.06 176.76 1235.05 175.48C1238.04 174.115 1240.43 172.152 1242.22 169.592C1244.01 166.947 1244.91 163.704 1244.91 159.864V153.848L1233.13 154.104C1228.27 154.275 1224.3 154.872 1221.23 155.896C1218.24 156.92 1216.02 158.371 1214.57 160.248C1213.21 162.125 1212.52 164.387 1212.52 167.032C1212.52 170.701 1213.68 173.347 1215.98 174.968C1218.37 176.589 1221.44 177.4 1225.2 177.4ZM1269.82 187V178.168L1293.88 175.736V129.272L1272.25 127.48V118.008H1307.58V175.736L1329.85 178.168V187H1269.82ZM1299.9 106.872C1297.25 106.872 1295.08 106.147 1293.37 104.696C1291.75 103.16 1290.94 100.941 1290.94 98.04C1290.94 95.0533 1291.75 92.8347 1293.37 91.384C1295.08 89.848 1297.29 89.08 1300.03 89.08C1302.67 89.08 1304.8 89.848 1306.43 91.384C1308.13 92.8347 1308.99 95.0533 1308.99 98.04C1308.99 100.941 1308.13 103.16 1306.43 104.696C1304.8 106.147 1302.63 106.872 1299.9 106.872ZM1338.89 187V178.168L1363.34 175.736V100.984L1340.81 98.68V89.72H1377.03V175.736L1398.92 178.168V187H1338.89ZM1415.38 191.992L1406.55 186.872L1464.28 91L1472.85 96.12L1415.38 191.992ZM1439.32 188.28C1433.51 188.28 1428.52 187.171 1424.34 184.952C1420.24 182.733 1416.83 179.576 1414.1 175.48C1411.37 171.299 1409.36 166.349 1408.08 160.632C1406.89 154.829 1406.29 148.387 1406.29 141.304C1406.29 131.747 1407.44 123.427 1409.75 116.344C1412.05 109.261 1415.64 103.8 1420.5 99.96C1425.45 96.0347 1431.76 94.072 1439.44 94.072C1445.25 94.072 1450.24 95.1813 1454.42 97.4C1458.6 99.5333 1462.02 102.691 1464.66 106.872C1467.39 111.053 1469.4 116.003 1470.68 121.72C1471.96 127.437 1472.6 133.88 1472.6 141.048C1472.6 148.216 1471.96 154.701 1470.68 160.504C1469.4 166.307 1467.39 171.299 1464.66 175.48C1462.02 179.576 1458.56 182.733 1454.29 184.952C1450.11 187.171 1445.12 188.28 1439.32 188.28ZM1439.57 176.376C1444.27 176.376 1448.02 175.011 1450.84 172.28C1453.65 169.464 1455.66 165.453 1456.85 160.248C1458.13 154.957 1458.77 148.6 1458.77 141.176C1458.77 129.997 1457.32 121.336 1454.42 115.192C1451.52 109.048 1446.57 105.976 1439.57 105.976C1434.88 105.976 1431.08 107.384 1428.18 110.2C1425.36 112.931 1423.32 116.941 1422.04 122.232C1420.76 127.437 1420.12 133.752 1420.12 141.176C1420.12 148.6 1420.76 154.957 1422.04 160.248C1423.32 165.453 1425.36 169.464 1428.18 172.28C1431.08 175.011 1434.88 176.376 1439.57 176.376Z" fill="black"/>
<path d="M1148.47 277.4C1146.98 277.4 1145.52 277.267 1144.11 277C1142.7 276.707 1141.51 276.32 1140.55 275.84V271.96C1141.67 272.467 1142.94 272.907 1144.35 273.28C1145.76 273.627 1147.18 273.8 1148.59 273.8C1149.82 273.8 1150.86 273.64 1151.71 273.32C1152.56 273 1153.2 272.507 1153.63 271.84C1154.08 271.173 1154.31 270.333 1154.31 269.32C1154.31 268.44 1154.11 267.747 1153.71 267.24C1153.31 266.707 1152.64 266.2 1151.71 265.72C1150.8 265.24 1149.56 264.64 1147.99 263.92C1146.84 263.387 1145.74 262.787 1144.67 262.12C1143.63 261.453 1142.78 260.613 1142.11 259.6C1141.47 258.56 1141.15 257.24 1141.15 255.64C1141.15 253.96 1141.52 252.56 1142.27 251.44C1143.02 250.32 1144.07 249.48 1145.43 248.92C1146.82 248.333 1148.46 248.04 1150.35 248.04C1151.68 248.04 1153.03 248.187 1154.39 248.48C1155.75 248.773 1156.99 249.187 1158.11 249.72L1156.75 253.16C1155.74 252.707 1154.67 252.36 1153.55 252.12C1152.46 251.853 1151.4 251.72 1150.39 251.72C1149.4 251.72 1148.54 251.867 1147.79 252.16C1147.04 252.427 1146.47 252.853 1146.07 253.44C1145.7 254.027 1145.51 254.8 1145.51 255.76C1145.51 256.667 1145.7 257.4 1146.07 257.96C1146.44 258.493 1147.04 258.973 1147.87 259.4C1148.7 259.827 1149.75 260.333 1151.03 260.92C1152.55 261.613 1153.88 262.293 1155.03 262.96C1156.18 263.627 1157.07 264.44 1157.71 265.4C1158.35 266.36 1158.67 267.653 1158.67 269.28C1158.67 270.587 1158.44 271.747 1157.99 272.76C1157.54 273.747 1156.87 274.587 1155.99 275.28C1155.14 275.973 1154.08 276.507 1152.83 276.88C1151.58 277.227 1150.12 277.4 1148.47 277.4ZM1162.37 277V248.44H1168.33L1172.41 265.04H1172.53L1176.73 248.44H1182.61V277H1178.65V264.16C1178.65 263.547 1178.67 262.893 1178.69 262.2C1178.72 261.48 1178.75 260.76 1178.77 260.04C1178.8 259.32 1178.83 258.613 1178.85 257.92C1178.91 257.2 1178.95 256.507 1178.97 255.84C1179.03 255.173 1179.08 254.56 1179.13 254C1179.19 253.44 1179.23 252.947 1179.25 252.52H1179.05L1174.49 270H1170.49L1165.81 252.48H1165.61C1165.67 252.88 1165.72 253.36 1165.77 253.92C1165.83 254.453 1165.88 255.053 1165.93 255.72C1165.99 256.387 1166.04 257.093 1166.09 257.84C1166.15 258.56 1166.19 259.293 1166.21 260.04C1166.24 260.787 1166.25 261.52 1166.25 262.24C1166.28 262.96 1166.29 263.627 1166.29 264.24V277H1162.37ZM1184.36 277L1193.24 248.32H1198.08L1207 277H1202.68L1196.88 257C1196.77 256.573 1196.64 256.12 1196.48 255.64C1196.34 255.133 1196.2 254.587 1196.04 254C1195.9 253.413 1195.77 252.84 1195.64 252.28C1195.53 252.84 1195.4 253.413 1195.24 254C1195.1 254.587 1194.97 255.133 1194.84 255.64C1194.7 256.147 1194.58 256.6 1194.48 257L1188.6 277H1184.36ZM1190 268.72L1191.2 265.08H1200.04L1200.92 268.72H1190ZM1210.5 277V248.44H1217.46C1219.7 248.44 1221.57 248.76 1223.06 249.4C1224.56 250.013 1225.68 250.92 1226.42 252.12C1227.2 253.32 1227.58 254.813 1227.58 256.6C1227.58 258.04 1227.36 259.28 1226.9 260.32C1226.45 261.333 1225.82 262.187 1225.02 262.88C1224.25 263.547 1223.36 264.08 1222.34 264.48L1229.82 277H1225.18L1218.58 265.6H1214.74V277H1210.5ZM1217.34 261.96C1218.73 261.96 1219.85 261.773 1220.7 261.4C1221.58 261 1222.22 260.427 1222.62 259.68C1223.05 258.907 1223.26 257.973 1223.26 256.88C1223.26 255.12 1222.77 253.88 1221.78 253.16C1220.82 252.44 1219.3 252.08 1217.22 252.08H1214.74V261.96H1217.34ZM1239.93 277V252.16H1231.69V248.44H1252.41V252.16H1244.17V277H1239.93ZM1290.86 277.4C1288.06 277.4 1285.78 276.787 1284.02 275.56C1282.26 274.333 1280.95 272.64 1280.1 270.48C1279.27 268.293 1278.86 265.76 1278.86 262.88C1278.86 260.587 1279.12 258.533 1279.66 256.72C1280.22 254.88 1281.03 253.32 1282.1 252.04C1283.19 250.733 1284.51 249.747 1286.06 249.08C1287.6 248.387 1289.39 248.04 1291.42 248.04C1292.8 248.04 1294.07 248.187 1295.22 248.48C1296.39 248.773 1297.5 249.187 1298.54 249.72L1297.02 253.16C1296.14 252.707 1295.2 252.373 1294.22 252.16C1293.23 251.92 1292.27 251.8 1291.34 251.8C1289.98 251.8 1288.78 252.053 1287.74 252.56C1286.72 253.04 1285.88 253.76 1285.22 254.72C1284.55 255.653 1284.04 256.8 1283.7 258.16C1283.38 259.52 1283.22 261.08 1283.22 262.84C1283.22 265.107 1283.48 267.04 1284.02 268.64C1284.58 270.24 1285.44 271.467 1286.62 272.32C1287.79 273.147 1289.31 273.56 1291.18 273.56C1292.11 273.56 1293.08 273.453 1294.1 273.24C1295.14 273.027 1296.22 272.68 1297.34 272.2V276.16C1296.24 276.587 1295.16 276.893 1294.1 277.08C1293.06 277.293 1291.98 277.4 1290.86 277.4ZM1311.56 277.4C1309.75 277.4 1308.19 277.053 1306.88 276.36C1305.6 275.667 1304.53 274.68 1303.68 273.4C1302.83 272.093 1302.2 270.547 1301.8 268.76C1301.43 266.947 1301.24 264.933 1301.24 262.72C1301.24 259.733 1301.6 257.133 1302.32 254.92C1303.04 252.707 1304.16 251 1305.68 249.8C1307.23 248.573 1309.2 247.96 1311.6 247.96C1313.41 247.96 1314.97 248.307 1316.28 249C1317.59 249.667 1318.65 250.653 1319.48 251.96C1320.33 253.267 1320.96 254.813 1321.36 256.6C1321.76 258.387 1321.96 260.4 1321.96 262.64C1321.96 264.88 1321.76 266.907 1321.36 268.72C1320.96 270.533 1320.33 272.093 1319.48 273.4C1318.65 274.68 1317.57 275.667 1316.24 276.36C1314.93 277.053 1313.37 277.4 1311.56 277.4ZM1311.64 273.68C1313.11 273.68 1314.28 273.253 1315.16 272.4C1316.04 271.52 1316.67 270.267 1317.04 268.64C1317.44 266.987 1317.64 265 1317.64 262.68C1317.64 259.187 1317.19 256.48 1316.28 254.56C1315.37 252.64 1313.83 251.68 1311.64 251.68C1310.17 251.68 1308.99 252.12 1308.08 253C1307.2 253.853 1306.56 255.107 1306.16 256.76C1305.76 258.387 1305.56 260.36 1305.56 262.68C1305.56 265 1305.76 266.987 1306.16 268.64C1306.56 270.267 1307.2 271.52 1308.08 272.4C1308.99 273.253 1310.17 273.68 1311.64 273.68ZM1325.3 277V248.44H1330.98L1340.5 272H1340.62C1340.57 271.173 1340.52 270.387 1340.46 269.64C1340.44 268.893 1340.41 268.173 1340.38 267.48C1340.36 266.76 1340.33 266.067 1340.3 265.4C1340.3 264.707 1340.3 264.013 1340.3 263.32V248.44H1344.26V277H1338.86L1328.94 252.6H1328.78C1328.84 253.427 1328.89 254.24 1328.94 255.04C1329.02 255.813 1329.08 256.587 1329.1 257.36C1329.16 258.107 1329.2 258.84 1329.22 259.56C1329.25 260.253 1329.26 260.92 1329.26 261.56V277H1325.3ZM1355.85 277V252.16H1347.61V248.44H1368.33V252.16H1360.09V277H1355.85ZM1372.79 277V248.44H1379.75C1381.99 248.44 1383.86 248.76 1385.35 249.4C1386.85 250.013 1387.97 250.92 1388.71 252.12C1389.49 253.32 1389.87 254.813 1389.87 256.6C1389.87 258.04 1389.65 259.28 1389.19 260.32C1388.74 261.333 1388.11 262.187 1387.31 262.88C1386.54 263.547 1385.65 264.08 1384.63 264.48L1392.11 277H1387.47L1380.87 265.6H1377.03V277H1372.79ZM1379.63 261.96C1381.02 261.96 1382.14 261.773 1382.99 261.4C1383.87 261 1384.51 260.427 1384.91 259.68C1385.34 258.907 1385.55 257.973 1385.55 256.88C1385.55 255.12 1385.06 253.88 1384.07 253.16C1383.11 252.44 1381.59 252.08 1379.51 252.08H1377.03V261.96H1379.63ZM1393.02 277L1401.9 248.32H1406.74L1415.66 277H1411.34L1405.54 257C1405.43 256.573 1405.3 256.12 1405.14 255.64C1405 255.133 1404.86 254.587 1404.7 254C1404.56 253.413 1404.43 252.84 1404.3 252.28C1404.19 252.84 1404.06 253.413 1403.9 254C1403.76 254.587 1403.63 255.133 1403.5 255.64C1403.36 256.147 1403.24 256.6 1403.14 257L1397.26 277H1393.02ZM1398.66 268.72L1399.86 265.08H1408.7L1409.58 268.72H1398.66ZM1429.96 277.4C1427.16 277.4 1424.88 276.787 1423.12 275.56C1421.36 274.333 1420.06 272.64 1419.2 270.48C1418.38 268.293 1417.96 265.76 1417.96 262.88C1417.96 260.587 1418.23 258.533 1418.76 256.72C1419.32 254.88 1420.14 253.32 1421.2 252.04C1422.3 250.733 1423.62 249.747 1425.16 249.08C1426.71 248.387 1428.5 248.04 1430.52 248.04C1431.91 248.04 1433.18 248.187 1434.32 248.48C1435.5 248.773 1436.6 249.187 1437.64 249.72L1436.12 253.16C1435.24 252.707 1434.31 252.373 1433.32 252.16C1432.34 251.92 1431.38 251.8 1430.44 251.8C1429.08 251.8 1427.88 252.053 1426.84 252.56C1425.83 253.04 1424.99 253.76 1424.32 254.72C1423.66 255.653 1423.15 256.8 1422.8 258.16C1422.48 259.52 1422.32 261.08 1422.32 262.84C1422.32 265.107 1422.59 267.04 1423.12 268.64C1423.68 270.24 1424.55 271.467 1425.72 272.32C1426.9 273.147 1428.42 273.56 1430.28 273.56C1431.22 273.56 1432.19 273.453 1433.2 273.24C1434.24 273.027 1435.32 272.68 1436.44 272.2V276.16C1435.35 276.587 1434.27 276.893 1433.2 277.08C1432.16 277.293 1431.08 277.4 1429.96 277.4ZM1448.59 277V252.16H1440.35V248.44H1461.07V252.16H1452.83V277H1448.59ZM1215.74 331.4C1214.12 331.4 1212.74 331.08 1211.62 330.44C1210.53 329.773 1209.7 328.88 1209.14 327.76C1208.58 326.613 1208.3 325.333 1208.3 323.92C1208.3 322.453 1208.58 321.16 1209.14 320.04C1209.73 318.92 1210.5 317.893 1211.46 316.96C1212.45 316.027 1213.54 315.12 1214.74 314.24C1215.38 313.787 1216.05 313.267 1216.74 312.68C1217.46 312.067 1218.08 311.373 1218.58 310.6C1219.09 309.8 1219.34 308.92 1219.34 307.96C1219.34 307.053 1219.12 306.36 1218.66 305.88C1218.24 305.373 1217.65 305.12 1216.9 305.12C1216.13 305.12 1215.52 305.387 1215.06 305.92C1214.64 306.427 1214.42 307.16 1214.42 308.12C1214.42 308.893 1214.54 309.653 1214.78 310.4C1215.02 311.147 1215.33 311.84 1215.7 312.48C1216.1 313.12 1216.49 313.68 1216.86 314.16L1230.14 331H1225.26L1214.34 316.6C1213.81 315.907 1213.26 315.133 1212.7 314.28C1212.14 313.4 1211.66 312.453 1211.26 311.44C1210.86 310.4 1210.66 309.307 1210.66 308.16C1210.66 306.293 1211.21 304.813 1212.3 303.72C1213.42 302.6 1214.93 302.04 1216.82 302.04C1218.77 302.04 1220.29 302.587 1221.38 303.68C1222.48 304.773 1223.02 306.213 1223.02 308C1223.02 309.227 1222.73 310.373 1222.14 311.44C1221.56 312.507 1220.8 313.493 1219.86 314.4C1218.93 315.28 1217.96 316.133 1216.94 316.96C1216.14 317.6 1215.38 318.24 1214.66 318.88C1213.94 319.52 1213.36 320.227 1212.9 321C1212.48 321.773 1212.26 322.667 1212.26 323.68C1212.26 324.827 1212.61 325.813 1213.3 326.64C1214 327.44 1214.97 327.84 1216.22 327.84C1217.18 327.84 1218.08 327.613 1218.9 327.16C1219.76 326.68 1220.53 326.04 1221.22 325.24C1221.92 324.44 1222.52 323.56 1223.02 322.6C1223.53 321.613 1223.94 320.613 1224.26 319.6C1224.61 318.587 1224.86 317.627 1225.02 316.72H1228.86C1228.62 318.213 1228.25 319.68 1227.74 321.12C1227.24 322.533 1226.6 323.867 1225.82 325.12C1225.08 326.373 1224.2 327.467 1223.18 328.4C1222.17 329.333 1221.04 330.067 1219.78 330.6C1218.56 331.133 1217.21 331.4 1215.74 331.4ZM1256.87 331V302.44H1273.99V306.16H1261.03V314.24H1273.31V317.96H1261.03V327.28H1273.99V331H1256.87ZM1287.58 331.4C1286.08 331.4 1284.63 331.267 1283.22 331C1281.8 330.707 1280.62 330.32 1279.66 329.84V325.96C1280.78 326.467 1282.04 326.907 1283.46 327.28C1284.87 327.627 1286.28 327.8 1287.7 327.8C1288.92 327.8 1289.96 327.64 1290.82 327.32C1291.67 327 1292.31 326.507 1292.74 325.84C1293.19 325.173 1293.42 324.333 1293.42 323.32C1293.42 322.44 1293.22 321.747 1292.82 321.24C1292.42 320.707 1291.75 320.2 1290.82 319.72C1289.91 319.24 1288.67 318.64 1287.1 317.92C1285.95 317.387 1284.84 316.787 1283.78 316.12C1282.74 315.453 1281.88 314.613 1281.22 313.6C1280.58 312.56 1280.26 311.24 1280.26 309.64C1280.26 307.96 1280.63 306.56 1281.38 305.44C1282.12 304.32 1283.18 303.48 1284.54 302.92C1285.92 302.333 1287.56 302.04 1289.46 302.04C1290.79 302.04 1292.14 302.187 1293.5 302.48C1294.86 302.773 1296.1 303.187 1297.22 303.72L1295.86 307.16C1294.84 306.707 1293.78 306.36 1292.66 306.12C1291.56 305.853 1290.51 305.72 1289.5 305.72C1288.51 305.72 1287.64 305.867 1286.9 306.16C1286.15 306.427 1285.58 306.853 1285.18 307.44C1284.8 308.027 1284.62 308.8 1284.62 309.76C1284.62 310.667 1284.8 311.4 1285.18 311.96C1285.55 312.493 1286.15 312.973 1286.98 313.4C1287.8 313.827 1288.86 314.333 1290.14 314.92C1291.66 315.613 1292.99 316.293 1294.14 316.96C1295.28 317.627 1296.18 318.44 1296.82 319.4C1297.46 320.36 1297.78 321.653 1297.78 323.28C1297.78 324.587 1297.55 325.747 1297.1 326.76C1296.64 327.747 1295.98 328.587 1295.1 329.28C1294.24 329.973 1293.19 330.507 1291.94 330.88C1290.68 331.227 1289.23 331.4 1287.58 331.4ZM1314.04 331.4C1311.24 331.4 1308.96 330.787 1307.2 329.56C1305.44 328.333 1304.13 326.64 1303.28 324.48C1302.45 322.293 1302.04 319.76 1302.04 316.88C1302.04 314.587 1302.31 312.533 1302.84 310.72C1303.4 308.88 1304.21 307.32 1305.28 306.04C1306.37 304.733 1307.69 303.747 1309.24 303.08C1310.79 302.387 1312.57 302.04 1314.6 302.04C1315.99 302.04 1317.25 302.187 1318.4 302.48C1319.57 302.773 1320.68 303.187 1321.72 303.72L1320.2 307.16C1319.32 306.707 1318.39 306.373 1317.4 306.16C1316.41 305.92 1315.45 305.8 1314.52 305.8C1313.16 305.8 1311.96 306.053 1310.92 306.56C1309.91 307.04 1309.07 307.76 1308.4 308.72C1307.73 309.653 1307.23 310.8 1306.88 312.16C1306.56 313.52 1306.4 315.08 1306.4 316.84C1306.4 319.107 1306.67 321.04 1307.2 322.64C1307.76 324.24 1308.63 325.467 1309.8 326.32C1310.97 327.147 1312.49 327.56 1314.36 327.56C1315.29 327.56 1316.27 327.453 1317.28 327.24C1318.32 327.027 1319.4 326.68 1320.52 326.2V330.16C1319.43 330.587 1318.35 330.893 1317.28 331.08C1316.24 331.293 1315.16 331.4 1314.04 331.4ZM1326.42 331V302.44H1333.38C1335.62 302.44 1337.49 302.76 1338.98 303.4C1340.48 304.013 1341.6 304.92 1342.34 306.12C1343.12 307.32 1343.5 308.813 1343.5 310.6C1343.5 312.04 1343.28 313.28 1342.82 314.32C1342.37 315.333 1341.74 316.187 1340.94 316.88C1340.17 317.547 1339.28 318.08 1338.26 318.48L1345.74 331H1341.1L1334.5 319.6H1330.66V331H1326.42ZM1333.26 315.96C1334.65 315.96 1335.77 315.773 1336.62 315.4C1337.5 315 1338.14 314.427 1338.54 313.68C1338.97 312.907 1339.18 311.973 1339.18 310.88C1339.18 309.12 1338.69 307.88 1337.7 307.16C1336.74 306.44 1335.22 306.08 1333.14 306.08H1330.66V315.96H1333.26ZM1357.93 331.4C1356.12 331.4 1354.56 331.053 1353.25 330.36C1351.97 329.667 1350.9 328.68 1350.05 327.4C1349.2 326.093 1348.57 324.547 1348.17 322.76C1347.8 320.947 1347.61 318.933 1347.61 316.72C1347.61 313.733 1347.97 311.133 1348.69 308.92C1349.41 306.707 1350.53 305 1352.05 303.8C1353.6 302.573 1355.57 301.96 1357.97 301.96C1359.78 301.96 1361.34 302.307 1362.65 303C1363.96 303.667 1365.02 304.653 1365.85 305.96C1366.7 307.267 1367.33 308.813 1367.73 310.6C1368.13 312.387 1368.33 314.4 1368.33 316.64C1368.33 318.88 1368.13 320.907 1367.73 322.72C1367.33 324.533 1366.7 326.093 1365.85 327.4C1365.02 328.68 1363.94 329.667 1362.61 330.36C1361.3 331.053 1359.74 331.4 1357.93 331.4ZM1358.01 327.68C1359.48 327.68 1360.65 327.253 1361.53 326.4C1362.41 325.52 1363.04 324.267 1363.41 322.64C1363.81 320.987 1364.01 319 1364.01 316.68C1364.01 313.187 1363.56 310.48 1362.65 308.56C1361.74 306.64 1360.2 305.68 1358.01 305.68C1356.54 305.68 1355.36 306.12 1354.45 307C1353.57 307.853 1352.93 309.107 1352.53 310.76C1352.13 312.387 1351.93 314.36 1351.93 316.68C1351.93 319 1352.13 320.987 1352.53 322.64C1352.93 324.267 1353.57 325.52 1354.45 326.4C1355.36 327.253 1356.54 327.68 1358.01 327.68ZM1372.87 331L1369.99 302.44H1373.79C1373.95 304.013 1374.09 305.467 1374.19 306.8C1374.33 308.107 1374.43 309.32 1374.51 310.44C1374.62 311.56 1374.7 312.627 1374.75 313.64C1374.83 314.627 1374.91 315.613 1374.99 316.6C1375.05 317.293 1375.1 318.027 1375.15 318.8C1375.21 319.573 1375.26 320.36 1375.31 321.16C1375.37 321.933 1375.41 322.68 1375.43 323.4C1375.46 324.12 1375.49 324.787 1375.51 325.4C1375.54 325.987 1375.55 326.453 1375.55 326.8H1375.71C1375.79 326.267 1375.89 325.653 1375.99 324.96C1376.13 324.24 1376.26 323.493 1376.39 322.72C1376.55 321.947 1376.7 321.213 1376.83 320.52C1376.99 319.8 1377.13 319.173 1377.23 318.64L1379.15 309.44H1383.23L1385.19 318.72C1385.33 319.387 1385.47 320.08 1385.63 320.8C1385.82 321.52 1385.98 322.253 1386.11 323C1386.27 323.72 1386.41 324.413 1386.51 325.08C1386.65 325.72 1386.75 326.307 1386.83 326.84H1386.95C1386.98 326.413 1386.99 325.907 1386.99 325.32C1387.02 324.707 1387.03 324.04 1387.03 323.32C1387.06 322.6 1387.09 321.84 1387.11 321.04C1387.17 320.24 1387.22 319.427 1387.27 318.6C1387.33 317.747 1387.38 316.92 1387.43 316.12C1387.49 315.4 1387.54 314.667 1387.59 313.92C1387.65 313.147 1387.7 312.36 1387.75 311.56C1387.83 310.733 1387.91 309.867 1387.99 308.96C1388.07 308.027 1388.15 307.027 1388.23 305.96C1388.31 304.867 1388.41 303.693 1388.51 302.44H1392.31L1389.71 331H1384.83L1382.19 318.88C1382.03 318.16 1381.89 317.467 1381.75 316.8C1381.65 316.133 1381.55 315.533 1381.47 315C1381.39 314.44 1381.33 313.987 1381.27 313.64H1381.11C1381.09 313.987 1381.03 314.44 1380.95 315C1380.87 315.533 1380.77 316.133 1380.63 316.8C1380.53 317.44 1380.39 318.133 1380.23 318.88L1377.67 331H1372.87Z" fill="black"/>
<rect x="0.5" y="0.5" width="599" height="399" rx="19.5" fill="white" stroke="black"/>
<path d="M136.377 282.4C134.884 282.4 133.431 282.267 132.017 282C130.604 281.707 129.417 281.32 128.457 280.84V276.96C129.577 277.467 130.844 277.907 132.257 278.28C133.671 278.627 135.084 278.8 136.497 278.8C137.724 278.8 138.764 278.64 139.617 278.32C140.471 278 141.111 277.507 141.537 276.84C141.991 276.173 142.217 275.333 142.217 274.32C142.217 273.44 142.017 272.747 141.617 272.24C141.217 271.707 140.551 271.2 139.617 270.72C138.711 270.24 137.471 269.64 135.897 268.92C134.751 268.387 133.644 267.787 132.577 267.12C131.537 266.453 130.684 265.613 130.017 264.6C129.377 263.56 129.057 262.24 129.057 260.64C129.057 258.96 129.431 257.56 130.177 256.44C130.924 255.32 131.977 254.48 133.337 253.92C134.724 253.333 136.364 253.04 138.257 253.04C139.591 253.04 140.937 253.187 142.297 253.48C143.657 253.773 144.897 254.187 146.017 254.72L144.657 258.16C143.644 257.707 142.577 257.36 141.457 257.12C140.364 256.853 139.311 256.72 138.297 256.72C137.311 256.72 136.444 256.867 135.697 257.16C134.951 257.427 134.377 257.853 133.977 258.44C133.604 259.027 133.417 259.8 133.417 260.76C133.417 261.667 133.604 262.4 133.977 262.96C134.351 263.493 134.951 263.973 135.777 264.4C136.604 264.827 137.657 265.333 138.937 265.92C140.457 266.613 141.791 267.293 142.937 267.96C144.084 268.627 144.977 269.44 145.617 270.4C146.257 271.36 146.577 272.653 146.577 274.28C146.577 275.587 146.351 276.747 145.897 277.76C145.444 278.747 144.777 279.587 143.897 280.28C143.044 280.973 141.991 281.507 140.737 281.88C139.484 282.227 138.031 282.4 136.377 282.4ZM152.562 282V279.08L158.282 278.52V256.92L152.562 256.36V253.44H168.242V256.36L162.442 256.92V278.52L168.242 279.08V282H152.562ZM185.226 282.4C182.586 282.4 180.359 281.853 178.546 280.76C176.759 279.64 175.426 278.027 174.546 275.92C173.666 273.787 173.226 271.187 173.226 268.12C173.226 264.947 173.693 262.24 174.626 260C175.586 257.733 176.986 256.013 178.826 254.84C180.693 253.64 182.973 253.04 185.666 253.04C187.079 253.04 188.359 253.2 189.506 253.52C190.679 253.813 191.773 254.227 192.786 254.76L191.346 258.24C190.626 257.787 189.813 257.44 188.906 257.2C187.999 256.933 186.999 256.8 185.906 256.8C184.039 256.8 182.479 257.24 181.226 258.12C179.973 259 179.039 260.267 178.426 261.92C177.813 263.573 177.506 265.587 177.506 267.96C177.506 270.04 177.759 271.893 178.266 273.52C178.799 275.12 179.639 276.387 180.786 277.32C181.933 278.227 183.466 278.68 185.386 278.68C186.159 278.68 186.839 278.627 187.426 278.52C188.039 278.387 188.586 278.267 189.066 278.16V270.28H184.266V266.64H193.066V280.88C191.973 281.333 190.773 281.707 189.466 282C188.159 282.267 186.746 282.4 185.226 282.4ZM197.29 282V253.44H202.97L212.49 277H212.61C212.557 276.173 212.504 275.387 212.45 274.64C212.424 273.893 212.397 273.173 212.37 272.48C212.344 271.76 212.317 271.067 212.29 270.4C212.29 269.707 212.29 269.013 212.29 268.32V253.44H216.25V282H210.85L200.93 257.6H200.77C200.824 258.427 200.877 259.24 200.93 260.04C201.01 260.813 201.064 261.587 201.09 262.36C201.144 263.107 201.184 263.84 201.21 264.56C201.237 265.253 201.25 265.92 201.25 266.56V282H197.29ZM229.115 282.4C227.621 282.4 226.168 282.267 224.755 282C223.341 281.707 222.155 281.32 221.195 280.84V276.96C222.315 277.467 223.581 277.907 224.995 278.28C226.408 278.627 227.821 278.8 229.235 278.8C230.461 278.8 231.501 278.64 232.355 278.32C233.208 278 233.848 277.507 234.275 276.84C234.728 276.173 234.955 275.333 234.955 274.32C234.955 273.44 234.755 272.747 234.355 272.24C233.955 271.707 233.288 271.2 232.355 270.72C231.448 270.24 230.208 269.64 228.635 268.92C227.488 268.387 226.381 267.787 225.315 267.12C224.275 266.453 223.421 265.613 222.755 264.6C222.115 263.56 221.795 262.24 221.795 260.64C221.795 258.96 222.168 257.56 222.915 256.44C223.661 255.32 224.715 254.48 226.075 253.92C227.461 253.333 229.101 253.04 230.995 253.04C232.328 253.04 233.675 253.187 235.035 253.48C236.395 253.773 237.635 254.187 238.755 254.72L237.395 258.16C236.381 257.707 235.315 257.36 234.195 257.12C233.101 256.853 232.048 256.72 231.035 256.72C230.048 256.72 229.181 256.867 228.435 257.16C227.688 257.427 227.115 257.853 226.715 258.44C226.341 259.027 226.155 259.8 226.155 260.76C226.155 261.667 226.341 262.4 226.715 262.96C227.088 263.493 227.688 263.973 228.515 264.4C229.341 264.827 230.395 265.333 231.675 265.92C233.195 266.613 234.528 267.293 235.675 267.96C236.821 268.627 237.715 269.44 238.355 270.4C238.995 271.36 239.315 272.653 239.315 274.28C239.315 275.587 239.088 276.747 238.635 277.76C238.181 278.747 237.515 279.587 236.635 280.28C235.781 280.973 234.728 281.507 233.475 281.88C232.221 282.227 230.768 282.4 229.115 282.4ZM276.283 282.4C274.47 282.4 272.91 282.053 271.603 281.36C270.323 280.667 269.257 279.68 268.403 278.4C267.55 277.093 266.923 275.547 266.523 273.76C266.15 271.947 265.963 269.933 265.963 267.72C265.963 264.733 266.323 262.133 267.043 259.92C267.763 257.707 268.883 256 270.403 254.8C271.95 253.573 273.923 252.96 276.323 252.96C278.137 252.96 279.697 253.307 281.003 254C282.31 254.667 283.377 255.653 284.203 256.96C285.057 258.267 285.683 259.813 286.083 261.6C286.483 263.387 286.683 265.4 286.683 267.64C286.683 269.88 286.483 271.907 286.083 273.72C285.683 275.533 285.057 277.093 284.203 278.4C283.377 279.68 282.297 280.667 280.963 281.36C279.657 282.053 278.097 282.4 276.283 282.4ZM276.363 278.68C277.83 278.68 279.003 278.253 279.883 277.4C280.763 276.52 281.39 275.267 281.763 273.64C282.163 271.987 282.363 270 282.363 267.68C282.363 264.187 281.91 261.48 281.003 259.56C280.097 257.64 278.55 256.68 276.363 256.68C274.897 256.68 273.71 257.12 272.803 258C271.923 258.853 271.283 260.107 270.883 261.76C270.483 263.387 270.283 265.36 270.283 267.68C270.283 270 270.483 271.987 270.883 273.64C271.283 275.267 271.923 276.52 272.803 277.4C273.71 278.253 274.897 278.68 276.363 278.68ZM291.148 282V253.44H308.268V257.16H295.308V266.48H307.588V270.2H295.308V282H291.148ZM314.332 282V253.44H331.452V257.16H318.492V266.48H330.772V270.2H318.492V282H314.332ZM339.877 273.08V269.36H351.877V273.08H339.877ZM371.501 282.4C368.701 282.4 366.421 281.787 364.661 280.56C362.901 279.333 361.594 277.64 360.741 275.48C359.914 273.293 359.501 270.76 359.501 267.88C359.501 265.587 359.768 263.533 360.301 261.72C360.861 259.88 361.674 258.32 362.741 257.04C363.834 255.733 365.154 254.747 366.701 254.08C368.248 253.387 370.034 253.04 372.061 253.04C373.448 253.04 374.714 253.187 375.861 253.48C377.034 253.773 378.141 254.187 379.181 254.72L377.661 258.16C376.781 257.707 375.848 257.373 374.861 257.16C373.874 256.92 372.914 256.8 371.981 256.8C370.621 256.8 369.421 257.053 368.381 257.56C367.368 258.04 366.528 258.76 365.861 259.72C365.194 260.653 364.688 261.8 364.341 263.16C364.021 264.52 363.861 266.08 363.861 267.84C363.861 270.107 364.128 272.04 364.661 273.64C365.221 275.24 366.088 276.467 367.261 277.32C368.434 278.147 369.954 278.56 371.821 278.56C372.754 278.56 373.728 278.453 374.741 278.24C375.781 278.027 376.861 277.68 377.981 277.2V281.16C376.888 281.587 375.808 281.893 374.741 282.08C373.701 282.293 372.621 282.4 371.501 282.4ZM382.765 282V253.44H387.005V265.24H397.485V253.44H401.725V282H397.485V268.96H387.005V282H382.765ZM404.11 282L412.99 253.32H417.83L426.75 282H422.43L416.63 262C416.523 261.573 416.39 261.12 416.23 260.64C416.096 260.133 415.95 259.587 415.79 259C415.656 258.413 415.523 257.84 415.39 257.28C415.283 257.84 415.15 258.413 414.99 259C414.856 259.587 414.723 260.133 414.59 260.64C414.456 261.147 414.336 261.6 414.23 262L408.35 282H404.11ZM409.75 273.72L410.95 270.08H419.79L420.67 273.72H409.75ZM430.774 282V279.08L436.494 278.52V256.92L430.774 256.36V253.44H446.454V256.36L440.654 256.92V278.52L446.454 279.08V282H430.774ZM452.318 282V253.44H457.998L467.518 277H467.638C467.585 276.173 467.532 275.387 467.478 274.64C467.452 273.893 467.425 273.173 467.398 272.48C467.372 271.76 467.345 271.067 467.318 270.4C467.318 269.707 467.318 269.013 467.318 268.32V253.44H471.278V282H465.878L455.958 257.6H455.798C455.852 258.427 455.905 259.24 455.958 260.04C456.038 260.813 456.092 261.587 456.118 262.36C456.172 263.107 456.212 263.84 456.238 264.56C456.265 265.253 456.278 265.92 456.278 266.56V282H452.318Z" fill="black"/>
<path d="M167.69 201V132.456H189.194C197.194 132.456 203.082 134.28 206.858 137.928C210.698 141.512 212.618 146.632 212.618 153.288C212.618 157.576 211.818 161.416 210.218 164.808C208.618 168.2 206.026 170.888 202.442 172.872C198.858 174.856 194.122 175.848 188.234 175.848H179.306V201H167.69ZM186.986 165.672C190.058 165.672 192.586 165.256 194.57 164.424C196.618 163.528 198.154 162.216 199.178 160.488C200.202 158.696 200.714 156.488 200.714 153.864C200.714 149.96 199.722 147.112 197.738 145.32C195.818 143.528 192.778 142.632 188.618 142.632H179.306V165.672H186.986ZM216.42 201L236.58 132.168H251.076L271.332 201H259.332L246.756 154.152C246.5 152.936 246.18 151.688 245.796 150.408C245.476 149.128 245.156 147.784 244.836 146.376C244.516 144.968 244.196 143.56 243.876 142.152C243.556 143.56 243.236 144.968 242.916 146.376C242.596 147.784 242.276 149.16 241.956 150.504C241.636 151.784 241.284 153 240.9 154.152L228.132 201H216.42ZM230.724 182.472L233.604 172.392H254.148L255.876 182.472H230.724ZM293.663 201V174.408L273.215 132.456H285.887L299.615 163.656L313.247 132.456H325.823L305.471 174.408V201H293.663ZM334.617 201V132.456H376.665V142.824H346.233V160.2H375.129V170.568H346.233V190.632H376.665V201H334.617ZM390.26 201V132.456H407.732C413.108 132.456 417.62 133.256 421.268 134.856C424.916 136.392 427.668 138.664 429.524 141.672C431.38 144.616 432.308 148.232 432.308 152.52C432.308 155.784 431.796 158.664 430.772 161.16C429.748 163.592 428.308 165.64 426.452 167.304C424.66 168.968 422.58 170.344 420.212 171.432L437.588 201H424.724L409.652 174.312H402.164V201H390.26ZM407.444 164.136C410.388 164.136 412.788 163.72 414.644 162.888C416.5 162.056 417.876 160.84 418.772 159.24C419.732 157.576 420.212 155.496 420.212 153C420.212 149.16 419.124 146.472 416.948 144.936C414.836 143.4 411.572 142.632 407.156 142.632H402.164V164.136H407.444Z" fill="black"/>
<rect x="2000.5" y="0.5" width="599" height="399" rx="19.5" fill="white" stroke="black"/>
<path d="M2168.69 201V132.456H2190.19C2198.19 132.456 2204.08 134.28 2207.86 137.928C2211.7 141.512 2213.62 146.632 2213.62 153.288C2213.62 157.576 2212.82 161.416 2211.22 164.808C2209.62 168.2 2207.03 170.888 2203.44 172.872C2199.86 174.856 2195.12 175.848 2189.23 175.848H2180.31V201H2168.69ZM2187.99 165.672C2191.06 165.672 2193.59 165.256 2195.57 164.424C2197.62 163.528 2199.15 162.216 2200.18 160.488C2201.2 158.696 2201.71 156.488 2201.71 153.864C2201.71 149.96 2200.72 147.112 2198.74 145.32C2196.82 143.528 2193.78 142.632 2189.62 142.632H2180.31V165.672H2187.99ZM2217.42 201L2237.58 132.168H2252.08L2272.33 201H2260.33L2247.76 154.152C2247.5 152.936 2247.18 151.688 2246.8 150.408C2246.48 149.128 2246.16 147.784 2245.84 146.376C2245.52 144.968 2245.2 143.56 2244.88 142.152C2244.56 143.56 2244.24 144.968 2243.92 146.376C2243.6 147.784 2243.28 149.16 2242.96 150.504C2242.64 151.784 2242.28 153 2241.9 154.152L2229.13 201H2217.42ZM2231.72 182.472L2234.6 172.392H2255.15L2256.88 182.472H2231.72ZM2294.66 201V174.408L2274.21 132.456H2286.89L2300.61 163.656L2314.25 132.456H2326.82L2306.47 174.408V201H2294.66ZM2335.62 201V132.456H2377.67V142.824H2347.23V160.2H2376.13V170.568H2347.23V190.632H2377.67V201H2335.62ZM2391.26 201V132.456H2433.31V142.824H2402.88V160.2H2431.77V170.568H2402.88V190.632H2433.31V201H2391.26Z" fill="black"/>
<path d="M2090.51 282.4C2089.02 282.4 2087.56 282.267 2086.15 282C2084.74 281.707 2083.55 281.32 2082.59 280.84V276.96C2083.71 277.467 2084.98 277.907 2086.39 278.28C2087.8 278.627 2089.22 278.8 2090.63 278.8C2091.86 278.8 2092.9 278.64 2093.75 278.32C2094.6 278 2095.24 277.507 2095.67 276.84C2096.12 276.173 2096.35 275.333 2096.35 274.32C2096.35 273.44 2096.15 272.747 2095.75 272.24C2095.35 271.707 2094.68 271.2 2093.75 270.72C2092.84 270.24 2091.6 269.64 2090.03 268.92C2088.88 268.387 2087.78 267.787 2086.71 267.12C2085.67 266.453 2084.82 265.613 2084.15 264.6C2083.51 263.56 2083.19 262.24 2083.19 260.64C2083.19 258.96 2083.56 257.56 2084.31 256.44C2085.06 255.32 2086.11 254.48 2087.47 253.92C2088.86 253.333 2090.5 253.04 2092.39 253.04C2093.72 253.04 2095.07 253.187 2096.43 253.48C2097.79 253.773 2099.03 254.187 2100.15 254.72L2098.79 258.16C2097.78 257.707 2096.71 257.36 2095.59 257.12C2094.5 256.853 2093.44 256.72 2092.43 256.72C2091.44 256.72 2090.58 256.867 2089.83 257.16C2089.08 257.427 2088.51 257.853 2088.11 258.44C2087.74 259.027 2087.55 259.8 2087.55 260.76C2087.55 261.667 2087.74 262.4 2088.11 262.96C2088.48 263.493 2089.08 263.973 2089.91 264.4C2090.74 264.827 2091.79 265.333 2093.07 265.92C2094.59 266.613 2095.92 267.293 2097.07 267.96C2098.22 268.627 2099.11 269.44 2099.75 270.4C2100.39 271.36 2100.71 272.653 2100.71 274.28C2100.71 275.587 2100.48 276.747 2100.03 277.76C2099.58 278.747 2098.91 279.587 2098.03 280.28C2097.18 280.973 2096.12 281.507 2094.87 281.88C2093.62 282.227 2092.16 282.4 2090.51 282.4ZM2114.45 282.4C2112.27 282.4 2110.47 281.987 2109.05 281.16C2107.67 280.307 2106.65 279.093 2106.01 277.52C2105.37 275.947 2105.05 274.093 2105.05 271.96V253.44H2109.29V271.52C2109.29 273.013 2109.45 274.307 2109.77 275.4C2110.12 276.467 2110.67 277.28 2111.41 277.84C2112.19 278.4 2113.23 278.68 2114.53 278.68C2115.92 278.68 2116.99 278.387 2117.73 277.8C2118.51 277.187 2119.04 276.347 2119.33 275.28C2119.63 274.187 2119.77 272.92 2119.77 271.48V253.44H2124.01V272C2124.01 274.027 2123.69 275.827 2123.05 277.4C2122.44 278.947 2121.43 280.173 2120.01 281.08C2118.6 281.96 2116.75 282.4 2114.45 282.4ZM2129.36 282V253.44H2137.4C2140.38 253.44 2142.72 253.973 2144.4 255.04C2146.1 256.107 2146.96 257.907 2146.96 260.44C2146.96 262.28 2146.52 263.747 2145.64 264.84C2144.78 265.907 2143.6 266.573 2142.08 266.84V267.04C2143.14 267.253 2144.09 267.613 2144.92 268.12C2145.77 268.6 2146.44 269.293 2146.92 270.2C2147.42 271.08 2147.68 272.24 2147.68 273.68C2147.68 275.413 2147.3 276.907 2146.56 278.16C2145.84 279.413 2144.8 280.373 2143.44 281.04C2142.08 281.68 2140.44 282 2138.52 282H2129.36ZM2137.92 278.4C2139.94 278.4 2141.34 277.96 2142.12 277.08C2142.92 276.2 2143.32 275.04 2143.32 273.6C2143.32 272.613 2143.14 271.773 2142.8 271.08C2142.45 270.387 2141.86 269.853 2141.04 269.48C2140.24 269.107 2139.12 268.92 2137.68 268.92H2133.32V278.4H2137.92ZM2137.6 265.28C2139.44 265.28 2140.73 264.933 2141.48 264.24C2142.25 263.547 2142.64 262.493 2142.64 261.08C2142.64 259.64 2142.22 258.613 2141.4 258C2140.57 257.36 2139.14 257.04 2137.12 257.04H2133.32V265.28H2137.6ZM2150.78 282V253.44H2156.74L2160.82 270.04H2160.94L2165.14 253.44H2171.02V282H2167.06V269.16C2167.06 268.547 2167.07 267.893 2167.1 267.2C2167.13 266.48 2167.15 265.76 2167.18 265.04C2167.21 264.32 2167.23 263.613 2167.26 262.92C2167.31 262.2 2167.35 261.507 2167.38 260.84C2167.43 260.173 2167.49 259.56 2167.54 259C2167.59 258.44 2167.63 257.947 2167.66 257.52H2167.46L2162.9 275H2158.9L2154.22 257.48H2154.02C2154.07 257.88 2154.13 258.36 2154.18 258.92C2154.23 259.453 2154.29 260.053 2154.34 260.72C2154.39 261.387 2154.45 262.093 2154.5 262.84C2154.55 263.56 2154.59 264.293 2154.62 265.04C2154.65 265.787 2154.66 266.52 2154.66 267.24C2154.69 267.96 2154.7 268.627 2154.7 269.24V282H2150.78ZM2176.25 282V279.08L2181.97 278.52V256.92L2176.25 256.36V253.44H2191.93V256.36L2186.13 256.92V278.52L2191.93 279.08V282H2176.25ZM2205.15 282V257.16H2196.91V253.44H2217.63V257.16H2209.39V282H2205.15ZM2229.61 282.4C2228.12 282.4 2226.67 282.267 2225.25 282C2223.84 281.707 2222.65 281.32 2221.69 280.84V276.96C2222.81 277.467 2224.08 277.907 2225.49 278.28C2226.91 278.627 2228.32 278.8 2229.73 278.8C2230.96 278.8 2232 278.64 2232.85 278.32C2233.71 278 2234.35 277.507 2234.77 276.84C2235.23 276.173 2235.45 275.333 2235.45 274.32C2235.45 273.44 2235.25 272.747 2234.85 272.24C2234.45 271.707 2233.79 271.2 2232.85 270.72C2231.95 270.24 2230.71 269.64 2229.13 268.92C2227.99 268.387 2226.88 267.787 2225.81 267.12C2224.77 266.453 2223.92 265.613 2223.25 264.6C2222.61 263.56 2222.29 262.24 2222.29 260.64C2222.29 258.96 2222.67 257.56 2223.41 256.44C2224.16 255.32 2225.21 254.48 2226.57 253.92C2227.96 253.333 2229.6 253.04 2231.49 253.04C2232.83 253.04 2234.17 253.187 2235.53 253.48C2236.89 253.773 2238.13 254.187 2239.25 254.72L2237.89 258.16C2236.88 257.707 2235.81 257.36 2234.69 257.12C2233.6 256.853 2232.55 256.72 2231.53 256.72C2230.55 256.72 2229.68 256.867 2228.93 257.16C2228.19 257.427 2227.61 257.853 2227.21 258.44C2226.84 259.027 2226.65 259.8 2226.65 260.76C2226.65 261.667 2226.84 262.4 2227.21 262.96C2227.59 263.493 2228.19 263.973 2229.01 264.4C2229.84 264.827 2230.89 265.333 2232.17 265.92C2233.69 266.613 2235.03 267.293 2236.17 267.96C2237.32 268.627 2238.21 269.44 2238.85 270.4C2239.49 271.36 2239.81 272.653 2239.81 274.28C2239.81 275.587 2239.59 276.747 2239.13 277.76C2238.68 278.747 2238.01 279.587 2237.13 280.28C2236.28 280.973 2235.23 281.507 2233.97 281.88C2232.72 282.227 2231.27 282.4 2229.61 282.4ZM2274.7 282V257.16H2266.46V253.44H2287.18V257.16H2278.94V282H2274.7ZM2291.65 282V253.44H2298.61C2300.85 253.44 2302.71 253.76 2304.21 254.4C2305.7 255.013 2306.82 255.92 2307.57 257.12C2308.34 258.32 2308.73 259.813 2308.73 261.6C2308.73 263.04 2308.5 264.28 2308.05 265.32C2307.59 266.333 2306.97 267.187 2306.17 267.88C2305.39 268.547 2304.5 269.08 2303.49 269.48L2310.97 282H2306.33L2299.73 270.6H2295.89V282H2291.65ZM2298.49 266.96C2299.87 266.96 2300.99 266.773 2301.85 266.4C2302.73 266 2303.37 265.427 2303.77 264.68C2304.19 263.907 2304.41 262.973 2304.41 261.88C2304.41 260.12 2303.91 258.88 2302.93 258.16C2301.97 257.44 2300.45 257.08 2298.37 257.08H2295.89V266.96H2298.49ZM2311.87 282L2320.75 253.32H2325.59L2334.51 282H2330.19L2324.39 262C2324.29 261.573 2324.15 261.12 2323.99 260.64C2323.86 260.133 2323.71 259.587 2323.55 259C2323.42 258.413 2323.29 257.84 2323.15 257.28C2323.05 257.84 2322.91 258.413 2322.75 259C2322.62 259.587 2322.49 260.133 2322.35 260.64C2322.22 261.147 2322.1 261.6 2321.99 262L2316.11 282H2311.87ZM2317.51 273.72L2318.71 270.08H2327.55L2328.43 273.72H2317.51ZM2336.9 282V253.44H2342.58L2352.1 277H2352.22C2352.16 276.173 2352.11 275.387 2352.06 274.64C2352.03 273.893 2352 273.173 2351.98 272.48C2351.95 271.76 2351.92 271.067 2351.9 270.4C2351.9 269.707 2351.9 269.013 2351.9 268.32V253.44H2355.86V282H2350.46L2340.54 257.6H2340.38C2340.43 258.427 2340.48 259.24 2340.54 260.04C2340.62 260.813 2340.67 261.587 2340.7 262.36C2340.75 263.107 2340.79 263.84 2340.82 264.56C2340.84 265.253 2340.86 265.92 2340.86 266.56V282H2336.9ZM2368.72 282.4C2367.23 282.4 2365.77 282.267 2364.36 282C2362.95 281.707 2361.76 281.32 2360.8 280.84V276.96C2361.92 277.467 2363.19 277.907 2364.6 278.28C2366.01 278.627 2367.43 278.8 2368.84 278.8C2370.07 278.8 2371.11 278.64 2371.96 278.32C2372.81 278 2373.45 277.507 2373.88 276.84C2374.33 276.173 2374.56 275.333 2374.56 274.32C2374.56 273.44 2374.36 272.747 2373.96 272.24C2373.56 271.707 2372.89 271.2 2371.96 270.72C2371.05 270.24 2369.81 269.64 2368.24 268.92C2367.09 268.387 2365.99 267.787 2364.92 267.12C2363.88 266.453 2363.03 265.613 2362.36 264.6C2361.72 263.56 2361.4 262.24 2361.4 260.64C2361.4 258.96 2361.77 257.56 2362.52 256.44C2363.27 255.32 2364.32 254.48 2365.68 253.92C2367.07 253.333 2368.71 253.04 2370.6 253.04C2371.93 253.04 2373.28 253.187 2374.64 253.48C2376 253.773 2377.24 254.187 2378.36 254.72L2377 258.16C2375.99 257.707 2374.92 257.36 2373.8 257.12C2372.71 256.853 2371.65 256.72 2370.64 256.72C2369.65 256.72 2368.79 256.867 2368.04 257.16C2367.29 257.427 2366.72 257.853 2366.32 258.44C2365.95 259.027 2365.76 259.8 2365.76 260.76C2365.76 261.667 2365.95 262.4 2366.32 262.96C2366.69 263.493 2367.29 263.973 2368.12 264.4C2368.95 264.827 2370 265.333 2371.28 265.92C2372.8 266.613 2374.13 267.293 2375.28 267.96C2376.43 268.627 2377.32 269.44 2377.96 270.4C2378.6 271.36 2378.92 272.653 2378.92 274.28C2378.92 275.587 2378.69 276.747 2378.24 277.76C2377.79 278.747 2377.12 279.587 2376.24 280.28C2375.39 280.973 2374.33 281.507 2373.08 281.88C2371.83 282.227 2370.37 282.4 2368.72 282.4ZM2381.43 282L2390.31 253.32H2395.15L2404.07 282H2399.75L2393.95 262C2393.84 261.573 2393.71 261.12 2393.55 260.64C2393.41 260.133 2393.27 259.587 2393.11 259C2392.97 258.413 2392.84 257.84 2392.71 257.28C2392.6 257.84 2392.47 258.413 2392.31 259C2392.17 259.587 2392.04 260.133 2391.91 260.64C2391.77 261.147 2391.65 261.6 2391.55 262L2385.67 282H2381.43ZM2387.07 273.72L2388.27 270.08H2397.11L2397.99 273.72H2387.07ZM2418.37 282.4C2415.57 282.4 2413.29 281.787 2411.53 280.56C2409.77 279.333 2408.46 277.64 2407.61 275.48C2406.78 273.293 2406.37 270.76 2406.37 267.88C2406.37 265.587 2406.64 263.533 2407.17 261.72C2407.73 259.88 2408.54 258.32 2409.61 257.04C2410.7 255.733 2412.02 254.747 2413.57 254.08C2415.12 253.387 2416.9 253.04 2418.93 253.04C2420.32 253.04 2421.58 253.187 2422.73 253.48C2423.9 253.773 2425.01 254.187 2426.05 254.72L2424.53 258.16C2423.65 257.707 2422.72 257.373 2421.73 257.16C2420.74 256.92 2419.78 256.8 2418.85 256.8C2417.49 256.8 2416.29 257.053 2415.25 257.56C2414.24 258.04 2413.4 258.76 2412.73 259.72C2412.06 260.653 2411.56 261.8 2411.21 263.16C2410.89 264.52 2410.73 266.08 2410.73 267.84C2410.73 270.107 2411 272.04 2411.53 273.64C2412.09 275.24 2412.96 276.467 2414.13 277.32C2415.3 278.147 2416.82 278.56 2418.69 278.56C2419.62 278.56 2420.6 278.453 2421.61 278.24C2422.65 278.027 2423.73 277.68 2424.85 277.2V281.16C2423.76 281.587 2422.68 281.893 2421.61 282.08C2420.57 282.293 2419.49 282.4 2418.37 282.4ZM2436.99 282V257.16H2428.75V253.44H2449.47V257.16H2441.23V282H2436.99ZM2454.46 282V279.08L2460.18 278.52V256.92L2454.46 256.36V253.44H2470.14V256.36L2464.34 256.92V278.52L2470.14 279.08V282H2454.46ZM2485.44 282.4C2483.63 282.4 2482.07 282.053 2480.76 281.36C2479.48 280.667 2478.42 279.68 2477.56 278.4C2476.71 277.093 2476.08 275.547 2475.68 273.76C2475.31 271.947 2475.12 269.933 2475.12 267.72C2475.12 264.733 2475.48 262.133 2476.2 259.92C2476.92 257.707 2478.04 256 2479.56 254.8C2481.11 253.573 2483.08 252.96 2485.48 252.96C2487.3 252.96 2488.86 253.307 2490.16 254C2491.47 254.667 2492.54 255.653 2493.36 256.96C2494.22 258.267 2494.84 259.813 2495.24 261.6C2495.64 263.387 2495.84 265.4 2495.84 267.64C2495.84 269.88 2495.64 271.907 2495.24 273.72C2494.84 275.533 2494.22 277.093 2493.36 278.4C2492.54 279.68 2491.46 280.667 2490.12 281.36C2488.82 282.053 2487.26 282.4 2485.44 282.4ZM2485.52 278.68C2486.99 278.68 2488.16 278.253 2489.04 277.4C2489.92 276.52 2490.55 275.267 2490.92 273.64C2491.32 271.987 2491.52 270 2491.52 267.68C2491.52 264.187 2491.07 261.48 2490.16 259.56C2489.26 257.64 2487.71 256.68 2485.52 256.68C2484.06 256.68 2482.87 257.12 2481.96 258C2481.08 258.853 2480.44 260.107 2480.04 261.76C2479.64 263.387 2479.44 265.36 2479.44 267.68C2479.44 270 2479.64 271.987 2480.04 273.64C2480.44 275.267 2481.08 276.52 2481.96 277.4C2482.87 278.253 2484.06 278.68 2485.52 278.68ZM2499.19 282V253.44H2504.87L2514.39 277H2514.51C2514.45 276.173 2514.4 275.387 2514.35 274.64C2514.32 273.893 2514.29 273.173 2514.27 272.48C2514.24 271.76 2514.21 271.067 2514.19 270.4C2514.19 269.707 2514.19 269.013 2514.19 268.32V253.44H2518.15V282H2512.75L2502.83 257.6H2502.67C2502.72 258.427 2502.77 259.24 2502.83 260.04C2502.91 260.813 2502.96 261.587 2502.99 262.36C2503.04 263.107 2503.08 263.84 2503.11 264.56C2503.13 265.253 2503.15 265.92 2503.15 266.56V282H2499.19Z" fill="black"/>
<path d="M695.95 89L704.83 60.32H709.67L718.59 89H714.27L708.47 69C708.364 68.5733 708.23 68.12 708.07 67.64C707.937 67.1333 707.79 66.5867 707.63 66C707.497 65.4133 707.364 64.84 707.23 64.28C707.124 64.84 706.99 65.4133 706.83 66C706.697 66.5867 706.564 67.1333 706.43 67.64C706.297 68.1467 706.177 68.6 706.07 69L700.19 89H695.95ZM701.59 80.72L702.79 77.08H711.63L712.51 80.72H701.59ZM730.375 89.4C728.188 89.4 726.388 88.9867 724.975 88.16C723.588 87.3067 722.575 86.0933 721.935 84.52C721.295 82.9467 720.975 81.0933 720.975 78.96V60.44H725.215V78.52C725.215 80.0133 725.375 81.3067 725.695 82.4C726.041 83.4667 726.588 84.28 727.335 84.84C728.108 85.4 729.148 85.68 730.455 85.68C731.841 85.68 732.908 85.3867 733.655 84.8C734.428 84.1867 734.961 83.3467 735.255 82.28C735.548 81.1867 735.695 79.92 735.695 78.48V60.44H739.935V79C739.935 81.0267 739.615 82.8267 738.975 84.4C738.361 85.9467 737.348 87.1733 735.935 88.08C734.521 88.96 732.668 89.4 730.375 89.4ZM751.519 89V64.16H743.279V60.44H763.999V64.16H755.759V89H751.519ZM767.343 89V60.44H771.583V72.24H782.063V60.44H786.303V89H782.063V75.96H771.583V89H767.343ZM799.968 89.4C798.154 89.4 796.594 89.0533 795.288 88.36C794.008 87.6667 792.941 86.68 792.088 85.4C791.234 84.0933 790.608 82.5467 790.208 80.76C789.834 78.9467 789.648 76.9333 789.648 74.72C789.648 71.7333 790.008 69.1333 790.728 66.92C791.448 64.7067 792.568 63 794.088 61.8C795.634 60.5733 797.608 59.96 800.008 59.96C801.821 59.96 803.381 60.3067 804.688 61C805.994 61.6667 807.061 62.6533 807.888 63.96C808.741 65.2667 809.368 66.8133 809.768 68.6C810.168 70.3867 810.368 72.4 810.368 74.64C810.368 76.88 810.168 78.9067 809.768 80.72C809.368 82.5333 808.741 84.0933 807.888 85.4C807.061 86.68 805.981 87.6667 804.648 88.36C803.341 89.0533 801.781 89.4 799.968 89.4ZM800.048 85.68C801.514 85.68 802.688 85.2533 803.568 84.4C804.448 83.52 805.074 82.2667 805.448 80.64C805.848 78.9867 806.048 77 806.048 74.68C806.048 71.1867 805.594 68.48 804.688 66.56C803.781 64.64 802.234 63.68 800.048 63.68C798.581 63.68 797.394 64.12 796.488 65C795.608 65.8533 794.968 67.1067 794.568 68.76C794.168 70.3867 793.968 72.36 793.968 74.68C793.968 77 794.168 78.9867 794.568 80.64C794.968 82.2667 795.608 83.52 796.488 84.4C797.394 85.2533 798.581 85.68 800.048 85.68ZM814.832 89V60.44H821.792C824.032 60.44 825.899 60.76 827.392 61.4C828.886 62.0133 830.006 62.92 830.752 64.12C831.526 65.32 831.912 66.8133 831.912 68.6C831.912 70.04 831.686 71.28 831.232 72.32C830.779 73.3333 830.152 74.1867 829.352 74.88C828.579 75.5467 827.686 76.08 826.672 76.48L834.152 89H829.512L822.912 77.6H819.072V89H814.832ZM821.672 73.96C823.059 73.96 824.179 73.7733 825.032 73.4C825.912 73 826.552 72.4267 826.952 71.68C827.379 70.9067 827.592 69.9733 827.592 68.88C827.592 67.12 827.099 65.88 826.112 65.16C825.152 64.44 823.632 64.08 821.552 64.08H819.072V73.96H821.672ZM838.537 89V86.08L844.257 85.52V63.92L838.537 63.36V60.44H854.217V63.36L848.417 63.92V85.52L854.217 86.08V89H838.537ZM861.201 89V85.84L873.481 64.08H862.041V60.44H878.041V63.6L865.801 85.28H878.041V89H861.201ZM884.385 89V60.44H901.505V64.16H888.545V72.24H900.825V75.96H888.545V85.28H901.505V89H884.385Z" fill="black"/>
<path d="M1001.41 141.414C1002.2 140.633 1002.2 139.367 1001.41 138.586L988.686 125.858C987.905 125.077 986.639 125.077 985.858 125.858C985.077 126.639 985.077 127.905 985.858 128.686L997.172 140L985.858 151.314C985.077 152.095 985.077 153.361 985.858 154.142C986.639 154.923 987.905 154.923 988.686 154.142L1001.41 141.414ZM600 140V142H1000V140V138H600V140Z" fill="black"/>
<path d="M681.846 343L672.926 314.44H677.286L682.486 332.52C682.699 333.187 682.899 333.907 683.086 334.68C683.273 335.453 683.459 336.213 683.646 336.96C683.833 337.707 683.979 338.387 684.086 339H684.286C684.393 338.387 684.526 337.72 684.686 337C684.873 336.253 685.059 335.493 685.246 334.72C685.433 333.92 685.619 333.16 685.806 332.44L690.846 314.44H695.246L686.406 343H681.846ZM707.23 343.4C705.417 343.4 703.857 343.053 702.55 342.36C701.27 341.667 700.204 340.68 699.35 339.4C698.497 338.093 697.87 336.547 697.47 334.76C697.097 332.947 696.91 330.933 696.91 328.72C696.91 325.733 697.27 323.133 697.99 320.92C698.71 318.707 699.83 317 701.35 315.8C702.897 314.573 704.87 313.96 707.27 313.96C709.084 313.96 710.644 314.307 711.95 315C713.257 315.667 714.324 316.653 715.15 317.96C716.004 319.267 716.63 320.813 717.03 322.6C717.43 324.387 717.63 326.4 717.63 328.64C717.63 330.88 717.43 332.907 717.03 334.72C716.63 336.533 716.004 338.093 715.15 339.4C714.324 340.68 713.244 341.667 711.91 342.36C710.604 343.053 709.044 343.4 707.23 343.4ZM707.31 339.68C708.777 339.68 709.95 339.253 710.83 338.4C711.71 337.52 712.337 336.267 712.71 334.64C713.11 332.987 713.31 331 713.31 328.68C713.31 325.187 712.857 322.48 711.95 320.56C711.044 318.64 709.497 317.68 707.31 317.68C705.844 317.68 704.657 318.12 703.75 319C702.87 319.853 702.23 321.107 701.83 322.76C701.43 324.387 701.23 326.36 701.23 328.68C701.23 331 701.43 332.987 701.83 334.64C702.23 336.267 702.87 337.52 703.75 338.4C704.657 339.253 705.844 339.68 707.31 339.68ZM722.615 343V340.08L728.335 339.52V317.92L722.615 317.36V314.44H738.295V317.36L732.495 317.92V339.52L738.295 340.08V343H722.615ZM744.159 343V314.44H751.639C754.146 314.44 756.319 314.973 758.159 316.04C760.026 317.107 761.466 318.68 762.479 320.76C763.492 322.813 763.999 325.373 763.999 328.44C763.999 331.613 763.479 334.28 762.439 336.44C761.399 338.6 759.906 340.24 757.959 341.36C756.012 342.453 753.666 343 750.919 343H744.159ZM750.599 339.36C753.719 339.36 756.012 338.453 757.479 336.64C758.946 334.8 759.679 332.107 759.679 328.56C759.679 326.133 759.346 324.16 758.679 322.64C758.039 321.093 757.092 319.947 755.839 319.2C754.586 318.453 753.066 318.08 751.279 318.08H748.359V339.36H750.599ZM769.383 343.04L780.343 314.4H784.263L773.303 343.04H769.383ZM791.648 343V314.44H798.608C800.848 314.44 802.714 314.76 804.208 315.4C805.701 316.013 806.821 316.92 807.568 318.12C808.341 319.32 808.728 320.813 808.728 322.6C808.728 324.04 808.501 325.28 808.048 326.32C807.594 327.333 806.968 328.187 806.168 328.88C805.394 329.547 804.501 330.08 803.488 330.48L810.968 343H806.328L799.728 331.6H795.888V343H791.648ZM798.488 327.96C799.874 327.96 800.994 327.773 801.848 327.4C802.728 327 803.368 326.427 803.768 325.68C804.194 324.907 804.408 323.973 804.408 322.88C804.408 321.12 803.914 319.88 802.928 319.16C801.968 318.44 800.448 318.08 798.368 318.08H795.888V327.96H798.488ZM814.832 343V314.44H831.952V318.16H818.992V326.24H831.272V329.96H818.992V339.28H831.952V343H814.832ZM838.017 343V314.44H855.137V318.16H842.177V327.48H854.457V331.2H842.177V343H838.017ZM869.481 343.4C867.294 343.4 865.494 342.987 864.081 342.16C862.694 341.307 861.681 340.093 861.041 338.52C860.401 336.947 860.081 335.093 860.081 332.96V314.44H864.321V332.52C864.321 334.013 864.481 335.307 864.801 336.4C865.148 337.467 865.694 338.28 866.441 338.84C867.214 339.4 868.254 339.68 869.561 339.68C870.948 339.68 872.014 339.387 872.761 338.8C873.534 338.187 874.068 337.347 874.361 336.28C874.654 335.187 874.801 333.92 874.801 332.48V314.44H879.041V333C879.041 335.027 878.721 336.827 878.081 338.4C877.468 339.947 876.454 341.173 875.041 342.08C873.628 342.96 871.774 343.4 869.481 343.4ZM883.265 343V314.44H888.945L898.465 338H898.585C898.532 337.173 898.479 336.387 898.425 335.64C898.399 334.893 898.372 334.173 898.345 333.48C898.319 332.76 898.292 332.067 898.265 331.4C898.265 330.707 898.265 330.013 898.265 329.32V314.44H902.225V343H896.825L886.905 318.6H886.745C886.799 319.427 886.852 320.24 886.905 321.04C886.985 321.813 887.039 322.587 887.065 323.36C887.119 324.107 887.159 324.84 887.185 325.56C887.212 326.253 887.225 326.92 887.225 327.56V343H883.265ZM906.45 343V314.44H913.93C916.436 314.44 918.61 314.973 920.45 316.04C922.316 317.107 923.756 318.68 924.77 320.76C925.783 322.813 926.29 325.373 926.29 328.44C926.29 331.613 925.77 334.28 924.73 336.44C923.69 338.6 922.196 340.24 920.25 341.36C918.303 342.453 915.956 343 913.21 343H906.45ZM912.89 339.36C916.01 339.36 918.303 338.453 919.77 336.64C921.236 334.8 921.97 332.107 921.97 328.56C921.97 326.133 921.636 324.16 920.97 322.64C920.33 321.093 919.383 319.947 918.13 319.2C916.876 318.453 915.356 318.08 913.57 318.08H910.65V339.36H912.89Z" fill="black"/>
<path d="M598.586 258.586C597.805 259.367 597.805 260.633 598.586 261.414L611.314 274.142C612.095 274.923 613.361 274.923 614.142 274.142C614.923 273.361 614.923 272.095 614.142 271.314L602.828 260L614.142 248.686C614.923 247.905 614.923 246.639 614.142 245.858C613.361 245.077 612.095 245.077 611.314 245.858L598.586 258.586ZM600 260V262H1000V260V258H600V260Z" fill="black"/>
<path d="M722.095 683V654.44H729.055C731.295 654.44 733.161 654.76 734.655 655.4C736.148 656.013 737.268 656.92 738.015 658.12C738.788 659.32 739.175 660.813 739.175 662.6C739.175 664.04 738.948 665.28 738.495 666.32C738.041 667.333 737.415 668.187 736.615 668.88C735.841 669.547 734.948 670.08 733.935 670.48L741.415 683H736.775L730.175 671.6H726.335V683H722.095ZM728.935 667.96C730.321 667.96 731.441 667.773 732.295 667.4C733.175 667 733.815 666.427 734.215 665.68C734.641 664.907 734.855 663.973 734.855 662.88C734.855 661.12 734.361 659.88 733.375 659.16C732.415 658.44 730.895 658.08 728.815 658.08H726.335V667.96H728.935ZM745.279 683V654.44H762.399V658.16H749.439V666.24H761.719V669.96H749.439V679.28H762.399V683H745.279ZM769.143 683V654.44H773.383V679.16H785.583V683H769.143ZM791.648 683V654.44H808.768V658.16H795.808V666.24H808.088V669.96H795.808V679.28H808.768V683H791.648ZM811.872 683L820.752 654.32H825.592L834.512 683H830.192L824.392 663C824.286 662.573 824.152 662.12 823.992 661.64C823.859 661.133 823.712 660.587 823.552 660C823.419 659.413 823.286 658.84 823.152 658.28C823.046 658.84 822.912 659.413 822.752 660C822.619 660.587 822.486 661.133 822.352 661.64C822.219 662.147 822.099 662.6 821.992 663L816.112 683H811.872ZM817.512 674.72L818.712 671.08H827.552L828.432 674.72H817.512ZM845.537 683.4C844.043 683.4 842.59 683.267 841.177 683C839.763 682.707 838.577 682.32 837.617 681.84V677.96C838.737 678.467 840.003 678.907 841.417 679.28C842.83 679.627 844.243 679.8 845.657 679.8C846.883 679.8 847.923 679.64 848.777 679.32C849.63 679 850.27 678.507 850.697 677.84C851.15 677.173 851.377 676.333 851.377 675.32C851.377 674.44 851.177 673.747 850.777 673.24C850.377 672.707 849.71 672.2 848.777 671.72C847.87 671.24 846.63 670.64 845.057 669.92C843.91 669.387 842.803 668.787 841.737 668.12C840.697 667.453 839.843 666.613 839.177 665.6C838.537 664.56 838.217 663.24 838.217 661.64C838.217 659.96 838.59 658.56 839.337 657.44C840.083 656.32 841.137 655.48 842.497 654.92C843.883 654.333 845.523 654.04 847.417 654.04C848.75 654.04 850.097 654.187 851.457 654.48C852.817 654.773 854.057 655.187 855.177 655.72L853.817 659.16C852.803 658.707 851.737 658.36 850.617 658.12C849.523 657.853 848.47 657.72 847.457 657.72C846.47 657.72 845.603 657.867 844.857 658.16C844.11 658.427 843.537 658.853 843.137 659.44C842.763 660.027 842.577 660.8 842.577 661.76C842.577 662.667 842.763 663.4 843.137 663.96C843.51 664.493 844.11 664.973 844.937 665.4C845.763 665.827 846.817 666.333 848.097 666.92C849.617 667.613 850.95 668.293 852.097 668.96C853.243 669.627 854.137 670.44 854.777 671.4C855.417 672.36 855.737 673.653 855.737 675.28C855.737 676.587 855.51 677.747 855.057 678.76C854.603 679.747 853.937 680.587 853.057 681.28C852.203 681.973 851.15 682.507 849.897 682.88C848.643 683.227 847.19 683.4 845.537 683.4ZM861.201 683V654.44H878.321V658.16H865.361V666.24H877.641V669.96H865.361V679.28H878.321V683H861.201Z" fill="black"/>
<path d="M301.414 398.586C300.633 397.805 299.367 397.805 298.586 398.586L285.858 411.314C285.077 412.095 285.077 413.361 285.858 414.142C286.639 414.923 287.905 414.923 288.687 414.142L300 402.828L311.314 414.142C312.095 414.923 313.361 414.923 314.142 414.142C314.923 413.361 314.923 412.095 314.142 411.314L301.414 398.586ZM300.003 578.986L298.003 578.986L300.003 578.986ZM320.002 598.985L320.002 600.985V600.985L320.002 598.985ZM1280 599L1280 597V597L1280 599ZM1300 579L1298 579V579L1300 579ZM300 400L298 400L298.003 578.986L300.003 578.986L302.003 578.986L302 400L300 400ZM320.002 598.985L320.002 600.985L1280 601L1280 599L1280 597L320.002 596.985L320.002 598.985ZM1300 579L1302 579L1302 399L1300 399L1298 399L1298 579L1300 579ZM1280 599L1280 601C1292.15 601 1302 591.15 1302 579L1300 579L1298 579C1298 588.941 1289.94 597 1280 597L1280 599ZM300.003 578.986L298.003 578.986C298.003 591.136 307.852 600.985 320.002 600.985L320.002 598.985L320.002 596.985C310.062 596.985 302.003 588.926 302.003 578.986L300.003 578.986Z" fill="black"/>
<path d="M1733.69 343V314.44H1740.65C1742.89 314.44 1744.75 314.76 1746.25 315.4C1747.74 316.013 1748.86 316.92 1749.61 318.12C1750.38 319.32 1750.77 320.813 1750.77 322.6C1750.77 324.04 1750.54 325.28 1750.09 326.32C1749.63 327.333 1749.01 328.187 1748.21 328.88C1747.43 329.547 1746.54 330.08 1745.53 330.48L1753.01 343H1748.37L1741.77 331.6H1737.93V343H1733.69ZM1740.53 327.96C1741.91 327.96 1743.03 327.773 1743.89 327.4C1744.77 327 1745.41 326.427 1745.81 325.68C1746.23 324.907 1746.45 323.973 1746.45 322.88C1746.45 321.12 1745.95 319.88 1744.97 319.16C1744.01 318.44 1742.49 318.08 1740.41 318.08H1737.93V327.96H1740.53ZM1756.87 343V314.44H1773.99V318.16H1761.03V326.24H1773.31V329.96H1761.03V339.28H1773.99V343H1756.87ZM1780.06 343V314.44H1797.18V318.16H1784.22V327.48H1796.5V331.2H1784.22V343H1780.06ZM1811.52 343.4C1809.33 343.4 1807.53 342.987 1806.12 342.16C1804.73 341.307 1803.72 340.093 1803.08 338.52C1802.44 336.947 1802.12 335.093 1802.12 332.96V314.44H1806.36V332.52C1806.36 334.013 1806.52 335.307 1806.84 336.4C1807.19 337.467 1807.73 338.28 1808.48 338.84C1809.25 339.4 1810.29 339.68 1811.6 339.68C1812.99 339.68 1814.05 339.387 1814.8 338.8C1815.57 338.187 1816.11 337.347 1816.4 336.28C1816.69 335.187 1816.84 333.92 1816.84 332.48V314.44H1821.08V333C1821.08 335.027 1820.76 336.827 1820.12 338.4C1819.51 339.947 1818.49 341.173 1817.08 342.08C1815.67 342.96 1813.81 343.4 1811.52 343.4ZM1825.3 343V314.44H1830.98L1840.5 338H1840.62C1840.57 337.173 1840.52 336.387 1840.46 335.64C1840.44 334.893 1840.41 334.173 1840.38 333.48C1840.36 332.76 1840.33 332.067 1840.3 331.4C1840.3 330.707 1840.3 330.013 1840.3 329.32V314.44H1844.26V343H1838.86L1828.94 318.6H1828.78C1828.84 319.427 1828.89 320.24 1828.94 321.04C1829.02 321.813 1829.08 322.587 1829.1 323.36C1829.16 324.107 1829.2 324.84 1829.22 325.56C1829.25 326.253 1829.26 326.92 1829.26 327.56V343H1825.3ZM1848.49 343V314.44H1855.97C1858.48 314.44 1860.65 314.973 1862.49 316.04C1864.36 317.107 1865.8 318.68 1866.81 320.76C1867.82 322.813 1868.33 325.373 1868.33 328.44C1868.33 331.613 1867.81 334.28 1866.77 336.44C1865.73 338.6 1864.24 340.24 1862.29 341.36C1860.34 342.453 1858 343 1855.25 343H1848.49ZM1854.93 339.36C1858.05 339.36 1860.34 338.453 1861.81 336.64C1863.28 334.8 1864.01 332.107 1864.01 328.56C1864.01 326.133 1863.68 324.16 1863.01 322.64C1862.37 321.093 1861.42 319.947 1860.17 319.2C1858.92 318.453 1857.4 318.08 1855.61 318.08H1852.69V339.36H1854.93Z" fill="black"/>
<path d="M1598.59 258.586C1597.8 259.367 1597.8 260.633 1598.59 261.414L1611.31 274.142C1612.09 274.923 1613.36 274.923 1614.14 274.142C1614.92 273.361 1614.92 272.095 1614.14 271.314L1602.83 260L1614.14 248.686C1614.92 247.905 1614.92 246.639 1614.14 245.858C1613.36 245.077 1612.09 245.077 1611.31 245.858L1598.59 258.586ZM1600 260V262H2000V260V258H1600V260Z" fill="black"/>
<path d="M1732.89 89.4C1730.09 89.4 1727.81 88.7867 1726.05 87.56C1724.29 86.3333 1722.99 84.64 1722.13 82.48C1721.31 80.2933 1720.89 77.76 1720.89 74.88C1720.89 72.5867 1721.16 70.5333 1721.69 68.72C1722.25 66.88 1723.07 65.32 1724.13 64.04C1725.23 62.7333 1726.55 61.7467 1728.09 61.08C1729.64 60.3867 1731.43 60.04 1733.45 60.04C1734.84 60.04 1736.11 60.1867 1737.25 60.48C1738.43 60.7733 1739.53 61.1867 1740.57 61.72L1739.05 65.16C1738.17 64.7067 1737.24 64.3733 1736.25 64.16C1735.27 63.92 1734.31 63.8 1733.37 63.8C1732.01 63.8 1730.81 64.0533 1729.77 64.56C1728.76 65.04 1727.92 65.76 1727.25 66.72C1726.59 67.6533 1726.08 68.8 1725.73 70.16C1725.41 71.52 1725.25 73.08 1725.25 74.84C1725.25 77.1067 1725.52 79.04 1726.05 80.64C1726.61 82.24 1727.48 83.4667 1728.65 84.32C1729.83 85.1467 1731.35 85.56 1733.21 85.56C1734.15 85.56 1735.12 85.4533 1736.13 85.24C1737.17 85.0267 1738.25 84.68 1739.37 84.2V88.16C1738.28 88.5867 1737.2 88.8933 1736.13 89.08C1735.09 89.2933 1734.01 89.4 1732.89 89.4ZM1742.32 89L1751.2 60.32H1756.04L1764.96 89H1760.64L1754.84 69C1754.73 68.5733 1754.6 68.12 1754.44 67.64C1754.31 67.1333 1754.16 66.5867 1754 66C1753.87 65.4133 1753.73 64.84 1753.6 64.28C1753.49 64.84 1753.36 65.4133 1753.2 66C1753.07 66.5867 1752.93 67.1333 1752.8 67.64C1752.67 68.1467 1752.55 68.6 1752.44 69L1746.56 89H1742.32ZM1747.96 80.72L1749.16 77.08H1758L1758.88 80.72H1747.96ZM1768.46 89V60.44H1776.98C1780.37 60.44 1782.85 61.1867 1784.42 62.68C1786 64.1467 1786.78 66.24 1786.78 68.96C1786.78 70.6133 1786.45 72.16 1785.78 73.6C1785.14 75.0133 1784.06 76.1467 1782.54 77C1781.05 77.8267 1779.04 78.24 1776.5 78.24H1772.62V89H1768.46ZM1776.06 74.6C1777.5 74.6 1778.7 74.4133 1779.66 74.04C1780.62 73.64 1781.33 73.04 1781.78 72.24C1782.26 71.44 1782.5 70.4133 1782.5 69.16C1782.5 67.3467 1782.04 66.0533 1781.1 65.28C1780.17 64.48 1778.7 64.08 1776.7 64.08H1772.62V74.6H1776.06ZM1797.89 89V64.16H1789.65V60.44H1810.37V64.16H1802.13V89H1797.89ZM1823.11 89.4C1820.93 89.4 1819.13 88.9867 1817.71 88.16C1816.33 87.3067 1815.31 86.0933 1814.67 84.52C1814.03 82.9467 1813.71 81.0933 1813.71 78.96V60.44H1817.95V78.52C1817.95 80.0133 1818.11 81.3067 1818.43 82.4C1818.78 83.4667 1819.33 84.28 1820.07 84.84C1820.85 85.4 1821.89 85.68 1823.19 85.68C1824.58 85.68 1825.65 85.3867 1826.39 84.8C1827.17 84.1867 1827.7 83.3467 1827.99 82.28C1828.29 81.1867 1828.43 79.92 1828.43 78.48V60.44H1832.67V79C1832.67 81.0267 1832.35 82.8267 1831.71 84.4C1831.1 85.9467 1830.09 87.1733 1828.67 88.08C1827.26 88.96 1825.41 89.4 1823.11 89.4ZM1838.02 89V60.44H1844.98C1847.22 60.44 1849.08 60.76 1850.58 61.4C1852.07 62.0133 1853.19 62.92 1853.94 64.12C1854.71 65.32 1855.1 66.8133 1855.1 68.6C1855.1 70.04 1854.87 71.28 1854.42 72.32C1853.96 73.3333 1853.34 74.1867 1852.54 74.88C1851.76 75.5467 1850.87 76.08 1849.86 76.48L1857.34 89H1852.7L1846.1 77.6H1842.26V89H1838.02ZM1844.86 73.96C1846.24 73.96 1847.36 73.7733 1848.22 73.4C1849.1 73 1849.74 72.4267 1850.14 71.68C1850.56 70.9067 1850.78 69.9733 1850.78 68.88C1850.78 67.12 1850.28 65.88 1849.3 65.16C1848.34 64.44 1846.82 64.08 1844.74 64.08H1842.26V73.96H1844.86ZM1861.2 89V60.44H1878.32V64.16H1865.36V72.24H1877.64V75.96H1865.36V85.28H1878.32V89H1861.2Z" fill="black"/>
<path d="M2001.41 141.414C2002.2 140.633 2002.2 139.367 2001.41 138.586L1988.69 125.858C1987.91 125.077 1986.64 125.077 1985.86 125.858C1985.08 126.639 1985.08 127.905 1985.86 128.686L1997.17 140L1985.86 151.314C1985.08 152.095 1985.08 153.361 1985.86 154.142C1986.64 154.923 1987.91 154.923 1988.69 154.142L2001.41 141.414ZM1600 140V142H2000V140V138H1600V140Z" fill="black"/>
</svg>
