<svg width="343.48" height="102.912" viewBox="0 0 343.48 102.912" fill="none" xmlns="http://www.w3.org/2000/svg">
<path transform="translate(-7.373 -39.08)" d="M7.373 137V128.168L27.469 125.736V79.272L9.805 77.48V68.008H38.093L39.885 80.296H40.525C42.9143 75.944 45.6023 72.616 48.589 70.312C51.661 67.9227 55.5863 66.728 60.365 66.728C62.8397 66.728 65.1863 66.9413 67.405 67.368C69.709 67.7947 71.8423 68.4773 73.805 69.416L70.221 81.576C68.8557 80.8933 67.2343 80.3387 65.357 79.912C63.565 79.4 61.645 79.144 59.597 79.144C55.8423 79.144 52.557 80.2107 49.741 82.344C47.0103 84.4773 44.877 87.336 43.341 90.92C41.8903 94.504 41.165 98.472 41.165 102.824V125.736L60.621 128.168V137H7.373ZM99.867 138.28C92.955 138.28 87.4937 136.531 83.483 133.032C79.4723 129.533 77.467 124.456 77.467 117.8C77.467 112.765 78.619 108.627 80.923 105.384C83.3123 102.056 86.7683 99.5813 91.291 97.96C95.899 96.2533 101.446 95.3147 107.931 95.144L122.907 94.76V91.816C122.907 86.5253 121.456 82.856 118.555 80.808C115.739 78.76 111.814 77.736 106.779 77.736C103.28 77.736 99.867 78.1627 96.539 79.016C93.211 79.8693 89.9257 81.1067 86.683 82.728L82.203 72.744C85.6163 71.0373 89.371 69.6293 93.467 68.52C97.6483 67.3253 102.299 66.728 107.419 66.728C116.379 66.728 123.291 68.6907 128.155 72.616C133.019 76.5413 135.451 82.6427 135.451 90.92V137H124.827L123.035 127.656H122.523C120.56 130.131 118.427 132.136 116.123 133.672C113.904 135.208 111.43 136.36 108.699 137.128C105.968 137.896 103.024 138.28 99.867 138.28ZM103.195 127.4C106.779 127.4 110.064 126.76 113.051 125.48C116.038 124.115 118.427 122.152 120.219 119.592C122.011 116.947 122.907 113.704 122.907 109.864V103.848L111.131 104.104C106.267 104.275 102.299 104.872 99.227 105.896C96.2403 106.92 94.0217 108.371 92.571 110.248C91.2057 112.125 90.523 114.387 90.523 117.032C90.523 120.701 91.675 123.347 93.979 124.968C96.3683 126.589 99.4403 127.4 103.195 127.4ZM147.817 137V128.168L171.881 125.736V79.272L150.249 77.48V68.008H185.577V125.736L207.849 128.168V137H147.817ZM177.897 56.872C175.252 56.872 173.076 56.1467 171.369 54.696C169.748 53.16 168.937 50.9413 168.937 48.04C168.937 45.0533 169.748 42.8347 171.369 41.384C173.076 39.848 175.294 39.08 178.025 39.08C180.67 39.08 182.804 39.848 184.425 41.384C186.132 42.8347 186.985 45.0533 186.985 48.04C186.985 50.9413 186.132 53.16 184.425 54.696C182.804 56.1467 180.628 56.872 177.897 56.872ZM216.887 137V128.168L241.335 125.736V50.984L218.807 48.68V39.72H255.031V125.736L276.919 128.168V137H216.887ZM293.381 141.992L284.549 136.872L342.277 41L350.853 46.12L293.381 141.992ZM317.317 138.28C311.514 138.28 306.522 137.171 302.341 134.952C298.245 132.733 294.832 129.576 292.101 125.48C289.37 121.299 287.365 116.349 286.085 110.632C284.89 104.829 284.293 98.3867 284.293 91.304C284.293 81.7467 285.445 73.4267 287.749 66.344C290.053 59.2613 293.637 53.8 298.501 49.96C303.45 46.0347 309.765 44.072 317.445 44.072C323.248 44.072 328.24 45.1813 332.421 47.4C336.602 49.5333 340.016 52.6907 342.661 56.872C345.392 61.0533 347.397 66.0027 348.677 71.72C349.957 77.4373 350.597 83.88 350.597 91.048C350.597 98.216 349.957 104.701 348.677 110.504C347.397 116.307 345.392 121.299 342.661 125.48C340.016 129.576 336.56 132.733 332.293 134.952C328.112 137.171 323.12 138.28 317.317 138.28ZM317.573 126.376C322.266 126.376 326.021 125.011 328.837 122.28C331.653 119.464 333.658 115.453 334.853 110.248C336.133 104.957 336.773 98.6 336.773 91.176C336.773 79.9973 335.322 71.336 332.421 65.192C329.52 59.048 324.57 55.976 317.573 55.976C312.88 55.976 309.082 57.384 306.181 60.2C303.365 62.9307 301.317 66.9413 300.037 72.232C298.757 77.4373 298.117 83.752 298.117 91.176C298.117 98.6 298.757 104.957 300.037 110.248C301.317 115.453 303.365 119.464 306.181 122.28C309.082 125.011 312.88 126.376 317.573 126.376Z" fill="black"/>
</svg>
